G04 EAGLE Gerber X2 export*
%TF.Part,Single*%
%TF.FileFunction,Copper,L2,Bot,Mixed*%
%TF.FilePolarity,Positive*%
%TF.GenerationSoftware,Autodesk,EAGLE,9.1.3*%
%TF.CreationDate,2019-04-17T09:40:26Z*%
G75*
%MOMM*%
%FSLAX34Y34*%
%LPD*%
%AMOC8*
5,1,8,0,0,1.08239X$1,22.5*%
G01*
%ADD10R,2.540000X2.540000*%
%ADD11P,2.749271X8X202.500000*%
%ADD12C,1.524000*%
%ADD13C,0.756400*%
%ADD14C,0.609600*%
%ADD15C,0.304800*%
%ADD16C,2.540000*%
%ADD17C,0.812800*%

G36*
X244898Y104406D02*
X244898Y104406D01*
X244966Y104407D01*
X245019Y104425D01*
X245074Y104434D01*
X245134Y104466D01*
X245198Y104489D01*
X245242Y104523D01*
X245291Y104550D01*
X245338Y104599D01*
X245391Y104641D01*
X245422Y104687D01*
X245460Y104728D01*
X245489Y104789D01*
X245526Y104846D01*
X245541Y104900D01*
X245564Y104951D01*
X245572Y105018D01*
X245589Y105084D01*
X245585Y105140D01*
X245591Y105195D01*
X245577Y105262D01*
X245572Y105329D01*
X245551Y105381D01*
X245539Y105436D01*
X245504Y105494D01*
X245478Y105557D01*
X245441Y105599D01*
X245413Y105647D01*
X245361Y105691D01*
X245317Y105742D01*
X245251Y105785D01*
X245226Y105807D01*
X245206Y105815D01*
X245176Y105834D01*
X245119Y105864D01*
X243825Y106804D01*
X242694Y107935D01*
X241754Y109229D01*
X241028Y110654D01*
X240533Y112175D01*
X240283Y113754D01*
X240283Y120651D01*
X249682Y120651D01*
X249702Y120654D01*
X249721Y120652D01*
X249823Y120674D01*
X249925Y120691D01*
X249942Y120700D01*
X249962Y120704D01*
X250051Y120757D01*
X250142Y120806D01*
X250156Y120820D01*
X250173Y120830D01*
X250240Y120909D01*
X250311Y120984D01*
X250320Y121002D01*
X250333Y121017D01*
X250371Y121113D01*
X250415Y121207D01*
X250417Y121227D01*
X250425Y121245D01*
X250443Y121412D01*
X250443Y122175D01*
X250445Y122175D01*
X250445Y121412D01*
X250448Y121392D01*
X250446Y121373D01*
X250468Y121271D01*
X250485Y121169D01*
X250494Y121152D01*
X250498Y121132D01*
X250551Y121043D01*
X250600Y120952D01*
X250614Y120938D01*
X250624Y120921D01*
X250703Y120854D01*
X250778Y120783D01*
X250796Y120774D01*
X250811Y120761D01*
X250907Y120722D01*
X251001Y120679D01*
X251021Y120677D01*
X251039Y120669D01*
X251206Y120651D01*
X260605Y120651D01*
X260605Y113754D01*
X260355Y112175D01*
X259860Y110654D01*
X259134Y109229D01*
X258194Y107935D01*
X257063Y106804D01*
X255769Y105864D01*
X255712Y105834D01*
X255657Y105794D01*
X255597Y105762D01*
X255558Y105722D01*
X255513Y105689D01*
X255474Y105633D01*
X255428Y105584D01*
X255404Y105533D01*
X255372Y105488D01*
X255353Y105423D01*
X255324Y105361D01*
X255318Y105305D01*
X255302Y105252D01*
X255304Y105184D01*
X255297Y105117D01*
X255309Y105062D01*
X255311Y105006D01*
X255335Y104943D01*
X255349Y104876D01*
X255378Y104828D01*
X255398Y104776D01*
X255440Y104723D01*
X255475Y104665D01*
X255518Y104629D01*
X255553Y104585D01*
X255611Y104549D01*
X255662Y104505D01*
X255714Y104484D01*
X255761Y104454D01*
X255827Y104439D01*
X255890Y104413D01*
X255969Y104405D01*
X256001Y104397D01*
X256021Y104399D01*
X256057Y104395D01*
X653542Y104395D01*
X653561Y104398D01*
X653592Y104396D01*
X654885Y104481D01*
X654908Y104486D01*
X655032Y104505D01*
X657530Y105175D01*
X657544Y105181D01*
X657560Y105183D01*
X657588Y105196D01*
X657589Y105196D01*
X657713Y105251D01*
X659953Y106544D01*
X659965Y106554D01*
X659980Y106560D01*
X660111Y106665D01*
X661939Y108493D01*
X661948Y108506D01*
X661961Y108516D01*
X662060Y108651D01*
X663353Y110891D01*
X663359Y110905D01*
X663368Y110918D01*
X663429Y111074D01*
X664099Y113572D01*
X664101Y113596D01*
X664123Y113719D01*
X664208Y115012D01*
X664206Y115031D01*
X664209Y115062D01*
X664209Y319024D01*
X664206Y319043D01*
X664208Y319074D01*
X664121Y320400D01*
X664115Y320423D01*
X664096Y320547D01*
X663410Y323109D01*
X663403Y323123D01*
X663401Y323139D01*
X663334Y323293D01*
X662008Y325590D01*
X661998Y325602D01*
X661992Y325616D01*
X661887Y325747D01*
X660011Y327623D01*
X659999Y327632D01*
X659989Y327644D01*
X659854Y327744D01*
X657557Y329070D01*
X657542Y329075D01*
X657529Y329085D01*
X657373Y329146D01*
X654811Y329832D01*
X654787Y329835D01*
X654664Y329857D01*
X653338Y329944D01*
X653319Y329942D01*
X653288Y329945D01*
X375305Y329945D01*
X375235Y329934D01*
X375163Y329932D01*
X375114Y329914D01*
X375063Y329906D01*
X374999Y329872D01*
X374932Y329847D01*
X374891Y329815D01*
X374845Y329790D01*
X374796Y329738D01*
X374740Y329694D01*
X374712Y329650D01*
X374676Y329612D01*
X374646Y329547D01*
X374607Y329487D01*
X374594Y329436D01*
X374572Y329389D01*
X374564Y329318D01*
X374547Y329248D01*
X374551Y329196D01*
X374545Y329145D01*
X374560Y329074D01*
X374566Y329003D01*
X374586Y328955D01*
X374597Y328904D01*
X374634Y328843D01*
X374662Y328777D01*
X374707Y328721D01*
X374724Y328693D01*
X374741Y328678D01*
X374767Y328646D01*
X376670Y326742D01*
X377274Y325286D01*
X377322Y325209D01*
X377363Y325127D01*
X377386Y325105D01*
X377403Y325077D01*
X377473Y325019D01*
X377539Y324955D01*
X377575Y324935D01*
X377593Y324920D01*
X377623Y324909D01*
X377686Y324874D01*
X378239Y324645D01*
X380525Y322359D01*
X381763Y319371D01*
X381763Y316137D01*
X380525Y313149D01*
X378239Y310863D01*
X378194Y310844D01*
X378116Y310796D01*
X378035Y310755D01*
X378012Y310732D01*
X377985Y310715D01*
X377927Y310644D01*
X377863Y310579D01*
X377843Y310543D01*
X377828Y310525D01*
X377816Y310495D01*
X377782Y310432D01*
X376670Y307750D01*
X375529Y306608D01*
X375487Y306550D01*
X375438Y306498D01*
X375416Y306451D01*
X375386Y306409D01*
X375365Y306340D01*
X375334Y306275D01*
X375329Y306223D01*
X375313Y306173D01*
X375315Y306102D01*
X375307Y306031D01*
X375318Y305980D01*
X375320Y305928D01*
X375344Y305860D01*
X375359Y305790D01*
X375386Y305745D01*
X375404Y305697D01*
X375449Y305641D01*
X375486Y305579D01*
X375525Y305545D01*
X375558Y305505D01*
X375618Y305466D01*
X375673Y305419D01*
X375721Y305400D01*
X375765Y305372D01*
X375834Y305354D01*
X375901Y305327D01*
X375972Y305319D01*
X376003Y305311D01*
X376027Y305313D01*
X376067Y305309D01*
X465932Y305309D01*
X467986Y304458D01*
X474532Y297912D01*
X474606Y297859D01*
X474675Y297799D01*
X474706Y297787D01*
X474732Y297768D01*
X474819Y297741D01*
X474904Y297707D01*
X474944Y297703D01*
X474967Y297696D01*
X474999Y297697D01*
X475070Y297689D01*
X611396Y297689D01*
X611487Y297703D01*
X611577Y297711D01*
X611607Y297723D01*
X611639Y297728D01*
X611720Y297771D01*
X611804Y297807D01*
X611836Y297833D01*
X611857Y297844D01*
X611879Y297867D01*
X611935Y297912D01*
X612775Y298752D01*
X615659Y299947D01*
X618781Y299947D01*
X621665Y298752D01*
X623872Y296545D01*
X625067Y293661D01*
X625067Y290539D01*
X623872Y287655D01*
X621665Y285448D01*
X618781Y284253D01*
X615659Y284253D01*
X612775Y285448D01*
X611935Y286288D01*
X611861Y286341D01*
X611791Y286401D01*
X611761Y286413D01*
X611735Y286432D01*
X611648Y286459D01*
X611563Y286493D01*
X611522Y286497D01*
X611500Y286504D01*
X611468Y286503D01*
X611396Y286511D01*
X471328Y286511D01*
X469274Y287362D01*
X467956Y288680D01*
X467919Y288707D01*
X467888Y288741D01*
X467819Y288778D01*
X467756Y288824D01*
X467712Y288837D01*
X467672Y288859D01*
X467596Y288873D01*
X467521Y288896D01*
X467475Y288895D01*
X467430Y288903D01*
X467353Y288892D01*
X467275Y288890D01*
X467232Y288874D01*
X467187Y288867D01*
X467117Y288832D01*
X467044Y288805D01*
X467008Y288777D01*
X466968Y288756D01*
X466913Y288700D01*
X466852Y288652D01*
X466827Y288613D01*
X466795Y288580D01*
X466729Y288460D01*
X466719Y288445D01*
X466718Y288440D01*
X466714Y288433D01*
X466392Y287655D01*
X464185Y285448D01*
X461301Y284253D01*
X458179Y284253D01*
X455295Y285448D01*
X454455Y286288D01*
X454381Y286341D01*
X454311Y286401D01*
X454281Y286413D01*
X454255Y286432D01*
X454168Y286459D01*
X454083Y286493D01*
X454042Y286497D01*
X454020Y286504D01*
X453988Y286503D01*
X453916Y286511D01*
X393790Y286511D01*
X393700Y286497D01*
X393609Y286489D01*
X393579Y286477D01*
X393548Y286472D01*
X393467Y286429D01*
X393383Y286393D01*
X393351Y286367D01*
X393330Y286356D01*
X393308Y286333D01*
X393252Y286288D01*
X366210Y259246D01*
X366157Y259172D01*
X366097Y259103D01*
X366085Y259072D01*
X366066Y259046D01*
X366039Y258959D01*
X366005Y258874D01*
X366001Y258834D01*
X365994Y258811D01*
X365995Y258779D01*
X365987Y258708D01*
X365987Y257519D01*
X364792Y254635D01*
X362585Y252428D01*
X359701Y251233D01*
X356579Y251233D01*
X353695Y252428D01*
X351488Y254635D01*
X350293Y257519D01*
X350293Y260641D01*
X351488Y263525D01*
X353695Y265732D01*
X356579Y266927D01*
X357768Y266927D01*
X357858Y266941D01*
X357949Y266949D01*
X357979Y266961D01*
X358010Y266966D01*
X358091Y267009D01*
X358175Y267045D01*
X358207Y267071D01*
X358228Y267082D01*
X358250Y267105D01*
X358306Y267150D01*
X383988Y292832D01*
X384030Y292890D01*
X384079Y292942D01*
X384101Y292989D01*
X384132Y293031D01*
X384153Y293100D01*
X384183Y293165D01*
X384189Y293217D01*
X384204Y293267D01*
X384202Y293338D01*
X384210Y293409D01*
X384199Y293460D01*
X384198Y293512D01*
X384173Y293580D01*
X384158Y293650D01*
X384131Y293695D01*
X384113Y293743D01*
X384068Y293799D01*
X384032Y293861D01*
X383992Y293895D01*
X383959Y293935D01*
X383899Y293974D01*
X383845Y294021D01*
X383796Y294040D01*
X383753Y294068D01*
X383683Y294086D01*
X383617Y294113D01*
X383545Y294121D01*
X383514Y294129D01*
X383491Y294127D01*
X383450Y294131D01*
X335399Y294131D01*
X335284Y294112D01*
X335168Y294095D01*
X335162Y294093D01*
X335156Y294092D01*
X335054Y294037D01*
X334949Y293984D01*
X334944Y293979D01*
X334939Y293976D01*
X334859Y293892D01*
X334777Y293808D01*
X334773Y293802D01*
X334770Y293798D01*
X334762Y293781D01*
X334696Y293661D01*
X334312Y292735D01*
X332105Y290528D01*
X329221Y289333D01*
X326099Y289333D01*
X323215Y290528D01*
X321008Y292735D01*
X319813Y295619D01*
X319813Y298741D01*
X320098Y299429D01*
X320109Y299473D01*
X320128Y299515D01*
X320137Y299592D01*
X320154Y299668D01*
X320150Y299714D01*
X320155Y299759D01*
X320139Y299836D01*
X320131Y299913D01*
X320113Y299955D01*
X320103Y300000D01*
X320063Y300067D01*
X320031Y300138D01*
X320000Y300172D01*
X319977Y300211D01*
X319918Y300262D01*
X319865Y300319D01*
X319825Y300341D01*
X319790Y300371D01*
X319717Y300400D01*
X319649Y300437D01*
X319604Y300446D01*
X319562Y300463D01*
X319426Y300478D01*
X319407Y300481D01*
X319402Y300480D01*
X319395Y300481D01*
X300122Y300481D01*
X300031Y300467D01*
X299941Y300459D01*
X299911Y300447D01*
X299879Y300442D01*
X299798Y300399D01*
X299714Y300363D01*
X299682Y300337D01*
X299661Y300326D01*
X299639Y300303D01*
X299583Y300258D01*
X284986Y285661D01*
X284933Y285587D01*
X284873Y285517D01*
X284861Y285487D01*
X284842Y285461D01*
X284815Y285374D01*
X284781Y285289D01*
X284777Y285248D01*
X284770Y285226D01*
X284771Y285194D01*
X284763Y285122D01*
X284763Y229103D01*
X282210Y222942D01*
X277388Y218119D01*
X277387Y218118D01*
X231257Y171988D01*
X231215Y171930D01*
X231166Y171878D01*
X231144Y171831D01*
X231114Y171789D01*
X231093Y171720D01*
X231062Y171655D01*
X231057Y171603D01*
X231041Y171553D01*
X231043Y171482D01*
X231035Y171411D01*
X231046Y171360D01*
X231048Y171308D01*
X231072Y171240D01*
X231087Y171170D01*
X231114Y171126D01*
X231132Y171077D01*
X231177Y171021D01*
X231214Y170959D01*
X231253Y170925D01*
X231286Y170885D01*
X231346Y170846D01*
X231401Y170799D01*
X231449Y170780D01*
X231493Y170752D01*
X231562Y170734D01*
X231629Y170707D01*
X231700Y170699D01*
X231731Y170691D01*
X231755Y170693D01*
X231795Y170689D01*
X248830Y170689D01*
X248920Y170703D01*
X249011Y170711D01*
X249041Y170723D01*
X249072Y170728D01*
X249153Y170771D01*
X249237Y170807D01*
X249269Y170833D01*
X249290Y170844D01*
X249312Y170867D01*
X249368Y170912D01*
X283854Y205398D01*
X285908Y206249D01*
X302170Y206249D01*
X302260Y206263D01*
X302351Y206271D01*
X302381Y206283D01*
X302412Y206288D01*
X302493Y206331D01*
X302577Y206367D01*
X302609Y206393D01*
X302630Y206404D01*
X302652Y206427D01*
X302708Y206472D01*
X314228Y217992D01*
X314281Y218066D01*
X314341Y218135D01*
X314353Y218166D01*
X314372Y218192D01*
X314399Y218279D01*
X314433Y218364D01*
X314437Y218404D01*
X314444Y218427D01*
X314443Y218459D01*
X314451Y218530D01*
X314451Y219552D01*
X315302Y221606D01*
X329574Y235878D01*
X331628Y236729D01*
X338932Y236729D01*
X340986Y235878D01*
X352718Y224146D01*
X353569Y222092D01*
X353569Y213450D01*
X353583Y213360D01*
X353591Y213269D01*
X353603Y213239D01*
X353608Y213208D01*
X353651Y213127D01*
X353687Y213043D01*
X353713Y213011D01*
X353724Y212990D01*
X353747Y212968D01*
X353792Y212912D01*
X360084Y206620D01*
X360121Y206593D01*
X360152Y206559D01*
X360195Y206536D01*
X360222Y206513D01*
X360247Y206502D01*
X360284Y206476D01*
X360328Y206463D01*
X360368Y206441D01*
X360428Y206430D01*
X360450Y206421D01*
X360472Y206418D01*
X360519Y206404D01*
X360565Y206405D01*
X360610Y206397D01*
X360687Y206408D01*
X360765Y206410D01*
X360808Y206426D01*
X360853Y206433D01*
X360923Y206468D01*
X360996Y206495D01*
X361032Y206523D01*
X361072Y206544D01*
X361127Y206600D01*
X361188Y206648D01*
X361213Y206687D01*
X361245Y206720D01*
X361252Y206734D01*
X361254Y206735D01*
X361258Y206744D01*
X361311Y206840D01*
X361321Y206855D01*
X361322Y206860D01*
X361326Y206867D01*
X361648Y207645D01*
X363855Y209852D01*
X366739Y211047D01*
X369861Y211047D01*
X372745Y209852D01*
X373585Y209012D01*
X373659Y208959D01*
X373729Y208899D01*
X373759Y208887D01*
X373785Y208868D01*
X373872Y208841D01*
X373957Y208807D01*
X373998Y208803D01*
X374020Y208796D01*
X374052Y208797D01*
X374124Y208789D01*
X380095Y208789D01*
X380142Y208796D01*
X380190Y208795D01*
X380263Y208816D01*
X380337Y208828D01*
X380380Y208851D01*
X380426Y208865D01*
X380488Y208908D01*
X380555Y208944D01*
X380588Y208978D01*
X380627Y209006D01*
X380672Y209067D01*
X380724Y209122D01*
X380744Y209165D01*
X380773Y209204D01*
X380796Y209276D01*
X380828Y209345D01*
X380833Y209393D01*
X380848Y209438D01*
X380846Y209514D01*
X380855Y209589D01*
X380845Y209636D01*
X380844Y209684D01*
X380819Y209756D01*
X380803Y209830D01*
X380778Y209871D01*
X380762Y209916D01*
X380715Y209976D01*
X380676Y210041D01*
X380640Y210072D01*
X380610Y210110D01*
X380507Y210186D01*
X380489Y210201D01*
X380483Y210203D01*
X380475Y210209D01*
X378215Y211514D01*
X373058Y216671D01*
X369411Y222988D01*
X367523Y230033D01*
X367523Y237327D01*
X369411Y244372D01*
X373058Y250689D01*
X378215Y255846D01*
X384532Y259493D01*
X391577Y261381D01*
X398871Y261381D01*
X405916Y259493D01*
X412233Y255846D01*
X417390Y250689D01*
X421037Y244372D01*
X422925Y237327D01*
X422925Y230033D01*
X421850Y226023D01*
X421845Y225975D01*
X421831Y225929D01*
X421833Y225853D01*
X421826Y225778D01*
X421836Y225731D01*
X421838Y225683D01*
X421864Y225612D01*
X421881Y225538D01*
X421906Y225497D01*
X421922Y225452D01*
X421969Y225393D01*
X422009Y225328D01*
X422046Y225298D01*
X422076Y225260D01*
X422139Y225219D01*
X422198Y225171D01*
X422242Y225153D01*
X422283Y225127D01*
X422356Y225109D01*
X422427Y225081D01*
X422475Y225079D01*
X422521Y225067D01*
X422597Y225073D01*
X422672Y225069D01*
X422719Y225083D01*
X422766Y225086D01*
X422836Y225116D01*
X422909Y225137D01*
X422949Y225164D01*
X422993Y225183D01*
X423093Y225263D01*
X423112Y225276D01*
X423116Y225281D01*
X423124Y225287D01*
X453928Y256092D01*
X453981Y256166D01*
X454041Y256235D01*
X454053Y256266D01*
X454072Y256292D01*
X454099Y256379D01*
X454133Y256464D01*
X454137Y256504D01*
X454144Y256527D01*
X454143Y256559D01*
X454151Y256630D01*
X454151Y260876D01*
X454137Y260967D01*
X454129Y261057D01*
X454117Y261087D01*
X454112Y261119D01*
X454069Y261200D01*
X454033Y261284D01*
X454007Y261316D01*
X453996Y261337D01*
X453973Y261359D01*
X453928Y261415D01*
X453088Y262255D01*
X451893Y265139D01*
X451893Y268261D01*
X453088Y271145D01*
X455295Y273352D01*
X458179Y274547D01*
X461301Y274547D01*
X464185Y273352D01*
X466392Y271145D01*
X467587Y268261D01*
X467587Y265139D01*
X467103Y263972D01*
X467081Y263877D01*
X467052Y263784D01*
X467053Y263758D01*
X467047Y263733D01*
X467056Y263636D01*
X467059Y263538D01*
X467068Y263514D01*
X467070Y263488D01*
X467110Y263399D01*
X467143Y263307D01*
X467160Y263287D01*
X467170Y263263D01*
X467236Y263191D01*
X467297Y263115D01*
X467319Y263101D01*
X467337Y263082D01*
X467422Y263035D01*
X467504Y262982D01*
X467529Y262976D01*
X467552Y262963D01*
X467648Y262946D01*
X467742Y262922D01*
X467768Y262924D01*
X467794Y262920D01*
X467891Y262934D01*
X467988Y262941D01*
X468012Y262952D01*
X468038Y262955D01*
X468125Y263000D01*
X468214Y263038D01*
X468239Y263058D01*
X468257Y263067D01*
X468280Y263091D01*
X468345Y263143D01*
X471990Y266788D01*
X472036Y266851D01*
X472058Y266874D01*
X472062Y266883D01*
X472103Y266931D01*
X472115Y266961D01*
X472134Y266988D01*
X472161Y267075D01*
X472195Y267160D01*
X472199Y267200D01*
X472206Y267223D01*
X472205Y267255D01*
X472213Y267326D01*
X472213Y268261D01*
X473408Y271145D01*
X475615Y273352D01*
X478499Y274547D01*
X481621Y274547D01*
X484505Y273352D01*
X486712Y271145D01*
X487907Y268261D01*
X487907Y265139D01*
X486712Y262255D01*
X484505Y260048D01*
X481621Y258853D01*
X480178Y258853D01*
X480088Y258839D01*
X479997Y258831D01*
X479967Y258819D01*
X479936Y258814D01*
X479855Y258771D01*
X479771Y258735D01*
X479739Y258709D01*
X479718Y258698D01*
X479696Y258675D01*
X479640Y258630D01*
X411852Y190842D01*
X409798Y189991D01*
X391577Y189991D01*
X391531Y189984D01*
X391485Y189986D01*
X391411Y189964D01*
X391334Y189952D01*
X391293Y189930D01*
X391249Y189917D01*
X391185Y189873D01*
X391116Y189836D01*
X391085Y189803D01*
X391047Y189777D01*
X391001Y189715D01*
X390947Y189658D01*
X390928Y189616D01*
X390900Y189580D01*
X390876Y189506D01*
X390843Y189435D01*
X390838Y189389D01*
X390824Y189346D01*
X390825Y189268D01*
X390816Y189191D01*
X390826Y189146D01*
X390827Y189100D01*
X390865Y188968D01*
X390869Y188950D01*
X390871Y188946D01*
X390873Y188939D01*
X391895Y186473D01*
X391895Y183351D01*
X390700Y180467D01*
X388493Y178260D01*
X385609Y177065D01*
X382487Y177065D01*
X382081Y177233D01*
X382018Y177248D01*
X381957Y177273D01*
X381874Y177282D01*
X381842Y177289D01*
X381823Y177288D01*
X381790Y177291D01*
X375666Y177291D01*
X375646Y177288D01*
X375627Y177290D01*
X375525Y177268D01*
X375423Y177252D01*
X375406Y177242D01*
X375386Y177238D01*
X375297Y177185D01*
X375206Y177136D01*
X375192Y177122D01*
X375175Y177112D01*
X375108Y177033D01*
X375036Y176958D01*
X375028Y176940D01*
X375015Y176925D01*
X374976Y176829D01*
X374933Y176735D01*
X374931Y176715D01*
X374923Y176697D01*
X374905Y176530D01*
X374905Y150223D01*
X373822Y147609D01*
X346421Y120208D01*
X343807Y119125D01*
X292971Y119125D01*
X290357Y120208D01*
X261691Y148874D01*
X261617Y148927D01*
X261547Y148987D01*
X261517Y148999D01*
X261491Y149018D01*
X261404Y149045D01*
X261319Y149079D01*
X261278Y149083D01*
X261256Y149090D01*
X261224Y149089D01*
X261152Y149097D01*
X244816Y149097D01*
X244725Y149083D01*
X244635Y149075D01*
X244605Y149063D01*
X244573Y149058D01*
X244492Y149015D01*
X244408Y148979D01*
X244376Y148953D01*
X244355Y148942D01*
X244333Y148919D01*
X244277Y148874D01*
X233921Y138518D01*
X233909Y138502D01*
X233894Y138490D01*
X233838Y138402D01*
X233778Y138318D01*
X233772Y138299D01*
X233761Y138283D01*
X233736Y138182D01*
X233705Y138083D01*
X233706Y138063D01*
X233701Y138044D01*
X233709Y137941D01*
X233712Y137837D01*
X233718Y137819D01*
X233720Y137799D01*
X233760Y137704D01*
X233796Y137606D01*
X233808Y137591D01*
X233816Y137573D01*
X233921Y137442D01*
X234950Y136413D01*
X236729Y132118D01*
X236729Y112230D01*
X234950Y107935D01*
X232709Y105694D01*
X232667Y105636D01*
X232618Y105584D01*
X232596Y105537D01*
X232565Y105495D01*
X232544Y105426D01*
X232514Y105361D01*
X232508Y105309D01*
X232493Y105259D01*
X232495Y105188D01*
X232487Y105117D01*
X232498Y105066D01*
X232499Y105014D01*
X232524Y104946D01*
X232539Y104876D01*
X232566Y104831D01*
X232584Y104783D01*
X232629Y104727D01*
X232665Y104665D01*
X232705Y104631D01*
X232738Y104591D01*
X232798Y104552D01*
X232852Y104505D01*
X232901Y104486D01*
X232944Y104458D01*
X233014Y104440D01*
X233081Y104413D01*
X233152Y104405D01*
X233183Y104397D01*
X233206Y104399D01*
X233247Y104395D01*
X244831Y104395D01*
X244898Y104406D01*
G37*
G36*
X25219Y104398D02*
X25219Y104398D01*
X25249Y104396D01*
X27469Y104538D01*
X27769Y104436D01*
X27810Y104429D01*
X27848Y104413D01*
X28005Y104396D01*
X28011Y104395D01*
X28013Y104395D01*
X28015Y104395D01*
X216841Y104395D01*
X216911Y104406D01*
X216983Y104408D01*
X217032Y104426D01*
X217084Y104434D01*
X217147Y104468D01*
X217214Y104493D01*
X217255Y104525D01*
X217301Y104550D01*
X217350Y104602D01*
X217406Y104646D01*
X217434Y104690D01*
X217470Y104728D01*
X217500Y104793D01*
X217539Y104853D01*
X217552Y104904D01*
X217574Y104951D01*
X217582Y105022D01*
X217599Y105092D01*
X217595Y105144D01*
X217601Y105195D01*
X217586Y105266D01*
X217580Y105337D01*
X217560Y105385D01*
X217549Y105436D01*
X217512Y105497D01*
X217484Y105563D01*
X217439Y105619D01*
X217423Y105647D01*
X217405Y105662D01*
X217379Y105694D01*
X215138Y107935D01*
X213359Y112230D01*
X213359Y132118D01*
X215138Y136413D01*
X217708Y138983D01*
X217761Y139057D01*
X217821Y139126D01*
X217833Y139156D01*
X217852Y139183D01*
X217879Y139270D01*
X217913Y139355D01*
X217917Y139395D01*
X217924Y139418D01*
X217923Y139450D01*
X217931Y139521D01*
X217931Y141115D01*
X219014Y143729D01*
X221122Y145837D01*
X233497Y158212D01*
X233539Y158270D01*
X233588Y158322D01*
X233610Y158369D01*
X233640Y158411D01*
X233661Y158480D01*
X233692Y158545D01*
X233697Y158597D01*
X233713Y158647D01*
X233711Y158718D01*
X233719Y158789D01*
X233708Y158840D01*
X233706Y158892D01*
X233682Y158960D01*
X233667Y159030D01*
X233640Y159075D01*
X233622Y159123D01*
X233577Y159179D01*
X233540Y159241D01*
X233501Y159275D01*
X233468Y159315D01*
X233408Y159354D01*
X233353Y159401D01*
X233305Y159420D01*
X233261Y159448D01*
X233192Y159466D01*
X233125Y159493D01*
X233054Y159501D01*
X233023Y159509D01*
X232999Y159507D01*
X232959Y159511D01*
X228690Y159511D01*
X228600Y159497D01*
X228509Y159489D01*
X228479Y159477D01*
X228448Y159472D01*
X228367Y159429D01*
X228283Y159393D01*
X228251Y159367D01*
X228230Y159356D01*
X228208Y159333D01*
X228152Y159288D01*
X225825Y156961D01*
X224146Y155282D01*
X222092Y154431D01*
X87788Y154431D01*
X85734Y155282D01*
X61302Y179714D01*
X60451Y181768D01*
X60451Y267812D01*
X61302Y269866D01*
X92260Y300824D01*
X92313Y300898D01*
X92373Y300967D01*
X92385Y300998D01*
X92404Y301024D01*
X92431Y301111D01*
X92465Y301196D01*
X92469Y301236D01*
X92476Y301259D01*
X92475Y301291D01*
X92483Y301362D01*
X92483Y302551D01*
X93678Y305435D01*
X95885Y307642D01*
X98769Y308837D01*
X101891Y308837D01*
X103523Y308161D01*
X103587Y308146D01*
X103648Y308121D01*
X103730Y308112D01*
X103762Y308105D01*
X103782Y308106D01*
X103814Y308103D01*
X120795Y308103D01*
X123409Y307020D01*
X188910Y241519D01*
X189437Y240247D01*
X189499Y240147D01*
X189558Y240047D01*
X189563Y240043D01*
X189566Y240038D01*
X189657Y239963D01*
X189745Y239887D01*
X189751Y239885D01*
X189756Y239881D01*
X189864Y239839D01*
X189973Y239795D01*
X189981Y239794D01*
X189986Y239793D01*
X190004Y239792D01*
X190140Y239777D01*
X197264Y239777D01*
X199645Y237396D01*
X199645Y208628D01*
X197264Y206247D01*
X168496Y206247D01*
X166115Y208628D01*
X166115Y237396D01*
X168496Y239777D01*
X168697Y239777D01*
X168767Y239788D01*
X168839Y239790D01*
X168888Y239808D01*
X168939Y239816D01*
X169003Y239850D01*
X169070Y239875D01*
X169111Y239907D01*
X169157Y239932D01*
X169206Y239984D01*
X169262Y240028D01*
X169290Y240072D01*
X169326Y240110D01*
X169356Y240175D01*
X169395Y240235D01*
X169408Y240286D01*
X169430Y240333D01*
X169438Y240404D01*
X169455Y240474D01*
X169451Y240526D01*
X169457Y240577D01*
X169442Y240648D01*
X169436Y240719D01*
X169416Y240767D01*
X169405Y240818D01*
X169368Y240879D01*
X169340Y240945D01*
X169295Y241001D01*
X169278Y241029D01*
X169261Y241044D01*
X169235Y241076D01*
X116657Y293654D01*
X116583Y293707D01*
X116513Y293767D01*
X116483Y293779D01*
X116457Y293798D01*
X116370Y293825D01*
X116285Y293859D01*
X116244Y293863D01*
X116222Y293870D01*
X116190Y293869D01*
X116118Y293877D01*
X103814Y293877D01*
X103750Y293867D01*
X103684Y293866D01*
X103604Y293843D01*
X103571Y293838D01*
X103554Y293828D01*
X103523Y293819D01*
X102910Y293565D01*
X102849Y293527D01*
X102783Y293498D01*
X102745Y293463D01*
X102701Y293436D01*
X102655Y293380D01*
X102602Y293332D01*
X102577Y293286D01*
X102544Y293246D01*
X102518Y293179D01*
X102484Y293116D01*
X102474Y293065D01*
X102456Y293017D01*
X102453Y292945D01*
X102440Y292874D01*
X102447Y292823D01*
X102445Y292771D01*
X102465Y292702D01*
X102476Y292631D01*
X102499Y292585D01*
X102514Y292535D01*
X102555Y292476D01*
X102587Y292412D01*
X102624Y292375D01*
X102654Y292333D01*
X102711Y292290D01*
X102763Y292240D01*
X102826Y292205D01*
X102851Y292186D01*
X102874Y292179D01*
X102910Y292159D01*
X104775Y291386D01*
X106982Y289179D01*
X107658Y287547D01*
X107693Y287491D01*
X107718Y287431D01*
X107770Y287366D01*
X107788Y287338D01*
X107803Y287325D01*
X107823Y287300D01*
X136764Y258359D01*
X138872Y256251D01*
X139955Y253637D01*
X139955Y239961D01*
X139969Y239871D01*
X139977Y239780D01*
X139989Y239751D01*
X139994Y239719D01*
X140037Y239638D01*
X140073Y239554D01*
X140099Y239522D01*
X140110Y239501D01*
X140133Y239479D01*
X140178Y239423D01*
X149645Y229956D01*
X149645Y216068D01*
X139824Y206247D01*
X125936Y206247D01*
X116115Y216068D01*
X116115Y229956D01*
X125506Y239347D01*
X125559Y239421D01*
X125619Y239491D01*
X125631Y239521D01*
X125650Y239547D01*
X125677Y239634D01*
X125693Y239676D01*
X125701Y239692D01*
X125702Y239696D01*
X125711Y239719D01*
X125715Y239760D01*
X125722Y239782D01*
X125721Y239814D01*
X125729Y239885D01*
X125729Y248961D01*
X125715Y249051D01*
X125707Y249142D01*
X125695Y249171D01*
X125690Y249203D01*
X125647Y249284D01*
X125611Y249368D01*
X125585Y249400D01*
X125574Y249421D01*
X125551Y249443D01*
X125506Y249499D01*
X97764Y277241D01*
X97711Y277279D01*
X97664Y277325D01*
X97591Y277365D01*
X97565Y277384D01*
X97546Y277390D01*
X97517Y277406D01*
X95885Y278082D01*
X93678Y280289D01*
X92483Y283173D01*
X92483Y283402D01*
X92472Y283473D01*
X92470Y283544D01*
X92452Y283593D01*
X92444Y283645D01*
X92410Y283708D01*
X92385Y283775D01*
X92353Y283816D01*
X92328Y283862D01*
X92276Y283911D01*
X92232Y283967D01*
X92188Y283995D01*
X92150Y284031D01*
X92085Y284061D01*
X92025Y284100D01*
X91974Y284113D01*
X91927Y284135D01*
X91856Y284143D01*
X91786Y284160D01*
X91734Y284156D01*
X91683Y284162D01*
X91612Y284147D01*
X91541Y284141D01*
X91493Y284121D01*
X91442Y284110D01*
X91381Y284073D01*
X91315Y284045D01*
X91259Y284000D01*
X91231Y283984D01*
X91216Y283966D01*
X91184Y283940D01*
X71852Y264608D01*
X71799Y264534D01*
X71739Y264465D01*
X71727Y264434D01*
X71708Y264408D01*
X71681Y264321D01*
X71647Y264236D01*
X71643Y264196D01*
X71636Y264173D01*
X71637Y264141D01*
X71629Y264070D01*
X71629Y237307D01*
X71640Y237237D01*
X71642Y237165D01*
X71660Y237116D01*
X71668Y237065D01*
X71702Y237001D01*
X71727Y236934D01*
X71759Y236893D01*
X71784Y236847D01*
X71836Y236798D01*
X71880Y236742D01*
X71924Y236714D01*
X71962Y236678D01*
X72027Y236648D01*
X72087Y236609D01*
X72138Y236596D01*
X72185Y236574D01*
X72256Y236566D01*
X72326Y236549D01*
X72378Y236553D01*
X72429Y236547D01*
X72500Y236562D01*
X72571Y236568D01*
X72619Y236588D01*
X72670Y236599D01*
X72731Y236636D01*
X72797Y236664D01*
X72853Y236709D01*
X72881Y236726D01*
X72896Y236743D01*
X72928Y236769D01*
X73491Y237331D01*
X73491Y237332D01*
X75936Y239777D01*
X89824Y239777D01*
X92269Y237332D01*
X92270Y237331D01*
X97199Y232402D01*
X97200Y232401D01*
X99645Y229956D01*
X99645Y197430D01*
X99659Y197339D01*
X99667Y197249D01*
X99679Y197219D01*
X99684Y197187D01*
X99727Y197106D01*
X99763Y197022D01*
X99789Y196990D01*
X99800Y196969D01*
X99823Y196947D01*
X99868Y196891D01*
X103241Y193518D01*
X103315Y193465D01*
X103385Y193405D01*
X103415Y193393D01*
X103441Y193374D01*
X103528Y193347D01*
X103613Y193313D01*
X103654Y193309D01*
X103676Y193302D01*
X103708Y193303D01*
X103780Y193295D01*
X204830Y193295D01*
X204921Y193309D01*
X205011Y193317D01*
X205041Y193329D01*
X205073Y193334D01*
X205154Y193377D01*
X205238Y193413D01*
X205270Y193439D01*
X205291Y193450D01*
X205313Y193473D01*
X205369Y193518D01*
X251010Y239159D01*
X251063Y239233D01*
X251123Y239303D01*
X251135Y239333D01*
X251154Y239359D01*
X251181Y239446D01*
X251215Y239531D01*
X251219Y239572D01*
X251226Y239594D01*
X251225Y239626D01*
X251233Y239697D01*
X251233Y295717D01*
X253786Y301878D01*
X280553Y328646D01*
X280595Y328704D01*
X280644Y328756D01*
X280666Y328803D01*
X280696Y328845D01*
X280717Y328914D01*
X280748Y328979D01*
X280753Y329031D01*
X280769Y329081D01*
X280767Y329152D01*
X280775Y329223D01*
X280764Y329274D01*
X280762Y329326D01*
X280738Y329394D01*
X280723Y329464D01*
X280696Y329509D01*
X280678Y329557D01*
X280633Y329613D01*
X280596Y329675D01*
X280557Y329709D01*
X280524Y329749D01*
X280464Y329788D01*
X280409Y329835D01*
X280361Y329854D01*
X280317Y329882D01*
X280248Y329900D01*
X280181Y329927D01*
X280110Y329935D01*
X280079Y329943D01*
X280055Y329941D01*
X280015Y329945D01*
X34290Y329945D01*
X34271Y329942D01*
X34240Y329944D01*
X32483Y329828D01*
X32460Y329823D01*
X32336Y329804D01*
X28941Y328895D01*
X28927Y328888D01*
X28911Y328886D01*
X28758Y328819D01*
X25714Y327061D01*
X25702Y327051D01*
X25688Y327045D01*
X25557Y326940D01*
X23072Y324455D01*
X23062Y324443D01*
X23050Y324433D01*
X22951Y324298D01*
X21193Y321254D01*
X21188Y321240D01*
X21178Y321227D01*
X21117Y321071D01*
X20208Y317676D01*
X20205Y317652D01*
X20184Y317529D01*
X20068Y315772D01*
X20070Y315753D01*
X20067Y315722D01*
X20067Y235745D01*
X20078Y235675D01*
X20080Y235603D01*
X20098Y235554D01*
X20106Y235503D01*
X20140Y235439D01*
X20165Y235372D01*
X20197Y235331D01*
X20222Y235285D01*
X20274Y235236D01*
X20318Y235180D01*
X20362Y235152D01*
X20400Y235116D01*
X20465Y235086D01*
X20525Y235047D01*
X20576Y235034D01*
X20623Y235012D01*
X20694Y235004D01*
X20764Y234987D01*
X20816Y234991D01*
X20867Y234985D01*
X20938Y235000D01*
X21009Y235006D01*
X21057Y235026D01*
X21108Y235037D01*
X21169Y235074D01*
X21235Y235102D01*
X21291Y235147D01*
X21319Y235164D01*
X21334Y235181D01*
X21366Y235207D01*
X25936Y239777D01*
X39824Y239777D01*
X49645Y229956D01*
X49645Y216068D01*
X39824Y206247D01*
X25936Y206247D01*
X21366Y210817D01*
X21308Y210859D01*
X21256Y210908D01*
X21209Y210930D01*
X21167Y210960D01*
X21098Y210981D01*
X21033Y211012D01*
X20981Y211017D01*
X20931Y211033D01*
X20860Y211031D01*
X20789Y211039D01*
X20738Y211028D01*
X20686Y211026D01*
X20618Y211002D01*
X20548Y210987D01*
X20503Y210960D01*
X20455Y210942D01*
X20399Y210897D01*
X20337Y210860D01*
X20303Y210821D01*
X20263Y210788D01*
X20224Y210728D01*
X20177Y210673D01*
X20158Y210625D01*
X20130Y210581D01*
X20112Y210512D01*
X20085Y210445D01*
X20077Y210374D01*
X20069Y210343D01*
X20071Y210320D01*
X20067Y210279D01*
X20067Y108401D01*
X20072Y108368D01*
X20074Y108293D01*
X20128Y107916D01*
X20130Y107911D01*
X20130Y107905D01*
X20174Y107743D01*
X20604Y106662D01*
X20622Y106631D01*
X20633Y106597D01*
X20725Y106457D01*
X21468Y105561D01*
X21495Y105538D01*
X21516Y105508D01*
X21647Y105404D01*
X22630Y104781D01*
X22663Y104767D01*
X22691Y104746D01*
X22848Y104687D01*
X23897Y104418D01*
X23908Y104417D01*
X23918Y104413D01*
X24085Y104395D01*
X25200Y104395D01*
X25219Y104398D01*
G37*
%LPC*%
G36*
X507505Y141797D02*
X507505Y141797D01*
X499188Y144026D01*
X491731Y148331D01*
X485643Y154419D01*
X481338Y161876D01*
X479109Y170193D01*
X479109Y178803D01*
X481338Y187120D01*
X485643Y194577D01*
X491731Y200665D01*
X499188Y204970D01*
X507505Y207199D01*
X516115Y207199D01*
X524432Y204970D01*
X531889Y200665D01*
X537977Y194577D01*
X542282Y187120D01*
X544511Y178803D01*
X544511Y170193D01*
X542282Y161876D01*
X537977Y154419D01*
X531889Y148331D01*
X524432Y144026D01*
X516115Y141797D01*
X507505Y141797D01*
G37*
%LPD*%
%LPC*%
G36*
X412967Y168175D02*
X412967Y168175D01*
X410083Y169370D01*
X407876Y171577D01*
X406681Y174461D01*
X406681Y177583D01*
X407876Y180467D01*
X410083Y182674D01*
X412967Y183869D01*
X414156Y183869D01*
X414246Y183883D01*
X414337Y183891D01*
X414367Y183903D01*
X414398Y183908D01*
X414479Y183951D01*
X414563Y183987D01*
X414595Y184013D01*
X414616Y184024D01*
X414638Y184047D01*
X414694Y184092D01*
X464702Y234100D01*
X466756Y234951D01*
X589444Y234951D01*
X589534Y234965D01*
X589625Y234973D01*
X589655Y234985D01*
X589686Y234990D01*
X589767Y235033D01*
X589851Y235069D01*
X589883Y235095D01*
X589904Y235106D01*
X589926Y235129D01*
X589982Y235174D01*
X635489Y280681D01*
X637168Y282360D01*
X639222Y283211D01*
X641368Y283211D01*
X641459Y283225D01*
X641549Y283233D01*
X641579Y283245D01*
X641611Y283250D01*
X641692Y283293D01*
X641776Y283329D01*
X641808Y283355D01*
X641829Y283366D01*
X641851Y283389D01*
X641907Y283434D01*
X642747Y284274D01*
X645631Y285469D01*
X648753Y285469D01*
X651637Y284274D01*
X653844Y282067D01*
X655039Y279183D01*
X655039Y276061D01*
X653844Y273177D01*
X651637Y270970D01*
X648753Y269775D01*
X645631Y269775D01*
X642747Y270970D01*
X642705Y271012D01*
X642689Y271024D01*
X642676Y271040D01*
X642589Y271096D01*
X642505Y271156D01*
X642486Y271162D01*
X642469Y271173D01*
X642369Y271198D01*
X642270Y271228D01*
X642250Y271228D01*
X642231Y271233D01*
X642128Y271225D01*
X642024Y271222D01*
X642005Y271215D01*
X641985Y271214D01*
X641890Y271173D01*
X641793Y271138D01*
X641777Y271125D01*
X641759Y271117D01*
X641628Y271012D01*
X595240Y224624D01*
X593186Y223773D01*
X470498Y223773D01*
X470408Y223759D01*
X470317Y223751D01*
X470287Y223739D01*
X470256Y223734D01*
X470175Y223691D01*
X470091Y223655D01*
X470059Y223629D01*
X470038Y223618D01*
X470016Y223595D01*
X469960Y223550D01*
X422598Y176188D01*
X422545Y176114D01*
X422485Y176045D01*
X422473Y176014D01*
X422454Y175988D01*
X422427Y175901D01*
X422393Y175816D01*
X422389Y175776D01*
X422382Y175753D01*
X422383Y175721D01*
X422375Y175650D01*
X422375Y174461D01*
X421180Y171577D01*
X418973Y169370D01*
X416089Y168175D01*
X412967Y168175D01*
G37*
%LPD*%
%LPC*%
G36*
X623479Y132065D02*
X623479Y132065D01*
X616434Y133953D01*
X610117Y137600D01*
X604960Y142757D01*
X601313Y149074D01*
X599425Y156119D01*
X599425Y163413D01*
X601313Y170458D01*
X604960Y176775D01*
X610117Y181932D01*
X616434Y185579D01*
X623479Y187467D01*
X630773Y187467D01*
X637818Y185579D01*
X644135Y181932D01*
X649292Y176775D01*
X652939Y170458D01*
X654827Y163413D01*
X654827Y156119D01*
X652939Y149074D01*
X649292Y142757D01*
X644135Y137600D01*
X637818Y133953D01*
X630773Y132065D01*
X623479Y132065D01*
G37*
%LPD*%
G36*
X304549Y133358D02*
X304549Y133358D01*
X304597Y133357D01*
X304670Y133378D01*
X304745Y133390D01*
X304787Y133413D01*
X304833Y133427D01*
X304895Y133470D01*
X304962Y133506D01*
X304995Y133540D01*
X305035Y133568D01*
X305079Y133629D01*
X305132Y133684D01*
X305152Y133727D01*
X305180Y133766D01*
X305203Y133838D01*
X305235Y133907D01*
X305241Y133955D01*
X305255Y134000D01*
X305254Y134076D01*
X305262Y134151D01*
X305252Y134198D01*
X305251Y134246D01*
X305226Y134318D01*
X305210Y134392D01*
X305186Y134433D01*
X305170Y134478D01*
X305123Y134538D01*
X305084Y134603D01*
X305048Y134634D01*
X305018Y134672D01*
X304914Y134748D01*
X304897Y134763D01*
X304891Y134765D01*
X304883Y134771D01*
X299983Y137600D01*
X294826Y142757D01*
X291179Y149074D01*
X289291Y156119D01*
X289291Y163413D01*
X291179Y170458D01*
X294826Y176775D01*
X299983Y181932D01*
X306300Y185579D01*
X313345Y187467D01*
X320639Y187467D01*
X327684Y185579D01*
X334001Y181932D01*
X339158Y176775D01*
X342805Y170458D01*
X344693Y163413D01*
X344693Y156119D01*
X342805Y149074D01*
X339158Y142757D01*
X334001Y137600D01*
X329101Y134771D01*
X329064Y134741D01*
X329022Y134718D01*
X328970Y134663D01*
X328911Y134615D01*
X328885Y134575D01*
X328852Y134540D01*
X328820Y134471D01*
X328780Y134407D01*
X328769Y134360D01*
X328749Y134317D01*
X328740Y134242D01*
X328723Y134168D01*
X328727Y134120D01*
X328722Y134073D01*
X328738Y133998D01*
X328744Y133923D01*
X328764Y133879D01*
X328774Y133832D01*
X328813Y133767D01*
X328843Y133698D01*
X328875Y133662D01*
X328900Y133621D01*
X328958Y133572D01*
X329009Y133516D01*
X329051Y133492D01*
X329087Y133461D01*
X329157Y133433D01*
X329223Y133396D01*
X329271Y133387D01*
X329315Y133369D01*
X329443Y133355D01*
X329465Y133351D01*
X329472Y133352D01*
X329482Y133351D01*
X339130Y133351D01*
X339221Y133365D01*
X339311Y133373D01*
X339341Y133385D01*
X339373Y133390D01*
X339454Y133433D01*
X339538Y133469D01*
X339570Y133495D01*
X339591Y133506D01*
X339613Y133529D01*
X339669Y133574D01*
X360456Y154361D01*
X360509Y154435D01*
X360569Y154505D01*
X360581Y154535D01*
X360600Y154561D01*
X360627Y154648D01*
X360661Y154733D01*
X360665Y154774D01*
X360672Y154796D01*
X360671Y154828D01*
X360679Y154900D01*
X360679Y177840D01*
X360665Y177931D01*
X360657Y178021D01*
X360645Y178051D01*
X360640Y178083D01*
X360597Y178164D01*
X360561Y178248D01*
X360535Y178280D01*
X360524Y178301D01*
X360501Y178323D01*
X360456Y178379D01*
X350606Y188229D01*
X348376Y190459D01*
X344426Y194409D01*
X344382Y194441D01*
X344358Y194467D01*
X344342Y194475D01*
X344316Y194500D01*
X344269Y194522D01*
X344227Y194552D01*
X344171Y194569D01*
X344142Y194585D01*
X344126Y194588D01*
X344093Y194604D01*
X344041Y194609D01*
X343991Y194625D01*
X343932Y194623D01*
X343900Y194629D01*
X343885Y194627D01*
X343849Y194631D01*
X343798Y194620D01*
X343746Y194618D01*
X343690Y194598D01*
X343657Y194593D01*
X343643Y194586D01*
X343608Y194579D01*
X343563Y194552D01*
X343515Y194534D01*
X343469Y194498D01*
X343438Y194482D01*
X343426Y194470D01*
X343397Y194452D01*
X343363Y194413D01*
X343323Y194380D01*
X343293Y194334D01*
X343266Y194306D01*
X343254Y194285D01*
X343237Y194265D01*
X343221Y194224D01*
X343210Y194206D01*
X343190Y194173D01*
X343187Y194163D01*
X343185Y194159D01*
X341932Y191135D01*
X339725Y188928D01*
X336841Y187733D01*
X333719Y187733D01*
X330835Y188928D01*
X329995Y189768D01*
X329921Y189821D01*
X329851Y189881D01*
X329821Y189893D01*
X329795Y189912D01*
X329708Y189939D01*
X329623Y189973D01*
X329582Y189977D01*
X329560Y189984D01*
X329528Y189983D01*
X329456Y189991D01*
X297270Y189991D01*
X297180Y189977D01*
X297089Y189969D01*
X297059Y189957D01*
X297028Y189952D01*
X296947Y189909D01*
X296863Y189873D01*
X296831Y189847D01*
X296810Y189836D01*
X296788Y189813D01*
X296732Y189768D01*
X282390Y175426D01*
X282337Y175352D01*
X282277Y175283D01*
X282265Y175252D01*
X282246Y175226D01*
X282219Y175139D01*
X282185Y175054D01*
X282181Y175014D01*
X282174Y174991D01*
X282175Y174959D01*
X282167Y174888D01*
X282167Y173699D01*
X280972Y170815D01*
X278765Y168608D01*
X275881Y167413D01*
X272759Y167413D01*
X269875Y168608D01*
X267668Y170815D01*
X267346Y171593D01*
X267321Y171632D01*
X267306Y171675D01*
X267257Y171736D01*
X267216Y171802D01*
X267181Y171832D01*
X267152Y171867D01*
X267086Y171910D01*
X267026Y171959D01*
X266984Y171976D01*
X266945Y172000D01*
X266870Y172019D01*
X266797Y172047D01*
X266751Y172049D01*
X266706Y172061D01*
X266629Y172055D01*
X266551Y172058D01*
X266507Y172045D01*
X266461Y172041D01*
X266390Y172011D01*
X266315Y171989D01*
X266277Y171963D01*
X266235Y171945D01*
X266128Y171860D01*
X266113Y171849D01*
X266110Y171845D01*
X266104Y171840D01*
X258886Y164622D01*
X258844Y164564D01*
X258795Y164512D01*
X258773Y164465D01*
X258742Y164423D01*
X258721Y164354D01*
X258691Y164289D01*
X258685Y164237D01*
X258670Y164187D01*
X258672Y164116D01*
X258664Y164045D01*
X258675Y163994D01*
X258676Y163942D01*
X258701Y163874D01*
X258716Y163804D01*
X258743Y163759D01*
X258761Y163711D01*
X258806Y163655D01*
X258842Y163593D01*
X258882Y163559D01*
X258915Y163519D01*
X258975Y163480D01*
X259029Y163433D01*
X259078Y163414D01*
X259121Y163386D01*
X259191Y163368D01*
X259257Y163341D01*
X259329Y163333D01*
X259360Y163325D01*
X259383Y163327D01*
X259424Y163323D01*
X265829Y163323D01*
X268443Y162240D01*
X297109Y133574D01*
X297183Y133521D01*
X297253Y133461D01*
X297283Y133449D01*
X297309Y133430D01*
X297396Y133403D01*
X297481Y133369D01*
X297522Y133365D01*
X297544Y133358D01*
X297576Y133359D01*
X297648Y133351D01*
X304502Y133351D01*
X304549Y133358D01*
G37*
G36*
X329547Y201183D02*
X329547Y201183D01*
X329637Y201191D01*
X329667Y201203D01*
X329699Y201208D01*
X329780Y201251D01*
X329864Y201287D01*
X329896Y201313D01*
X329917Y201324D01*
X329939Y201347D01*
X329995Y201392D01*
X330835Y202232D01*
X333719Y203427D01*
X333935Y203427D01*
X333980Y203434D01*
X334026Y203432D01*
X334101Y203454D01*
X334178Y203466D01*
X334218Y203488D01*
X334262Y203501D01*
X334326Y203545D01*
X334395Y203582D01*
X334427Y203615D01*
X334464Y203641D01*
X334511Y203703D01*
X334565Y203760D01*
X334584Y203802D01*
X334611Y203838D01*
X334635Y203912D01*
X334668Y203983D01*
X334673Y204029D01*
X334687Y204072D01*
X334687Y204150D01*
X334695Y204227D01*
X334686Y204272D01*
X334685Y204318D01*
X334647Y204450D01*
X334643Y204468D01*
X334640Y204472D01*
X334638Y204479D01*
X333755Y206611D01*
X333755Y213908D01*
X333741Y213999D01*
X333733Y214089D01*
X333721Y214119D01*
X333716Y214151D01*
X333673Y214232D01*
X333637Y214316D01*
X333611Y214348D01*
X333600Y214369D01*
X333577Y214391D01*
X333532Y214447D01*
X333222Y214757D01*
X333169Y214795D01*
X333122Y214841D01*
X333049Y214881D01*
X333023Y214900D01*
X333004Y214906D01*
X332975Y214922D01*
X331343Y215598D01*
X329136Y217805D01*
X329037Y218044D01*
X329013Y218083D01*
X328997Y218127D01*
X328948Y218187D01*
X328907Y218254D01*
X328872Y218283D01*
X328843Y218319D01*
X328778Y218361D01*
X328718Y218410D01*
X328675Y218427D01*
X328636Y218452D01*
X328561Y218471D01*
X328488Y218499D01*
X328442Y218501D01*
X328398Y218512D01*
X328320Y218506D01*
X328242Y218509D01*
X328198Y218496D01*
X328152Y218493D01*
X328081Y218462D01*
X328006Y218440D01*
X327968Y218414D01*
X327926Y218396D01*
X327820Y218311D01*
X327804Y218300D01*
X327801Y218296D01*
X327795Y218291D01*
X325852Y216348D01*
X325799Y216274D01*
X325739Y216205D01*
X325727Y216174D01*
X325708Y216148D01*
X325681Y216061D01*
X325647Y215976D01*
X325643Y215936D01*
X325636Y215913D01*
X325637Y215881D01*
X325629Y215810D01*
X325629Y214788D01*
X324778Y212734D01*
X314512Y202468D01*
X314470Y202410D01*
X314421Y202358D01*
X314399Y202311D01*
X314368Y202269D01*
X314347Y202200D01*
X314317Y202135D01*
X314311Y202083D01*
X314296Y202033D01*
X314298Y201962D01*
X314290Y201891D01*
X314301Y201840D01*
X314302Y201788D01*
X314327Y201720D01*
X314342Y201650D01*
X314369Y201605D01*
X314387Y201557D01*
X314432Y201501D01*
X314468Y201439D01*
X314508Y201405D01*
X314541Y201365D01*
X314601Y201326D01*
X314655Y201279D01*
X314704Y201260D01*
X314747Y201232D01*
X314817Y201214D01*
X314883Y201187D01*
X314955Y201179D01*
X314986Y201171D01*
X315009Y201173D01*
X315050Y201169D01*
X329456Y201169D01*
X329547Y201183D01*
G37*
%LPC*%
G36*
X251967Y123697D02*
X251967Y123697D01*
X251967Y139840D01*
X252823Y139705D01*
X254344Y139210D01*
X255769Y138484D01*
X257063Y137544D01*
X258194Y136413D01*
X259134Y135119D01*
X259860Y133694D01*
X260355Y132173D01*
X260605Y130594D01*
X260605Y123697D01*
X251967Y123697D01*
G37*
%LPD*%
%LPC*%
G36*
X240283Y123697D02*
X240283Y123697D01*
X240283Y130594D01*
X240533Y132173D01*
X241028Y133694D01*
X241754Y135119D01*
X242694Y136413D01*
X243825Y137544D01*
X245119Y138484D01*
X246544Y139210D01*
X248065Y139705D01*
X248921Y139840D01*
X248921Y123697D01*
X240283Y123697D01*
G37*
%LPD*%
G36*
X376609Y188483D02*
X376609Y188483D01*
X376700Y188491D01*
X376730Y188503D01*
X376762Y188508D01*
X376843Y188551D01*
X376927Y188587D01*
X376959Y188613D01*
X376979Y188624D01*
X376980Y188624D01*
X377002Y188647D01*
X377058Y188692D01*
X377099Y188750D01*
X377149Y188802D01*
X377171Y188849D01*
X377201Y188891D01*
X377222Y188960D01*
X377253Y189025D01*
X377258Y189077D01*
X377274Y189127D01*
X377272Y189198D01*
X377280Y189269D01*
X377269Y189320D01*
X377267Y189372D01*
X377243Y189440D01*
X377227Y189510D01*
X377201Y189554D01*
X377183Y189603D01*
X377138Y189659D01*
X377101Y189721D01*
X377062Y189755D01*
X377029Y189795D01*
X376969Y189834D01*
X376914Y189881D01*
X376866Y189900D01*
X376822Y189928D01*
X376753Y189946D01*
X376686Y189973D01*
X376615Y189981D01*
X376584Y189989D01*
X376560Y189987D01*
X376519Y189991D01*
X370799Y189991D01*
X370729Y189980D01*
X370657Y189978D01*
X370608Y189960D01*
X370557Y189952D01*
X370493Y189918D01*
X370426Y189893D01*
X370385Y189861D01*
X370339Y189836D01*
X370290Y189785D01*
X370234Y189740D01*
X370206Y189696D01*
X370170Y189658D01*
X370140Y189593D01*
X370101Y189533D01*
X370088Y189482D01*
X370066Y189435D01*
X370058Y189364D01*
X370041Y189294D01*
X370045Y189242D01*
X370039Y189191D01*
X370054Y189120D01*
X370060Y189049D01*
X370080Y189001D01*
X370091Y188950D01*
X370128Y188889D01*
X370156Y188823D01*
X370201Y188767D01*
X370218Y188739D01*
X370235Y188724D01*
X370261Y188692D01*
X370335Y188639D01*
X370362Y188616D01*
X370405Y188579D01*
X370435Y188567D01*
X370461Y188548D01*
X370548Y188521D01*
X370633Y188487D01*
X370674Y188483D01*
X370696Y188476D01*
X370728Y188477D01*
X370799Y188469D01*
X376519Y188469D01*
X376609Y188483D01*
G37*
G36*
X5190Y345037D02*
X5190Y345037D01*
X5261Y345042D01*
X5309Y345063D01*
X5360Y345074D01*
X5421Y345111D01*
X5487Y345139D01*
X5543Y345183D01*
X5571Y345200D01*
X5586Y345218D01*
X5618Y345243D01*
X5785Y345410D01*
X5827Y345468D01*
X5876Y345520D01*
X5898Y345567D01*
X5928Y345610D01*
X5949Y345678D01*
X5979Y345743D01*
X5985Y345795D01*
X6001Y345845D01*
X5999Y345916D01*
X6007Y345987D01*
X5995Y346038D01*
X5994Y346091D01*
X5970Y346158D01*
X5954Y346228D01*
X5928Y346273D01*
X5910Y346322D01*
X5865Y346377D01*
X5828Y346439D01*
X5788Y346473D01*
X5756Y346514D01*
X5696Y346552D01*
X5641Y346599D01*
X5593Y346618D01*
X5549Y346647D01*
X5480Y346664D01*
X5413Y346691D01*
X5342Y346699D01*
X5311Y346707D01*
X5287Y346705D01*
X5246Y346709D01*
X5080Y346709D01*
X5060Y346706D01*
X5041Y346708D01*
X4939Y346686D01*
X4837Y346670D01*
X4820Y346660D01*
X4800Y346656D01*
X4711Y346603D01*
X4620Y346554D01*
X4606Y346540D01*
X4589Y346530D01*
X4522Y346451D01*
X4451Y346376D01*
X4442Y346358D01*
X4429Y346343D01*
X4390Y346247D01*
X4347Y346153D01*
X4345Y346133D01*
X4337Y346115D01*
X4319Y345948D01*
X4319Y345782D01*
X4330Y345711D01*
X4332Y345639D01*
X4350Y345590D01*
X4359Y345539D01*
X4392Y345475D01*
X4417Y345408D01*
X4449Y345368D01*
X4474Y345322D01*
X4526Y345272D01*
X4570Y345216D01*
X4614Y345188D01*
X4652Y345152D01*
X4717Y345122D01*
X4777Y345083D01*
X4828Y345070D01*
X4875Y345049D01*
X4946Y345041D01*
X5016Y345023D01*
X5068Y345027D01*
X5119Y345021D01*
X5190Y345037D01*
G37*
D10*
X182880Y223012D03*
D11*
X132880Y223012D03*
X82880Y223012D03*
X32880Y223012D03*
D12*
X250444Y129794D02*
X250444Y114554D01*
X225044Y114554D02*
X225044Y129794D01*
D13*
X58420Y322698D03*
D14*
X170062Y322698D01*
X173990Y318770D01*
D13*
X242316Y250444D03*
D14*
X173990Y318770D01*
D13*
X312166Y220218D03*
D14*
X312166Y218694D02*
X303276Y209804D01*
X286258Y209804D01*
X280162Y209804D01*
X269494Y199136D01*
X269494Y195580D01*
D13*
X269494Y195580D03*
D14*
X312166Y218694D02*
X312166Y220218D01*
D13*
X180594Y323596D03*
D14*
X175768Y318770D01*
X173990Y318770D01*
X250444Y122174D02*
X284988Y122174D01*
X291338Y115824D02*
X347726Y115824D01*
X375412Y143510D01*
X375666Y143510D01*
X381508Y149352D01*
X381508Y168910D01*
X383794Y171196D01*
X395478Y171196D01*
X466090Y241808D01*
X570484Y241808D01*
X604266Y275590D01*
D13*
X604266Y275590D03*
D14*
X291338Y115824D02*
X284988Y122174D01*
D13*
X286766Y267208D03*
D14*
X302260Y267208D01*
X307848Y261620D01*
X307848Y224536D01*
X312166Y220218D01*
X340134Y248186D01*
X362573Y248186D01*
X389977Y275590D02*
X604266Y275590D01*
X389977Y275590D02*
X362573Y248186D01*
D15*
X279400Y327660D02*
X278945Y328115D01*
X279400Y327660D01*
D13*
X335788Y222250D03*
D14*
X352298Y196596D02*
X356743Y192151D01*
X367792Y181102D01*
X367792Y151638D01*
X342392Y126238D01*
X294386Y126238D01*
X264414Y156210D01*
X241554Y156210D01*
X225044Y139700D01*
X225044Y122174D01*
X335788Y222250D02*
X340868Y217170D01*
X340868Y208026D01*
X352298Y196596D01*
D15*
X368300Y182880D02*
X367792Y181102D01*
X368300Y182880D02*
X382016Y182880D01*
X384048Y184912D01*
D13*
X384048Y184912D03*
X414528Y176022D03*
D15*
X467868Y229362D01*
X592074Y229362D01*
X640334Y277622D01*
X647192Y277622D01*
D13*
X647192Y277622D03*
X362458Y317246D03*
D16*
X292862Y317246D01*
X267998Y232438D02*
X212090Y176530D01*
X96520Y176530D01*
X82804Y190246D01*
X82880Y190322D01*
X82880Y223012D01*
X267998Y251206D02*
X267998Y292382D01*
X267998Y251206D02*
X267998Y232438D01*
X267998Y292382D02*
X292862Y317246D01*
D13*
X373634Y317754D03*
X366522Y307594D03*
D17*
X362966Y317754D02*
X373634Y317754D01*
X362966Y317754D02*
X362458Y317246D01*
X366522Y314198D02*
X366522Y307594D01*
X366522Y314198D02*
X362966Y317754D01*
D14*
X182880Y237490D02*
X119380Y300990D01*
X100330Y300990D01*
D13*
X100330Y300990D03*
D15*
X182880Y237490D02*
X182880Y236220D01*
X479806Y266700D02*
X480060Y266700D01*
X479806Y266700D02*
X408686Y195580D01*
X363220Y195580D01*
X347980Y210820D01*
X347980Y220980D01*
X337820Y231140D01*
X332740Y231140D01*
X320040Y218440D01*
X320040Y215900D01*
X304800Y200660D01*
X287020Y200660D01*
X251460Y165100D01*
X226060Y165100D01*
X220980Y160020D01*
X88900Y160020D01*
X66040Y182880D01*
X66040Y266700D01*
X99060Y299720D01*
X100330Y300990D01*
D13*
X480060Y266700D03*
D14*
X182880Y236220D02*
X182880Y223012D01*
D13*
X100330Y284734D03*
D14*
X132842Y252222D01*
D15*
X459740Y254000D02*
X459740Y266700D01*
X459740Y254000D02*
X408940Y203200D01*
X368300Y203200D01*
X335280Y195580D02*
X294640Y195580D01*
X274320Y175260D01*
D13*
X459740Y266700D03*
X368300Y203200D03*
X335280Y195580D03*
X274320Y175260D03*
D14*
X132842Y223050D02*
X132842Y252222D01*
X132842Y223050D02*
X132880Y223012D01*
D15*
X391160Y292100D02*
X459740Y292100D01*
X391160Y292100D02*
X358140Y259080D01*
D13*
X459740Y292100D03*
X358140Y259080D03*
D15*
X464820Y299720D02*
X472440Y292100D01*
X464820Y299720D02*
X330200Y299720D01*
X327660Y297180D01*
D13*
X327660Y297180D03*
D15*
X472440Y292100D02*
X617220Y292100D01*
D13*
X617220Y292100D03*
M02*
