G04 EAGLE Gerber X2 export*
%TF.Part,Single*%
%TF.FileFunction,Copper,L1,Top,Mixed*%
%TF.FilePolarity,Positive*%
%TF.GenerationSoftware,Autodesk,EAGLE,9.1.3*%
%TF.CreationDate,2019-04-17T09:40:26Z*%
G75*
%MOMM*%
%FSLAX34Y34*%
%LPD*%
%AMOC8*
5,1,8,0,0,1.08239X$1,22.5*%
G01*
%ADD10R,2.540000X2.540000*%
%ADD11P,2.749271X8X202.500000*%
%ADD12R,0.600000X2.200000*%
%ADD13R,1.800000X2.600000*%
%ADD14C,1.270000*%
%ADD15C,1.524000*%
%ADD16C,0.406400*%
%ADD17R,2.209800X0.609600*%
%ADD18R,1.000000X1.100000*%
%ADD19R,1.100000X1.000000*%
%ADD20C,0.609600*%
%ADD21C,0.756400*%
%ADD22C,0.304800*%
%ADD23C,2.540000*%

G36*
X660737Y107535D02*
X660737Y107535D01*
X660832Y107543D01*
X660858Y107553D01*
X660885Y107558D01*
X660970Y107601D01*
X661059Y107639D01*
X661086Y107661D01*
X661104Y107670D01*
X661127Y107693D01*
X661190Y107744D01*
X661939Y108493D01*
X661948Y108506D01*
X661961Y108516D01*
X662060Y108651D01*
X663353Y110891D01*
X663359Y110905D01*
X663368Y110918D01*
X663429Y111074D01*
X664099Y113572D01*
X664101Y113596D01*
X664123Y113719D01*
X664208Y115012D01*
X664206Y115031D01*
X664209Y115062D01*
X664209Y285185D01*
X664198Y285256D01*
X664196Y285327D01*
X664178Y285376D01*
X664170Y285428D01*
X664136Y285491D01*
X664111Y285558D01*
X664079Y285599D01*
X664054Y285645D01*
X664002Y285694D01*
X663958Y285750D01*
X663914Y285778D01*
X663876Y285814D01*
X663811Y285844D01*
X663751Y285883D01*
X663700Y285896D01*
X663653Y285918D01*
X663582Y285926D01*
X663512Y285943D01*
X663460Y285939D01*
X663409Y285945D01*
X663338Y285930D01*
X663267Y285924D01*
X663219Y285904D01*
X663168Y285893D01*
X663107Y285856D01*
X663041Y285828D01*
X662985Y285783D01*
X662957Y285767D01*
X662942Y285749D01*
X662910Y285723D01*
X661728Y284541D01*
X660982Y284232D01*
X660904Y284184D01*
X660823Y284142D01*
X660800Y284119D01*
X660773Y284102D01*
X660715Y284032D01*
X660651Y283967D01*
X660631Y283931D01*
X660616Y283913D01*
X660604Y283883D01*
X660570Y283820D01*
X660058Y282584D01*
X655262Y277788D01*
X655209Y277714D01*
X655149Y277645D01*
X655137Y277614D01*
X655118Y277588D01*
X655091Y277501D01*
X655057Y277416D01*
X655053Y277376D01*
X655046Y277353D01*
X655047Y277321D01*
X655039Y277250D01*
X655039Y276061D01*
X653844Y273177D01*
X651637Y270970D01*
X648753Y269775D01*
X645631Y269775D01*
X642747Y270970D01*
X640540Y273177D01*
X639345Y276061D01*
X639345Y279183D01*
X640540Y282067D01*
X642747Y284274D01*
X645631Y285469D01*
X646820Y285469D01*
X646910Y285483D01*
X647001Y285491D01*
X647031Y285503D01*
X647062Y285508D01*
X647143Y285551D01*
X647227Y285587D01*
X647259Y285613D01*
X647280Y285624D01*
X647302Y285647D01*
X647358Y285692D01*
X647530Y285863D01*
X647541Y285879D01*
X647557Y285892D01*
X647613Y285979D01*
X647673Y286063D01*
X647679Y286082D01*
X647690Y286099D01*
X647715Y286199D01*
X647745Y286298D01*
X647745Y286318D01*
X647750Y286337D01*
X647742Y286440D01*
X647739Y286544D01*
X647732Y286563D01*
X647731Y286582D01*
X647690Y286677D01*
X647655Y286775D01*
X647642Y286791D01*
X647634Y286809D01*
X647530Y286940D01*
X646999Y287470D01*
X645413Y291298D01*
X645413Y295442D01*
X646999Y299270D01*
X649928Y302199D01*
X653756Y303785D01*
X657900Y303785D01*
X661728Y302199D01*
X662910Y301017D01*
X662968Y300975D01*
X663020Y300926D01*
X663039Y300917D01*
X663050Y300908D01*
X663077Y300897D01*
X663109Y300873D01*
X663178Y300852D01*
X663243Y300822D01*
X663270Y300819D01*
X663278Y300816D01*
X663307Y300812D01*
X663345Y300801D01*
X663398Y300802D01*
X663445Y300797D01*
X663448Y300797D01*
X663456Y300799D01*
X663487Y300795D01*
X663538Y300806D01*
X663590Y300807D01*
X663656Y300831D01*
X663691Y300837D01*
X663698Y300841D01*
X663728Y300847D01*
X663773Y300874D01*
X663821Y300892D01*
X663874Y300934D01*
X663908Y300952D01*
X663915Y300959D01*
X663939Y300973D01*
X663973Y301013D01*
X664013Y301046D01*
X664048Y301100D01*
X664078Y301130D01*
X664083Y301141D01*
X664099Y301160D01*
X664118Y301209D01*
X664146Y301252D01*
X664161Y301310D01*
X664181Y301353D01*
X664183Y301369D01*
X664191Y301388D01*
X664199Y301460D01*
X664207Y301491D01*
X664205Y301514D01*
X664209Y301555D01*
X664209Y319024D01*
X664206Y319043D01*
X664208Y319074D01*
X664121Y320400D01*
X664115Y320423D01*
X664096Y320547D01*
X663410Y323109D01*
X663403Y323123D01*
X663401Y323139D01*
X663334Y323293D01*
X662008Y325590D01*
X661998Y325602D01*
X661992Y325616D01*
X661887Y325747D01*
X660011Y327623D01*
X659999Y327632D01*
X659989Y327644D01*
X659854Y327744D01*
X657557Y329070D01*
X657542Y329075D01*
X657529Y329085D01*
X657373Y329146D01*
X654811Y329832D01*
X654787Y329835D01*
X654664Y329857D01*
X653338Y329944D01*
X653319Y329942D01*
X653288Y329945D01*
X375305Y329945D01*
X375235Y329934D01*
X375163Y329932D01*
X375114Y329914D01*
X375063Y329906D01*
X374999Y329872D01*
X374932Y329847D01*
X374891Y329815D01*
X374845Y329790D01*
X374796Y329739D01*
X374740Y329694D01*
X374712Y329650D01*
X374676Y329612D01*
X374646Y329547D01*
X374607Y329487D01*
X374594Y329436D01*
X374572Y329389D01*
X374564Y329318D01*
X374547Y329248D01*
X374551Y329196D01*
X374545Y329145D01*
X374560Y329074D01*
X374566Y329003D01*
X374586Y328955D01*
X374597Y328904D01*
X374634Y328843D01*
X374662Y328777D01*
X374707Y328721D01*
X374724Y328693D01*
X374741Y328678D01*
X374767Y328646D01*
X387856Y315557D01*
X387872Y315545D01*
X387885Y315529D01*
X387972Y315473D01*
X388056Y315413D01*
X388075Y315407D01*
X388092Y315396D01*
X388192Y315371D01*
X388291Y315341D01*
X388311Y315341D01*
X388330Y315336D01*
X388433Y315344D01*
X388537Y315347D01*
X388556Y315354D01*
X388576Y315355D01*
X388670Y315396D01*
X388768Y315431D01*
X388784Y315444D01*
X388802Y315452D01*
X388933Y315557D01*
X398154Y324778D01*
X400208Y325629D01*
X519272Y325629D01*
X521326Y324778D01*
X523005Y323099D01*
X544562Y301541D01*
X544578Y301530D01*
X544591Y301514D01*
X544678Y301458D01*
X544762Y301398D01*
X544781Y301392D01*
X544798Y301381D01*
X544898Y301356D01*
X544997Y301326D01*
X545017Y301326D01*
X545036Y301321D01*
X545139Y301329D01*
X545243Y301332D01*
X545262Y301339D01*
X545281Y301340D01*
X545376Y301381D01*
X545474Y301416D01*
X545490Y301429D01*
X545508Y301437D01*
X545639Y301541D01*
X546042Y301945D01*
X549870Y303531D01*
X554014Y303531D01*
X557842Y301945D01*
X560220Y299567D01*
X560257Y299540D01*
X560288Y299506D01*
X560357Y299468D01*
X560420Y299423D01*
X560464Y299410D01*
X560504Y299387D01*
X560581Y299374D01*
X560655Y299351D01*
X560701Y299352D01*
X560746Y299344D01*
X560823Y299355D01*
X560901Y299357D01*
X560944Y299373D01*
X560989Y299380D01*
X561059Y299415D01*
X561132Y299442D01*
X561168Y299470D01*
X561209Y299491D01*
X561263Y299547D01*
X561324Y299595D01*
X561349Y299634D01*
X561381Y299667D01*
X561447Y299786D01*
X561457Y299802D01*
X561458Y299807D01*
X561462Y299814D01*
X561682Y300346D01*
X570874Y309538D01*
X572928Y310389D01*
X582772Y310389D01*
X584826Y309538D01*
X594018Y300346D01*
X594869Y298292D01*
X594869Y298071D01*
X594872Y298048D01*
X594870Y298025D01*
X594892Y297927D01*
X594908Y297828D01*
X594919Y297808D01*
X594924Y297785D01*
X594977Y297699D01*
X595024Y297611D01*
X595040Y297595D01*
X595052Y297575D01*
X595129Y297510D01*
X595202Y297441D01*
X595223Y297431D01*
X595240Y297417D01*
X595334Y297380D01*
X595425Y297338D01*
X595448Y297335D01*
X595469Y297327D01*
X595570Y297322D01*
X595669Y297310D01*
X595692Y297315D01*
X595715Y297314D01*
X595812Y297341D01*
X595910Y297363D01*
X595930Y297375D01*
X595952Y297381D01*
X596035Y297437D01*
X596121Y297489D01*
X596136Y297506D01*
X596155Y297519D01*
X596263Y297648D01*
X596852Y298530D01*
X598090Y299768D01*
X599547Y300741D01*
X601165Y301411D01*
X602235Y301624D01*
X602235Y293624D01*
X602238Y293604D01*
X602236Y293585D01*
X602258Y293483D01*
X602275Y293381D01*
X602284Y293364D01*
X602288Y293344D01*
X602341Y293255D01*
X602390Y293164D01*
X602404Y293150D01*
X602414Y293133D01*
X602493Y293066D01*
X602568Y292995D01*
X602586Y292986D01*
X602601Y292973D01*
X602697Y292934D01*
X602791Y292891D01*
X602811Y292889D01*
X602829Y292881D01*
X602996Y292863D01*
X604520Y292863D01*
X604540Y292866D01*
X604559Y292864D01*
X604661Y292886D01*
X604763Y292903D01*
X604780Y292912D01*
X604800Y292916D01*
X604889Y292969D01*
X604980Y293018D01*
X604994Y293032D01*
X605011Y293042D01*
X605078Y293121D01*
X605149Y293196D01*
X605158Y293214D01*
X605171Y293229D01*
X605210Y293325D01*
X605253Y293419D01*
X605255Y293439D01*
X605263Y293457D01*
X605281Y293624D01*
X605281Y301624D01*
X606351Y301411D01*
X607969Y300741D01*
X609426Y299768D01*
X610664Y298530D01*
X610905Y298169D01*
X610969Y298100D01*
X611028Y298026D01*
X611053Y298010D01*
X611073Y297989D01*
X611156Y297944D01*
X611235Y297893D01*
X611264Y297886D01*
X611289Y297872D01*
X611382Y297856D01*
X611474Y297833D01*
X611503Y297835D01*
X611532Y297830D01*
X611625Y297845D01*
X611719Y297852D01*
X611746Y297864D01*
X611775Y297868D01*
X611859Y297912D01*
X611945Y297948D01*
X611974Y297971D01*
X611993Y297981D01*
X612016Y298005D01*
X612076Y298053D01*
X612775Y298752D01*
X615659Y299947D01*
X618781Y299947D01*
X621680Y298746D01*
X621794Y298719D01*
X621908Y298690D01*
X621914Y298691D01*
X621920Y298689D01*
X622036Y298700D01*
X622153Y298710D01*
X622158Y298712D01*
X622165Y298713D01*
X622272Y298760D01*
X622379Y298806D01*
X622385Y298811D01*
X622389Y298813D01*
X622403Y298825D01*
X622510Y298911D01*
X624528Y300929D01*
X628356Y302515D01*
X632500Y302515D01*
X636328Y300929D01*
X639257Y298000D01*
X640843Y294172D01*
X640843Y290028D01*
X639257Y286200D01*
X636328Y283271D01*
X632500Y281685D01*
X628356Y281685D01*
X624528Y283271D01*
X622510Y285289D01*
X622415Y285357D01*
X622321Y285427D01*
X622315Y285429D01*
X622310Y285433D01*
X622199Y285467D01*
X622087Y285503D01*
X622081Y285503D01*
X622075Y285505D01*
X621958Y285502D01*
X621842Y285501D01*
X621834Y285499D01*
X621829Y285499D01*
X621812Y285492D01*
X621680Y285454D01*
X618781Y284253D01*
X615659Y284253D01*
X612775Y285448D01*
X611385Y286839D01*
X611368Y286850D01*
X611356Y286866D01*
X611269Y286922D01*
X611185Y286982D01*
X611166Y286988D01*
X611149Y286999D01*
X611049Y287024D01*
X610950Y287054D01*
X610930Y287054D01*
X610910Y287059D01*
X610807Y287051D01*
X610704Y287048D01*
X610685Y287041D01*
X610665Y287040D01*
X610570Y286999D01*
X610473Y286964D01*
X610457Y286951D01*
X610439Y286943D01*
X610308Y286839D01*
X609426Y285956D01*
X607969Y284983D01*
X606351Y284313D01*
X605281Y284100D01*
X605281Y292100D01*
X605278Y292120D01*
X605280Y292139D01*
X605258Y292241D01*
X605241Y292343D01*
X605232Y292360D01*
X605228Y292380D01*
X605175Y292469D01*
X605126Y292560D01*
X605112Y292574D01*
X605102Y292591D01*
X605023Y292658D01*
X604948Y292729D01*
X604930Y292738D01*
X604915Y292751D01*
X604819Y292790D01*
X604725Y292833D01*
X604705Y292835D01*
X604687Y292843D01*
X604520Y292861D01*
X602996Y292861D01*
X602976Y292858D01*
X602957Y292860D01*
X602855Y292838D01*
X602753Y292821D01*
X602736Y292812D01*
X602716Y292808D01*
X602627Y292755D01*
X602536Y292706D01*
X602522Y292692D01*
X602505Y292682D01*
X602438Y292603D01*
X602367Y292528D01*
X602358Y292510D01*
X602345Y292495D01*
X602306Y292399D01*
X602263Y292305D01*
X602261Y292285D01*
X602253Y292267D01*
X602235Y292100D01*
X602235Y284100D01*
X601165Y284313D01*
X599547Y284983D01*
X598090Y285956D01*
X596852Y287194D01*
X596098Y288323D01*
X596078Y288345D01*
X596076Y288347D01*
X596073Y288350D01*
X596018Y288409D01*
X595935Y288498D01*
X595933Y288500D01*
X595930Y288502D01*
X595827Y288558D01*
X595720Y288617D01*
X595717Y288618D01*
X595714Y288619D01*
X595597Y288639D01*
X595478Y288661D01*
X595475Y288660D01*
X595472Y288661D01*
X595354Y288643D01*
X595234Y288625D01*
X595232Y288624D01*
X595229Y288623D01*
X595122Y288568D01*
X595015Y288513D01*
X595013Y288511D01*
X595010Y288510D01*
X594928Y288425D01*
X594843Y288338D01*
X594841Y288335D01*
X594839Y288333D01*
X594835Y288323D01*
X594762Y288191D01*
X594018Y286394D01*
X556886Y249262D01*
X554832Y248411D01*
X471328Y248411D01*
X469274Y249262D01*
X464950Y253586D01*
X464892Y253628D01*
X464840Y253678D01*
X464793Y253699D01*
X464750Y253730D01*
X464682Y253751D01*
X464617Y253781D01*
X464565Y253787D01*
X464515Y253802D01*
X464443Y253800D01*
X464372Y253808D01*
X464321Y253797D01*
X464269Y253796D01*
X464202Y253771D01*
X464132Y253756D01*
X464087Y253729D01*
X464038Y253711D01*
X463982Y253667D01*
X463921Y253630D01*
X463887Y253590D01*
X463846Y253558D01*
X463808Y253497D01*
X463761Y253443D01*
X463741Y253395D01*
X463713Y253351D01*
X463696Y253281D01*
X463669Y253215D01*
X463661Y253143D01*
X463653Y253112D01*
X463655Y253089D01*
X463651Y253048D01*
X463651Y174311D01*
X461098Y168149D01*
X431388Y138439D01*
X430139Y137190D01*
X430097Y137132D01*
X430048Y137080D01*
X430026Y137033D01*
X429996Y136991D01*
X429975Y136922D01*
X429944Y136857D01*
X429939Y136805D01*
X429923Y136755D01*
X429925Y136684D01*
X429917Y136613D01*
X429928Y136562D01*
X429930Y136510D01*
X429954Y136442D01*
X429969Y136372D01*
X429996Y136327D01*
X430014Y136279D01*
X430059Y136223D01*
X430096Y136161D01*
X430135Y136127D01*
X430168Y136087D01*
X430228Y136048D01*
X430283Y136001D01*
X430331Y135982D01*
X430375Y135954D01*
X430444Y135936D01*
X430511Y135909D01*
X430582Y135901D01*
X430613Y135893D01*
X430637Y135895D01*
X430677Y135891D01*
X435299Y135891D01*
X437276Y135072D01*
X437365Y135051D01*
X437452Y135022D01*
X437484Y135023D01*
X437516Y135015D01*
X437606Y135024D01*
X437698Y135025D01*
X437737Y135036D01*
X437761Y135039D01*
X437790Y135052D01*
X437859Y135072D01*
X439223Y135637D01*
X463528Y135637D01*
X468666Y133556D01*
X472571Y129772D01*
X472597Y129754D01*
X472618Y129731D01*
X472698Y129685D01*
X472773Y129632D01*
X472804Y129623D01*
X472831Y129608D01*
X472921Y129589D01*
X473010Y129563D01*
X473041Y129565D01*
X473072Y129559D01*
X473163Y129570D01*
X473255Y129574D01*
X473285Y129585D01*
X473316Y129589D01*
X473399Y129629D01*
X473485Y129662D01*
X473509Y129682D01*
X473538Y129696D01*
X473664Y129806D01*
X477036Y133505D01*
X482440Y135891D01*
X508959Y135891D01*
X511200Y134963D01*
X511526Y134636D01*
X511542Y134625D01*
X511554Y134609D01*
X511642Y134553D01*
X511725Y134493D01*
X511744Y134487D01*
X511761Y134476D01*
X511862Y134451D01*
X511960Y134420D01*
X511980Y134421D01*
X512000Y134416D01*
X512103Y134424D01*
X512206Y134427D01*
X512225Y134434D01*
X512245Y134435D01*
X512340Y134476D01*
X512437Y134511D01*
X512453Y134524D01*
X512471Y134532D01*
X512602Y134636D01*
X513944Y135979D01*
X516185Y136907D01*
X518611Y136907D01*
X520852Y135979D01*
X522567Y134264D01*
X523495Y132023D01*
X523495Y125416D01*
X523505Y125351D01*
X523506Y125285D01*
X523525Y125230D01*
X523534Y125173D01*
X523565Y125115D01*
X523587Y125053D01*
X523622Y125007D01*
X523650Y124955D01*
X523697Y124910D01*
X523737Y124859D01*
X523786Y124826D01*
X523828Y124786D01*
X523887Y124758D01*
X523942Y124722D01*
X523998Y124707D01*
X524051Y124682D01*
X524116Y124675D01*
X524179Y124658D01*
X524238Y124662D01*
X524295Y124655D01*
X524359Y124669D01*
X524425Y124673D01*
X524503Y124701D01*
X524536Y124708D01*
X524553Y124718D01*
X524583Y124728D01*
X547876Y135820D01*
X550298Y135945D01*
X552584Y135134D01*
X553053Y134711D01*
X553135Y134658D01*
X553213Y134600D01*
X553238Y134592D01*
X553260Y134578D01*
X553355Y134554D01*
X553447Y134524D01*
X553473Y134524D01*
X553499Y134518D01*
X553596Y134525D01*
X553693Y134526D01*
X553725Y134535D01*
X553744Y134537D01*
X553774Y134550D01*
X553854Y134573D01*
X555809Y135383D01*
X573079Y135383D01*
X573143Y135393D01*
X573209Y135394D01*
X573289Y135417D01*
X573321Y135422D01*
X573339Y135432D01*
X573370Y135441D01*
X573843Y135637D01*
X576269Y135637D01*
X576742Y135441D01*
X576806Y135426D01*
X576867Y135401D01*
X576949Y135392D01*
X576981Y135385D01*
X577001Y135386D01*
X577033Y135383D01*
X593795Y135383D01*
X595159Y134818D01*
X595248Y134797D01*
X595335Y134768D01*
X595367Y134769D01*
X595399Y134761D01*
X595489Y134770D01*
X595581Y134771D01*
X595620Y134782D01*
X595643Y134785D01*
X595673Y134798D01*
X595742Y134818D01*
X597719Y135637D01*
X610677Y135637D01*
X610724Y135644D01*
X610772Y135643D01*
X610845Y135664D01*
X610919Y135676D01*
X610962Y135699D01*
X611008Y135713D01*
X611070Y135756D01*
X611137Y135792D01*
X611170Y135826D01*
X611209Y135854D01*
X611254Y135915D01*
X611306Y135970D01*
X611326Y136013D01*
X611355Y136052D01*
X611378Y136124D01*
X611410Y136193D01*
X611415Y136241D01*
X611430Y136286D01*
X611429Y136362D01*
X611437Y136437D01*
X611427Y136484D01*
X611426Y136532D01*
X611401Y136604D01*
X611385Y136678D01*
X611360Y136719D01*
X611344Y136764D01*
X611297Y136824D01*
X611259Y136889D01*
X611222Y136920D01*
X611192Y136958D01*
X611089Y137034D01*
X611072Y137049D01*
X611065Y137051D01*
X611057Y137057D01*
X610117Y137600D01*
X604960Y142757D01*
X601313Y149074D01*
X599425Y156119D01*
X599425Y163413D01*
X601313Y170458D01*
X604960Y176775D01*
X610117Y181932D01*
X616434Y185579D01*
X623479Y187467D01*
X630773Y187467D01*
X637818Y185579D01*
X644135Y181932D01*
X649292Y176775D01*
X652939Y170458D01*
X654827Y163413D01*
X654827Y156119D01*
X652939Y149074D01*
X649292Y142757D01*
X644135Y137600D01*
X642941Y136911D01*
X642849Y136836D01*
X642756Y136761D01*
X642754Y136757D01*
X642750Y136755D01*
X642688Y136655D01*
X642623Y136554D01*
X642622Y136550D01*
X642620Y136546D01*
X642592Y136431D01*
X642563Y136316D01*
X642563Y136311D01*
X642562Y136307D01*
X642573Y136188D01*
X642582Y136070D01*
X642584Y136067D01*
X642584Y136062D01*
X642632Y135952D01*
X642678Y135844D01*
X642681Y135840D01*
X642683Y135837D01*
X642692Y135827D01*
X642783Y135713D01*
X643979Y134518D01*
X644907Y132277D01*
X644907Y109728D01*
X644911Y109705D01*
X644908Y109684D01*
X644910Y109675D01*
X644910Y109658D01*
X644932Y109418D01*
X644937Y109398D01*
X644937Y109377D01*
X644980Y109214D01*
X645152Y108767D01*
X645181Y108719D01*
X645200Y108666D01*
X645261Y108582D01*
X645277Y108555D01*
X645287Y108547D01*
X645299Y108530D01*
X645620Y108175D01*
X645664Y108140D01*
X645702Y108097D01*
X645789Y108041D01*
X645813Y108022D01*
X645825Y108017D01*
X645842Y108006D01*
X646270Y107790D01*
X646290Y107784D01*
X646308Y107773D01*
X646468Y107723D01*
X646564Y107705D01*
X646594Y107704D01*
X646699Y107691D01*
X660642Y107521D01*
X660737Y107535D01*
G37*
G36*
X25219Y104398D02*
X25219Y104398D01*
X25249Y104396D01*
X27469Y104538D01*
X27769Y104436D01*
X27810Y104429D01*
X27848Y104413D01*
X28005Y104396D01*
X28011Y104395D01*
X28013Y104395D01*
X28015Y104395D01*
X216841Y104395D01*
X216911Y104406D01*
X216983Y104408D01*
X217032Y104426D01*
X217084Y104434D01*
X217147Y104468D01*
X217214Y104493D01*
X217255Y104525D01*
X217301Y104550D01*
X217350Y104602D01*
X217406Y104646D01*
X217434Y104690D01*
X217470Y104728D01*
X217500Y104793D01*
X217539Y104853D01*
X217552Y104904D01*
X217574Y104951D01*
X217582Y105022D01*
X217599Y105092D01*
X217595Y105144D01*
X217601Y105195D01*
X217586Y105266D01*
X217580Y105337D01*
X217560Y105385D01*
X217549Y105436D01*
X217512Y105497D01*
X217484Y105563D01*
X217439Y105619D01*
X217423Y105647D01*
X217405Y105662D01*
X217379Y105694D01*
X215138Y107935D01*
X213359Y112230D01*
X213359Y132118D01*
X215150Y136442D01*
X215184Y136478D01*
X215206Y136525D01*
X215237Y136567D01*
X215258Y136636D01*
X215288Y136701D01*
X215294Y136753D01*
X215309Y136802D01*
X215307Y136874D01*
X215315Y136945D01*
X215304Y136996D01*
X215303Y137048D01*
X215278Y137116D01*
X215263Y137186D01*
X215236Y137230D01*
X215218Y137279D01*
X215173Y137335D01*
X215137Y137397D01*
X215097Y137431D01*
X215065Y137471D01*
X215004Y137510D01*
X214950Y137557D01*
X214901Y137576D01*
X214858Y137604D01*
X214788Y137622D01*
X214721Y137649D01*
X214650Y137657D01*
X214619Y137665D01*
X214596Y137663D01*
X214555Y137667D01*
X190469Y137667D01*
X184307Y140220D01*
X179484Y145042D01*
X179484Y145043D01*
X161174Y163352D01*
X161100Y163405D01*
X161031Y163465D01*
X161000Y163477D01*
X160974Y163496D01*
X160887Y163523D01*
X160802Y163557D01*
X160762Y163561D01*
X160739Y163568D01*
X160707Y163567D01*
X160636Y163575D01*
X29431Y163575D01*
X23270Y166128D01*
X21366Y168031D01*
X21308Y168073D01*
X21256Y168122D01*
X21209Y168144D01*
X21167Y168174D01*
X21098Y168195D01*
X21033Y168226D01*
X20981Y168231D01*
X20931Y168247D01*
X20860Y168245D01*
X20789Y168253D01*
X20738Y168242D01*
X20686Y168240D01*
X20618Y168216D01*
X20548Y168201D01*
X20503Y168174D01*
X20455Y168156D01*
X20399Y168111D01*
X20337Y168074D01*
X20303Y168035D01*
X20263Y168002D01*
X20224Y167942D01*
X20177Y167887D01*
X20158Y167839D01*
X20130Y167795D01*
X20112Y167726D01*
X20085Y167659D01*
X20077Y167588D01*
X20069Y167557D01*
X20071Y167533D01*
X20067Y167493D01*
X20067Y108401D01*
X20072Y108368D01*
X20074Y108293D01*
X20128Y107916D01*
X20130Y107911D01*
X20130Y107905D01*
X20174Y107743D01*
X20604Y106662D01*
X20622Y106631D01*
X20633Y106597D01*
X20725Y106457D01*
X21468Y105561D01*
X21495Y105538D01*
X21516Y105508D01*
X21647Y105404D01*
X22630Y104781D01*
X22663Y104767D01*
X22691Y104746D01*
X22848Y104687D01*
X23897Y104418D01*
X23908Y104417D01*
X23918Y104413D01*
X24085Y104395D01*
X25200Y104395D01*
X25219Y104398D01*
G37*
G36*
X215989Y180860D02*
X215989Y180860D01*
X216061Y180862D01*
X216110Y180880D01*
X216161Y180888D01*
X216224Y180922D01*
X216292Y180947D01*
X216332Y180979D01*
X216378Y181004D01*
X216428Y181056D01*
X216484Y181100D01*
X216512Y181144D01*
X216548Y181182D01*
X216578Y181247D01*
X216617Y181307D01*
X216630Y181358D01*
X216651Y181405D01*
X216659Y181476D01*
X216677Y181546D01*
X216673Y181598D01*
X216679Y181649D01*
X216663Y181720D01*
X216658Y181791D01*
X216637Y181839D01*
X216626Y181890D01*
X216589Y181951D01*
X216561Y182017D01*
X216517Y182073D01*
X216500Y182101D01*
X216482Y182116D01*
X216457Y182148D01*
X210966Y187639D01*
X209883Y190253D01*
X209883Y210069D01*
X209999Y210349D01*
X210014Y210413D01*
X210039Y210474D01*
X210048Y210557D01*
X210055Y210589D01*
X210054Y210608D01*
X210057Y210640D01*
X210057Y227729D01*
X211140Y230343D01*
X213141Y232344D01*
X215755Y233427D01*
X217250Y233427D01*
X217270Y233430D01*
X217289Y233428D01*
X217391Y233450D01*
X217493Y233466D01*
X217510Y233476D01*
X217530Y233480D01*
X217619Y233533D01*
X217710Y233582D01*
X217724Y233596D01*
X217741Y233606D01*
X217808Y233685D01*
X217880Y233760D01*
X217888Y233778D01*
X217901Y233793D01*
X217940Y233889D01*
X217983Y233983D01*
X217985Y234003D01*
X217993Y234021D01*
X218011Y234188D01*
X218011Y241508D01*
X218789Y242286D01*
X218801Y242302D01*
X218817Y242314D01*
X218873Y242402D01*
X218933Y242485D01*
X218939Y242504D01*
X218950Y242521D01*
X218975Y242622D01*
X219005Y242721D01*
X219005Y242740D01*
X219010Y242760D01*
X219002Y242863D01*
X218999Y242966D01*
X218992Y242985D01*
X218990Y243005D01*
X218950Y243100D01*
X218914Y243197D01*
X218902Y243213D01*
X218894Y243231D01*
X218789Y243362D01*
X218011Y244140D01*
X218011Y255899D01*
X218009Y255912D01*
X218010Y255923D01*
X218000Y255972D01*
X217998Y256041D01*
X217980Y256090D01*
X217972Y256141D01*
X217938Y256205D01*
X217913Y256272D01*
X217881Y256313D01*
X217856Y256359D01*
X217804Y256408D01*
X217760Y256464D01*
X217716Y256492D01*
X217678Y256528D01*
X217613Y256558D01*
X217553Y256597D01*
X217502Y256610D01*
X217455Y256632D01*
X217384Y256640D01*
X217314Y256657D01*
X217262Y256653D01*
X217211Y256659D01*
X217140Y256644D01*
X217069Y256638D01*
X217021Y256618D01*
X216970Y256607D01*
X216909Y256570D01*
X216843Y256542D01*
X216787Y256497D01*
X216777Y256491D01*
X216775Y256490D01*
X216774Y256490D01*
X216759Y256480D01*
X216744Y256463D01*
X216712Y256437D01*
X203419Y243144D01*
X200805Y242061D01*
X41765Y242061D01*
X39151Y243144D01*
X36642Y245653D01*
X35559Y248267D01*
X35559Y254083D01*
X35545Y254173D01*
X35537Y254264D01*
X35525Y254294D01*
X35520Y254326D01*
X35477Y254406D01*
X35441Y254490D01*
X35415Y254522D01*
X35404Y254543D01*
X35381Y254565D01*
X35336Y254621D01*
X33607Y256350D01*
X33607Y270718D01*
X34385Y271496D01*
X34397Y271512D01*
X34413Y271524D01*
X34469Y271612D01*
X34529Y271695D01*
X34535Y271714D01*
X34546Y271731D01*
X34571Y271832D01*
X34601Y271931D01*
X34601Y271950D01*
X34606Y271970D01*
X34598Y272073D01*
X34595Y272176D01*
X34588Y272195D01*
X34586Y272215D01*
X34546Y272310D01*
X34510Y272407D01*
X34498Y272423D01*
X34490Y272441D01*
X34385Y272572D01*
X33607Y273350D01*
X33607Y287718D01*
X35988Y290099D01*
X49356Y290099D01*
X51839Y287616D01*
X51913Y287563D01*
X51982Y287503D01*
X52012Y287491D01*
X52038Y287472D01*
X52125Y287445D01*
X52210Y287411D01*
X52251Y287407D01*
X52274Y287400D01*
X52306Y287401D01*
X52377Y287393D01*
X63193Y287393D01*
X63283Y287407D01*
X63374Y287415D01*
X63404Y287427D01*
X63436Y287432D01*
X63516Y287475D01*
X63600Y287511D01*
X63632Y287537D01*
X63653Y287548D01*
X63675Y287571D01*
X63731Y287616D01*
X65960Y289845D01*
X79328Y289845D01*
X81557Y287616D01*
X81631Y287563D01*
X81700Y287503D01*
X81730Y287491D01*
X81756Y287472D01*
X81843Y287445D01*
X81928Y287411D01*
X81969Y287407D01*
X81992Y287400D01*
X82024Y287401D01*
X82095Y287393D01*
X92429Y287393D01*
X92544Y287412D01*
X92660Y287429D01*
X92666Y287431D01*
X92672Y287432D01*
X92775Y287487D01*
X92880Y287540D01*
X92884Y287545D01*
X92890Y287548D01*
X92969Y287632D01*
X93052Y287716D01*
X93055Y287722D01*
X93059Y287726D01*
X93067Y287743D01*
X93133Y287863D01*
X93678Y289179D01*
X95885Y291386D01*
X97750Y292159D01*
X97811Y292197D01*
X97877Y292226D01*
X97915Y292261D01*
X97959Y292288D01*
X98005Y292344D01*
X98058Y292392D01*
X98083Y292438D01*
X98116Y292478D01*
X98142Y292545D01*
X98176Y292608D01*
X98186Y292659D01*
X98204Y292707D01*
X98207Y292779D01*
X98220Y292850D01*
X98213Y292901D01*
X98215Y292953D01*
X98195Y293022D01*
X98184Y293093D01*
X98161Y293139D01*
X98146Y293189D01*
X98105Y293248D01*
X98073Y293312D01*
X98036Y293349D01*
X98006Y293391D01*
X97948Y293434D01*
X97897Y293484D01*
X97834Y293519D01*
X97809Y293538D01*
X97786Y293545D01*
X97750Y293565D01*
X95885Y294338D01*
X93631Y296592D01*
X93594Y296655D01*
X93589Y296659D01*
X93586Y296664D01*
X93496Y296738D01*
X93407Y296815D01*
X93401Y296817D01*
X93396Y296821D01*
X93288Y296863D01*
X93179Y296907D01*
X93171Y296908D01*
X93167Y296909D01*
X93148Y296910D01*
X93012Y296925D01*
X80435Y296925D01*
X80345Y296911D01*
X80254Y296903D01*
X80224Y296891D01*
X80192Y296886D01*
X80112Y296843D01*
X80028Y296807D01*
X79995Y296781D01*
X79975Y296770D01*
X79953Y296747D01*
X79897Y296702D01*
X79328Y296133D01*
X65960Y296133D01*
X63731Y298362D01*
X63657Y298415D01*
X63588Y298475D01*
X63558Y298487D01*
X63532Y298506D01*
X63445Y298533D01*
X63360Y298567D01*
X63319Y298571D01*
X63297Y298578D01*
X63264Y298577D01*
X63193Y298585D01*
X53139Y298585D01*
X53049Y298571D01*
X52958Y298563D01*
X52928Y298551D01*
X52896Y298546D01*
X52816Y298503D01*
X52732Y298467D01*
X52700Y298441D01*
X52679Y298430D01*
X52657Y298407D01*
X52601Y298362D01*
X50372Y296133D01*
X37004Y296133D01*
X34623Y298514D01*
X34623Y312882D01*
X36507Y314766D01*
X36533Y314801D01*
X36565Y314831D01*
X36604Y314900D01*
X36651Y314965D01*
X36664Y315007D01*
X36685Y315045D01*
X36699Y315124D01*
X36723Y315200D01*
X36722Y315244D01*
X36730Y315287D01*
X36719Y315366D01*
X36717Y315446D01*
X36702Y315487D01*
X36695Y315531D01*
X36637Y315664D01*
X36632Y315677D01*
X36630Y315680D01*
X36628Y315684D01*
X36320Y316217D01*
X36147Y316864D01*
X36147Y321175D01*
X42926Y321175D01*
X42946Y321178D01*
X42965Y321176D01*
X43067Y321198D01*
X43169Y321215D01*
X43186Y321224D01*
X43206Y321228D01*
X43295Y321281D01*
X43386Y321330D01*
X43400Y321344D01*
X43417Y321354D01*
X43484Y321433D01*
X43555Y321508D01*
X43564Y321526D01*
X43577Y321541D01*
X43616Y321637D01*
X43659Y321731D01*
X43661Y321751D01*
X43669Y321769D01*
X43687Y321936D01*
X43687Y323460D01*
X43684Y323480D01*
X43686Y323499D01*
X43664Y323601D01*
X43647Y323703D01*
X43638Y323720D01*
X43634Y323740D01*
X43581Y323829D01*
X43532Y323920D01*
X43518Y323934D01*
X43508Y323951D01*
X43429Y324018D01*
X43354Y324089D01*
X43336Y324098D01*
X43321Y324111D01*
X43225Y324150D01*
X43131Y324193D01*
X43111Y324195D01*
X43093Y324203D01*
X42926Y324221D01*
X36147Y324221D01*
X36147Y328532D01*
X36269Y328987D01*
X36281Y329106D01*
X36294Y329223D01*
X36293Y329228D01*
X36294Y329232D01*
X36267Y329348D01*
X36242Y329464D01*
X36240Y329467D01*
X36239Y329471D01*
X36176Y329573D01*
X36116Y329675D01*
X36112Y329678D01*
X36110Y329681D01*
X36019Y329758D01*
X35929Y329835D01*
X35925Y329836D01*
X35922Y329839D01*
X35812Y329882D01*
X35700Y329927D01*
X35696Y329927D01*
X35692Y329929D01*
X35679Y329929D01*
X35534Y329945D01*
X34290Y329945D01*
X34271Y329942D01*
X34240Y329944D01*
X32483Y329828D01*
X32460Y329823D01*
X32336Y329804D01*
X28941Y328895D01*
X28927Y328888D01*
X28911Y328886D01*
X28758Y328819D01*
X25714Y327061D01*
X25702Y327051D01*
X25688Y327045D01*
X25557Y326940D01*
X23072Y324455D01*
X23062Y324443D01*
X23050Y324433D01*
X22951Y324298D01*
X21193Y321254D01*
X21188Y321240D01*
X21178Y321227D01*
X21117Y321071D01*
X20208Y317676D01*
X20205Y317652D01*
X20184Y317529D01*
X20068Y315772D01*
X20070Y315753D01*
X20067Y315722D01*
X20067Y236367D01*
X20078Y236297D01*
X20080Y236225D01*
X20098Y236176D01*
X20106Y236125D01*
X20140Y236061D01*
X20165Y235994D01*
X20197Y235953D01*
X20222Y235907D01*
X20274Y235858D01*
X20318Y235802D01*
X20362Y235774D01*
X20400Y235738D01*
X20465Y235708D01*
X20525Y235669D01*
X20576Y235656D01*
X20623Y235634D01*
X20694Y235626D01*
X20764Y235609D01*
X20816Y235613D01*
X20867Y235607D01*
X20938Y235622D01*
X21009Y235628D01*
X21057Y235648D01*
X21108Y235659D01*
X21169Y235696D01*
X21235Y235724D01*
X21291Y235769D01*
X21319Y235786D01*
X21334Y235803D01*
X21366Y235829D01*
X23270Y237732D01*
X24192Y238114D01*
X24247Y238149D01*
X24308Y238175D01*
X24372Y238227D01*
X24401Y238244D01*
X24413Y238259D01*
X24438Y238279D01*
X25936Y239777D01*
X28053Y239777D01*
X28118Y239787D01*
X28184Y239788D01*
X28264Y239811D01*
X28296Y239816D01*
X28313Y239826D01*
X28345Y239835D01*
X29431Y240285D01*
X36101Y240285D01*
X37187Y239835D01*
X37251Y239820D01*
X37312Y239795D01*
X37395Y239786D01*
X37427Y239779D01*
X37446Y239780D01*
X37479Y239777D01*
X39824Y239777D01*
X41483Y238118D01*
X41536Y238080D01*
X41583Y238034D01*
X41656Y237994D01*
X41682Y237975D01*
X41701Y237969D01*
X41730Y237953D01*
X42262Y237732D01*
X47092Y232902D01*
X47313Y232370D01*
X47348Y232314D01*
X47373Y232254D01*
X47425Y232189D01*
X47443Y232161D01*
X47458Y232148D01*
X47478Y232123D01*
X49645Y229956D01*
X49645Y216038D01*
X49641Y216033D01*
X49629Y216003D01*
X49610Y215977D01*
X49583Y215890D01*
X49549Y215805D01*
X49545Y215764D01*
X49538Y215742D01*
X49539Y215710D01*
X49531Y215639D01*
X49531Y197866D01*
X49534Y197846D01*
X49532Y197827D01*
X49554Y197725D01*
X49570Y197623D01*
X49580Y197606D01*
X49584Y197586D01*
X49637Y197497D01*
X49686Y197406D01*
X49700Y197392D01*
X49710Y197375D01*
X49789Y197308D01*
X49864Y197236D01*
X49882Y197228D01*
X49897Y197215D01*
X49993Y197176D01*
X50087Y197133D01*
X50107Y197131D01*
X50125Y197123D01*
X50292Y197105D01*
X166534Y197105D01*
X166605Y197116D01*
X166676Y197118D01*
X166725Y197136D01*
X166777Y197144D01*
X166840Y197178D01*
X166907Y197203D01*
X166948Y197235D01*
X166994Y197260D01*
X167043Y197312D01*
X167099Y197356D01*
X167127Y197400D01*
X167163Y197438D01*
X167193Y197503D01*
X167232Y197563D01*
X167245Y197614D01*
X167267Y197661D01*
X167275Y197732D01*
X167292Y197802D01*
X167288Y197854D01*
X167294Y197905D01*
X167279Y197976D01*
X167273Y198047D01*
X167253Y198095D01*
X167242Y198146D01*
X167205Y198207D01*
X167177Y198273D01*
X167132Y198329D01*
X167116Y198357D01*
X167098Y198372D01*
X167072Y198404D01*
X150308Y215168D01*
X150234Y215221D01*
X150165Y215281D01*
X150134Y215293D01*
X150108Y215312D01*
X150021Y215339D01*
X149936Y215373D01*
X149896Y215377D01*
X149873Y215384D01*
X149841Y215383D01*
X149770Y215391D01*
X149283Y215391D01*
X149193Y215377D01*
X149102Y215369D01*
X149073Y215357D01*
X149041Y215352D01*
X148960Y215309D01*
X148876Y215273D01*
X148844Y215247D01*
X148823Y215236D01*
X148801Y215213D01*
X148745Y215168D01*
X139824Y206247D01*
X125936Y206247D01*
X116115Y216068D01*
X116115Y229956D01*
X125936Y239777D01*
X139824Y239777D01*
X149645Y229956D01*
X149645Y227330D01*
X149648Y227310D01*
X149646Y227291D01*
X149668Y227189D01*
X149684Y227087D01*
X149694Y227070D01*
X149698Y227050D01*
X149751Y226961D01*
X149800Y226870D01*
X149814Y226856D01*
X149824Y226839D01*
X149903Y226772D01*
X149978Y226700D01*
X149996Y226692D01*
X150011Y226679D01*
X150107Y226640D01*
X150201Y226597D01*
X150221Y226595D01*
X150239Y226587D01*
X150406Y226569D01*
X153512Y226569D01*
X155566Y225718D01*
X157245Y224039D01*
X164816Y216468D01*
X164874Y216426D01*
X164926Y216377D01*
X164973Y216355D01*
X165015Y216324D01*
X165084Y216303D01*
X165149Y216273D01*
X165201Y216267D01*
X165251Y216252D01*
X165322Y216254D01*
X165393Y216246D01*
X165444Y216257D01*
X165496Y216258D01*
X165564Y216283D01*
X165634Y216298D01*
X165679Y216325D01*
X165727Y216343D01*
X165783Y216388D01*
X165845Y216424D01*
X165879Y216464D01*
X165919Y216497D01*
X165958Y216557D01*
X166005Y216611D01*
X166024Y216660D01*
X166052Y216703D01*
X166070Y216773D01*
X166097Y216839D01*
X166105Y216911D01*
X166113Y216942D01*
X166111Y216965D01*
X166115Y217006D01*
X166115Y237396D01*
X168496Y239777D01*
X197264Y239777D01*
X199645Y237396D01*
X199645Y208628D01*
X197264Y206247D01*
X176874Y206247D01*
X176803Y206236D01*
X176732Y206234D01*
X176683Y206216D01*
X176631Y206208D01*
X176568Y206174D01*
X176501Y206149D01*
X176460Y206117D01*
X176414Y206092D01*
X176365Y206040D01*
X176309Y205996D01*
X176281Y205952D01*
X176245Y205914D01*
X176215Y205849D01*
X176176Y205789D01*
X176163Y205738D01*
X176141Y205691D01*
X176133Y205620D01*
X176116Y205550D01*
X176120Y205498D01*
X176114Y205447D01*
X176129Y205376D01*
X176135Y205305D01*
X176155Y205257D01*
X176166Y205206D01*
X176203Y205145D01*
X176231Y205079D01*
X176276Y205023D01*
X176292Y204995D01*
X176310Y204980D01*
X176336Y204948D01*
X200212Y181072D01*
X200286Y181019D01*
X200355Y180959D01*
X200386Y180947D01*
X200412Y180928D01*
X200499Y180901D01*
X200584Y180867D01*
X200624Y180863D01*
X200647Y180856D01*
X200679Y180857D01*
X200750Y180849D01*
X215918Y180849D01*
X215989Y180860D01*
G37*
G36*
X343830Y149164D02*
X343830Y149164D01*
X343906Y149160D01*
X343952Y149173D01*
X344000Y149177D01*
X344069Y149207D01*
X344142Y149227D01*
X344182Y149255D01*
X344226Y149273D01*
X344327Y149354D01*
X344345Y149367D01*
X344349Y149372D01*
X344357Y149378D01*
X357019Y162040D01*
X363181Y164593D01*
X409808Y164593D01*
X409899Y164607D01*
X409989Y164615D01*
X410019Y164627D01*
X410051Y164632D01*
X410132Y164675D01*
X410216Y164711D01*
X410248Y164737D01*
X410269Y164748D01*
X410291Y164771D01*
X410347Y164816D01*
X412684Y167153D01*
X412711Y167190D01*
X412745Y167221D01*
X412782Y167290D01*
X412828Y167353D01*
X412841Y167397D01*
X412863Y167437D01*
X412877Y167514D01*
X412900Y167588D01*
X412899Y167634D01*
X412907Y167679D01*
X412896Y167756D01*
X412894Y167834D01*
X412878Y167877D01*
X412871Y167922D01*
X412836Y167992D01*
X412809Y168065D01*
X412781Y168101D01*
X412760Y168142D01*
X412704Y168196D01*
X412656Y168257D01*
X412617Y168282D01*
X412584Y168314D01*
X412464Y168380D01*
X412449Y168390D01*
X412444Y168391D01*
X412437Y168395D01*
X410083Y169370D01*
X407876Y171577D01*
X406681Y174461D01*
X406681Y175650D01*
X406667Y175740D01*
X406659Y175831D01*
X406647Y175861D01*
X406642Y175892D01*
X406599Y175973D01*
X406563Y176057D01*
X406537Y176089D01*
X406526Y176110D01*
X406503Y176132D01*
X406458Y176188D01*
X403546Y179100D01*
X403472Y179153D01*
X403403Y179213D01*
X403372Y179225D01*
X403346Y179244D01*
X403259Y179271D01*
X403174Y179305D01*
X403134Y179309D01*
X403111Y179316D01*
X403079Y179315D01*
X403008Y179323D01*
X389872Y179323D01*
X389781Y179309D01*
X389691Y179301D01*
X389661Y179289D01*
X389629Y179284D01*
X389548Y179241D01*
X389464Y179205D01*
X389432Y179179D01*
X389411Y179168D01*
X389389Y179145D01*
X389333Y179100D01*
X388493Y178260D01*
X385609Y177065D01*
X382487Y177065D01*
X379603Y178260D01*
X377396Y180467D01*
X376201Y183351D01*
X376201Y186473D01*
X377396Y189357D01*
X379603Y191564D01*
X382487Y192759D01*
X385609Y192759D01*
X388493Y191564D01*
X389333Y190724D01*
X389407Y190671D01*
X389477Y190611D01*
X389507Y190599D01*
X389533Y190580D01*
X389620Y190553D01*
X389705Y190519D01*
X389746Y190515D01*
X389768Y190508D01*
X389800Y190509D01*
X389872Y190501D01*
X406750Y190501D01*
X408804Y189650D01*
X414362Y184092D01*
X414436Y184039D01*
X414505Y183979D01*
X414536Y183967D01*
X414562Y183948D01*
X414649Y183921D01*
X414734Y183887D01*
X414774Y183883D01*
X414797Y183876D01*
X414829Y183877D01*
X414900Y183869D01*
X416089Y183869D01*
X418973Y182674D01*
X421180Y180467D01*
X422155Y178113D01*
X422179Y178074D01*
X422195Y178031D01*
X422244Y177970D01*
X422285Y177904D01*
X422320Y177874D01*
X422349Y177839D01*
X422414Y177796D01*
X422474Y177747D01*
X422517Y177730D01*
X422556Y177706D01*
X422631Y177687D01*
X422704Y177659D01*
X422750Y177657D01*
X422794Y177645D01*
X422872Y177652D01*
X422950Y177648D01*
X422994Y177661D01*
X423040Y177665D01*
X423111Y177695D01*
X423186Y177717D01*
X423224Y177743D01*
X423266Y177761D01*
X423373Y177846D01*
X423388Y177857D01*
X423391Y177861D01*
X423397Y177866D01*
X429898Y184367D01*
X429951Y184441D01*
X430011Y184510D01*
X430023Y184541D01*
X430042Y184567D01*
X430068Y184654D01*
X430103Y184739D01*
X430107Y184780D01*
X430114Y184802D01*
X430113Y184834D01*
X430121Y184905D01*
X430121Y245879D01*
X430106Y245969D01*
X430099Y246060D01*
X430087Y246090D01*
X430081Y246121D01*
X430039Y246202D01*
X430003Y246286D01*
X429977Y246318D01*
X429966Y246339D01*
X429943Y246361D01*
X429898Y246417D01*
X429523Y246792D01*
X429523Y246793D01*
X415759Y260556D01*
X415685Y260609D01*
X415615Y260669D01*
X415585Y260681D01*
X415559Y260700D01*
X415472Y260727D01*
X415387Y260761D01*
X415346Y260765D01*
X415324Y260772D01*
X415292Y260771D01*
X415220Y260779D01*
X406529Y260779D01*
X406482Y260772D01*
X406434Y260773D01*
X406361Y260752D01*
X406286Y260740D01*
X406244Y260717D01*
X406198Y260703D01*
X406136Y260660D01*
X406069Y260624D01*
X406036Y260590D01*
X405997Y260562D01*
X405952Y260501D01*
X405900Y260446D01*
X405879Y260403D01*
X405851Y260364D01*
X405828Y260292D01*
X405796Y260223D01*
X405791Y260175D01*
X405776Y260130D01*
X405777Y260054D01*
X405769Y259979D01*
X405779Y259932D01*
X405780Y259884D01*
X405805Y259812D01*
X405821Y259738D01*
X405846Y259697D01*
X405862Y259652D01*
X405908Y259592D01*
X405947Y259527D01*
X405984Y259496D01*
X406013Y259458D01*
X406117Y259382D01*
X406134Y259367D01*
X406140Y259365D01*
X406148Y259359D01*
X412233Y255846D01*
X417390Y250689D01*
X421037Y244372D01*
X422925Y237327D01*
X422925Y230033D01*
X421037Y222988D01*
X417390Y216671D01*
X412233Y211514D01*
X405916Y207867D01*
X398871Y205979D01*
X391577Y205979D01*
X384532Y207867D01*
X378215Y211514D01*
X373058Y216671D01*
X369411Y222988D01*
X367523Y230033D01*
X367523Y237327D01*
X369411Y244372D01*
X373058Y250689D01*
X378215Y255846D01*
X384532Y259493D01*
X390092Y260983D01*
X390114Y260993D01*
X390138Y260997D01*
X390225Y261043D01*
X390316Y261084D01*
X390334Y261100D01*
X390355Y261112D01*
X390423Y261184D01*
X390496Y261251D01*
X390508Y261272D01*
X390524Y261290D01*
X390566Y261380D01*
X390614Y261467D01*
X390618Y261491D01*
X390628Y261513D01*
X390639Y261612D01*
X390656Y261710D01*
X390652Y261734D01*
X390655Y261757D01*
X390634Y261854D01*
X390619Y261953D01*
X390608Y261974D01*
X390603Y261998D01*
X390552Y262083D01*
X390506Y262172D01*
X390489Y262188D01*
X390477Y262209D01*
X390401Y262274D01*
X390330Y262343D01*
X390308Y262353D01*
X390290Y262369D01*
X390197Y262406D01*
X390108Y262449D01*
X390084Y262452D01*
X390062Y262461D01*
X389895Y262479D01*
X384568Y262479D01*
X384504Y262469D01*
X384438Y262468D01*
X384358Y262445D01*
X384326Y262440D01*
X384308Y262430D01*
X384277Y262421D01*
X380313Y260779D01*
X373643Y260779D01*
X369679Y262421D01*
X369615Y262436D01*
X369554Y262461D01*
X369472Y262470D01*
X369440Y262477D01*
X369420Y262476D01*
X369388Y262479D01*
X366364Y262479D01*
X366319Y262472D01*
X366273Y262474D01*
X366198Y262452D01*
X366122Y262440D01*
X366081Y262418D01*
X366037Y262405D01*
X365973Y262361D01*
X365904Y262324D01*
X365873Y262291D01*
X365835Y262265D01*
X365789Y262202D01*
X365735Y262146D01*
X365716Y262104D01*
X365688Y262068D01*
X365664Y261994D01*
X365631Y261923D01*
X365626Y261877D01*
X365612Y261834D01*
X365613Y261756D01*
X365604Y261679D01*
X365614Y261634D01*
X365614Y261588D01*
X365653Y261457D01*
X365657Y261438D01*
X365659Y261434D01*
X365661Y261427D01*
X365987Y260641D01*
X365987Y257519D01*
X364792Y254635D01*
X364314Y254157D01*
X364260Y254083D01*
X364201Y254013D01*
X364189Y253983D01*
X364170Y253957D01*
X364143Y253870D01*
X364109Y253785D01*
X364105Y253744D01*
X364098Y253722D01*
X364099Y253690D01*
X364091Y253618D01*
X364091Y226531D01*
X363008Y223917D01*
X349179Y210088D01*
X349137Y210030D01*
X349088Y209978D01*
X349066Y209931D01*
X349036Y209889D01*
X349015Y209820D01*
X348984Y209755D01*
X348979Y209703D01*
X348963Y209653D01*
X348965Y209582D01*
X348957Y209511D01*
X348968Y209460D01*
X348970Y209408D01*
X348994Y209340D01*
X349009Y209270D01*
X349036Y209225D01*
X349054Y209177D01*
X349099Y209121D01*
X349136Y209059D01*
X349175Y209025D01*
X349208Y208985D01*
X349268Y208946D01*
X349323Y208899D01*
X349371Y208880D01*
X349415Y208852D01*
X349484Y208834D01*
X349551Y208807D01*
X349622Y208799D01*
X349653Y208791D01*
X349677Y208793D01*
X349717Y208789D01*
X362476Y208789D01*
X362567Y208803D01*
X362657Y208811D01*
X362687Y208823D01*
X362719Y208828D01*
X362800Y208871D01*
X362884Y208907D01*
X362916Y208933D01*
X362937Y208944D01*
X362959Y208967D01*
X363015Y209012D01*
X363855Y209852D01*
X366739Y211047D01*
X369861Y211047D01*
X372745Y209852D01*
X374952Y207645D01*
X376147Y204761D01*
X376147Y201639D01*
X374952Y198755D01*
X372745Y196548D01*
X369861Y195353D01*
X366739Y195353D01*
X363855Y196548D01*
X363015Y197388D01*
X362941Y197441D01*
X362871Y197501D01*
X362841Y197513D01*
X362815Y197532D01*
X362728Y197559D01*
X362643Y197593D01*
X362602Y197597D01*
X362580Y197604D01*
X362548Y197603D01*
X362476Y197611D01*
X345530Y197611D01*
X345440Y197597D01*
X345349Y197589D01*
X345319Y197577D01*
X345288Y197572D01*
X345207Y197529D01*
X345123Y197493D01*
X345091Y197467D01*
X345070Y197456D01*
X345048Y197433D01*
X344992Y197388D01*
X343350Y195746D01*
X343297Y195672D01*
X343237Y195603D01*
X343225Y195572D01*
X343206Y195546D01*
X343179Y195459D01*
X343145Y195374D01*
X343141Y195334D01*
X343134Y195311D01*
X343135Y195279D01*
X343127Y195208D01*
X343127Y194019D01*
X341932Y191135D01*
X339725Y188928D01*
X336841Y187733D01*
X333719Y187733D01*
X330835Y188928D01*
X328628Y191135D01*
X327433Y194019D01*
X327433Y197141D01*
X328628Y200025D01*
X329741Y201138D01*
X329783Y201196D01*
X329832Y201248D01*
X329854Y201295D01*
X329884Y201337D01*
X329905Y201406D01*
X329936Y201471D01*
X329941Y201523D01*
X329957Y201573D01*
X329955Y201644D01*
X329963Y201715D01*
X329952Y201766D01*
X329950Y201818D01*
X329926Y201886D01*
X329910Y201956D01*
X329884Y202001D01*
X329866Y202049D01*
X329821Y202105D01*
X329784Y202167D01*
X329745Y202201D01*
X329712Y202241D01*
X329652Y202280D01*
X329597Y202327D01*
X329549Y202346D01*
X329505Y202374D01*
X329436Y202392D01*
X329369Y202419D01*
X329298Y202427D01*
X329267Y202435D01*
X329243Y202433D01*
X329203Y202437D01*
X315173Y202437D01*
X315083Y202423D01*
X314992Y202415D01*
X314963Y202403D01*
X314931Y202398D01*
X314850Y202355D01*
X314766Y202319D01*
X314734Y202293D01*
X314713Y202282D01*
X314691Y202259D01*
X314635Y202214D01*
X309342Y196921D01*
X309289Y196847D01*
X309229Y196777D01*
X309217Y196747D01*
X309198Y196721D01*
X309171Y196634D01*
X309137Y196549D01*
X309133Y196508D01*
X309126Y196486D01*
X309127Y196454D01*
X309119Y196383D01*
X309119Y191371D01*
X308036Y188757D01*
X306339Y187060D01*
X306311Y187021D01*
X306276Y186988D01*
X306240Y186922D01*
X306195Y186860D01*
X306181Y186815D01*
X306158Y186772D01*
X306145Y186698D01*
X306123Y186625D01*
X306124Y186577D01*
X306116Y186530D01*
X306127Y186455D01*
X306129Y186379D01*
X306146Y186334D01*
X306153Y186287D01*
X306188Y186220D01*
X306214Y186148D01*
X306244Y186111D01*
X306266Y186068D01*
X306320Y186016D01*
X306368Y185956D01*
X306408Y185930D01*
X306442Y185897D01*
X306511Y185864D01*
X306574Y185823D01*
X306621Y185812D01*
X306664Y185791D01*
X306739Y185782D01*
X306813Y185763D01*
X306861Y185767D01*
X306908Y185761D01*
X307036Y185781D01*
X307058Y185782D01*
X307064Y185785D01*
X307074Y185786D01*
X313345Y187467D01*
X320639Y187467D01*
X327684Y185579D01*
X334001Y181932D01*
X339158Y176775D01*
X342805Y170458D01*
X344693Y163413D01*
X344693Y156119D01*
X343083Y150114D01*
X343079Y150066D01*
X343065Y150020D01*
X343067Y149944D01*
X343059Y149869D01*
X343070Y149822D01*
X343071Y149774D01*
X343097Y149703D01*
X343114Y149629D01*
X343139Y149588D01*
X343155Y149543D01*
X343203Y149484D01*
X343242Y149419D01*
X343279Y149388D01*
X343309Y149351D01*
X343373Y149310D01*
X343431Y149261D01*
X343476Y149244D01*
X343516Y149218D01*
X343590Y149200D01*
X343660Y149172D01*
X343708Y149170D01*
X343755Y149158D01*
X343830Y149164D01*
G37*
%LPC*%
G36*
X507505Y141797D02*
X507505Y141797D01*
X499188Y144026D01*
X491731Y148331D01*
X485643Y154419D01*
X481338Y161876D01*
X479109Y170193D01*
X479109Y178803D01*
X481338Y187120D01*
X485643Y194577D01*
X491731Y200665D01*
X499188Y204970D01*
X507505Y207199D01*
X516115Y207199D01*
X524432Y204970D01*
X531889Y200665D01*
X537977Y194577D01*
X542282Y187120D01*
X544511Y178803D01*
X544511Y170193D01*
X542282Y161876D01*
X537977Y154419D01*
X531889Y148331D01*
X524432Y144026D01*
X516115Y141797D01*
X507505Y141797D01*
G37*
%LPD*%
G36*
X541020Y264683D02*
X541020Y264683D01*
X541111Y264691D01*
X541141Y264703D01*
X541172Y264708D01*
X541253Y264751D01*
X541337Y264787D01*
X541369Y264813D01*
X541390Y264824D01*
X541412Y264847D01*
X541468Y264892D01*
X551628Y275052D01*
X551670Y275110D01*
X551719Y275162D01*
X551741Y275209D01*
X551772Y275251D01*
X551793Y275320D01*
X551823Y275385D01*
X551829Y275437D01*
X551844Y275487D01*
X551842Y275558D01*
X551850Y275629D01*
X551839Y275680D01*
X551838Y275732D01*
X551813Y275800D01*
X551798Y275870D01*
X551771Y275915D01*
X551753Y275963D01*
X551708Y276019D01*
X551672Y276081D01*
X551632Y276115D01*
X551599Y276155D01*
X551539Y276194D01*
X551485Y276241D01*
X551436Y276260D01*
X551393Y276288D01*
X551323Y276306D01*
X551257Y276333D01*
X551185Y276341D01*
X551154Y276349D01*
X551131Y276347D01*
X551090Y276351D01*
X547528Y276351D01*
X545474Y277202D01*
X536388Y286288D01*
X536314Y286341D01*
X536245Y286401D01*
X536214Y286413D01*
X536188Y286432D01*
X536101Y286459D01*
X536016Y286493D01*
X535976Y286497D01*
X535953Y286504D01*
X535921Y286503D01*
X535850Y286511D01*
X534727Y286511D01*
X534637Y286497D01*
X534546Y286489D01*
X534516Y286477D01*
X534485Y286472D01*
X534404Y286429D01*
X534320Y286393D01*
X534288Y286367D01*
X534267Y286356D01*
X534245Y286333D01*
X534189Y286288D01*
X531680Y283779D01*
X527852Y282193D01*
X523708Y282193D01*
X519880Y283779D01*
X516951Y286708D01*
X515365Y290536D01*
X515365Y294680D01*
X516951Y298508D01*
X519880Y301437D01*
X523708Y303023D01*
X525436Y303023D01*
X525507Y303034D01*
X525578Y303036D01*
X525627Y303054D01*
X525679Y303062D01*
X525742Y303096D01*
X525809Y303121D01*
X525850Y303153D01*
X525896Y303178D01*
X525945Y303230D01*
X526001Y303274D01*
X526029Y303318D01*
X526065Y303356D01*
X526095Y303421D01*
X526134Y303481D01*
X526147Y303532D01*
X526169Y303579D01*
X526177Y303650D01*
X526194Y303720D01*
X526190Y303772D01*
X526196Y303823D01*
X526181Y303894D01*
X526175Y303965D01*
X526155Y304013D01*
X526144Y304064D01*
X526107Y304125D01*
X526079Y304191D01*
X526034Y304247D01*
X526018Y304275D01*
X526000Y304290D01*
X525974Y304322D01*
X516068Y314228D01*
X515994Y314281D01*
X515925Y314341D01*
X515894Y314353D01*
X515868Y314372D01*
X515781Y314399D01*
X515696Y314433D01*
X515656Y314437D01*
X515633Y314444D01*
X515601Y314443D01*
X515530Y314451D01*
X456804Y314451D01*
X456784Y314448D01*
X456765Y314450D01*
X456663Y314428D01*
X456561Y314412D01*
X456544Y314402D01*
X456524Y314398D01*
X456435Y314345D01*
X456344Y314296D01*
X456330Y314282D01*
X456313Y314272D01*
X456246Y314193D01*
X456174Y314118D01*
X456166Y314100D01*
X456153Y314085D01*
X456114Y313989D01*
X456071Y313895D01*
X456069Y313875D01*
X456061Y313857D01*
X456043Y313690D01*
X456043Y300201D01*
X456050Y300156D01*
X456048Y300110D01*
X456070Y300035D01*
X456082Y299958D01*
X456104Y299918D01*
X456117Y299874D01*
X456161Y299810D01*
X456198Y299741D01*
X456231Y299709D01*
X456257Y299672D01*
X456319Y299625D01*
X456376Y299572D01*
X456418Y299552D01*
X456454Y299525D01*
X456528Y299501D01*
X456599Y299468D01*
X456645Y299463D01*
X456688Y299449D01*
X456766Y299449D01*
X456843Y299441D01*
X456888Y299451D01*
X456934Y299451D01*
X457066Y299489D01*
X457084Y299493D01*
X457088Y299496D01*
X457095Y299498D01*
X458179Y299947D01*
X461301Y299947D01*
X464185Y298752D01*
X465025Y297912D01*
X465099Y297859D01*
X465169Y297799D01*
X465199Y297787D01*
X465225Y297768D01*
X465312Y297741D01*
X465397Y297707D01*
X465438Y297703D01*
X465460Y297696D01*
X465492Y297697D01*
X465564Y297689D01*
X465749Y297689D01*
X465864Y297708D01*
X465980Y297725D01*
X465986Y297727D01*
X465992Y297728D01*
X466095Y297783D01*
X466200Y297836D01*
X466204Y297841D01*
X466210Y297844D01*
X466290Y297929D01*
X466372Y298012D01*
X466375Y298018D01*
X466379Y298022D01*
X466387Y298039D01*
X466453Y298159D01*
X466913Y299270D01*
X469842Y302199D01*
X473670Y303785D01*
X477814Y303785D01*
X481642Y302199D01*
X484571Y299270D01*
X486157Y295442D01*
X486157Y291298D01*
X484571Y287470D01*
X481642Y284541D01*
X477814Y282955D01*
X473670Y282955D01*
X469842Y284541D01*
X468095Y286288D01*
X468021Y286341D01*
X467952Y286401D01*
X467922Y286413D01*
X467895Y286432D01*
X467808Y286459D01*
X467723Y286493D01*
X467683Y286497D01*
X467660Y286504D01*
X467628Y286503D01*
X467557Y286511D01*
X465564Y286511D01*
X465473Y286497D01*
X465383Y286489D01*
X465353Y286477D01*
X465321Y286472D01*
X465240Y286429D01*
X465156Y286393D01*
X465124Y286367D01*
X465103Y286356D01*
X465081Y286333D01*
X465025Y286288D01*
X464185Y285448D01*
X461301Y284253D01*
X458179Y284253D01*
X455295Y285448D01*
X455181Y285475D01*
X455068Y285503D01*
X455062Y285503D01*
X455055Y285504D01*
X454939Y285493D01*
X454823Y285484D01*
X454817Y285482D01*
X454811Y285481D01*
X454703Y285433D01*
X454596Y285388D01*
X454590Y285383D01*
X454586Y285381D01*
X454572Y285369D01*
X454465Y285283D01*
X453662Y284479D01*
X441091Y284479D01*
X441021Y284468D01*
X440949Y284466D01*
X440900Y284448D01*
X440849Y284440D01*
X440785Y284406D01*
X440718Y284381D01*
X440677Y284349D01*
X440631Y284324D01*
X440582Y284272D01*
X440526Y284228D01*
X440498Y284184D01*
X440462Y284146D01*
X440432Y284081D01*
X440393Y284021D01*
X440380Y283970D01*
X440358Y283923D01*
X440350Y283852D01*
X440333Y283782D01*
X440337Y283730D01*
X440331Y283679D01*
X440346Y283608D01*
X440352Y283537D01*
X440372Y283489D01*
X440383Y283438D01*
X440420Y283377D01*
X440448Y283311D01*
X440493Y283255D01*
X440510Y283227D01*
X440527Y283212D01*
X440553Y283180D01*
X446276Y277457D01*
X446293Y277445D01*
X446305Y277429D01*
X446392Y277373D01*
X446476Y277313D01*
X446495Y277307D01*
X446512Y277296D01*
X446612Y277271D01*
X446711Y277241D01*
X446731Y277241D01*
X446750Y277236D01*
X446853Y277244D01*
X446957Y277247D01*
X446976Y277254D01*
X446996Y277255D01*
X447091Y277296D01*
X447188Y277332D01*
X447204Y277344D01*
X447222Y277352D01*
X447353Y277457D01*
X448954Y279058D01*
X451008Y279909D01*
X465932Y279909D01*
X467986Y279058D01*
X472098Y274946D01*
X472949Y272892D01*
X472949Y272523D01*
X472960Y272453D01*
X472962Y272381D01*
X472980Y272332D01*
X472988Y272281D01*
X473022Y272217D01*
X473047Y272150D01*
X473079Y272109D01*
X473104Y272063D01*
X473156Y272014D01*
X473200Y271958D01*
X473244Y271930D01*
X473282Y271894D01*
X473347Y271864D01*
X473407Y271825D01*
X473458Y271812D01*
X473505Y271790D01*
X473576Y271782D01*
X473646Y271765D01*
X473698Y271769D01*
X473749Y271763D01*
X473820Y271779D01*
X473891Y271784D01*
X473939Y271804D01*
X473990Y271816D01*
X474051Y271852D01*
X474117Y271880D01*
X474173Y271925D01*
X474201Y271942D01*
X474216Y271959D01*
X474248Y271985D01*
X475615Y273352D01*
X478499Y274547D01*
X479688Y274547D01*
X479778Y274561D01*
X479869Y274569D01*
X479899Y274581D01*
X479930Y274586D01*
X480011Y274629D01*
X480095Y274665D01*
X480127Y274691D01*
X480148Y274702D01*
X480170Y274725D01*
X480226Y274770D01*
X492957Y287500D01*
X493024Y287594D01*
X493095Y287689D01*
X493097Y287695D01*
X493100Y287700D01*
X493134Y287809D01*
X493171Y287923D01*
X493171Y287929D01*
X493173Y287935D01*
X493169Y288052D01*
X493168Y288169D01*
X493166Y288176D01*
X493166Y288181D01*
X493160Y288199D01*
X493122Y288330D01*
X491997Y291044D01*
X491997Y295188D01*
X493583Y299016D01*
X496512Y301945D01*
X500340Y303531D01*
X504484Y303531D01*
X508312Y301945D01*
X511241Y299016D01*
X512827Y295188D01*
X512827Y291044D01*
X511241Y287216D01*
X508312Y284287D01*
X504484Y282701D01*
X504280Y282701D01*
X504190Y282687D01*
X504099Y282679D01*
X504069Y282667D01*
X504038Y282662D01*
X503957Y282619D01*
X503873Y282583D01*
X503841Y282557D01*
X503820Y282546D01*
X503798Y282523D01*
X503742Y282478D01*
X488130Y266866D01*
X488077Y266792D01*
X488017Y266723D01*
X488005Y266692D01*
X487986Y266666D01*
X487959Y266579D01*
X487925Y266494D01*
X487921Y266454D01*
X487914Y266431D01*
X487915Y266399D01*
X487907Y266328D01*
X487907Y265430D01*
X487910Y265410D01*
X487908Y265391D01*
X487930Y265289D01*
X487946Y265187D01*
X487956Y265170D01*
X487960Y265150D01*
X488013Y265061D01*
X488062Y264970D01*
X488076Y264956D01*
X488086Y264939D01*
X488165Y264872D01*
X488240Y264800D01*
X488258Y264792D01*
X488273Y264779D01*
X488369Y264740D01*
X488463Y264697D01*
X488483Y264695D01*
X488501Y264687D01*
X488668Y264669D01*
X540930Y264669D01*
X541020Y264683D01*
G37*
G36*
X249272Y193792D02*
X249272Y193792D01*
X249391Y193810D01*
X249394Y193812D01*
X249399Y193812D01*
X249503Y193868D01*
X249609Y193923D01*
X249612Y193926D01*
X249616Y193928D01*
X249697Y194013D01*
X249781Y194099D01*
X249782Y194103D01*
X249785Y194106D01*
X249835Y194213D01*
X249887Y194321D01*
X249887Y194325D01*
X249889Y194329D01*
X249902Y194447D01*
X249916Y194565D01*
X249916Y194570D01*
X249916Y194573D01*
X249913Y194587D01*
X249891Y194731D01*
X249761Y195216D01*
X249761Y199527D01*
X256540Y199527D01*
X256560Y199530D01*
X256579Y199528D01*
X256681Y199550D01*
X256783Y199567D01*
X256800Y199576D01*
X256820Y199580D01*
X256909Y199633D01*
X257000Y199682D01*
X257014Y199696D01*
X257031Y199706D01*
X257098Y199785D01*
X257169Y199860D01*
X257178Y199878D01*
X257191Y199893D01*
X257230Y199989D01*
X257273Y200083D01*
X257275Y200103D01*
X257283Y200121D01*
X257301Y200288D01*
X257301Y201812D01*
X257298Y201832D01*
X257300Y201851D01*
X257278Y201953D01*
X257261Y202055D01*
X257252Y202072D01*
X257248Y202092D01*
X257195Y202181D01*
X257146Y202272D01*
X257132Y202286D01*
X257122Y202303D01*
X257043Y202370D01*
X256968Y202441D01*
X256950Y202450D01*
X256935Y202463D01*
X256839Y202502D01*
X256745Y202545D01*
X256725Y202547D01*
X256707Y202555D01*
X256540Y202573D01*
X249761Y202573D01*
X249761Y206884D01*
X249934Y207531D01*
X250242Y208064D01*
X250258Y208105D01*
X250281Y208141D01*
X250301Y208219D01*
X250329Y208294D01*
X250331Y208338D01*
X250341Y208380D01*
X250335Y208459D01*
X250338Y208539D01*
X250326Y208582D01*
X250322Y208625D01*
X250291Y208699D01*
X250268Y208775D01*
X250243Y208811D01*
X250226Y208852D01*
X250135Y208965D01*
X250127Y208977D01*
X250124Y208979D01*
X250121Y208982D01*
X248237Y210866D01*
X248237Y225234D01*
X248652Y225649D01*
X248664Y225665D01*
X248680Y225677D01*
X248736Y225765D01*
X248796Y225848D01*
X248802Y225867D01*
X248813Y225884D01*
X248838Y225985D01*
X248839Y225989D01*
X248839Y225990D01*
X248868Y226084D01*
X248868Y226103D01*
X248873Y226123D01*
X248865Y226220D01*
X248867Y226234D01*
X248864Y226246D01*
X248862Y226329D01*
X248855Y226348D01*
X248853Y226368D01*
X248821Y226445D01*
X248814Y226475D01*
X248800Y226498D01*
X248777Y226560D01*
X248765Y226576D01*
X248757Y226594D01*
X248700Y226666D01*
X248688Y226686D01*
X248675Y226697D01*
X248652Y226725D01*
X248237Y227140D01*
X248237Y241508D01*
X250121Y243392D01*
X250147Y243427D01*
X250179Y243457D01*
X250218Y243526D01*
X250265Y243591D01*
X250278Y243633D01*
X250299Y243671D01*
X250313Y243750D01*
X250337Y243826D01*
X250336Y243870D01*
X250344Y243913D01*
X250333Y243992D01*
X250331Y244072D01*
X250316Y244113D01*
X250309Y244157D01*
X250251Y244290D01*
X250246Y244303D01*
X250244Y244306D01*
X250242Y244310D01*
X249934Y244843D01*
X249761Y245490D01*
X249761Y249801D01*
X256540Y249801D01*
X256560Y249804D01*
X256579Y249802D01*
X256681Y249824D01*
X256783Y249841D01*
X256800Y249850D01*
X256820Y249854D01*
X256909Y249907D01*
X257000Y249956D01*
X257014Y249970D01*
X257031Y249980D01*
X257098Y250059D01*
X257169Y250134D01*
X257178Y250152D01*
X257191Y250167D01*
X257230Y250263D01*
X257273Y250357D01*
X257275Y250377D01*
X257283Y250395D01*
X257301Y250562D01*
X257301Y251325D01*
X258064Y251325D01*
X258084Y251328D01*
X258103Y251326D01*
X258205Y251348D01*
X258307Y251365D01*
X258324Y251374D01*
X258344Y251378D01*
X258433Y251431D01*
X258524Y251480D01*
X258538Y251494D01*
X258555Y251504D01*
X258622Y251583D01*
X258693Y251658D01*
X258702Y251676D01*
X258715Y251691D01*
X258754Y251787D01*
X258797Y251881D01*
X258799Y251901D01*
X258807Y251919D01*
X258825Y252086D01*
X258825Y259365D01*
X262637Y259365D01*
X263283Y259192D01*
X263862Y258857D01*
X264384Y258335D01*
X264442Y258293D01*
X264494Y258244D01*
X264541Y258222D01*
X264583Y258192D01*
X264652Y258171D01*
X264717Y258141D01*
X264769Y258135D01*
X264819Y258119D01*
X264890Y258121D01*
X264961Y258113D01*
X265012Y258125D01*
X265064Y258126D01*
X265132Y258150D01*
X265202Y258166D01*
X265247Y258192D01*
X265295Y258210D01*
X265351Y258255D01*
X265413Y258292D01*
X265447Y258331D01*
X265487Y258364D01*
X265526Y258424D01*
X265573Y258479D01*
X265592Y258527D01*
X265620Y258571D01*
X265638Y258640D01*
X265665Y258707D01*
X265673Y258778D01*
X265681Y258809D01*
X265679Y258833D01*
X265683Y258874D01*
X265683Y276646D01*
X265669Y276737D01*
X265661Y276827D01*
X265649Y276857D01*
X265644Y276889D01*
X265601Y276970D01*
X265565Y277054D01*
X265539Y277086D01*
X265528Y277107D01*
X265505Y277129D01*
X265460Y277185D01*
X261303Y281343D01*
X261267Y281368D01*
X261237Y281401D01*
X261168Y281440D01*
X261103Y281486D01*
X261061Y281499D01*
X261023Y281520D01*
X260944Y281535D01*
X260868Y281558D01*
X260824Y281557D01*
X260781Y281565D01*
X260702Y281554D01*
X260622Y281552D01*
X260581Y281537D01*
X260537Y281531D01*
X260404Y281472D01*
X260391Y281468D01*
X260388Y281466D01*
X260384Y281464D01*
X260188Y281350D01*
X259541Y281177D01*
X249681Y281177D01*
X249681Y286004D01*
X249678Y286024D01*
X249680Y286043D01*
X249658Y286145D01*
X249641Y286247D01*
X249632Y286264D01*
X249628Y286284D01*
X249575Y286373D01*
X249526Y286464D01*
X249512Y286478D01*
X249502Y286495D01*
X249423Y286562D01*
X249348Y286633D01*
X249330Y286642D01*
X249315Y286655D01*
X249219Y286694D01*
X249125Y286737D01*
X249105Y286739D01*
X249087Y286747D01*
X248920Y286765D01*
X247396Y286765D01*
X247376Y286762D01*
X247357Y286764D01*
X247255Y286742D01*
X247153Y286725D01*
X247136Y286716D01*
X247116Y286712D01*
X247027Y286659D01*
X246936Y286610D01*
X246922Y286596D01*
X246905Y286586D01*
X246838Y286507D01*
X246767Y286432D01*
X246758Y286414D01*
X246745Y286399D01*
X246706Y286303D01*
X246663Y286209D01*
X246661Y286189D01*
X246653Y286171D01*
X246635Y286004D01*
X246635Y281177D01*
X236775Y281177D01*
X236128Y281350D01*
X235585Y281664D01*
X235495Y281698D01*
X235409Y281738D01*
X235389Y281740D01*
X235371Y281748D01*
X235362Y281749D01*
X235355Y281751D01*
X235328Y281752D01*
X235205Y281766D01*
X235204Y281766D01*
X235186Y281763D01*
X235165Y281765D01*
X235137Y281759D01*
X235109Y281760D01*
X235033Y281738D01*
X234961Y281726D01*
X234945Y281718D01*
X234924Y281713D01*
X234900Y281699D01*
X234873Y281691D01*
X234809Y281646D01*
X234744Y281611D01*
X234731Y281598D01*
X234713Y281587D01*
X234695Y281565D01*
X234672Y281549D01*
X234626Y281487D01*
X234574Y281433D01*
X234566Y281416D01*
X234553Y281400D01*
X234543Y281374D01*
X234526Y281351D01*
X234502Y281278D01*
X234471Y281210D01*
X234469Y281190D01*
X234461Y281172D01*
X234457Y281137D01*
X234451Y281117D01*
X234451Y281084D01*
X234443Y281005D01*
X234443Y279827D01*
X234458Y279733D01*
X234467Y279638D01*
X234478Y279612D01*
X234482Y279584D01*
X234527Y279500D01*
X234565Y279413D01*
X234584Y279392D01*
X234598Y279367D01*
X234667Y279301D01*
X234731Y279231D01*
X234755Y279217D01*
X234776Y279197D01*
X234862Y279157D01*
X234946Y279111D01*
X234973Y279106D01*
X234999Y279094D01*
X235094Y279083D01*
X235187Y279066D01*
X235215Y279070D01*
X235243Y279067D01*
X235337Y279087D01*
X235431Y279100D01*
X235463Y279115D01*
X235484Y279119D01*
X235512Y279136D01*
X235585Y279168D01*
X236128Y279482D01*
X236775Y279655D01*
X246635Y279655D01*
X246635Y274828D01*
X246638Y274808D01*
X246636Y274789D01*
X246658Y274687D01*
X246675Y274585D01*
X246684Y274568D01*
X246688Y274548D01*
X246741Y274459D01*
X246790Y274368D01*
X246804Y274354D01*
X246814Y274337D01*
X246893Y274270D01*
X246968Y274199D01*
X246986Y274190D01*
X247001Y274177D01*
X247097Y274138D01*
X247191Y274095D01*
X247211Y274093D01*
X247229Y274085D01*
X247396Y274067D01*
X248159Y274067D01*
X248159Y274065D01*
X247396Y274065D01*
X247376Y274062D01*
X247357Y274064D01*
X247255Y274042D01*
X247153Y274025D01*
X247136Y274016D01*
X247116Y274012D01*
X247027Y273959D01*
X246936Y273910D01*
X246922Y273896D01*
X246905Y273886D01*
X246838Y273807D01*
X246767Y273732D01*
X246758Y273714D01*
X246745Y273699D01*
X246706Y273602D01*
X246663Y273509D01*
X246661Y273489D01*
X246653Y273471D01*
X246635Y273304D01*
X246635Y268477D01*
X236775Y268477D01*
X236128Y268650D01*
X235585Y268964D01*
X235495Y268998D01*
X235409Y269038D01*
X235381Y269041D01*
X235355Y269051D01*
X235259Y269055D01*
X235165Y269065D01*
X235137Y269059D01*
X235109Y269060D01*
X235017Y269033D01*
X234924Y269013D01*
X234900Y268999D01*
X234873Y268991D01*
X234795Y268936D01*
X234713Y268887D01*
X234695Y268865D01*
X234672Y268849D01*
X234615Y268772D01*
X234553Y268700D01*
X234543Y268674D01*
X234526Y268651D01*
X234497Y268560D01*
X234461Y268472D01*
X234457Y268437D01*
X234451Y268417D01*
X234451Y268384D01*
X234443Y268305D01*
X234443Y260521D01*
X234457Y260431D01*
X234465Y260340D01*
X234477Y260310D01*
X234482Y260278D01*
X234525Y260198D01*
X234561Y260114D01*
X234587Y260082D01*
X234598Y260061D01*
X234621Y260039D01*
X234666Y259983D01*
X236141Y258508D01*
X236141Y244140D01*
X235363Y243362D01*
X235351Y243346D01*
X235335Y243334D01*
X235279Y243246D01*
X235219Y243163D01*
X235213Y243144D01*
X235202Y243127D01*
X235177Y243026D01*
X235147Y242927D01*
X235147Y242908D01*
X235142Y242888D01*
X235150Y242785D01*
X235153Y242682D01*
X235160Y242663D01*
X235162Y242643D01*
X235202Y242548D01*
X235238Y242451D01*
X235250Y242435D01*
X235258Y242417D01*
X235363Y242286D01*
X236141Y241508D01*
X236141Y227140D01*
X235726Y226725D01*
X235714Y226709D01*
X235698Y226697D01*
X235670Y226652D01*
X235642Y226623D01*
X235624Y226584D01*
X235582Y226526D01*
X235576Y226507D01*
X235565Y226490D01*
X235548Y226420D01*
X235539Y226400D01*
X235536Y226375D01*
X235510Y226290D01*
X235510Y226271D01*
X235505Y226251D01*
X235512Y226163D01*
X235511Y226155D01*
X235514Y226146D01*
X235516Y226045D01*
X235523Y226026D01*
X235525Y226006D01*
X235565Y225911D01*
X235601Y225814D01*
X235613Y225798D01*
X235621Y225780D01*
X235726Y225649D01*
X236141Y225234D01*
X236141Y210866D01*
X234257Y208982D01*
X234231Y208947D01*
X234199Y208917D01*
X234160Y208848D01*
X234113Y208783D01*
X234100Y208741D01*
X234079Y208703D01*
X234064Y208624D01*
X234041Y208548D01*
X234042Y208504D01*
X234034Y208461D01*
X234045Y208382D01*
X234047Y208302D01*
X234062Y208261D01*
X234069Y208217D01*
X234127Y208084D01*
X234132Y208071D01*
X234134Y208068D01*
X234136Y208064D01*
X234444Y207531D01*
X234617Y206884D01*
X234617Y202573D01*
X227838Y202573D01*
X227818Y202570D01*
X227799Y202572D01*
X227697Y202550D01*
X227595Y202533D01*
X227578Y202524D01*
X227558Y202520D01*
X227469Y202467D01*
X227378Y202418D01*
X227364Y202404D01*
X227347Y202394D01*
X227280Y202315D01*
X227209Y202240D01*
X227200Y202222D01*
X227187Y202207D01*
X227148Y202111D01*
X227105Y202017D01*
X227103Y201997D01*
X227095Y201979D01*
X227077Y201812D01*
X227077Y200288D01*
X227078Y200278D01*
X227078Y200273D01*
X227080Y200265D01*
X227078Y200249D01*
X227100Y200147D01*
X227117Y200045D01*
X227126Y200028D01*
X227130Y200008D01*
X227183Y199919D01*
X227232Y199828D01*
X227246Y199814D01*
X227256Y199797D01*
X227335Y199730D01*
X227410Y199659D01*
X227428Y199650D01*
X227443Y199637D01*
X227539Y199598D01*
X227633Y199555D01*
X227653Y199553D01*
X227671Y199545D01*
X227838Y199527D01*
X234617Y199527D01*
X234617Y195216D01*
X234487Y194731D01*
X234475Y194612D01*
X234462Y194495D01*
X234463Y194490D01*
X234462Y194486D01*
X234489Y194371D01*
X234514Y194254D01*
X234516Y194251D01*
X234517Y194247D01*
X234579Y194145D01*
X234640Y194043D01*
X234644Y194040D01*
X234646Y194037D01*
X234736Y193961D01*
X234827Y193883D01*
X234831Y193882D01*
X234834Y193879D01*
X234944Y193836D01*
X235055Y193791D01*
X235060Y193791D01*
X235064Y193789D01*
X235077Y193789D01*
X235222Y193773D01*
X249156Y193773D01*
X249272Y193792D01*
G37*
G36*
X132688Y307716D02*
X132688Y307716D01*
X132707Y307714D01*
X132809Y307736D01*
X132911Y307752D01*
X132928Y307762D01*
X132948Y307766D01*
X133037Y307819D01*
X133128Y307868D01*
X133142Y307882D01*
X133159Y307892D01*
X133226Y307971D01*
X133298Y308046D01*
X133306Y308064D01*
X133319Y308079D01*
X133358Y308175D01*
X133401Y308269D01*
X133403Y308289D01*
X133411Y308307D01*
X133429Y308474D01*
X133429Y313644D01*
X135313Y315528D01*
X135339Y315563D01*
X135371Y315593D01*
X135410Y315662D01*
X135457Y315727D01*
X135470Y315769D01*
X135491Y315807D01*
X135505Y315886D01*
X135529Y315962D01*
X135528Y316006D01*
X135536Y316049D01*
X135525Y316128D01*
X135523Y316208D01*
X135508Y316249D01*
X135501Y316293D01*
X135443Y316426D01*
X135438Y316439D01*
X135436Y316442D01*
X135434Y316446D01*
X135126Y316979D01*
X134953Y317626D01*
X134953Y321937D01*
X140971Y321937D01*
X140971Y316834D01*
X140982Y316763D01*
X140984Y316691D01*
X141002Y316642D01*
X141011Y316591D01*
X141044Y316528D01*
X141069Y316460D01*
X141101Y316419D01*
X141126Y316373D01*
X141178Y316324D01*
X141222Y316268D01*
X141266Y316240D01*
X141304Y316204D01*
X141369Y316174D01*
X141429Y316135D01*
X141480Y316122D01*
X141527Y316100D01*
X141598Y316092D01*
X141668Y316075D01*
X141720Y316079D01*
X141772Y316073D01*
X141842Y316089D01*
X141913Y316094D01*
X141961Y316114D01*
X142012Y316126D01*
X142074Y316162D01*
X142139Y316190D01*
X142195Y316235D01*
X142223Y316252D01*
X142238Y316270D01*
X142270Y316295D01*
X143794Y317819D01*
X143847Y317893D01*
X143907Y317963D01*
X143919Y317993D01*
X143938Y318019D01*
X143965Y318106D01*
X143999Y318191D01*
X144003Y318232D01*
X144010Y318254D01*
X144009Y318286D01*
X144017Y318357D01*
X144017Y321937D01*
X150035Y321937D01*
X150035Y320040D01*
X150038Y320020D01*
X150036Y320001D01*
X150058Y319899D01*
X150074Y319797D01*
X150084Y319780D01*
X150088Y319760D01*
X150141Y319671D01*
X150190Y319580D01*
X150204Y319566D01*
X150214Y319549D01*
X150293Y319482D01*
X150368Y319410D01*
X150386Y319402D01*
X150401Y319389D01*
X150497Y319350D01*
X150591Y319307D01*
X150611Y319305D01*
X150629Y319297D01*
X150796Y319279D01*
X207772Y319279D01*
X207792Y319282D01*
X207811Y319280D01*
X207913Y319302D01*
X208015Y319318D01*
X208032Y319328D01*
X208052Y319332D01*
X208141Y319385D01*
X208232Y319434D01*
X208246Y319448D01*
X208263Y319458D01*
X208330Y319537D01*
X208402Y319612D01*
X208410Y319630D01*
X208423Y319645D01*
X208462Y319741D01*
X208505Y319835D01*
X208507Y319855D01*
X208515Y319873D01*
X208533Y320040D01*
X208533Y325773D01*
X209616Y328387D01*
X209875Y328646D01*
X209917Y328704D01*
X209966Y328756D01*
X209988Y328803D01*
X210018Y328845D01*
X210039Y328914D01*
X210070Y328979D01*
X210075Y329031D01*
X210091Y329081D01*
X210089Y329152D01*
X210097Y329223D01*
X210086Y329274D01*
X210084Y329326D01*
X210060Y329394D01*
X210045Y329464D01*
X210018Y329509D01*
X210000Y329557D01*
X209955Y329613D01*
X209918Y329675D01*
X209879Y329709D01*
X209846Y329749D01*
X209786Y329788D01*
X209731Y329835D01*
X209683Y329854D01*
X209639Y329882D01*
X209570Y329900D01*
X209503Y329927D01*
X209432Y329935D01*
X209401Y329943D01*
X209377Y329941D01*
X209337Y329945D01*
X150796Y329945D01*
X150776Y329942D01*
X150757Y329944D01*
X150655Y329922D01*
X150553Y329906D01*
X150536Y329896D01*
X150516Y329892D01*
X150427Y329839D01*
X150336Y329790D01*
X150322Y329776D01*
X150305Y329766D01*
X150238Y329687D01*
X150166Y329612D01*
X150158Y329594D01*
X150145Y329579D01*
X150106Y329483D01*
X150063Y329389D01*
X150061Y329369D01*
X150053Y329351D01*
X150035Y329184D01*
X150035Y324983D01*
X143256Y324983D01*
X143236Y324980D01*
X143217Y324982D01*
X143115Y324960D01*
X143013Y324943D01*
X142996Y324934D01*
X142976Y324930D01*
X142887Y324877D01*
X142796Y324828D01*
X142782Y324814D01*
X142765Y324804D01*
X142698Y324725D01*
X142627Y324650D01*
X142618Y324632D01*
X142605Y324617D01*
X142566Y324521D01*
X142523Y324427D01*
X142521Y324407D01*
X142513Y324389D01*
X142495Y324222D01*
X142495Y323459D01*
X142493Y323459D01*
X142493Y324222D01*
X142490Y324242D01*
X142492Y324261D01*
X142470Y324363D01*
X142453Y324465D01*
X142444Y324482D01*
X142440Y324502D01*
X142387Y324591D01*
X142338Y324682D01*
X142324Y324696D01*
X142314Y324713D01*
X142235Y324780D01*
X142160Y324851D01*
X142142Y324860D01*
X142127Y324873D01*
X142031Y324912D01*
X141937Y324955D01*
X141917Y324957D01*
X141899Y324965D01*
X141732Y324983D01*
X134953Y324983D01*
X134953Y329184D01*
X134950Y329204D01*
X134952Y329223D01*
X134930Y329325D01*
X134914Y329427D01*
X134904Y329444D01*
X134900Y329464D01*
X134847Y329553D01*
X134798Y329644D01*
X134784Y329658D01*
X134774Y329675D01*
X134695Y329742D01*
X134620Y329814D01*
X134602Y329822D01*
X134587Y329835D01*
X134491Y329874D01*
X134397Y329917D01*
X134377Y329919D01*
X134359Y329927D01*
X134192Y329945D01*
X123474Y329945D01*
X123454Y329942D01*
X123435Y329944D01*
X123333Y329922D01*
X123231Y329906D01*
X123214Y329896D01*
X123194Y329892D01*
X123105Y329839D01*
X123014Y329790D01*
X123000Y329776D01*
X122983Y329766D01*
X122916Y329687D01*
X122844Y329612D01*
X122836Y329594D01*
X122823Y329579D01*
X122784Y329483D01*
X122741Y329389D01*
X122739Y329369D01*
X122731Y329351D01*
X122713Y329184D01*
X122713Y316404D01*
X120484Y314175D01*
X120431Y314101D01*
X120371Y314032D01*
X120359Y314002D01*
X120340Y313976D01*
X120313Y313889D01*
X120279Y313804D01*
X120275Y313763D01*
X120268Y313740D01*
X120269Y313708D01*
X120261Y313637D01*
X120261Y310926D01*
X120264Y310906D01*
X120262Y310887D01*
X120284Y310785D01*
X120300Y310683D01*
X120310Y310666D01*
X120314Y310646D01*
X120367Y310557D01*
X120416Y310466D01*
X120430Y310452D01*
X120440Y310435D01*
X120519Y310368D01*
X120594Y310296D01*
X120612Y310288D01*
X120627Y310275D01*
X120723Y310236D01*
X120817Y310193D01*
X120837Y310191D01*
X120855Y310183D01*
X121022Y310165D01*
X125556Y310165D01*
X127785Y307936D01*
X127859Y307883D01*
X127928Y307823D01*
X127958Y307811D01*
X127984Y307792D01*
X128071Y307765D01*
X128156Y307731D01*
X128197Y307727D01*
X128220Y307720D01*
X128252Y307721D01*
X128323Y307713D01*
X132668Y307713D01*
X132688Y307716D01*
G37*
%LPC*%
G36*
X75936Y206247D02*
X75936Y206247D01*
X66115Y216068D01*
X66115Y229956D01*
X75936Y239777D01*
X89824Y239777D01*
X99645Y229956D01*
X99645Y216068D01*
X89824Y206247D01*
X75936Y206247D01*
G37*
%LPD*%
G36*
X343666Y225004D02*
X343666Y225004D01*
X343744Y225001D01*
X343788Y225013D01*
X343834Y225017D01*
X343905Y225047D01*
X343980Y225069D01*
X344018Y225095D01*
X344060Y225113D01*
X344167Y225199D01*
X344182Y225209D01*
X344185Y225213D01*
X344191Y225218D01*
X349642Y230669D01*
X349695Y230743D01*
X349755Y230813D01*
X349767Y230843D01*
X349786Y230869D01*
X349813Y230956D01*
X349847Y231041D01*
X349851Y231082D01*
X349858Y231104D01*
X349857Y231136D01*
X349865Y231208D01*
X349865Y261718D01*
X349862Y261738D01*
X349864Y261757D01*
X349842Y261859D01*
X349826Y261961D01*
X349816Y261978D01*
X349812Y261998D01*
X349759Y262087D01*
X349710Y262178D01*
X349696Y262192D01*
X349686Y262209D01*
X349607Y262276D01*
X349532Y262348D01*
X349514Y262356D01*
X349499Y262369D01*
X349403Y262408D01*
X349309Y262451D01*
X349289Y262453D01*
X349271Y262461D01*
X349104Y262479D01*
X341979Y262479D01*
X341978Y262479D01*
X341977Y262479D01*
X331979Y262479D01*
X331978Y262479D01*
X331977Y262479D01*
X324852Y262479D01*
X324832Y262476D01*
X324813Y262478D01*
X324711Y262456D01*
X324609Y262440D01*
X324592Y262430D01*
X324572Y262426D01*
X324483Y262373D01*
X324392Y262324D01*
X324378Y262310D01*
X324361Y262300D01*
X324294Y262221D01*
X324222Y262146D01*
X324214Y262128D01*
X324201Y262113D01*
X324162Y262017D01*
X324119Y261923D01*
X324117Y261903D01*
X324109Y261885D01*
X324091Y261718D01*
X324091Y236448D01*
X324105Y236357D01*
X324113Y236267D01*
X324125Y236237D01*
X324130Y236205D01*
X324173Y236124D01*
X324209Y236040D01*
X324235Y236008D01*
X324246Y235987D01*
X324269Y235965D01*
X324314Y235909D01*
X330637Y229586D01*
X330711Y229533D01*
X330781Y229473D01*
X330811Y229461D01*
X330837Y229442D01*
X330924Y229415D01*
X331009Y229381D01*
X331050Y229377D01*
X331072Y229370D01*
X331104Y229371D01*
X331176Y229363D01*
X332304Y229363D01*
X332368Y229373D01*
X332434Y229374D01*
X332514Y229397D01*
X332547Y229402D01*
X332564Y229412D01*
X332595Y229421D01*
X334227Y230097D01*
X337349Y230097D01*
X340233Y228902D01*
X342440Y226695D01*
X342950Y225465D01*
X342974Y225426D01*
X342989Y225383D01*
X343038Y225322D01*
X343079Y225256D01*
X343115Y225227D01*
X343143Y225191D01*
X343209Y225149D01*
X343269Y225099D01*
X343311Y225083D01*
X343350Y225058D01*
X343426Y225039D01*
X343498Y225011D01*
X343544Y225009D01*
X343589Y224998D01*
X343666Y225004D01*
G37*
G36*
X399452Y292619D02*
X399452Y292619D01*
X399518Y292620D01*
X399598Y292643D01*
X399630Y292648D01*
X399648Y292658D01*
X399679Y292667D01*
X403643Y294309D01*
X425815Y294309D01*
X428861Y293047D01*
X428905Y293037D01*
X428947Y293017D01*
X429024Y293009D01*
X429100Y292991D01*
X429146Y292995D01*
X429191Y292990D01*
X429268Y293007D01*
X429345Y293014D01*
X429387Y293033D01*
X429432Y293042D01*
X429499Y293082D01*
X429570Y293114D01*
X429604Y293145D01*
X429643Y293169D01*
X429694Y293228D01*
X429751Y293280D01*
X429773Y293321D01*
X429803Y293355D01*
X429832Y293428D01*
X429869Y293496D01*
X429878Y293541D01*
X429895Y293584D01*
X429910Y293720D01*
X429913Y293738D01*
X429912Y293743D01*
X429913Y293750D01*
X429913Y313690D01*
X429910Y313710D01*
X429912Y313729D01*
X429890Y313831D01*
X429874Y313933D01*
X429864Y313950D01*
X429860Y313970D01*
X429807Y314059D01*
X429758Y314150D01*
X429744Y314164D01*
X429734Y314181D01*
X429655Y314248D01*
X429580Y314320D01*
X429562Y314328D01*
X429547Y314341D01*
X429451Y314380D01*
X429357Y314423D01*
X429337Y314425D01*
X429319Y314433D01*
X429152Y314451D01*
X403950Y314451D01*
X403860Y314437D01*
X403769Y314429D01*
X403739Y314417D01*
X403708Y314412D01*
X403627Y314369D01*
X403543Y314333D01*
X403511Y314307D01*
X403490Y314296D01*
X403468Y314273D01*
X403412Y314228D01*
X393966Y304782D01*
X393913Y304708D01*
X393853Y304639D01*
X393841Y304608D01*
X393822Y304582D01*
X393795Y304495D01*
X393761Y304410D01*
X393757Y304370D01*
X393750Y304347D01*
X393751Y304315D01*
X393743Y304244D01*
X393743Y293370D01*
X393746Y293350D01*
X393744Y293331D01*
X393766Y293229D01*
X393782Y293127D01*
X393792Y293110D01*
X393796Y293090D01*
X393849Y293001D01*
X393898Y292910D01*
X393912Y292896D01*
X393922Y292879D01*
X394001Y292812D01*
X394076Y292740D01*
X394094Y292732D01*
X394109Y292719D01*
X394205Y292680D01*
X394299Y292637D01*
X394319Y292635D01*
X394337Y292627D01*
X394504Y292609D01*
X399388Y292609D01*
X399452Y292619D01*
G37*
G36*
X341978Y292609D02*
X341978Y292609D01*
X341979Y292609D01*
X351977Y292609D01*
X351978Y292609D01*
X351979Y292609D01*
X359452Y292609D01*
X359472Y292612D01*
X359491Y292610D01*
X359593Y292632D01*
X359695Y292648D01*
X359712Y292658D01*
X359732Y292662D01*
X359821Y292715D01*
X359912Y292764D01*
X359926Y292778D01*
X359943Y292788D01*
X360010Y292867D01*
X360082Y292942D01*
X360090Y292960D01*
X360103Y292975D01*
X360142Y293071D01*
X360185Y293165D01*
X360187Y293185D01*
X360195Y293203D01*
X360213Y293370D01*
X360213Y295466D01*
X360209Y295494D01*
X360210Y295508D01*
X360198Y295565D01*
X360191Y295647D01*
X360179Y295677D01*
X360174Y295709D01*
X360162Y295732D01*
X360158Y295748D01*
X360125Y295803D01*
X360095Y295874D01*
X360069Y295906D01*
X360058Y295927D01*
X360042Y295942D01*
X360032Y295959D01*
X360015Y295974D01*
X359990Y296005D01*
X348246Y307750D01*
X345693Y313911D01*
X345693Y320581D01*
X348246Y326742D01*
X350149Y328646D01*
X350191Y328704D01*
X350240Y328756D01*
X350262Y328803D01*
X350292Y328845D01*
X350313Y328914D01*
X350344Y328979D01*
X350349Y329031D01*
X350365Y329081D01*
X350363Y329152D01*
X350371Y329223D01*
X350360Y329274D01*
X350358Y329326D01*
X350334Y329394D01*
X350319Y329464D01*
X350292Y329509D01*
X350274Y329557D01*
X350229Y329613D01*
X350192Y329675D01*
X350153Y329709D01*
X350120Y329749D01*
X350060Y329788D01*
X350005Y329835D01*
X349957Y329854D01*
X349913Y329882D01*
X349844Y329900D01*
X349777Y329927D01*
X349706Y329935D01*
X349675Y329943D01*
X349651Y329941D01*
X349611Y329945D01*
X324317Y329945D01*
X324247Y329934D01*
X324175Y329932D01*
X324126Y329914D01*
X324075Y329906D01*
X324011Y329872D01*
X323944Y329847D01*
X323903Y329815D01*
X323857Y329790D01*
X323808Y329738D01*
X323752Y329694D01*
X323724Y329650D01*
X323688Y329612D01*
X323658Y329547D01*
X323619Y329487D01*
X323606Y329436D01*
X323584Y329389D01*
X323576Y329318D01*
X323559Y329248D01*
X323563Y329196D01*
X323557Y329145D01*
X323572Y329074D01*
X323578Y329003D01*
X323598Y328955D01*
X323609Y328904D01*
X323646Y328843D01*
X323674Y328777D01*
X323719Y328721D01*
X323736Y328693D01*
X323753Y328678D01*
X323779Y328646D01*
X331074Y321351D01*
X333182Y319243D01*
X334265Y316629D01*
X334265Y301891D01*
X334275Y301826D01*
X334276Y301760D01*
X334299Y301680D01*
X334304Y301648D01*
X334314Y301631D01*
X334323Y301599D01*
X335507Y298741D01*
X335507Y295619D01*
X334696Y293661D01*
X334685Y293617D01*
X334666Y293575D01*
X334657Y293498D01*
X334640Y293422D01*
X334644Y293376D01*
X334639Y293331D01*
X334655Y293254D01*
X334663Y293177D01*
X334681Y293135D01*
X334691Y293090D01*
X334731Y293023D01*
X334763Y292952D01*
X334794Y292918D01*
X334817Y292879D01*
X334876Y292828D01*
X334929Y292771D01*
X334969Y292749D01*
X335004Y292719D01*
X335076Y292690D01*
X335145Y292653D01*
X335190Y292644D01*
X335232Y292627D01*
X335368Y292612D01*
X335387Y292609D01*
X335392Y292610D01*
X335399Y292609D01*
X341977Y292609D01*
X341978Y292609D01*
G37*
G36*
X196219Y256301D02*
X196219Y256301D01*
X196309Y256309D01*
X196339Y256321D01*
X196371Y256326D01*
X196452Y256369D01*
X196536Y256405D01*
X196568Y256431D01*
X196589Y256442D01*
X196611Y256465D01*
X196667Y256510D01*
X205811Y265654D01*
X205853Y265712D01*
X205902Y265764D01*
X205924Y265811D01*
X205954Y265853D01*
X205975Y265922D01*
X206006Y265987D01*
X206011Y266039D01*
X206027Y266089D01*
X206025Y266160D01*
X206033Y266231D01*
X206022Y266282D01*
X206020Y266334D01*
X205996Y266402D01*
X205981Y266472D01*
X205954Y266517D01*
X205936Y266565D01*
X205891Y266621D01*
X205854Y266683D01*
X205815Y266717D01*
X205782Y266757D01*
X205722Y266796D01*
X205667Y266843D01*
X205619Y266862D01*
X205575Y266890D01*
X205506Y266908D01*
X205439Y266935D01*
X205368Y266943D01*
X205337Y266951D01*
X205313Y266949D01*
X205273Y266953D01*
X153844Y266953D01*
X153824Y266950D01*
X153805Y266952D01*
X153703Y266930D01*
X153601Y266914D01*
X153584Y266904D01*
X153564Y266900D01*
X153475Y266847D01*
X153384Y266798D01*
X153370Y266784D01*
X153353Y266774D01*
X153286Y266695D01*
X153214Y266620D01*
X153206Y266602D01*
X153193Y266587D01*
X153154Y266491D01*
X153111Y266397D01*
X153109Y266377D01*
X153101Y266359D01*
X153083Y266192D01*
X153083Y257048D01*
X153086Y257028D01*
X153084Y257009D01*
X153106Y256907D01*
X153122Y256805D01*
X153132Y256788D01*
X153136Y256768D01*
X153189Y256679D01*
X153238Y256588D01*
X153252Y256574D01*
X153262Y256557D01*
X153341Y256490D01*
X153416Y256418D01*
X153434Y256410D01*
X153449Y256397D01*
X153545Y256358D01*
X153639Y256315D01*
X153659Y256313D01*
X153677Y256305D01*
X153844Y256287D01*
X196128Y256287D01*
X196219Y256301D01*
G37*
G36*
X568218Y104398D02*
X568218Y104398D01*
X568237Y104396D01*
X568339Y104418D01*
X568441Y104434D01*
X568458Y104444D01*
X568478Y104448D01*
X568567Y104501D01*
X568658Y104550D01*
X568672Y104564D01*
X568689Y104574D01*
X568756Y104653D01*
X568828Y104728D01*
X568836Y104746D01*
X568849Y104761D01*
X568888Y104857D01*
X568931Y104951D01*
X568933Y104971D01*
X568941Y104989D01*
X568959Y105156D01*
X568959Y122428D01*
X568956Y122448D01*
X568958Y122467D01*
X568936Y122569D01*
X568920Y122671D01*
X568910Y122688D01*
X568906Y122708D01*
X568853Y122797D01*
X568804Y122888D01*
X568790Y122902D01*
X568780Y122919D01*
X568701Y122986D01*
X568626Y123058D01*
X568608Y123066D01*
X568593Y123079D01*
X568497Y123118D01*
X568403Y123161D01*
X568383Y123163D01*
X568365Y123171D01*
X568198Y123189D01*
X555809Y123189D01*
X553568Y124117D01*
X553334Y124352D01*
X553323Y124360D01*
X553314Y124371D01*
X553223Y124432D01*
X553134Y124496D01*
X553121Y124500D01*
X553110Y124507D01*
X553004Y124536D01*
X552899Y124568D01*
X552885Y124568D01*
X552872Y124571D01*
X552763Y124565D01*
X552653Y124562D01*
X552640Y124557D01*
X552627Y124556D01*
X552468Y124501D01*
X535233Y116294D01*
X535211Y116279D01*
X535186Y116270D01*
X535111Y116209D01*
X535031Y116154D01*
X535015Y116133D01*
X534994Y116116D01*
X534942Y116035D01*
X534884Y115957D01*
X534876Y115931D01*
X534862Y115909D01*
X534838Y115815D01*
X534808Y115723D01*
X534808Y115696D01*
X534802Y115671D01*
X534809Y115574D01*
X534810Y115477D01*
X534819Y115452D01*
X534821Y115425D01*
X534859Y115336D01*
X534891Y115244D01*
X534907Y115223D01*
X534917Y115199D01*
X534982Y115126D01*
X535041Y115050D01*
X535063Y115035D01*
X535081Y115015D01*
X535222Y114925D01*
X553196Y106016D01*
X554385Y104655D01*
X554475Y104581D01*
X554563Y104505D01*
X554569Y104503D01*
X554574Y104499D01*
X554683Y104457D01*
X554791Y104413D01*
X554799Y104412D01*
X554804Y104410D01*
X554823Y104410D01*
X554958Y104395D01*
X568198Y104395D01*
X568218Y104398D01*
G37*
G36*
X510652Y106865D02*
X510652Y106865D01*
X510725Y106872D01*
X510771Y106891D01*
X510820Y106902D01*
X510883Y106940D01*
X510951Y106969D01*
X510988Y107002D01*
X511031Y107028D01*
X511079Y107084D01*
X511134Y107133D01*
X511158Y107177D01*
X511191Y107215D01*
X511218Y107284D01*
X511255Y107348D01*
X511264Y107397D01*
X511283Y107443D01*
X511296Y107564D01*
X511301Y107589D01*
X511300Y107597D01*
X511301Y107610D01*
X511301Y114377D01*
X511299Y114392D01*
X511300Y114416D01*
X511247Y115450D01*
X511257Y115480D01*
X511266Y115525D01*
X511283Y115568D01*
X511298Y115704D01*
X511301Y115722D01*
X511300Y115727D01*
X511301Y115735D01*
X511301Y123528D01*
X511294Y123574D01*
X511296Y123619D01*
X511274Y123694D01*
X511262Y123771D01*
X511240Y123812D01*
X511227Y123856D01*
X511183Y123920D01*
X511146Y123988D01*
X511113Y124020D01*
X511087Y124058D01*
X511024Y124104D01*
X510968Y124158D01*
X510926Y124177D01*
X510890Y124205D01*
X510816Y124229D01*
X510745Y124261D01*
X510699Y124266D01*
X510656Y124281D01*
X510578Y124280D01*
X510501Y124289D01*
X510456Y124279D01*
X510410Y124278D01*
X510278Y124240D01*
X510260Y124236D01*
X510256Y124234D01*
X510249Y124232D01*
X508959Y123697D01*
X485394Y123697D01*
X485367Y123693D01*
X485315Y123693D01*
X485098Y123671D01*
X485065Y123661D01*
X485030Y123660D01*
X484870Y123610D01*
X484474Y123435D01*
X484411Y123394D01*
X484344Y123362D01*
X484294Y123318D01*
X484268Y123300D01*
X484252Y123281D01*
X484218Y123251D01*
X483927Y122931D01*
X483886Y122869D01*
X483838Y122812D01*
X483810Y122752D01*
X483792Y122725D01*
X483786Y122701D01*
X483767Y122660D01*
X483638Y122276D01*
X483631Y122229D01*
X483614Y122184D01*
X483603Y122055D01*
X483599Y122033D01*
X483600Y122027D01*
X483599Y122017D01*
X483610Y121534D01*
X483614Y121514D01*
X483613Y121480D01*
X483703Y120512D01*
X483674Y120420D01*
X483669Y120381D01*
X483655Y120345D01*
X483640Y120178D01*
X483869Y109863D01*
X483875Y109835D01*
X483876Y109778D01*
X483925Y109417D01*
X483938Y109374D01*
X483943Y109328D01*
X483992Y109199D01*
X483997Y109182D01*
X484000Y109178D01*
X484002Y109172D01*
X484333Y108528D01*
X484385Y108457D01*
X484431Y108382D01*
X484464Y108351D01*
X484479Y108331D01*
X484505Y108313D01*
X484553Y108267D01*
X485124Y107839D01*
X485153Y107824D01*
X485179Y107801D01*
X485262Y107767D01*
X485342Y107725D01*
X485375Y107720D01*
X485406Y107707D01*
X485572Y107687D01*
X509026Y107429D01*
X510241Y106910D01*
X510290Y106898D01*
X510335Y106877D01*
X510408Y106869D01*
X510480Y106851D01*
X510530Y106855D01*
X510579Y106850D01*
X510652Y106865D01*
G37*
G36*
X294914Y297320D02*
X294914Y297320D01*
X294985Y297326D01*
X295033Y297346D01*
X295084Y297357D01*
X295145Y297394D01*
X295211Y297422D01*
X295267Y297467D01*
X295295Y297484D01*
X295310Y297501D01*
X295342Y297527D01*
X296885Y299070D01*
X298993Y301178D01*
X301607Y302261D01*
X319278Y302261D01*
X319298Y302264D01*
X319317Y302262D01*
X319419Y302284D01*
X319521Y302300D01*
X319538Y302310D01*
X319558Y302314D01*
X319647Y302367D01*
X319738Y302416D01*
X319752Y302430D01*
X319769Y302440D01*
X319836Y302519D01*
X319908Y302594D01*
X319916Y302612D01*
X319929Y302627D01*
X319968Y302723D01*
X320011Y302817D01*
X320013Y302837D01*
X320021Y302855D01*
X320039Y303022D01*
X320039Y311952D01*
X320025Y312043D01*
X320017Y312133D01*
X320005Y312163D01*
X320000Y312195D01*
X319957Y312276D01*
X319921Y312360D01*
X319895Y312392D01*
X319884Y312413D01*
X319861Y312435D01*
X319816Y312491D01*
X315285Y317022D01*
X315211Y317075D01*
X315141Y317135D01*
X315111Y317147D01*
X315085Y317166D01*
X314998Y317193D01*
X314913Y317227D01*
X314872Y317231D01*
X314850Y317238D01*
X314818Y317237D01*
X314746Y317245D01*
X294804Y317245D01*
X294784Y317242D01*
X294765Y317244D01*
X294663Y317222D01*
X294561Y317206D01*
X294544Y317196D01*
X294524Y317192D01*
X294435Y317139D01*
X294344Y317090D01*
X294330Y317076D01*
X294313Y317066D01*
X294246Y316987D01*
X294174Y316912D01*
X294166Y316894D01*
X294153Y316879D01*
X294114Y316783D01*
X294071Y316689D01*
X294069Y316669D01*
X294061Y316651D01*
X294043Y316484D01*
X294043Y298065D01*
X294054Y297995D01*
X294056Y297923D01*
X294074Y297874D01*
X294082Y297823D01*
X294116Y297759D01*
X294141Y297692D01*
X294173Y297651D01*
X294198Y297605D01*
X294250Y297556D01*
X294294Y297500D01*
X294338Y297472D01*
X294376Y297436D01*
X294441Y297406D01*
X294501Y297367D01*
X294552Y297354D01*
X294599Y297332D01*
X294670Y297324D01*
X294740Y297307D01*
X294792Y297311D01*
X294843Y297305D01*
X294914Y297320D01*
G37*
G36*
X430728Y104401D02*
X430728Y104401D01*
X430766Y104398D01*
X430849Y104421D01*
X430933Y104434D01*
X430967Y104452D01*
X431004Y104462D01*
X431075Y104510D01*
X431151Y104550D01*
X431177Y104577D01*
X431209Y104598D01*
X431261Y104666D01*
X431320Y104728D01*
X431336Y104762D01*
X431359Y104792D01*
X431388Y104873D01*
X431424Y104951D01*
X431428Y104989D01*
X431441Y105024D01*
X431442Y105110D01*
X431451Y105195D01*
X431443Y105232D01*
X431443Y105270D01*
X431400Y105432D01*
X430446Y107880D01*
X430527Y110734D01*
X430532Y110916D01*
X430536Y111055D01*
X430570Y112279D01*
X430623Y114168D01*
X433315Y120092D01*
X435786Y122377D01*
X435839Y122445D01*
X435898Y122508D01*
X435914Y122542D01*
X435937Y122571D01*
X435966Y122653D01*
X436002Y122731D01*
X436006Y122768D01*
X436018Y122803D01*
X436020Y122890D01*
X436029Y122975D01*
X436021Y123012D01*
X436022Y123049D01*
X435995Y123131D01*
X435977Y123216D01*
X435958Y123248D01*
X435946Y123283D01*
X435895Y123353D01*
X435851Y123427D01*
X435822Y123451D01*
X435800Y123481D01*
X435729Y123531D01*
X435664Y123587D01*
X435629Y123601D01*
X435599Y123622D01*
X435516Y123646D01*
X435436Y123679D01*
X435388Y123684D01*
X435363Y123691D01*
X435332Y123690D01*
X435269Y123697D01*
X414528Y123697D01*
X414502Y123693D01*
X414452Y123693D01*
X414199Y123668D01*
X414169Y123660D01*
X414139Y123660D01*
X413978Y123612D01*
X413511Y123414D01*
X413453Y123378D01*
X413391Y123350D01*
X413331Y123300D01*
X413303Y123283D01*
X413290Y123266D01*
X413262Y123243D01*
X412909Y122879D01*
X412870Y122823D01*
X412823Y122773D01*
X412787Y122704D01*
X412768Y122677D01*
X412762Y122657D01*
X412746Y122624D01*
X412563Y122152D01*
X412557Y122124D01*
X412550Y122108D01*
X412549Y122108D01*
X412543Y122095D01*
X412513Y121930D01*
X412503Y121787D01*
X412505Y121771D01*
X412501Y121744D01*
X412498Y121485D01*
X412500Y121472D01*
X412498Y121452D01*
X412531Y120387D01*
X412531Y120386D01*
X412521Y120338D01*
X412502Y120292D01*
X412487Y120169D01*
X412482Y120145D01*
X412483Y120137D01*
X412481Y120126D01*
X412297Y105165D01*
X412300Y105141D01*
X412298Y105117D01*
X412319Y105020D01*
X412333Y104922D01*
X412345Y104900D01*
X412350Y104876D01*
X412400Y104791D01*
X412446Y104703D01*
X412463Y104686D01*
X412476Y104665D01*
X412551Y104601D01*
X412622Y104532D01*
X412644Y104521D01*
X412663Y104505D01*
X412755Y104468D01*
X412844Y104425D01*
X412868Y104422D01*
X412891Y104413D01*
X413058Y104395D01*
X430691Y104395D01*
X430728Y104401D01*
G37*
G36*
X305926Y213844D02*
X305926Y213844D01*
X305997Y213850D01*
X306045Y213870D01*
X306096Y213881D01*
X306157Y213918D01*
X306223Y213946D01*
X306279Y213991D01*
X306307Y214008D01*
X306322Y214025D01*
X306354Y214051D01*
X307883Y215580D01*
X310497Y216663D01*
X321605Y216663D01*
X321675Y216674D01*
X321747Y216676D01*
X321796Y216694D01*
X321847Y216702D01*
X321911Y216736D01*
X321978Y216761D01*
X322019Y216793D01*
X322065Y216818D01*
X322114Y216869D01*
X322170Y216914D01*
X322198Y216958D01*
X322234Y216996D01*
X322264Y217061D01*
X322303Y217121D01*
X322316Y217172D01*
X322338Y217219D01*
X322346Y217290D01*
X322363Y217360D01*
X322359Y217412D01*
X322365Y217463D01*
X322350Y217534D01*
X322344Y217605D01*
X322324Y217653D01*
X322313Y217704D01*
X322276Y217765D01*
X322248Y217831D01*
X322203Y217887D01*
X322186Y217915D01*
X322169Y217930D01*
X322143Y217962D01*
X321777Y218328D01*
X310948Y229157D01*
X309865Y231771D01*
X309865Y263242D01*
X309862Y263262D01*
X309864Y263281D01*
X309842Y263383D01*
X309826Y263485D01*
X309816Y263502D01*
X309812Y263522D01*
X309759Y263611D01*
X309710Y263702D01*
X309696Y263716D01*
X309686Y263733D01*
X309607Y263800D01*
X309532Y263872D01*
X309514Y263880D01*
X309499Y263893D01*
X309403Y263932D01*
X309309Y263975D01*
X309289Y263977D01*
X309271Y263985D01*
X309104Y264003D01*
X308477Y264003D01*
X308477Y276806D01*
X308474Y276825D01*
X308476Y276845D01*
X308454Y276947D01*
X308438Y277049D01*
X308428Y277066D01*
X308424Y277086D01*
X308371Y277175D01*
X308322Y277266D01*
X308308Y277280D01*
X308298Y277297D01*
X308219Y277364D01*
X308144Y277435D01*
X308126Y277444D01*
X308111Y277457D01*
X308015Y277495D01*
X307921Y277539D01*
X307901Y277541D01*
X307883Y277549D01*
X307716Y277567D01*
X306240Y277567D01*
X306220Y277564D01*
X306200Y277566D01*
X306099Y277544D01*
X305997Y277527D01*
X305980Y277518D01*
X305960Y277514D01*
X305871Y277461D01*
X305780Y277412D01*
X305766Y277398D01*
X305749Y277388D01*
X305682Y277309D01*
X305610Y277234D01*
X305602Y277216D01*
X305589Y277201D01*
X305550Y277104D01*
X305507Y277011D01*
X305505Y276991D01*
X305497Y276973D01*
X305479Y276806D01*
X305479Y263916D01*
X305447Y263897D01*
X305356Y263848D01*
X305342Y263834D01*
X305325Y263824D01*
X305258Y263745D01*
X305186Y263670D01*
X305178Y263652D01*
X305165Y263637D01*
X305126Y263541D01*
X305083Y263447D01*
X305081Y263427D01*
X305073Y263409D01*
X305055Y263242D01*
X305055Y214589D01*
X305066Y214519D01*
X305068Y214447D01*
X305086Y214398D01*
X305094Y214347D01*
X305128Y214283D01*
X305153Y214216D01*
X305185Y214175D01*
X305210Y214129D01*
X305262Y214080D01*
X305306Y214024D01*
X305350Y213996D01*
X305388Y213960D01*
X305453Y213930D01*
X305513Y213891D01*
X305564Y213878D01*
X305611Y213856D01*
X305682Y213848D01*
X305752Y213831D01*
X305804Y213835D01*
X305855Y213829D01*
X305926Y213844D01*
G37*
G36*
X290099Y149662D02*
X290099Y149662D01*
X290175Y149664D01*
X290220Y149680D01*
X290267Y149687D01*
X290335Y149722D01*
X290406Y149748D01*
X290444Y149778D01*
X290486Y149800D01*
X290539Y149854D01*
X290598Y149902D01*
X290624Y149942D01*
X290657Y149977D01*
X290690Y150045D01*
X290731Y150109D01*
X290743Y150155D01*
X290763Y150199D01*
X290773Y150274D01*
X290791Y150347D01*
X290787Y150395D01*
X290793Y150443D01*
X290774Y150570D01*
X290772Y150592D01*
X290769Y150599D01*
X290768Y150609D01*
X289291Y156119D01*
X289291Y163413D01*
X291179Y170458D01*
X294826Y176775D01*
X296299Y178248D01*
X296341Y178306D01*
X296390Y178358D01*
X296412Y178405D01*
X296443Y178447D01*
X296464Y178516D01*
X296494Y178581D01*
X296500Y178633D01*
X296515Y178683D01*
X296513Y178754D01*
X296521Y178825D01*
X296510Y178876D01*
X296509Y178928D01*
X296484Y178996D01*
X296469Y179066D01*
X296442Y179111D01*
X296424Y179159D01*
X296379Y179215D01*
X296343Y179277D01*
X296303Y179311D01*
X296270Y179351D01*
X296210Y179390D01*
X296156Y179437D01*
X296107Y179456D01*
X296064Y179484D01*
X295994Y179502D01*
X295927Y179529D01*
X295856Y179537D01*
X295825Y179545D01*
X295802Y179543D01*
X295761Y179547D01*
X282177Y179547D01*
X282131Y179540D01*
X282086Y179542D01*
X282011Y179520D01*
X281934Y179508D01*
X281893Y179486D01*
X281849Y179473D01*
X281785Y179429D01*
X281717Y179392D01*
X281685Y179359D01*
X281647Y179333D01*
X281601Y179271D01*
X281547Y179214D01*
X281528Y179172D01*
X281500Y179136D01*
X281476Y179062D01*
X281444Y178991D01*
X281438Y178945D01*
X281424Y178902D01*
X281425Y178824D01*
X281416Y178747D01*
X281426Y178702D01*
X281427Y178656D01*
X281465Y178524D01*
X281469Y178506D01*
X281471Y178502D01*
X281473Y178495D01*
X282167Y176821D01*
X282167Y173699D01*
X280972Y170815D01*
X278765Y168608D01*
X275881Y167413D01*
X273792Y167413D01*
X273721Y167402D01*
X273650Y167400D01*
X273601Y167382D01*
X273549Y167374D01*
X273486Y167340D01*
X273419Y167315D01*
X273378Y167283D01*
X273332Y167258D01*
X273283Y167206D01*
X273227Y167162D01*
X273198Y167118D01*
X273163Y167080D01*
X273132Y167015D01*
X273094Y166955D01*
X273081Y166904D01*
X273059Y166857D01*
X273051Y166786D01*
X273033Y166716D01*
X273038Y166664D01*
X273032Y166613D01*
X273047Y166542D01*
X273053Y166471D01*
X273073Y166423D01*
X273084Y166372D01*
X273121Y166311D01*
X273149Y166245D01*
X273194Y166189D01*
X273210Y166161D01*
X273228Y166146D01*
X273254Y166114D01*
X275546Y163821D01*
X285995Y153372D01*
X289494Y149873D01*
X289533Y149845D01*
X289566Y149810D01*
X289632Y149774D01*
X289694Y149730D01*
X289740Y149716D01*
X289782Y149693D01*
X289857Y149680D01*
X289929Y149657D01*
X289977Y149659D01*
X290024Y149650D01*
X290099Y149662D01*
G37*
G36*
X287040Y251836D02*
X287040Y251836D01*
X287059Y251834D01*
X287161Y251856D01*
X287263Y251873D01*
X287280Y251882D01*
X287300Y251886D01*
X287389Y251939D01*
X287480Y251988D01*
X287494Y252002D01*
X287511Y252012D01*
X287578Y252091D01*
X287649Y252166D01*
X287658Y252184D01*
X287671Y252199D01*
X287710Y252295D01*
X287753Y252389D01*
X287755Y252409D01*
X287763Y252427D01*
X287781Y252594D01*
X287781Y259873D01*
X290068Y259873D01*
X290088Y259876D01*
X290107Y259874D01*
X290209Y259896D01*
X290311Y259912D01*
X290328Y259922D01*
X290348Y259926D01*
X290437Y259979D01*
X290528Y260028D01*
X290542Y260042D01*
X290559Y260052D01*
X290626Y260131D01*
X290698Y260206D01*
X290706Y260224D01*
X290719Y260239D01*
X290758Y260335D01*
X290801Y260429D01*
X290803Y260449D01*
X290811Y260467D01*
X290829Y260634D01*
X290829Y283718D01*
X290826Y283738D01*
X290828Y283757D01*
X290806Y283858D01*
X290790Y283961D01*
X290780Y283978D01*
X290776Y283998D01*
X290723Y284087D01*
X290674Y284178D01*
X290660Y284192D01*
X290650Y284209D01*
X290571Y284276D01*
X290496Y284348D01*
X290478Y284356D01*
X290463Y284369D01*
X290367Y284408D01*
X290273Y284451D01*
X290253Y284453D01*
X290235Y284461D01*
X290068Y284479D01*
X279741Y284479D01*
X279695Y284472D01*
X279649Y284474D01*
X279575Y284452D01*
X279498Y284440D01*
X279457Y284418D01*
X279413Y284405D01*
X279349Y284361D01*
X279280Y284324D01*
X279249Y284291D01*
X279211Y284265D01*
X279165Y284203D01*
X279111Y284146D01*
X279092Y284104D01*
X279064Y284068D01*
X279040Y283993D01*
X279007Y283923D01*
X279002Y283877D01*
X278988Y283834D01*
X278989Y283756D01*
X278980Y283679D01*
X278990Y283634D01*
X278991Y283588D01*
X279029Y283456D01*
X279033Y283438D01*
X279035Y283434D01*
X279037Y283427D01*
X279909Y281323D01*
X279909Y260593D01*
X279928Y260476D01*
X279946Y260358D01*
X279948Y260354D01*
X279948Y260350D01*
X280004Y260245D01*
X280059Y260139D01*
X280062Y260136D01*
X280064Y260133D01*
X280150Y260051D01*
X280235Y259968D01*
X280239Y259966D01*
X280242Y259963D01*
X280350Y259913D01*
X280457Y259862D01*
X280461Y259862D01*
X280465Y259860D01*
X280584Y259847D01*
X280701Y259832D01*
X280706Y259833D01*
X280709Y259833D01*
X280723Y259836D01*
X280867Y259858D01*
X280924Y259873D01*
X284735Y259873D01*
X284735Y252594D01*
X284738Y252574D01*
X284736Y252555D01*
X284758Y252453D01*
X284775Y252351D01*
X284784Y252334D01*
X284788Y252314D01*
X284841Y252225D01*
X284890Y252134D01*
X284904Y252120D01*
X284914Y252103D01*
X284993Y252036D01*
X285068Y251965D01*
X285086Y251956D01*
X285101Y251943D01*
X285197Y251904D01*
X285291Y251861D01*
X285311Y251859D01*
X285329Y251851D01*
X285496Y251833D01*
X287020Y251833D01*
X287040Y251836D01*
G37*
G36*
X63283Y312825D02*
X63283Y312825D01*
X63374Y312833D01*
X63404Y312845D01*
X63436Y312850D01*
X63516Y312893D01*
X63600Y312929D01*
X63633Y312955D01*
X63653Y312966D01*
X63675Y312989D01*
X63731Y313034D01*
X65463Y314766D01*
X65489Y314801D01*
X65521Y314831D01*
X65560Y314900D01*
X65607Y314965D01*
X65620Y315007D01*
X65641Y315045D01*
X65655Y315124D01*
X65679Y315200D01*
X65678Y315244D01*
X65686Y315287D01*
X65675Y315366D01*
X65673Y315446D01*
X65658Y315487D01*
X65651Y315531D01*
X65593Y315664D01*
X65588Y315677D01*
X65586Y315680D01*
X65584Y315684D01*
X65276Y316217D01*
X65103Y316864D01*
X65103Y321175D01*
X71882Y321175D01*
X71902Y321178D01*
X71921Y321176D01*
X72023Y321198D01*
X72125Y321215D01*
X72142Y321224D01*
X72162Y321228D01*
X72251Y321281D01*
X72342Y321330D01*
X72356Y321344D01*
X72373Y321354D01*
X72440Y321433D01*
X72511Y321508D01*
X72520Y321526D01*
X72533Y321541D01*
X72572Y321637D01*
X72615Y321731D01*
X72617Y321751D01*
X72625Y321769D01*
X72643Y321936D01*
X72643Y323460D01*
X72640Y323480D01*
X72642Y323499D01*
X72620Y323601D01*
X72603Y323703D01*
X72594Y323720D01*
X72590Y323740D01*
X72537Y323829D01*
X72488Y323920D01*
X72474Y323934D01*
X72464Y323951D01*
X72385Y324018D01*
X72310Y324089D01*
X72292Y324098D01*
X72277Y324111D01*
X72181Y324150D01*
X72087Y324193D01*
X72067Y324195D01*
X72049Y324203D01*
X71882Y324221D01*
X65103Y324221D01*
X65103Y328532D01*
X65225Y328987D01*
X65237Y329106D01*
X65250Y329223D01*
X65249Y329228D01*
X65250Y329232D01*
X65223Y329348D01*
X65198Y329464D01*
X65196Y329467D01*
X65195Y329471D01*
X65132Y329573D01*
X65072Y329675D01*
X65068Y329678D01*
X65066Y329681D01*
X64975Y329758D01*
X64885Y329835D01*
X64881Y329836D01*
X64878Y329839D01*
X64768Y329882D01*
X64656Y329927D01*
X64652Y329927D01*
X64648Y329929D01*
X64635Y329929D01*
X64490Y329945D01*
X51842Y329945D01*
X51726Y329926D01*
X51607Y329908D01*
X51604Y329906D01*
X51599Y329906D01*
X51495Y329850D01*
X51389Y329795D01*
X51386Y329792D01*
X51382Y329790D01*
X51300Y329704D01*
X51217Y329619D01*
X51216Y329615D01*
X51213Y329612D01*
X51162Y329504D01*
X51111Y329397D01*
X51111Y329393D01*
X51109Y329389D01*
X51096Y329271D01*
X51082Y329153D01*
X51082Y329148D01*
X51082Y329145D01*
X51085Y329131D01*
X51107Y328987D01*
X51229Y328532D01*
X51229Y324221D01*
X44450Y324221D01*
X44430Y324218D01*
X44411Y324220D01*
X44309Y324198D01*
X44207Y324181D01*
X44190Y324172D01*
X44170Y324168D01*
X44081Y324115D01*
X43990Y324066D01*
X43976Y324052D01*
X43959Y324042D01*
X43892Y323963D01*
X43821Y323888D01*
X43812Y323870D01*
X43799Y323855D01*
X43760Y323759D01*
X43717Y323665D01*
X43715Y323645D01*
X43707Y323627D01*
X43689Y323460D01*
X43689Y321936D01*
X43692Y321916D01*
X43690Y321897D01*
X43712Y321795D01*
X43729Y321693D01*
X43738Y321676D01*
X43742Y321656D01*
X43795Y321567D01*
X43844Y321476D01*
X43858Y321462D01*
X43868Y321445D01*
X43947Y321378D01*
X44022Y321307D01*
X44040Y321298D01*
X44055Y321285D01*
X44151Y321246D01*
X44245Y321203D01*
X44265Y321201D01*
X44283Y321193D01*
X44450Y321175D01*
X51229Y321175D01*
X51229Y316864D01*
X51056Y316217D01*
X50748Y315684D01*
X50732Y315643D01*
X50709Y315607D01*
X50689Y315529D01*
X50661Y315454D01*
X50659Y315410D01*
X50649Y315368D01*
X50655Y315289D01*
X50652Y315209D01*
X50664Y315166D01*
X50668Y315123D01*
X50699Y315049D01*
X50722Y314973D01*
X50747Y314937D01*
X50764Y314896D01*
X50855Y314783D01*
X50863Y314771D01*
X50866Y314769D01*
X50869Y314766D01*
X52601Y313034D01*
X52675Y312981D01*
X52744Y312921D01*
X52774Y312909D01*
X52800Y312890D01*
X52887Y312863D01*
X52972Y312829D01*
X53013Y312825D01*
X53036Y312818D01*
X53068Y312819D01*
X53139Y312811D01*
X63193Y312811D01*
X63283Y312825D01*
G37*
G36*
X134212Y256290D02*
X134212Y256290D01*
X134231Y256288D01*
X134333Y256310D01*
X134435Y256326D01*
X134452Y256336D01*
X134472Y256340D01*
X134561Y256393D01*
X134652Y256442D01*
X134666Y256456D01*
X134683Y256466D01*
X134750Y256545D01*
X134822Y256620D01*
X134830Y256638D01*
X134843Y256653D01*
X134882Y256749D01*
X134925Y256843D01*
X134927Y256863D01*
X134935Y256881D01*
X134953Y257048D01*
X134953Y268940D01*
X135731Y269718D01*
X135743Y269734D01*
X135759Y269746D01*
X135815Y269834D01*
X135875Y269917D01*
X135881Y269936D01*
X135892Y269953D01*
X135917Y270054D01*
X135947Y270153D01*
X135947Y270172D01*
X135952Y270192D01*
X135944Y270295D01*
X135941Y270398D01*
X135934Y270417D01*
X135932Y270437D01*
X135892Y270532D01*
X135856Y270629D01*
X135844Y270645D01*
X135836Y270663D01*
X135731Y270794D01*
X134953Y271572D01*
X134953Y275726D01*
X134950Y275746D01*
X134952Y275765D01*
X134930Y275867D01*
X134914Y275969D01*
X134904Y275986D01*
X134900Y276006D01*
X134847Y276095D01*
X134798Y276186D01*
X134784Y276200D01*
X134774Y276217D01*
X134695Y276284D01*
X134620Y276356D01*
X134602Y276364D01*
X134587Y276377D01*
X134491Y276416D01*
X134397Y276459D01*
X134377Y276461D01*
X134359Y276469D01*
X134192Y276487D01*
X128323Y276487D01*
X128233Y276473D01*
X128142Y276465D01*
X128112Y276453D01*
X128080Y276448D01*
X128000Y276405D01*
X127916Y276369D01*
X127884Y276343D01*
X127863Y276332D01*
X127841Y276309D01*
X127785Y276264D01*
X125556Y274035D01*
X119681Y274035D01*
X119591Y274021D01*
X119500Y274013D01*
X119471Y274001D01*
X119439Y273996D01*
X119358Y273953D01*
X119274Y273917D01*
X119242Y273891D01*
X119221Y273880D01*
X119199Y273857D01*
X119143Y273812D01*
X118960Y273629D01*
X118906Y273555D01*
X118847Y273485D01*
X118835Y273455D01*
X118816Y273429D01*
X118789Y273342D01*
X118755Y273257D01*
X118751Y273216D01*
X118744Y273194D01*
X118745Y273162D01*
X118737Y273090D01*
X118737Y272849D01*
X118751Y272759D01*
X118759Y272668D01*
X118771Y272638D01*
X118776Y272606D01*
X118819Y272526D01*
X118855Y272442D01*
X118881Y272410D01*
X118892Y272389D01*
X118915Y272367D01*
X118960Y272311D01*
X121189Y270082D01*
X121189Y257048D01*
X121192Y257028D01*
X121190Y257009D01*
X121212Y256907D01*
X121228Y256805D01*
X121238Y256788D01*
X121242Y256768D01*
X121295Y256679D01*
X121344Y256588D01*
X121358Y256574D01*
X121368Y256557D01*
X121447Y256490D01*
X121522Y256418D01*
X121540Y256410D01*
X121555Y256397D01*
X121651Y256358D01*
X121745Y256315D01*
X121765Y256313D01*
X121783Y256305D01*
X121950Y256287D01*
X134192Y256287D01*
X134212Y256290D01*
G37*
G36*
X244898Y104406D02*
X244898Y104406D01*
X244966Y104407D01*
X245019Y104425D01*
X245074Y104434D01*
X245134Y104466D01*
X245198Y104489D01*
X245242Y104523D01*
X245291Y104550D01*
X245338Y104599D01*
X245391Y104641D01*
X245422Y104687D01*
X245460Y104728D01*
X245489Y104789D01*
X245526Y104846D01*
X245541Y104900D01*
X245564Y104951D01*
X245572Y105018D01*
X245589Y105084D01*
X245585Y105140D01*
X245591Y105195D01*
X245577Y105262D01*
X245572Y105329D01*
X245551Y105381D01*
X245539Y105436D01*
X245504Y105494D01*
X245478Y105557D01*
X245441Y105599D01*
X245413Y105647D01*
X245361Y105691D01*
X245317Y105742D01*
X245251Y105785D01*
X245226Y105807D01*
X245206Y105815D01*
X245176Y105834D01*
X245119Y105864D01*
X243825Y106804D01*
X242694Y107935D01*
X241754Y109229D01*
X241028Y110654D01*
X240533Y112175D01*
X240283Y113754D01*
X240283Y120651D01*
X249682Y120651D01*
X249702Y120654D01*
X249721Y120652D01*
X249823Y120674D01*
X249925Y120691D01*
X249942Y120700D01*
X249962Y120704D01*
X250051Y120757D01*
X250142Y120806D01*
X250156Y120820D01*
X250173Y120830D01*
X250240Y120909D01*
X250311Y120984D01*
X250320Y121002D01*
X250333Y121017D01*
X250371Y121113D01*
X250415Y121207D01*
X250417Y121227D01*
X250425Y121245D01*
X250443Y121412D01*
X250443Y122936D01*
X250440Y122956D01*
X250442Y122975D01*
X250420Y123077D01*
X250403Y123179D01*
X250394Y123196D01*
X250390Y123216D01*
X250337Y123305D01*
X250288Y123396D01*
X250274Y123410D01*
X250264Y123427D01*
X250185Y123494D01*
X250110Y123565D01*
X250092Y123574D01*
X250077Y123587D01*
X249981Y123626D01*
X249887Y123669D01*
X249867Y123671D01*
X249849Y123679D01*
X249682Y123697D01*
X240283Y123697D01*
X240283Y130594D01*
X240533Y132173D01*
X241028Y133694D01*
X241754Y135119D01*
X242727Y136459D01*
X242732Y136469D01*
X242740Y136478D01*
X242787Y136579D01*
X242837Y136678D01*
X242839Y136690D01*
X242844Y136701D01*
X242856Y136812D01*
X242872Y136922D01*
X242870Y136934D01*
X242871Y136945D01*
X242847Y137054D01*
X242827Y137164D01*
X242821Y137174D01*
X242819Y137186D01*
X242762Y137282D01*
X242708Y137379D01*
X242699Y137387D01*
X242693Y137397D01*
X242608Y137469D01*
X242526Y137544D01*
X242515Y137549D01*
X242506Y137557D01*
X242402Y137599D01*
X242301Y137643D01*
X242289Y137644D01*
X242278Y137649D01*
X242111Y137667D01*
X235533Y137667D01*
X235462Y137656D01*
X235391Y137654D01*
X235342Y137636D01*
X235290Y137628D01*
X235227Y137594D01*
X235160Y137569D01*
X235119Y137537D01*
X235073Y137512D01*
X235024Y137460D01*
X234968Y137416D01*
X234940Y137372D01*
X234904Y137334D01*
X234873Y137269D01*
X234835Y137209D01*
X234822Y137158D01*
X234800Y137111D01*
X234792Y137040D01*
X234775Y136970D01*
X234779Y136918D01*
X234773Y136867D01*
X234788Y136796D01*
X234794Y136725D01*
X234814Y136677D01*
X234825Y136626D01*
X234862Y136565D01*
X234890Y136499D01*
X234935Y136443D01*
X234943Y136429D01*
X236729Y132118D01*
X236729Y112230D01*
X234950Y107935D01*
X232709Y105694D01*
X232667Y105636D01*
X232618Y105584D01*
X232596Y105537D01*
X232565Y105495D01*
X232544Y105426D01*
X232514Y105361D01*
X232508Y105309D01*
X232493Y105259D01*
X232495Y105188D01*
X232487Y105117D01*
X232498Y105066D01*
X232499Y105014D01*
X232524Y104946D01*
X232539Y104876D01*
X232566Y104831D01*
X232584Y104783D01*
X232629Y104727D01*
X232665Y104665D01*
X232705Y104631D01*
X232738Y104591D01*
X232798Y104552D01*
X232852Y104505D01*
X232901Y104486D01*
X232944Y104458D01*
X233014Y104440D01*
X233081Y104413D01*
X233152Y104405D01*
X233183Y104397D01*
X233206Y104399D01*
X233247Y104395D01*
X244831Y104395D01*
X244898Y104406D01*
G37*
G36*
X276783Y104406D02*
X276783Y104406D01*
X276855Y104408D01*
X276904Y104426D01*
X276955Y104434D01*
X277019Y104468D01*
X277086Y104493D01*
X277127Y104525D01*
X277173Y104550D01*
X277222Y104601D01*
X277278Y104646D01*
X277306Y104690D01*
X277342Y104728D01*
X277372Y104793D01*
X277411Y104853D01*
X277424Y104904D01*
X277446Y104951D01*
X277454Y105022D01*
X277471Y105092D01*
X277467Y105144D01*
X277473Y105195D01*
X277458Y105266D01*
X277452Y105337D01*
X277432Y105385D01*
X277421Y105436D01*
X277384Y105497D01*
X277356Y105563D01*
X277311Y105619D01*
X277294Y105647D01*
X277277Y105662D01*
X277251Y105694D01*
X267217Y115728D01*
X267217Y115729D01*
X262394Y120552D01*
X262069Y121334D01*
X262018Y121417D01*
X261972Y121503D01*
X261953Y121521D01*
X261940Y121544D01*
X261865Y121606D01*
X261794Y121673D01*
X261770Y121684D01*
X261750Y121700D01*
X261659Y121735D01*
X261571Y121776D01*
X261545Y121779D01*
X261521Y121789D01*
X261423Y121793D01*
X261326Y121803D01*
X261301Y121798D01*
X261275Y121799D01*
X261181Y121772D01*
X261086Y121751D01*
X261064Y121738D01*
X261039Y121730D01*
X260959Y121675D01*
X260875Y121625D01*
X260858Y121605D01*
X260837Y121590D01*
X260779Y121512D01*
X260715Y121438D01*
X260705Y121414D01*
X260690Y121393D01*
X260660Y121300D01*
X260623Y121210D01*
X260620Y121177D01*
X260614Y121159D01*
X260614Y121126D01*
X260605Y121043D01*
X260605Y113754D01*
X260355Y112175D01*
X259860Y110654D01*
X259134Y109229D01*
X258194Y107935D01*
X257063Y106804D01*
X255769Y105864D01*
X255712Y105834D01*
X255657Y105794D01*
X255597Y105762D01*
X255558Y105722D01*
X255513Y105689D01*
X255474Y105633D01*
X255428Y105584D01*
X255404Y105533D01*
X255372Y105488D01*
X255353Y105423D01*
X255324Y105361D01*
X255318Y105305D01*
X255302Y105252D01*
X255304Y105184D01*
X255297Y105117D01*
X255309Y105062D01*
X255311Y105006D01*
X255335Y104943D01*
X255349Y104876D01*
X255378Y104828D01*
X255398Y104776D01*
X255440Y104723D01*
X255475Y104665D01*
X255518Y104629D01*
X255553Y104585D01*
X255611Y104549D01*
X255662Y104505D01*
X255714Y104484D01*
X255761Y104454D01*
X255827Y104439D01*
X255890Y104413D01*
X255969Y104405D01*
X256001Y104397D01*
X256021Y104399D01*
X256057Y104395D01*
X276713Y104395D01*
X276783Y104406D01*
G37*
G36*
X589224Y104401D02*
X589224Y104401D01*
X589262Y104398D01*
X589345Y104421D01*
X589429Y104434D01*
X589463Y104452D01*
X589500Y104462D01*
X589571Y104510D01*
X589647Y104550D01*
X589673Y104577D01*
X589705Y104598D01*
X589757Y104666D01*
X589816Y104728D01*
X589832Y104762D01*
X589855Y104792D01*
X589884Y104873D01*
X589920Y104951D01*
X589924Y104989D01*
X589937Y105024D01*
X589938Y105110D01*
X589947Y105195D01*
X589939Y105232D01*
X589939Y105270D01*
X589896Y105432D01*
X588942Y107880D01*
X589022Y110708D01*
X589028Y110916D01*
X589031Y111037D01*
X589066Y112279D01*
X589119Y114168D01*
X591811Y120092D01*
X593732Y121869D01*
X593785Y121937D01*
X593845Y122000D01*
X593861Y122034D01*
X593883Y122063D01*
X593912Y122145D01*
X593949Y122223D01*
X593953Y122260D01*
X593965Y122295D01*
X593966Y122382D01*
X593976Y122467D01*
X593968Y122504D01*
X593968Y122541D01*
X593942Y122623D01*
X593923Y122708D01*
X593904Y122740D01*
X593893Y122775D01*
X593841Y122845D01*
X593797Y122919D01*
X593769Y122943D01*
X593747Y122973D01*
X593676Y123023D01*
X593610Y123079D01*
X593576Y123093D01*
X593545Y123114D01*
X593462Y123138D01*
X593382Y123171D01*
X593334Y123176D01*
X593309Y123183D01*
X593279Y123182D01*
X593215Y123189D01*
X581914Y123189D01*
X581894Y123186D01*
X581875Y123188D01*
X581773Y123166D01*
X581671Y123150D01*
X581654Y123140D01*
X581634Y123136D01*
X581545Y123083D01*
X581454Y123034D01*
X581440Y123020D01*
X581423Y123010D01*
X581356Y122931D01*
X581284Y122856D01*
X581276Y122838D01*
X581263Y122823D01*
X581224Y122727D01*
X581181Y122633D01*
X581179Y122613D01*
X581171Y122595D01*
X581153Y122428D01*
X581153Y105156D01*
X581156Y105136D01*
X581154Y105117D01*
X581176Y105015D01*
X581192Y104913D01*
X581202Y104896D01*
X581206Y104876D01*
X581259Y104787D01*
X581308Y104696D01*
X581322Y104682D01*
X581332Y104665D01*
X581411Y104598D01*
X581486Y104526D01*
X581504Y104518D01*
X581519Y104505D01*
X581615Y104466D01*
X581709Y104423D01*
X581729Y104421D01*
X581747Y104413D01*
X581914Y104395D01*
X589187Y104395D01*
X589224Y104401D01*
G37*
G36*
X223630Y299696D02*
X223630Y299696D01*
X223701Y299702D01*
X223749Y299722D01*
X223800Y299733D01*
X223861Y299770D01*
X223927Y299798D01*
X223983Y299843D01*
X224011Y299860D01*
X224026Y299877D01*
X224058Y299903D01*
X229651Y305496D01*
X232265Y306579D01*
X232283Y306579D01*
X232303Y306582D01*
X232322Y306580D01*
X232424Y306602D01*
X232526Y306618D01*
X232543Y306628D01*
X232563Y306632D01*
X232652Y306685D01*
X232743Y306734D01*
X232757Y306748D01*
X232774Y306758D01*
X232841Y306837D01*
X232913Y306912D01*
X232921Y306930D01*
X232934Y306945D01*
X232973Y307041D01*
X233016Y307135D01*
X233018Y307155D01*
X233026Y307173D01*
X233044Y307340D01*
X233044Y316484D01*
X233041Y316504D01*
X233043Y316523D01*
X233021Y316625D01*
X233005Y316727D01*
X232995Y316744D01*
X232991Y316764D01*
X232938Y316853D01*
X232889Y316944D01*
X232875Y316958D01*
X232865Y316975D01*
X232786Y317042D01*
X232711Y317114D01*
X232693Y317122D01*
X232678Y317135D01*
X232582Y317174D01*
X232488Y317217D01*
X232468Y317219D01*
X232450Y317227D01*
X232283Y317245D01*
X223520Y317245D01*
X223500Y317242D01*
X223481Y317244D01*
X223379Y317222D01*
X223277Y317206D01*
X223260Y317196D01*
X223240Y317192D01*
X223151Y317139D01*
X223060Y317090D01*
X223046Y317076D01*
X223029Y317066D01*
X222962Y316987D01*
X222890Y316912D01*
X222882Y316894D01*
X222869Y316879D01*
X222830Y316783D01*
X222787Y316689D01*
X222785Y316669D01*
X222777Y316651D01*
X222759Y316484D01*
X222759Y300441D01*
X222770Y300371D01*
X222772Y300299D01*
X222790Y300250D01*
X222798Y300199D01*
X222832Y300135D01*
X222857Y300068D01*
X222889Y300027D01*
X222914Y299981D01*
X222966Y299932D01*
X223010Y299876D01*
X223054Y299848D01*
X223092Y299812D01*
X223157Y299782D01*
X223217Y299743D01*
X223268Y299730D01*
X223315Y299708D01*
X223386Y299700D01*
X223456Y299683D01*
X223508Y299687D01*
X223559Y299681D01*
X223630Y299696D01*
G37*
G36*
X83697Y311165D02*
X83697Y311165D01*
X83787Y311173D01*
X83817Y311185D01*
X83849Y311190D01*
X83930Y311233D01*
X84014Y311269D01*
X84046Y311295D01*
X84067Y311306D01*
X84089Y311329D01*
X84145Y311374D01*
X87341Y314570D01*
X87353Y314586D01*
X87368Y314599D01*
X87424Y314686D01*
X87485Y314770D01*
X87490Y314789D01*
X87501Y314806D01*
X87527Y314906D01*
X87557Y315005D01*
X87556Y315025D01*
X87561Y315044D01*
X87553Y315147D01*
X87551Y315251D01*
X87544Y315269D01*
X87542Y315289D01*
X87502Y315384D01*
X87466Y315482D01*
X87454Y315497D01*
X87446Y315516D01*
X87341Y315647D01*
X86583Y316404D01*
X86583Y329184D01*
X86580Y329204D01*
X86582Y329223D01*
X86560Y329325D01*
X86544Y329427D01*
X86534Y329444D01*
X86530Y329464D01*
X86477Y329553D01*
X86428Y329644D01*
X86414Y329658D01*
X86404Y329675D01*
X86325Y329742D01*
X86250Y329814D01*
X86232Y329822D01*
X86217Y329835D01*
X86121Y329874D01*
X86027Y329917D01*
X86007Y329919D01*
X85989Y329927D01*
X85822Y329945D01*
X80798Y329945D01*
X80682Y329926D01*
X80563Y329908D01*
X80560Y329906D01*
X80555Y329906D01*
X80451Y329850D01*
X80345Y329795D01*
X80342Y329792D01*
X80338Y329790D01*
X80256Y329704D01*
X80173Y329619D01*
X80172Y329615D01*
X80169Y329612D01*
X80118Y329504D01*
X80067Y329397D01*
X80067Y329393D01*
X80065Y329389D01*
X80052Y329271D01*
X80038Y329153D01*
X80038Y329148D01*
X80038Y329145D01*
X80041Y329131D01*
X80063Y328987D01*
X80185Y328532D01*
X80185Y324221D01*
X73406Y324221D01*
X73386Y324218D01*
X73367Y324220D01*
X73265Y324198D01*
X73163Y324181D01*
X73146Y324172D01*
X73126Y324168D01*
X73037Y324115D01*
X72946Y324066D01*
X72932Y324052D01*
X72915Y324042D01*
X72848Y323963D01*
X72777Y323888D01*
X72768Y323870D01*
X72755Y323855D01*
X72716Y323759D01*
X72673Y323665D01*
X72671Y323645D01*
X72663Y323627D01*
X72645Y323460D01*
X72645Y321936D01*
X72648Y321916D01*
X72646Y321897D01*
X72668Y321795D01*
X72685Y321693D01*
X72694Y321676D01*
X72698Y321656D01*
X72751Y321567D01*
X72800Y321476D01*
X72814Y321462D01*
X72824Y321445D01*
X72903Y321378D01*
X72978Y321307D01*
X72996Y321298D01*
X73011Y321285D01*
X73107Y321246D01*
X73201Y321203D01*
X73221Y321201D01*
X73239Y321193D01*
X73406Y321175D01*
X80185Y321175D01*
X80185Y316864D01*
X80012Y316217D01*
X79704Y315684D01*
X79688Y315643D01*
X79665Y315607D01*
X79645Y315529D01*
X79617Y315454D01*
X79615Y315410D01*
X79605Y315368D01*
X79611Y315289D01*
X79608Y315209D01*
X79620Y315166D01*
X79624Y315123D01*
X79655Y315049D01*
X79678Y314973D01*
X79703Y314937D01*
X79720Y314896D01*
X79811Y314783D01*
X79819Y314771D01*
X79822Y314769D01*
X79825Y314766D01*
X81709Y312882D01*
X81709Y311912D01*
X81712Y311892D01*
X81710Y311873D01*
X81732Y311771D01*
X81748Y311669D01*
X81758Y311652D01*
X81762Y311632D01*
X81815Y311543D01*
X81864Y311452D01*
X81878Y311438D01*
X81888Y311421D01*
X81967Y311354D01*
X82042Y311282D01*
X82060Y311274D01*
X82075Y311261D01*
X82171Y311222D01*
X82265Y311179D01*
X82285Y311177D01*
X82303Y311169D01*
X82470Y311151D01*
X83606Y311151D01*
X83697Y311165D01*
G37*
G36*
X399516Y117351D02*
X399516Y117351D01*
X399531Y117349D01*
X399637Y117371D01*
X399743Y117388D01*
X399757Y117396D01*
X399772Y117399D01*
X399866Y117453D01*
X399961Y117504D01*
X399971Y117515D01*
X399984Y117522D01*
X400056Y117604D01*
X400130Y117682D01*
X400137Y117696D01*
X400147Y117707D01*
X400188Y117807D01*
X400234Y117905D01*
X400236Y117920D01*
X400241Y117934D01*
X400262Y118101D01*
X400302Y121339D01*
X400300Y121352D01*
X400302Y121372D01*
X400260Y122729D01*
X400259Y122732D01*
X400260Y122735D01*
X400236Y122853D01*
X400213Y122970D01*
X400211Y122973D01*
X400211Y122976D01*
X400151Y123078D01*
X400091Y123184D01*
X400089Y123186D01*
X400087Y123188D01*
X399998Y123267D01*
X399907Y123347D01*
X399905Y123349D01*
X399902Y123351D01*
X399793Y123396D01*
X399681Y123444D01*
X399678Y123444D01*
X399675Y123446D01*
X399509Y123466D01*
X381727Y123697D01*
X381723Y123697D01*
X381717Y123697D01*
X381000Y123697D01*
X380974Y123693D01*
X380925Y123694D01*
X380777Y123679D01*
X380749Y123672D01*
X380721Y123671D01*
X380560Y123625D01*
X380285Y123511D01*
X380230Y123476D01*
X380169Y123451D01*
X380104Y123399D01*
X380076Y123381D01*
X380064Y123366D01*
X380038Y123346D01*
X379828Y123136D01*
X379790Y123082D01*
X379744Y123036D01*
X379704Y122963D01*
X379685Y122936D01*
X379679Y122917D01*
X379663Y122889D01*
X379549Y122614D01*
X379543Y122586D01*
X379530Y122561D01*
X379495Y122397D01*
X379480Y122249D01*
X379482Y122222D01*
X379477Y122174D01*
X379477Y118110D01*
X379480Y118090D01*
X379478Y118071D01*
X379500Y117969D01*
X379516Y117867D01*
X379526Y117850D01*
X379530Y117830D01*
X379583Y117741D01*
X379632Y117650D01*
X379646Y117636D01*
X379656Y117619D01*
X379735Y117552D01*
X379810Y117480D01*
X379828Y117472D01*
X379843Y117459D01*
X379939Y117420D01*
X380033Y117377D01*
X380053Y117375D01*
X380071Y117367D01*
X380238Y117349D01*
X399501Y117349D01*
X399516Y117351D01*
G37*
G36*
X152118Y287322D02*
X152118Y287322D01*
X152170Y287323D01*
X152238Y287348D01*
X152308Y287363D01*
X152353Y287390D01*
X152401Y287408D01*
X152457Y287452D01*
X152519Y287489D01*
X152553Y287529D01*
X152593Y287561D01*
X152632Y287622D01*
X152679Y287676D01*
X152698Y287724D01*
X152726Y287768D01*
X152744Y287838D01*
X152771Y287904D01*
X152779Y287975D01*
X152787Y288007D01*
X152785Y288030D01*
X152789Y288071D01*
X152789Y288491D01*
X152775Y288581D01*
X152767Y288672D01*
X152755Y288702D01*
X152750Y288734D01*
X152707Y288814D01*
X152671Y288898D01*
X152645Y288930D01*
X152634Y288951D01*
X152611Y288973D01*
X152566Y289029D01*
X150337Y291258D01*
X150337Y296217D01*
X150326Y296288D01*
X150324Y296360D01*
X150306Y296409D01*
X150298Y296460D01*
X150264Y296523D01*
X150239Y296591D01*
X150207Y296631D01*
X150182Y296677D01*
X150130Y296727D01*
X150086Y296783D01*
X150042Y296811D01*
X150004Y296847D01*
X149939Y296877D01*
X149879Y296916D01*
X149828Y296928D01*
X149781Y296950D01*
X149710Y296958D01*
X149640Y296976D01*
X149588Y296972D01*
X149537Y296977D01*
X149466Y296962D01*
X149395Y296956D01*
X149347Y296936D01*
X149296Y296925D01*
X149246Y296895D01*
X143303Y296895D01*
X143213Y296881D01*
X143122Y296873D01*
X143093Y296861D01*
X143061Y296856D01*
X142980Y296813D01*
X142896Y296777D01*
X142864Y296751D01*
X142843Y296740D01*
X142821Y296717D01*
X142765Y296672D01*
X140663Y294570D01*
X138049Y293487D01*
X128323Y293487D01*
X128233Y293473D01*
X128142Y293465D01*
X128112Y293453D01*
X128080Y293448D01*
X128000Y293405D01*
X127916Y293369D01*
X127883Y293343D01*
X127863Y293332D01*
X127841Y293309D01*
X127785Y293264D01*
X127159Y292638D01*
X127147Y292622D01*
X127131Y292610D01*
X127076Y292523D01*
X127015Y292439D01*
X127009Y292420D01*
X126998Y292403D01*
X126973Y292302D01*
X126943Y292203D01*
X126943Y292184D01*
X126938Y292164D01*
X126946Y292061D01*
X126949Y291958D01*
X126956Y291939D01*
X126958Y291919D01*
X126998Y291824D01*
X127034Y291727D01*
X127046Y291711D01*
X127054Y291693D01*
X127159Y291562D01*
X127785Y290936D01*
X127859Y290883D01*
X127928Y290823D01*
X127958Y290811D01*
X127984Y290792D01*
X128071Y290765D01*
X128156Y290731D01*
X128197Y290727D01*
X128220Y290720D01*
X128252Y290721D01*
X128323Y290713D01*
X140589Y290713D01*
X143203Y289630D01*
X144289Y288544D01*
X144363Y288491D01*
X144433Y288431D01*
X144463Y288419D01*
X144489Y288400D01*
X144576Y288373D01*
X144661Y288339D01*
X144702Y288335D01*
X144724Y288328D01*
X144756Y288329D01*
X144827Y288321D01*
X150702Y288321D01*
X151490Y287533D01*
X151548Y287491D01*
X151600Y287441D01*
X151647Y287419D01*
X151689Y287389D01*
X151758Y287368D01*
X151823Y287338D01*
X151875Y287332D01*
X151925Y287317D01*
X151996Y287319D01*
X152067Y287311D01*
X152118Y287322D01*
G37*
G36*
X620470Y107400D02*
X620470Y107400D01*
X620552Y107407D01*
X620589Y107424D01*
X620630Y107433D01*
X620701Y107474D01*
X620776Y107507D01*
X620807Y107535D01*
X620843Y107556D01*
X620897Y107618D01*
X620957Y107674D01*
X620977Y107710D01*
X621005Y107741D01*
X621036Y107817D01*
X621076Y107889D01*
X621083Y107930D01*
X621099Y107968D01*
X621119Y108125D01*
X621120Y108131D01*
X621120Y108133D01*
X621120Y108135D01*
X621179Y113021D01*
X621175Y113045D01*
X621178Y113069D01*
X621157Y113166D01*
X621142Y113264D01*
X621131Y113286D01*
X621125Y113310D01*
X621075Y113395D01*
X621029Y113483D01*
X621012Y113500D01*
X620999Y113521D01*
X620924Y113585D01*
X620853Y113654D01*
X620831Y113665D01*
X620812Y113681D01*
X620720Y113718D01*
X620631Y113761D01*
X620607Y113764D01*
X620584Y113773D01*
X620417Y113791D01*
X603347Y113791D01*
X603271Y113779D01*
X603195Y113776D01*
X603151Y113759D01*
X603104Y113752D01*
X603037Y113716D01*
X602965Y113689D01*
X602914Y113651D01*
X602887Y113636D01*
X602869Y113618D01*
X602830Y113589D01*
X602059Y112876D01*
X602018Y112823D01*
X601969Y112776D01*
X601928Y112708D01*
X601908Y112682D01*
X601901Y112663D01*
X601883Y112632D01*
X601364Y111491D01*
X601357Y111462D01*
X601342Y111436D01*
X601302Y111273D01*
X601222Y110648D01*
X601223Y110626D01*
X601222Y110607D01*
X601216Y110551D01*
X601219Y110531D01*
X601218Y110496D01*
X601247Y110091D01*
X601254Y110062D01*
X601254Y110031D01*
X601297Y109869D01*
X601591Y109116D01*
X601625Y109057D01*
X601651Y108994D01*
X601699Y108933D01*
X601716Y108904D01*
X601732Y108891D01*
X601754Y108862D01*
X602317Y108282D01*
X602372Y108242D01*
X602421Y108194D01*
X602489Y108156D01*
X602515Y108136D01*
X602535Y108130D01*
X602567Y108112D01*
X603312Y107797D01*
X603341Y107790D01*
X603368Y107776D01*
X603532Y107741D01*
X603936Y107701D01*
X603963Y107702D01*
X604012Y107697D01*
X619449Y107697D01*
X620067Y107440D01*
X620108Y107431D01*
X620145Y107413D01*
X620227Y107403D01*
X620307Y107384D01*
X620348Y107388D01*
X620389Y107383D01*
X620470Y107400D01*
G37*
G36*
X461974Y107400D02*
X461974Y107400D01*
X462056Y107407D01*
X462093Y107424D01*
X462134Y107433D01*
X462205Y107474D01*
X462280Y107507D01*
X462311Y107535D01*
X462347Y107556D01*
X462401Y107618D01*
X462461Y107674D01*
X462481Y107710D01*
X462509Y107741D01*
X462540Y107817D01*
X462580Y107889D01*
X462587Y107930D01*
X462603Y107968D01*
X462623Y108125D01*
X462624Y108131D01*
X462624Y108133D01*
X462624Y108135D01*
X462683Y113021D01*
X462679Y113045D01*
X462682Y113069D01*
X462661Y113166D01*
X462646Y113264D01*
X462635Y113286D01*
X462629Y113310D01*
X462579Y113395D01*
X462533Y113483D01*
X462516Y113500D01*
X462503Y113521D01*
X462428Y113585D01*
X462357Y113654D01*
X462335Y113665D01*
X462316Y113681D01*
X462224Y113718D01*
X462135Y113761D01*
X462111Y113764D01*
X462088Y113773D01*
X461921Y113791D01*
X444851Y113791D01*
X444775Y113779D01*
X444699Y113776D01*
X444655Y113759D01*
X444608Y113752D01*
X444541Y113716D01*
X444469Y113689D01*
X444418Y113651D01*
X444391Y113636D01*
X444373Y113618D01*
X444334Y113589D01*
X443563Y112876D01*
X443522Y112823D01*
X443473Y112776D01*
X443432Y112708D01*
X443412Y112682D01*
X443405Y112663D01*
X443387Y112632D01*
X442868Y111491D01*
X442861Y111462D01*
X442846Y111436D01*
X442806Y111273D01*
X442726Y110648D01*
X442727Y110626D01*
X442726Y110607D01*
X442720Y110551D01*
X442723Y110531D01*
X442722Y110496D01*
X442751Y110091D01*
X442758Y110062D01*
X442758Y110031D01*
X442801Y109869D01*
X443095Y109116D01*
X443129Y109057D01*
X443155Y108994D01*
X443203Y108933D01*
X443220Y108904D01*
X443236Y108891D01*
X443258Y108862D01*
X443821Y108282D01*
X443876Y108242D01*
X443925Y108194D01*
X443993Y108156D01*
X444019Y108136D01*
X444039Y108130D01*
X444071Y108112D01*
X444816Y107797D01*
X444845Y107790D01*
X444872Y107776D01*
X445036Y107741D01*
X445440Y107701D01*
X445467Y107702D01*
X445516Y107697D01*
X460953Y107697D01*
X461571Y107440D01*
X461612Y107431D01*
X461649Y107413D01*
X461731Y107403D01*
X461811Y107384D01*
X461852Y107388D01*
X461893Y107383D01*
X461974Y107400D01*
G37*
G36*
X366542Y104398D02*
X366542Y104398D01*
X366561Y104396D01*
X366663Y104418D01*
X366765Y104434D01*
X366782Y104444D01*
X366802Y104448D01*
X366891Y104501D01*
X366982Y104550D01*
X366996Y104564D01*
X367013Y104574D01*
X367080Y104653D01*
X367152Y104728D01*
X367160Y104746D01*
X367173Y104761D01*
X367212Y104857D01*
X367255Y104951D01*
X367257Y104971D01*
X367265Y104989D01*
X367283Y105156D01*
X367283Y117963D01*
X367272Y118033D01*
X367270Y118105D01*
X367252Y118154D01*
X367244Y118205D01*
X367210Y118269D01*
X367185Y118336D01*
X367153Y118377D01*
X367128Y118423D01*
X367077Y118472D01*
X367032Y118528D01*
X366988Y118556D01*
X366950Y118592D01*
X366885Y118622D01*
X366825Y118661D01*
X366774Y118674D01*
X366727Y118696D01*
X366656Y118704D01*
X366586Y118721D01*
X366534Y118717D01*
X366483Y118723D01*
X366412Y118708D01*
X366341Y118702D01*
X366293Y118682D01*
X366242Y118671D01*
X366181Y118634D01*
X366115Y118606D01*
X366059Y118561D01*
X366031Y118544D01*
X366016Y118527D01*
X365984Y118501D01*
X353177Y105694D01*
X353135Y105636D01*
X353086Y105584D01*
X353064Y105537D01*
X353034Y105495D01*
X353013Y105426D01*
X352982Y105361D01*
X352977Y105309D01*
X352961Y105259D01*
X352963Y105188D01*
X352955Y105117D01*
X352966Y105066D01*
X352968Y105014D01*
X352992Y104946D01*
X353007Y104876D01*
X353034Y104832D01*
X353052Y104783D01*
X353097Y104727D01*
X353134Y104665D01*
X353173Y104631D01*
X353206Y104591D01*
X353266Y104552D01*
X353321Y104505D01*
X353369Y104486D01*
X353413Y104458D01*
X353482Y104440D01*
X353549Y104413D01*
X353620Y104405D01*
X353651Y104397D01*
X353675Y104399D01*
X353715Y104395D01*
X366522Y104395D01*
X366542Y104398D01*
G37*
G36*
X272955Y193784D02*
X272955Y193784D01*
X273027Y193786D01*
X273076Y193804D01*
X273127Y193812D01*
X273191Y193846D01*
X273258Y193871D01*
X273299Y193903D01*
X273345Y193928D01*
X273394Y193980D01*
X273450Y194024D01*
X273478Y194068D01*
X273514Y194106D01*
X273544Y194171D01*
X273583Y194231D01*
X273596Y194282D01*
X273618Y194329D01*
X273626Y194400D01*
X273643Y194470D01*
X273639Y194522D01*
X273645Y194573D01*
X273630Y194644D01*
X273624Y194715D01*
X273604Y194763D01*
X273593Y194814D01*
X273556Y194875D01*
X273528Y194941D01*
X273483Y194997D01*
X273466Y195025D01*
X273449Y195040D01*
X273423Y195072D01*
X272129Y196366D01*
X266766Y201729D01*
X266307Y202837D01*
X266256Y202920D01*
X266210Y203006D01*
X266191Y203024D01*
X266178Y203046D01*
X266103Y203108D01*
X266032Y203175D01*
X266008Y203186D01*
X265988Y203203D01*
X265897Y203238D01*
X265809Y203279D01*
X265783Y203281D01*
X265759Y203291D01*
X265661Y203295D01*
X265565Y203306D01*
X265539Y203300D01*
X265513Y203301D01*
X265419Y203274D01*
X265324Y203253D01*
X265302Y203240D01*
X265277Y203233D01*
X265197Y203177D01*
X265113Y203127D01*
X265096Y203107D01*
X265075Y203092D01*
X265016Y203014D01*
X264953Y202940D01*
X264943Y202916D01*
X264928Y202895D01*
X264898Y202803D01*
X264861Y202712D01*
X264858Y202680D01*
X264852Y202661D01*
X264852Y202628D01*
X264846Y202573D01*
X258064Y202573D01*
X258044Y202570D01*
X258025Y202572D01*
X257923Y202550D01*
X257821Y202533D01*
X257804Y202524D01*
X257784Y202520D01*
X257695Y202467D01*
X257604Y202418D01*
X257590Y202404D01*
X257573Y202394D01*
X257506Y202315D01*
X257435Y202240D01*
X257426Y202222D01*
X257413Y202207D01*
X257374Y202111D01*
X257331Y202017D01*
X257329Y201997D01*
X257321Y201979D01*
X257303Y201812D01*
X257303Y200288D01*
X257304Y200278D01*
X257304Y200273D01*
X257306Y200265D01*
X257304Y200249D01*
X257326Y200147D01*
X257343Y200045D01*
X257352Y200028D01*
X257356Y200008D01*
X257409Y199919D01*
X257458Y199828D01*
X257472Y199814D01*
X257482Y199797D01*
X257561Y199730D01*
X257636Y199659D01*
X257654Y199650D01*
X257669Y199637D01*
X257765Y199598D01*
X257859Y199555D01*
X257879Y199553D01*
X257897Y199545D01*
X258064Y199527D01*
X264843Y199527D01*
X264843Y195216D01*
X264713Y194731D01*
X264701Y194612D01*
X264688Y194495D01*
X264689Y194490D01*
X264688Y194486D01*
X264715Y194371D01*
X264740Y194254D01*
X264742Y194251D01*
X264743Y194247D01*
X264805Y194145D01*
X264866Y194043D01*
X264870Y194040D01*
X264872Y194037D01*
X264962Y193961D01*
X265053Y193883D01*
X265057Y193882D01*
X265060Y193879D01*
X265170Y193836D01*
X265281Y193791D01*
X265286Y193791D01*
X265290Y193789D01*
X265303Y193789D01*
X265448Y193773D01*
X272885Y193773D01*
X272955Y193784D01*
G37*
G36*
X84318Y256290D02*
X84318Y256290D01*
X84337Y256288D01*
X84439Y256310D01*
X84541Y256326D01*
X84558Y256336D01*
X84578Y256340D01*
X84667Y256393D01*
X84758Y256442D01*
X84772Y256456D01*
X84789Y256466D01*
X84856Y256545D01*
X84928Y256620D01*
X84936Y256638D01*
X84949Y256653D01*
X84988Y256749D01*
X85031Y256843D01*
X85033Y256863D01*
X85041Y256881D01*
X85059Y257048D01*
X85059Y270082D01*
X85309Y270331D01*
X85321Y270348D01*
X85336Y270360D01*
X85392Y270447D01*
X85453Y270531D01*
X85458Y270550D01*
X85469Y270567D01*
X85495Y270667D01*
X85525Y270766D01*
X85524Y270786D01*
X85529Y270806D01*
X85521Y270909D01*
X85519Y271012D01*
X85512Y271031D01*
X85510Y271051D01*
X85470Y271146D01*
X85434Y271243D01*
X85422Y271259D01*
X85414Y271277D01*
X85309Y271408D01*
X83773Y272944D01*
X83699Y272997D01*
X83629Y273057D01*
X83599Y273069D01*
X83573Y273088D01*
X83486Y273115D01*
X83401Y273149D01*
X83360Y273153D01*
X83338Y273160D01*
X83306Y273159D01*
X83234Y273167D01*
X82095Y273167D01*
X82005Y273153D01*
X81914Y273145D01*
X81884Y273133D01*
X81852Y273128D01*
X81772Y273085D01*
X81688Y273049D01*
X81656Y273023D01*
X81635Y273012D01*
X81613Y272989D01*
X81557Y272944D01*
X80931Y272318D01*
X80919Y272302D01*
X80903Y272290D01*
X80847Y272202D01*
X80787Y272119D01*
X80781Y272100D01*
X80770Y272083D01*
X80745Y271982D01*
X80715Y271883D01*
X80715Y271864D01*
X80710Y271844D01*
X80718Y271741D01*
X80721Y271638D01*
X80728Y271619D01*
X80730Y271599D01*
X80770Y271504D01*
X80806Y271407D01*
X80818Y271391D01*
X80826Y271373D01*
X80931Y271242D01*
X81709Y270464D01*
X81709Y257048D01*
X81712Y257028D01*
X81710Y257009D01*
X81732Y256907D01*
X81748Y256805D01*
X81758Y256788D01*
X81762Y256768D01*
X81815Y256679D01*
X81864Y256588D01*
X81878Y256574D01*
X81888Y256557D01*
X81967Y256490D01*
X82042Y256418D01*
X82060Y256410D01*
X82075Y256397D01*
X82171Y256358D01*
X82265Y256315D01*
X82285Y256313D01*
X82303Y256305D01*
X82470Y256287D01*
X84298Y256287D01*
X84318Y256290D01*
G37*
G36*
X109048Y284056D02*
X109048Y284056D01*
X109119Y284062D01*
X109167Y284082D01*
X109218Y284093D01*
X109279Y284130D01*
X109345Y284158D01*
X109394Y284197D01*
X109408Y284205D01*
X109413Y284210D01*
X109429Y284220D01*
X109444Y284237D01*
X109476Y284263D01*
X109584Y284371D01*
X109637Y284445D01*
X109697Y284515D01*
X109709Y284545D01*
X109728Y284571D01*
X109755Y284658D01*
X109789Y284743D01*
X109793Y284784D01*
X109800Y284806D01*
X109799Y284838D01*
X109807Y284909D01*
X109807Y290784D01*
X110585Y291562D01*
X110597Y291578D01*
X110613Y291590D01*
X110669Y291678D01*
X110729Y291761D01*
X110735Y291780D01*
X110746Y291797D01*
X110771Y291898D01*
X110801Y291997D01*
X110801Y292016D01*
X110806Y292036D01*
X110798Y292139D01*
X110795Y292242D01*
X110788Y292261D01*
X110786Y292281D01*
X110746Y292376D01*
X110710Y292473D01*
X110698Y292489D01*
X110690Y292507D01*
X110585Y292638D01*
X109807Y293416D01*
X109807Y299291D01*
X109805Y299304D01*
X109806Y299314D01*
X109795Y299367D01*
X109793Y299381D01*
X109785Y299472D01*
X109773Y299501D01*
X109768Y299533D01*
X109725Y299614D01*
X109689Y299698D01*
X109663Y299730D01*
X109652Y299751D01*
X109629Y299773D01*
X109584Y299829D01*
X109476Y299937D01*
X109418Y299979D01*
X109366Y300028D01*
X109319Y300050D01*
X109277Y300080D01*
X109208Y300101D01*
X109143Y300132D01*
X109091Y300137D01*
X109041Y300153D01*
X108970Y300151D01*
X108899Y300159D01*
X108848Y300148D01*
X108796Y300146D01*
X108728Y300122D01*
X108658Y300107D01*
X108614Y300080D01*
X108565Y300062D01*
X108509Y300017D01*
X108447Y299980D01*
X108413Y299941D01*
X108373Y299908D01*
X108334Y299848D01*
X108287Y299793D01*
X108268Y299745D01*
X108240Y299701D01*
X108222Y299632D01*
X108195Y299565D01*
X108187Y299494D01*
X108179Y299463D01*
X108181Y299440D01*
X106982Y296545D01*
X104775Y294338D01*
X102910Y293565D01*
X102849Y293527D01*
X102783Y293498D01*
X102745Y293463D01*
X102701Y293436D01*
X102655Y293380D01*
X102602Y293332D01*
X102577Y293286D01*
X102544Y293246D01*
X102518Y293179D01*
X102484Y293116D01*
X102474Y293065D01*
X102456Y293017D01*
X102453Y292945D01*
X102440Y292874D01*
X102447Y292823D01*
X102445Y292771D01*
X102465Y292702D01*
X102476Y292631D01*
X102499Y292585D01*
X102514Y292535D01*
X102555Y292476D01*
X102587Y292412D01*
X102624Y292375D01*
X102654Y292333D01*
X102712Y292290D01*
X102763Y292240D01*
X102826Y292205D01*
X102851Y292186D01*
X102874Y292179D01*
X102910Y292159D01*
X104775Y291386D01*
X106982Y289179D01*
X108177Y286295D01*
X108177Y284801D01*
X108179Y284786D01*
X108178Y284772D01*
X108189Y284722D01*
X108190Y284659D01*
X108208Y284610D01*
X108216Y284559D01*
X108229Y284535D01*
X108230Y284531D01*
X108239Y284516D01*
X108250Y284495D01*
X108275Y284428D01*
X108307Y284387D01*
X108332Y284341D01*
X108383Y284292D01*
X108428Y284236D01*
X108472Y284208D01*
X108510Y284172D01*
X108575Y284142D01*
X108635Y284103D01*
X108686Y284090D01*
X108733Y284068D01*
X108804Y284060D01*
X108874Y284043D01*
X108926Y284047D01*
X108977Y284041D01*
X109048Y284056D01*
G37*
G36*
X303670Y133866D02*
X303670Y133866D01*
X303718Y133865D01*
X303790Y133886D01*
X303865Y133898D01*
X303907Y133921D01*
X303953Y133935D01*
X304016Y133978D01*
X304082Y134014D01*
X304115Y134048D01*
X304155Y134076D01*
X304200Y134137D01*
X304252Y134192D01*
X304272Y134235D01*
X304300Y134274D01*
X304323Y134346D01*
X304355Y134415D01*
X304361Y134463D01*
X304375Y134508D01*
X304374Y134584D01*
X304383Y134659D01*
X304372Y134706D01*
X304372Y134754D01*
X304346Y134826D01*
X304330Y134900D01*
X304306Y134941D01*
X304290Y134986D01*
X304243Y135046D01*
X304204Y135111D01*
X304168Y135142D01*
X304138Y135180D01*
X304034Y135256D01*
X304017Y135271D01*
X304011Y135273D01*
X304003Y135279D01*
X299983Y137600D01*
X294826Y142757D01*
X294791Y142817D01*
X294761Y142855D01*
X294738Y142897D01*
X294684Y142949D01*
X294636Y143008D01*
X294595Y143033D01*
X294560Y143066D01*
X294491Y143098D01*
X294427Y143139D01*
X294381Y143150D01*
X294337Y143170D01*
X294262Y143178D01*
X294188Y143196D01*
X294140Y143192D01*
X294093Y143197D01*
X294019Y143181D01*
X293943Y143174D01*
X293899Y143155D01*
X293852Y143145D01*
X293787Y143106D01*
X293718Y143076D01*
X293682Y143043D01*
X293641Y143019D01*
X293592Y142961D01*
X293536Y142910D01*
X293512Y142868D01*
X293481Y142832D01*
X293453Y142761D01*
X293416Y142695D01*
X293407Y142648D01*
X293389Y142604D01*
X293375Y142476D01*
X293371Y142454D01*
X293372Y142447D01*
X293371Y142437D01*
X293371Y137307D01*
X293385Y137217D01*
X293393Y137126D01*
X293405Y137097D01*
X293410Y137065D01*
X293453Y136984D01*
X293489Y136900D01*
X293515Y136868D01*
X293526Y136847D01*
X293549Y136825D01*
X293594Y136769D01*
X296281Y134082D01*
X296355Y134029D01*
X296425Y133969D01*
X296455Y133957D01*
X296481Y133938D01*
X296568Y133911D01*
X296653Y133877D01*
X296694Y133873D01*
X296716Y133866D01*
X296748Y133867D01*
X296820Y133859D01*
X303622Y133859D01*
X303670Y133866D01*
G37*
%LPC*%
G36*
X249681Y275589D02*
X249681Y275589D01*
X249681Y279655D01*
X259541Y279655D01*
X260188Y279482D01*
X260767Y279147D01*
X261240Y278674D01*
X261575Y278095D01*
X261748Y277448D01*
X261748Y275589D01*
X249681Y275589D01*
G37*
%LPD*%
%LPC*%
G36*
X249681Y268477D02*
X249681Y268477D01*
X249681Y272543D01*
X261748Y272543D01*
X261748Y270683D01*
X261575Y270037D01*
X261240Y269458D01*
X260767Y268985D01*
X260188Y268650D01*
X259541Y268477D01*
X249681Y268477D01*
G37*
%LPD*%
%LPC*%
G36*
X249761Y252847D02*
X249761Y252847D01*
X249761Y257158D01*
X249934Y257805D01*
X250269Y258384D01*
X250742Y258857D01*
X251321Y259192D01*
X251968Y259365D01*
X255779Y259365D01*
X255779Y252847D01*
X249761Y252847D01*
G37*
%LPD*%
G36*
X63537Y270661D02*
X63537Y270661D01*
X63628Y270669D01*
X63658Y270681D01*
X63690Y270686D01*
X63770Y270729D01*
X63854Y270765D01*
X63887Y270791D01*
X63907Y270802D01*
X63929Y270825D01*
X63985Y270870D01*
X64357Y271242D01*
X64369Y271258D01*
X64385Y271270D01*
X64441Y271358D01*
X64501Y271441D01*
X64507Y271460D01*
X64518Y271477D01*
X64543Y271578D01*
X64573Y271676D01*
X64573Y271696D01*
X64578Y271716D01*
X64570Y271819D01*
X64567Y271922D01*
X64560Y271941D01*
X64558Y271961D01*
X64518Y272056D01*
X64482Y272153D01*
X64470Y272169D01*
X64462Y272187D01*
X64357Y272318D01*
X63731Y272944D01*
X63657Y272997D01*
X63588Y273057D01*
X63558Y273069D01*
X63532Y273088D01*
X63445Y273115D01*
X63360Y273149D01*
X63319Y273153D01*
X63296Y273160D01*
X63264Y273159D01*
X63193Y273167D01*
X51869Y273167D01*
X51779Y273153D01*
X51688Y273145D01*
X51658Y273133D01*
X51626Y273128D01*
X51546Y273085D01*
X51462Y273049D01*
X51429Y273023D01*
X51409Y273012D01*
X51387Y272989D01*
X51331Y272944D01*
X50959Y272572D01*
X50947Y272556D01*
X50931Y272544D01*
X50875Y272456D01*
X50815Y272373D01*
X50809Y272354D01*
X50798Y272337D01*
X50773Y272236D01*
X50743Y272138D01*
X50743Y272118D01*
X50738Y272098D01*
X50746Y271995D01*
X50749Y271892D01*
X50756Y271873D01*
X50758Y271853D01*
X50798Y271758D01*
X50834Y271661D01*
X50846Y271645D01*
X50854Y271627D01*
X50959Y271496D01*
X51585Y270870D01*
X51659Y270817D01*
X51728Y270757D01*
X51758Y270745D01*
X51784Y270726D01*
X51871Y270699D01*
X51956Y270665D01*
X51997Y270661D01*
X52020Y270654D01*
X52052Y270655D01*
X52123Y270647D01*
X63447Y270647D01*
X63537Y270661D01*
G37*
G36*
X333699Y133873D02*
X333699Y133873D01*
X333789Y133881D01*
X333819Y133893D01*
X333851Y133898D01*
X333932Y133941D01*
X334016Y133977D01*
X334048Y134003D01*
X334069Y134014D01*
X334091Y134037D01*
X334147Y134082D01*
X339628Y139563D01*
X339681Y139637D01*
X339741Y139707D01*
X339753Y139737D01*
X339772Y139763D01*
X339799Y139850D01*
X339833Y139935D01*
X339837Y139976D01*
X339844Y139998D01*
X339843Y140030D01*
X339851Y140102D01*
X339851Y141263D01*
X339934Y141462D01*
X339956Y141556D01*
X339985Y141650D01*
X339984Y141676D01*
X339990Y141701D01*
X339981Y141798D01*
X339978Y141896D01*
X339969Y141920D01*
X339967Y141946D01*
X339927Y142035D01*
X339894Y142127D01*
X339877Y142147D01*
X339867Y142171D01*
X339801Y142243D01*
X339740Y142319D01*
X339718Y142333D01*
X339700Y142352D01*
X339615Y142399D01*
X339533Y142452D01*
X339508Y142458D01*
X339485Y142471D01*
X339389Y142488D01*
X339295Y142512D01*
X339269Y142510D01*
X339243Y142514D01*
X339146Y142500D01*
X339049Y142493D01*
X339025Y142482D01*
X338999Y142478D01*
X338913Y142434D01*
X338823Y142396D01*
X338798Y142376D01*
X338780Y142367D01*
X338757Y142343D01*
X338692Y142291D01*
X334001Y137600D01*
X329981Y135279D01*
X329944Y135249D01*
X329902Y135226D01*
X329849Y135171D01*
X329791Y135123D01*
X329765Y135083D01*
X329732Y135048D01*
X329700Y134979D01*
X329660Y134915D01*
X329649Y134868D01*
X329629Y134825D01*
X329620Y134750D01*
X329603Y134676D01*
X329607Y134628D01*
X329601Y134581D01*
X329618Y134506D01*
X329624Y134431D01*
X329644Y134387D01*
X329654Y134340D01*
X329693Y134275D01*
X329723Y134206D01*
X329755Y134170D01*
X329780Y134129D01*
X329837Y134080D01*
X329888Y134024D01*
X329930Y134000D01*
X329967Y133969D01*
X330037Y133941D01*
X330103Y133904D01*
X330150Y133895D01*
X330195Y133877D01*
X330323Y133863D01*
X330345Y133859D01*
X330352Y133860D01*
X330362Y133859D01*
X333608Y133859D01*
X333699Y133873D01*
G37*
G36*
X276970Y224258D02*
X276970Y224258D01*
X277087Y224267D01*
X277092Y224270D01*
X277099Y224270D01*
X277206Y224318D01*
X277313Y224363D01*
X277319Y224368D01*
X277323Y224370D01*
X277337Y224383D01*
X277444Y224468D01*
X278370Y225395D01*
X278382Y225411D01*
X278398Y225423D01*
X278454Y225511D01*
X278514Y225594D01*
X278520Y225613D01*
X278531Y225630D01*
X278556Y225731D01*
X278586Y225830D01*
X278586Y225849D01*
X278591Y225869D01*
X278583Y225972D01*
X278580Y226075D01*
X278573Y226094D01*
X278571Y226114D01*
X278531Y226209D01*
X278495Y226306D01*
X278483Y226322D01*
X278475Y226340D01*
X278370Y226471D01*
X277989Y226852D01*
X277915Y226905D01*
X277846Y226965D01*
X277816Y226977D01*
X277790Y226996D01*
X277703Y227023D01*
X277618Y227057D01*
X277577Y227061D01*
X277554Y227068D01*
X277522Y227067D01*
X277451Y227075D01*
X271381Y227075D01*
X268767Y228158D01*
X267666Y229259D01*
X267608Y229301D01*
X267556Y229350D01*
X267509Y229372D01*
X267467Y229402D01*
X267398Y229423D01*
X267333Y229454D01*
X267281Y229459D01*
X267231Y229475D01*
X267160Y229473D01*
X267089Y229481D01*
X267038Y229470D01*
X266986Y229468D01*
X266918Y229444D01*
X266848Y229429D01*
X266803Y229402D01*
X266755Y229384D01*
X266699Y229339D01*
X266637Y229302D01*
X266603Y229263D01*
X266563Y229230D01*
X266524Y229170D01*
X266477Y229115D01*
X266458Y229067D01*
X266430Y229023D01*
X266412Y228954D01*
X266385Y228887D01*
X266377Y228816D01*
X266369Y228785D01*
X266371Y228761D01*
X266367Y228721D01*
X266367Y227140D01*
X265952Y226725D01*
X265940Y226709D01*
X265924Y226697D01*
X265895Y226652D01*
X265868Y226623D01*
X265850Y226584D01*
X265808Y226526D01*
X265802Y226507D01*
X265791Y226490D01*
X265774Y226420D01*
X265765Y226400D01*
X265762Y226375D01*
X265736Y226290D01*
X265736Y226271D01*
X265731Y226251D01*
X265738Y226163D01*
X265737Y226155D01*
X265740Y226146D01*
X265742Y226045D01*
X265749Y226026D01*
X265751Y226006D01*
X265791Y225911D01*
X265827Y225814D01*
X265839Y225798D01*
X265847Y225780D01*
X265952Y225649D01*
X266079Y225522D01*
X266153Y225469D01*
X266222Y225409D01*
X266252Y225397D01*
X266278Y225378D01*
X266365Y225351D01*
X266450Y225317D01*
X266491Y225313D01*
X266514Y225306D01*
X266546Y225307D01*
X266617Y225299D01*
X274211Y225299D01*
X276614Y224303D01*
X276728Y224277D01*
X276841Y224248D01*
X276848Y224248D01*
X276854Y224247D01*
X276970Y224258D01*
G37*
G36*
X105364Y307470D02*
X105364Y307470D01*
X105416Y307472D01*
X105484Y307496D01*
X105554Y307512D01*
X105599Y307538D01*
X105647Y307556D01*
X105703Y307601D01*
X105765Y307638D01*
X105799Y307677D01*
X105839Y307710D01*
X105878Y307770D01*
X105925Y307825D01*
X105944Y307873D01*
X105972Y307917D01*
X105990Y307986D01*
X106017Y308053D01*
X106025Y308124D01*
X106033Y308155D01*
X106031Y308179D01*
X106035Y308219D01*
X106035Y313637D01*
X106021Y313727D01*
X106013Y313818D01*
X106001Y313848D01*
X105996Y313880D01*
X105953Y313960D01*
X105917Y314044D01*
X105891Y314077D01*
X105880Y314097D01*
X105857Y314119D01*
X105812Y314175D01*
X105186Y314801D01*
X105170Y314813D01*
X105158Y314829D01*
X105071Y314884D01*
X104987Y314945D01*
X104968Y314951D01*
X104951Y314962D01*
X104850Y314987D01*
X104751Y315017D01*
X104732Y315017D01*
X104712Y315022D01*
X104609Y315014D01*
X104506Y315011D01*
X104487Y315004D01*
X104467Y315002D01*
X104372Y314962D01*
X104275Y314926D01*
X104259Y314914D01*
X104241Y314906D01*
X104110Y314801D01*
X103484Y314175D01*
X103430Y314101D01*
X103371Y314032D01*
X103359Y314002D01*
X103340Y313976D01*
X103313Y313889D01*
X103279Y313804D01*
X103275Y313763D01*
X103268Y313741D01*
X103269Y313708D01*
X103261Y313637D01*
X103261Y311903D01*
X102347Y309697D01*
X102320Y309583D01*
X102292Y309470D01*
X102292Y309463D01*
X102291Y309457D01*
X102302Y309341D01*
X102311Y309224D01*
X102313Y309219D01*
X102314Y309212D01*
X102362Y309105D01*
X102407Y308998D01*
X102412Y308992D01*
X102414Y308988D01*
X102426Y308974D01*
X102512Y308867D01*
X102896Y308483D01*
X102949Y308445D01*
X102996Y308399D01*
X103069Y308359D01*
X103095Y308340D01*
X103114Y308334D01*
X103143Y308318D01*
X104804Y307630D01*
X104846Y307590D01*
X104893Y307568D01*
X104935Y307538D01*
X105004Y307517D01*
X105069Y307486D01*
X105121Y307481D01*
X105170Y307465D01*
X105242Y307467D01*
X105313Y307459D01*
X105364Y307470D01*
G37*
G36*
X103163Y271472D02*
X103163Y271472D01*
X103266Y271475D01*
X103285Y271482D01*
X103305Y271484D01*
X103400Y271524D01*
X103497Y271560D01*
X103513Y271572D01*
X103531Y271580D01*
X103662Y271685D01*
X104288Y272311D01*
X104342Y272385D01*
X104401Y272454D01*
X104413Y272484D01*
X104432Y272510D01*
X104459Y272598D01*
X104493Y272682D01*
X104497Y272723D01*
X104504Y272746D01*
X104503Y272778D01*
X104511Y272849D01*
X104511Y276833D01*
X104504Y276879D01*
X104506Y276925D01*
X104484Y276999D01*
X104472Y277076D01*
X104450Y277117D01*
X104437Y277161D01*
X104393Y277225D01*
X104356Y277294D01*
X104323Y277325D01*
X104297Y277363D01*
X104234Y277409D01*
X104178Y277463D01*
X104136Y277482D01*
X104100Y277510D01*
X104026Y277534D01*
X103955Y277567D01*
X103909Y277572D01*
X103866Y277586D01*
X103788Y277585D01*
X103711Y277594D01*
X103666Y277584D01*
X103620Y277583D01*
X103488Y277545D01*
X103470Y277541D01*
X103466Y277539D01*
X103459Y277537D01*
X103143Y277406D01*
X103087Y277371D01*
X103027Y277346D01*
X102962Y277294D01*
X102934Y277276D01*
X102921Y277261D01*
X102896Y277241D01*
X102013Y276358D01*
X101360Y275705D01*
X101291Y275610D01*
X101222Y275516D01*
X101220Y275510D01*
X101216Y275505D01*
X101182Y275394D01*
X101146Y275282D01*
X101146Y275276D01*
X101144Y275270D01*
X101147Y275153D01*
X101148Y275036D01*
X101150Y275029D01*
X101150Y275024D01*
X101157Y275007D01*
X101195Y274875D01*
X101737Y273567D01*
X101737Y272849D01*
X101751Y272759D01*
X101759Y272668D01*
X101771Y272638D01*
X101776Y272606D01*
X101819Y272526D01*
X101855Y272442D01*
X101881Y272410D01*
X101892Y272389D01*
X101915Y272367D01*
X101960Y272311D01*
X102586Y271685D01*
X102602Y271673D01*
X102614Y271657D01*
X102702Y271601D01*
X102785Y271541D01*
X102804Y271535D01*
X102821Y271524D01*
X102922Y271499D01*
X103021Y271469D01*
X103040Y271469D01*
X103060Y271464D01*
X103163Y271472D01*
G37*
G36*
X632026Y128999D02*
X632026Y128999D01*
X632061Y128999D01*
X632145Y129025D01*
X632232Y129044D01*
X632262Y129062D01*
X632296Y129073D01*
X632367Y129125D01*
X632443Y129170D01*
X632466Y129197D01*
X632494Y129218D01*
X632545Y129290D01*
X632603Y129357D01*
X632616Y129390D01*
X632636Y129419D01*
X632662Y129503D01*
X632695Y129585D01*
X632700Y129630D01*
X632707Y129654D01*
X632706Y129686D01*
X632713Y129752D01*
X632713Y131593D01*
X632694Y131710D01*
X632676Y131828D01*
X632674Y131832D01*
X632674Y131836D01*
X632618Y131940D01*
X632563Y132047D01*
X632560Y132050D01*
X632558Y132053D01*
X632473Y132135D01*
X632387Y132218D01*
X632383Y132220D01*
X632380Y132223D01*
X632273Y132273D01*
X632165Y132324D01*
X632161Y132325D01*
X632157Y132326D01*
X632041Y132339D01*
X631921Y132354D01*
X631916Y132353D01*
X631913Y132353D01*
X631899Y132351D01*
X631755Y132328D01*
X630773Y132065D01*
X630580Y132065D01*
X630504Y132053D01*
X630426Y132049D01*
X630383Y132033D01*
X630338Y132026D01*
X630269Y131989D01*
X630196Y131961D01*
X630161Y131932D01*
X630120Y131910D01*
X630067Y131854D01*
X630007Y131805D01*
X629983Y131766D01*
X629951Y131732D01*
X629918Y131662D01*
X629877Y131596D01*
X629867Y131551D01*
X629847Y131509D01*
X629839Y131432D01*
X629821Y131356D01*
X629825Y131310D01*
X629820Y131265D01*
X629837Y131189D01*
X629844Y131111D01*
X629863Y131069D01*
X629872Y131024D01*
X629912Y130958D01*
X629944Y130887D01*
X629983Y130839D01*
X629999Y130813D01*
X630019Y130796D01*
X630051Y130757D01*
X631143Y129699D01*
X631256Y129444D01*
X631304Y129370D01*
X631346Y129292D01*
X631371Y129268D01*
X631390Y129238D01*
X631460Y129183D01*
X631524Y129123D01*
X631556Y129108D01*
X631584Y129086D01*
X631667Y129056D01*
X631747Y129019D01*
X631782Y129015D01*
X631815Y129003D01*
X631904Y129002D01*
X631991Y128992D01*
X632026Y128999D01*
G37*
G36*
X525831Y104406D02*
X525831Y104406D01*
X525903Y104408D01*
X525952Y104426D01*
X526003Y104434D01*
X526066Y104468D01*
X526134Y104493D01*
X526174Y104525D01*
X526220Y104550D01*
X526270Y104602D01*
X526326Y104647D01*
X526354Y104690D01*
X526390Y104728D01*
X526420Y104793D01*
X526459Y104854D01*
X526471Y104904D01*
X526493Y104951D01*
X526501Y105022D01*
X526519Y105092D01*
X526515Y105144D01*
X526520Y105195D01*
X526505Y105266D01*
X526499Y105337D01*
X526479Y105385D01*
X526468Y105436D01*
X526431Y105498D01*
X526403Y105564D01*
X526368Y105602D01*
X526342Y105647D01*
X526287Y105694D01*
X526239Y105747D01*
X526179Y105786D01*
X526155Y105807D01*
X526133Y105816D01*
X526098Y105838D01*
X524594Y106584D01*
X524526Y106605D01*
X524461Y106635D01*
X524409Y106640D01*
X524359Y106656D01*
X524287Y106654D01*
X524217Y106662D01*
X524165Y106651D01*
X524113Y106649D01*
X524046Y106625D01*
X523976Y106609D01*
X523931Y106583D01*
X523882Y106565D01*
X523826Y106520D01*
X523765Y106483D01*
X523731Y106443D01*
X523690Y106411D01*
X523652Y106351D01*
X523605Y106296D01*
X523586Y106248D01*
X523557Y106204D01*
X523540Y106134D01*
X523513Y106068D01*
X523505Y105997D01*
X523497Y105965D01*
X523499Y105942D01*
X523495Y105902D01*
X523495Y105156D01*
X523498Y105136D01*
X523496Y105117D01*
X523518Y105015D01*
X523534Y104913D01*
X523544Y104896D01*
X523548Y104876D01*
X523601Y104787D01*
X523650Y104696D01*
X523664Y104682D01*
X523674Y104665D01*
X523753Y104598D01*
X523828Y104526D01*
X523846Y104518D01*
X523861Y104505D01*
X523957Y104466D01*
X524051Y104423D01*
X524071Y104421D01*
X524089Y104413D01*
X524256Y104395D01*
X525760Y104395D01*
X525831Y104406D01*
G37*
D10*
X182880Y223012D03*
D11*
X132880Y223012D03*
X82880Y223012D03*
X32880Y223012D03*
D12*
X376978Y277544D03*
X386978Y277544D03*
X366978Y277544D03*
X396978Y277544D03*
D13*
X280978Y301544D03*
X442978Y301544D03*
D12*
X406978Y277544D03*
X416978Y277544D03*
X356978Y277544D03*
X346978Y277544D03*
X336978Y277544D03*
X326978Y277544D03*
X316978Y277544D03*
X306978Y277544D03*
D14*
X577342Y293116D03*
X551942Y293116D03*
X525780Y292608D03*
X655828Y293370D03*
X603758Y292862D03*
D15*
X250444Y129794D02*
X250444Y114554D01*
X225044Y114554D02*
X225044Y129794D01*
D16*
X381762Y129794D02*
X401320Y129540D01*
X381762Y129794D02*
X381000Y129794D01*
X380816Y129792D01*
X380632Y129785D01*
X380448Y129774D01*
X380265Y129758D01*
X380082Y129738D01*
X379899Y129714D01*
X379717Y129685D01*
X379536Y129652D01*
X379356Y129614D01*
X379176Y129573D01*
X378998Y129526D01*
X378821Y129476D01*
X378645Y129421D01*
X378471Y129362D01*
X378298Y129299D01*
X378127Y129231D01*
X377957Y129160D01*
X377789Y129084D01*
X377623Y129005D01*
X377459Y128921D01*
X377297Y128834D01*
X377137Y128742D01*
X376979Y128647D01*
X376824Y128548D01*
X376671Y128445D01*
X376521Y128339D01*
X376373Y128229D01*
X376228Y128115D01*
X376086Y127998D01*
X375947Y127878D01*
X375811Y127754D01*
X375677Y127627D01*
X375547Y127497D01*
X375420Y127363D01*
X375296Y127227D01*
X375176Y127088D01*
X375059Y126946D01*
X374945Y126801D01*
X374835Y126653D01*
X374729Y126503D01*
X374626Y126350D01*
X374527Y126195D01*
X374432Y126037D01*
X374340Y125877D01*
X374253Y125715D01*
X374169Y125551D01*
X374090Y125385D01*
X374014Y125217D01*
X373943Y125047D01*
X373875Y124876D01*
X373812Y124703D01*
X373753Y124529D01*
X373698Y124353D01*
X373648Y124176D01*
X373601Y123998D01*
X373560Y123818D01*
X373522Y123638D01*
X373489Y123457D01*
X373460Y123275D01*
X373436Y123092D01*
X373416Y122909D01*
X373400Y122726D01*
X373389Y122542D01*
X373382Y122358D01*
X373380Y122174D01*
X373380Y100838D01*
X375666Y111252D02*
X401320Y111252D01*
X414528Y129794D02*
X434086Y129794D01*
X414528Y129794D02*
X414331Y129792D01*
X414133Y129784D01*
X413937Y129772D01*
X413740Y129756D01*
X413544Y129734D01*
X413348Y129708D01*
X413153Y129677D01*
X412959Y129641D01*
X412766Y129601D01*
X412574Y129556D01*
X412383Y129506D01*
X412193Y129452D01*
X412005Y129393D01*
X411818Y129329D01*
X411633Y129261D01*
X411449Y129189D01*
X411268Y129112D01*
X411088Y129031D01*
X410910Y128945D01*
X410734Y128855D01*
X410561Y128761D01*
X410390Y128662D01*
X410221Y128560D01*
X410055Y128453D01*
X409892Y128343D01*
X409731Y128228D01*
X409573Y128110D01*
X409418Y127988D01*
X409266Y127862D01*
X409117Y127733D01*
X408972Y127600D01*
X408829Y127463D01*
X408690Y127323D01*
X408554Y127180D01*
X408422Y127033D01*
X408294Y126883D01*
X408169Y126731D01*
X408048Y126575D01*
X407930Y126416D01*
X407817Y126255D01*
X407708Y126091D01*
X407602Y125924D01*
X407501Y125754D01*
X407404Y125583D01*
X407311Y125409D01*
X407222Y125232D01*
X407137Y125054D01*
X407057Y124874D01*
X406981Y124692D01*
X406910Y124508D01*
X406843Y124322D01*
X406781Y124135D01*
X406723Y123946D01*
X406670Y123756D01*
X406622Y123565D01*
X406578Y123372D01*
X406539Y123179D01*
X406504Y122985D01*
X406475Y122789D01*
X406450Y122594D01*
X406429Y122397D01*
X406414Y122201D01*
X406403Y122004D01*
X406397Y121806D01*
X406396Y121609D01*
X406400Y121412D01*
X406146Y100838D01*
X440436Y129540D02*
X460756Y129540D01*
X460955Y129538D01*
X461153Y129530D01*
X461351Y129518D01*
X461549Y129501D01*
X461747Y129479D01*
X461944Y129453D01*
X462140Y129421D01*
X462335Y129385D01*
X462530Y129344D01*
X462723Y129299D01*
X462915Y129248D01*
X463106Y129193D01*
X463295Y129133D01*
X463483Y129069D01*
X463670Y129000D01*
X463854Y128927D01*
X464037Y128849D01*
X464218Y128766D01*
X464396Y128680D01*
X464573Y128589D01*
X464747Y128493D01*
X464919Y128394D01*
X465089Y128290D01*
X465255Y128182D01*
X465419Y128070D01*
X465581Y127954D01*
X465739Y127834D01*
X465895Y127711D01*
X466047Y127583D01*
X466196Y127452D01*
X466342Y127317D01*
X466485Y127179D01*
X466624Y127038D01*
X466760Y126892D01*
X466892Y126744D01*
X467021Y126593D01*
X467146Y126438D01*
X467267Y126281D01*
X467384Y126120D01*
X467497Y125957D01*
X467606Y125791D01*
X467711Y125622D01*
X467812Y125451D01*
X467908Y125277D01*
X468001Y125102D01*
X468089Y124923D01*
X468173Y124743D01*
X468252Y124561D01*
X468327Y124377D01*
X468397Y124191D01*
X468463Y124004D01*
X468524Y123815D01*
X468580Y123624D01*
X468632Y123433D01*
X468679Y123240D01*
X468721Y123045D01*
X468759Y122850D01*
X468792Y122655D01*
X468820Y122458D01*
X468843Y122261D01*
X468862Y122063D01*
X468875Y121865D01*
X468884Y121666D01*
X468630Y100584D01*
X459740Y101600D02*
X445516Y101600D01*
X445301Y101603D01*
X445085Y101610D01*
X444870Y101623D01*
X444655Y101642D01*
X444441Y101665D01*
X444228Y101694D01*
X444015Y101728D01*
X443803Y101767D01*
X443592Y101811D01*
X443382Y101860D01*
X443174Y101914D01*
X442967Y101973D01*
X442761Y102037D01*
X442557Y102107D01*
X442355Y102181D01*
X442154Y102260D01*
X441956Y102344D01*
X441759Y102432D01*
X441565Y102526D01*
X441373Y102624D01*
X441184Y102726D01*
X440997Y102834D01*
X440813Y102945D01*
X440631Y103062D01*
X440453Y103182D01*
X440277Y103307D01*
X440104Y103436D01*
X439935Y103569D01*
X439769Y103706D01*
X439606Y103847D01*
X439447Y103993D01*
X439291Y104142D01*
X439139Y104294D01*
X438991Y104450D01*
X438846Y104610D01*
X438706Y104774D01*
X438569Y104940D01*
X438437Y105110D01*
X438308Y105283D01*
X438184Y105459D01*
X438064Y105638D01*
X437949Y105820D01*
X437838Y106005D01*
X437731Y106192D01*
X437630Y106382D01*
X437532Y106575D01*
X437440Y106769D01*
X437352Y106966D01*
X437269Y107165D01*
X437190Y107365D01*
X437117Y107568D01*
X437049Y107772D01*
X436985Y107978D01*
X436927Y108186D01*
X436873Y108394D01*
X436825Y108604D01*
X436782Y108815D01*
X436744Y109027D01*
X436711Y109240D01*
X436683Y109454D01*
X436660Y109668D01*
X436643Y109883D01*
X436631Y110098D01*
X436624Y110314D01*
X436622Y110529D01*
X436626Y110744D01*
X436636Y110989D01*
X436652Y111233D01*
X436673Y111476D01*
X436701Y111719D01*
X436735Y111961D01*
X436774Y112202D01*
X436820Y112443D01*
X436871Y112682D01*
X436928Y112919D01*
X436991Y113156D01*
X437059Y113390D01*
X437133Y113623D01*
X437213Y113854D01*
X437299Y114083D01*
X437390Y114310D01*
X437486Y114535D01*
X437588Y114757D01*
X437696Y114976D01*
X437808Y115193D01*
X437926Y115407D01*
X438050Y115619D01*
X438178Y115827D01*
X438311Y116032D01*
X438449Y116233D01*
X438592Y116431D01*
X438740Y116626D01*
X438893Y116817D01*
X439050Y117004D01*
X439212Y117187D01*
X439378Y117367D01*
X439549Y117542D01*
X439723Y117713D01*
X439902Y117880D01*
X440085Y118042D01*
X440272Y118200D01*
X440462Y118353D01*
X440656Y118501D01*
X440854Y118645D01*
X441055Y118784D01*
X441260Y118918D01*
X441468Y119047D01*
X441678Y119170D01*
X441892Y119289D01*
X442109Y119402D01*
X442328Y119510D01*
X442550Y119613D01*
X442774Y119710D01*
X443001Y119802D01*
X443230Y119888D01*
X466852Y119888D01*
X485394Y129794D02*
X507746Y129794D01*
X485394Y129794D02*
X485201Y129792D01*
X485007Y129785D01*
X484814Y129773D01*
X484622Y129756D01*
X484429Y129735D01*
X484238Y129709D01*
X484047Y129678D01*
X483857Y129643D01*
X483667Y129603D01*
X483479Y129559D01*
X483292Y129510D01*
X483106Y129456D01*
X482922Y129398D01*
X482739Y129335D01*
X482558Y129268D01*
X482378Y129196D01*
X482200Y129120D01*
X482024Y129040D01*
X481850Y128956D01*
X481678Y128867D01*
X481509Y128774D01*
X481342Y128677D01*
X481177Y128576D01*
X481014Y128470D01*
X480855Y128361D01*
X480698Y128248D01*
X480543Y128132D01*
X480392Y128011D01*
X480244Y127887D01*
X480099Y127759D01*
X479957Y127628D01*
X479818Y127493D01*
X479682Y127355D01*
X479550Y127214D01*
X479422Y127070D01*
X479297Y126922D01*
X479175Y126771D01*
X479058Y126618D01*
X478944Y126461D01*
X478834Y126302D01*
X478728Y126141D01*
X478626Y125976D01*
X478528Y125810D01*
X478434Y125641D01*
X478344Y125469D01*
X478259Y125296D01*
X478178Y125120D01*
X478101Y124943D01*
X478028Y124764D01*
X477960Y124583D01*
X477896Y124400D01*
X477837Y124216D01*
X477782Y124030D01*
X477732Y123844D01*
X477687Y123656D01*
X477646Y123467D01*
X477609Y123277D01*
X477578Y123086D01*
X477551Y122894D01*
X477528Y122702D01*
X477511Y122510D01*
X477498Y122317D01*
X477490Y122124D01*
X477486Y121930D01*
X477487Y121737D01*
X477493Y121543D01*
X477504Y121350D01*
X477520Y121158D01*
X477774Y109728D01*
X477781Y109523D01*
X477793Y109318D01*
X477810Y109113D01*
X477832Y108909D01*
X477859Y108705D01*
X477891Y108503D01*
X477927Y108301D01*
X477969Y108100D01*
X478016Y107900D01*
X478067Y107701D01*
X478123Y107503D01*
X478184Y107307D01*
X478249Y107113D01*
X478320Y106920D01*
X478395Y106729D01*
X478474Y106539D01*
X478558Y106352D01*
X478647Y106167D01*
X478740Y105984D01*
X478837Y105803D01*
X478939Y105625D01*
X479045Y105449D01*
X479156Y105276D01*
X479270Y105106D01*
X479389Y104938D01*
X479512Y104773D01*
X479638Y104612D01*
X479769Y104453D01*
X479903Y104298D01*
X480041Y104146D01*
X480183Y103997D01*
X480328Y103852D01*
X480477Y103711D01*
X480629Y103573D01*
X480784Y103439D01*
X480943Y103308D01*
X481104Y103182D01*
X481269Y103059D01*
X481437Y102941D01*
X481607Y102826D01*
X481780Y102716D01*
X481956Y102610D01*
X482134Y102508D01*
X482315Y102411D01*
X482498Y102318D01*
X482683Y102229D01*
X482871Y102145D01*
X483060Y102066D01*
X483251Y101991D01*
X483444Y101921D01*
X483639Y101855D01*
X483835Y101794D01*
X484032Y101739D01*
X484231Y101687D01*
X484431Y101641D01*
X484632Y101600D01*
X507746Y101346D01*
X517398Y114554D02*
X517398Y130810D01*
X517398Y114554D02*
X517398Y100584D01*
X517398Y114554D02*
X549402Y129794D01*
X549402Y101092D02*
X520192Y115570D01*
X557022Y129286D02*
X592582Y129286D01*
X575056Y129540D02*
X575056Y100838D01*
X598932Y129540D02*
X619252Y129540D01*
X619451Y129538D01*
X619649Y129530D01*
X619847Y129518D01*
X620045Y129501D01*
X620243Y129479D01*
X620440Y129453D01*
X620636Y129421D01*
X620831Y129385D01*
X621026Y129344D01*
X621219Y129299D01*
X621411Y129248D01*
X621602Y129193D01*
X621791Y129133D01*
X621979Y129069D01*
X622166Y129000D01*
X622350Y128927D01*
X622533Y128849D01*
X622714Y128766D01*
X622892Y128680D01*
X623069Y128589D01*
X623243Y128493D01*
X623415Y128394D01*
X623585Y128290D01*
X623751Y128182D01*
X623915Y128070D01*
X624077Y127954D01*
X624235Y127834D01*
X624391Y127711D01*
X624543Y127583D01*
X624692Y127452D01*
X624838Y127317D01*
X624981Y127179D01*
X625120Y127038D01*
X625256Y126892D01*
X625388Y126744D01*
X625517Y126593D01*
X625642Y126438D01*
X625763Y126281D01*
X625880Y126120D01*
X625993Y125957D01*
X626102Y125791D01*
X626207Y125622D01*
X626308Y125451D01*
X626404Y125277D01*
X626497Y125102D01*
X626585Y124923D01*
X626669Y124743D01*
X626748Y124561D01*
X626823Y124377D01*
X626893Y124191D01*
X626959Y124004D01*
X627020Y123815D01*
X627076Y123624D01*
X627128Y123433D01*
X627175Y123240D01*
X627217Y123045D01*
X627255Y122850D01*
X627288Y122655D01*
X627316Y122458D01*
X627339Y122261D01*
X627358Y122063D01*
X627371Y121865D01*
X627380Y121666D01*
X627126Y100584D01*
X618236Y101600D02*
X604012Y101600D01*
X603797Y101603D01*
X603581Y101610D01*
X603366Y101623D01*
X603151Y101642D01*
X602937Y101665D01*
X602724Y101694D01*
X602511Y101728D01*
X602299Y101767D01*
X602088Y101811D01*
X601878Y101860D01*
X601670Y101914D01*
X601463Y101973D01*
X601257Y102037D01*
X601053Y102107D01*
X600851Y102181D01*
X600650Y102260D01*
X600452Y102344D01*
X600255Y102432D01*
X600061Y102526D01*
X599869Y102624D01*
X599680Y102726D01*
X599493Y102834D01*
X599309Y102945D01*
X599127Y103062D01*
X598949Y103182D01*
X598773Y103307D01*
X598600Y103436D01*
X598431Y103569D01*
X598265Y103706D01*
X598102Y103847D01*
X597943Y103993D01*
X597787Y104142D01*
X597635Y104294D01*
X597487Y104450D01*
X597342Y104610D01*
X597202Y104774D01*
X597065Y104940D01*
X596933Y105110D01*
X596804Y105283D01*
X596680Y105459D01*
X596560Y105638D01*
X596445Y105820D01*
X596334Y106005D01*
X596227Y106192D01*
X596126Y106382D01*
X596028Y106575D01*
X595936Y106769D01*
X595848Y106966D01*
X595765Y107165D01*
X595686Y107365D01*
X595613Y107568D01*
X595545Y107772D01*
X595481Y107978D01*
X595423Y108186D01*
X595369Y108394D01*
X595321Y108604D01*
X595278Y108815D01*
X595240Y109027D01*
X595207Y109240D01*
X595179Y109454D01*
X595156Y109668D01*
X595139Y109883D01*
X595127Y110098D01*
X595120Y110314D01*
X595118Y110529D01*
X595122Y110744D01*
X595132Y110989D01*
X595148Y111233D01*
X595169Y111476D01*
X595197Y111719D01*
X595231Y111961D01*
X595270Y112202D01*
X595316Y112443D01*
X595367Y112682D01*
X595424Y112919D01*
X595487Y113156D01*
X595555Y113390D01*
X595629Y113623D01*
X595709Y113854D01*
X595795Y114083D01*
X595886Y114310D01*
X595982Y114535D01*
X596084Y114757D01*
X596192Y114976D01*
X596304Y115193D01*
X596422Y115407D01*
X596546Y115619D01*
X596674Y115827D01*
X596807Y116032D01*
X596945Y116233D01*
X597088Y116431D01*
X597236Y116626D01*
X597389Y116817D01*
X597546Y117004D01*
X597708Y117187D01*
X597874Y117367D01*
X598045Y117542D01*
X598219Y117713D01*
X598398Y117880D01*
X598581Y118042D01*
X598768Y118200D01*
X598958Y118353D01*
X599152Y118501D01*
X599350Y118645D01*
X599551Y118784D01*
X599756Y118918D01*
X599964Y119047D01*
X600174Y119170D01*
X600388Y119289D01*
X600605Y119402D01*
X600824Y119510D01*
X601046Y119613D01*
X601270Y119710D01*
X601497Y119802D01*
X601726Y119888D01*
X625348Y119888D01*
X638810Y109728D02*
X638810Y131064D01*
X638810Y109728D02*
X638812Y109528D01*
X638820Y109327D01*
X638832Y109127D01*
X638849Y108928D01*
X638871Y108728D01*
X638898Y108530D01*
X638930Y108332D01*
X638967Y108135D01*
X639008Y107939D01*
X639055Y107744D01*
X639106Y107550D01*
X639162Y107357D01*
X639222Y107166D01*
X639287Y106977D01*
X639357Y106789D01*
X639432Y106603D01*
X639511Y106419D01*
X639594Y106236D01*
X639682Y106056D01*
X639774Y105878D01*
X639871Y105703D01*
X639972Y105530D01*
X640077Y105359D01*
X640186Y105191D01*
X640300Y105026D01*
X640417Y104863D01*
X640538Y104704D01*
X640664Y104547D01*
X640793Y104394D01*
X640925Y104244D01*
X641062Y104097D01*
X641202Y103953D01*
X641345Y103813D01*
X641492Y103677D01*
X641642Y103544D01*
X641796Y103415D01*
X641952Y103290D01*
X642111Y103169D01*
X642274Y103051D01*
X642439Y102938D01*
X642607Y102828D01*
X642778Y102723D01*
X642951Y102622D01*
X643127Y102526D01*
X643304Y102433D01*
X643485Y102345D01*
X643667Y102262D01*
X643851Y102183D01*
X644037Y102109D01*
X644225Y102039D01*
X644414Y101973D01*
X644606Y101913D01*
X644798Y101857D01*
X644992Y101806D01*
X645187Y101760D01*
X645383Y101718D01*
X645580Y101681D01*
X645778Y101650D01*
X645976Y101623D01*
X646176Y101600D01*
X667004Y101346D01*
D14*
X502412Y293116D03*
D17*
X195834Y312166D03*
X195834Y299466D03*
X195834Y286766D03*
X195834Y274066D03*
X248158Y274066D03*
X248158Y286766D03*
X248158Y299466D03*
X248158Y312166D03*
D18*
X142494Y323460D03*
X142494Y306460D03*
X118872Y300600D03*
X118872Y283600D03*
X144018Y278756D03*
X144018Y261756D03*
X43688Y322698D03*
X43688Y305698D03*
X42672Y280534D03*
X42672Y263534D03*
X286258Y234832D03*
X286258Y251832D03*
X227076Y218050D03*
X227076Y201050D03*
X72644Y305698D03*
X72644Y322698D03*
X72644Y263280D03*
X72644Y280280D03*
D19*
X113148Y323088D03*
X96148Y323088D03*
X111624Y263398D03*
X94624Y263398D03*
X176902Y297942D03*
X159902Y297942D03*
D18*
X286512Y200288D03*
X286512Y217288D03*
X227076Y251324D03*
X227076Y234324D03*
X257302Y234324D03*
X257302Y251324D03*
X257302Y218050D03*
X257302Y201050D03*
D14*
X475742Y293370D03*
X630428Y292100D03*
D20*
X257302Y201050D02*
X241808Y201050D01*
X227076Y201050D01*
X248158Y274066D02*
X248158Y286766D01*
X248158Y274066D02*
X248158Y260468D01*
X257302Y251324D01*
X58420Y322698D02*
X43688Y322698D01*
X58420Y322698D02*
X72644Y322698D01*
D21*
X58420Y322698D03*
X242316Y250444D03*
D20*
X256422Y250444D01*
X257302Y251324D01*
X242316Y250444D02*
X242316Y201558D01*
X241808Y201050D01*
X306978Y225406D02*
X306978Y277544D01*
X306978Y225406D02*
X312166Y220218D01*
D21*
X312166Y220218D03*
X269494Y195580D03*
D20*
X262772Y195580D01*
X257302Y201050D01*
X180458Y323460D02*
X142494Y323460D01*
X180458Y323460D02*
X180594Y323596D01*
D21*
X180594Y323596D03*
X604266Y275590D03*
D20*
X603758Y276098D01*
X603758Y292862D01*
X286766Y267208D02*
X286766Y252340D01*
D21*
X286766Y267208D03*
D22*
X142240Y322580D02*
X142494Y323460D01*
X142240Y322580D02*
X141732Y322698D01*
X142240Y322580D02*
X142494Y323460D01*
X142240Y322580D02*
X141732Y322698D01*
X142240Y322580D02*
X142494Y323460D01*
X142240Y322580D02*
X141732Y322698D01*
X142494Y323460D02*
X139700Y322580D01*
X139700Y322698D01*
X139700Y322580D02*
X142494Y323460D01*
X139700Y322698D02*
X139700Y322580D01*
X142494Y323460D01*
X139700Y322698D02*
X139700Y322580D01*
X142494Y323460D01*
X139700Y322698D02*
X139700Y322580D01*
X142494Y323460D01*
X139700Y322698D02*
X139700Y322580D01*
X142240Y322580D02*
X142494Y323460D01*
X142240Y322580D02*
X141732Y322698D01*
X142240Y322580D02*
X142494Y323460D01*
X142240Y322580D02*
X141732Y322698D01*
X142240Y322580D02*
X142494Y323460D01*
X142240Y322580D02*
X141732Y322698D01*
X142494Y323460D02*
X139700Y322580D01*
X139700Y322698D01*
X139700Y322580D02*
X142494Y323460D01*
X139700Y322698D02*
X139700Y322580D01*
X142494Y323460D01*
X139700Y322698D02*
X139700Y322580D01*
X142494Y323460D01*
X139700Y322698D02*
X139700Y322580D01*
X142240Y322580D02*
X142494Y323460D01*
X142240Y322580D02*
X141732Y322698D01*
X142240Y322580D02*
X142494Y323460D01*
X142240Y322580D02*
X141732Y322698D01*
X142494Y323460D02*
X139700Y322580D01*
X139700Y322698D01*
X139700Y322580D02*
X142494Y323460D01*
X139700Y322698D02*
X139700Y322580D01*
X142494Y323460D01*
X139700Y322698D02*
X139700Y322580D01*
X142494Y323460D01*
X139700Y322698D02*
X139700Y322580D01*
X142494Y323460D01*
X139700Y322698D02*
X139700Y322580D01*
X137160Y322580D02*
X137160Y322698D01*
X137160Y322580D01*
X137160Y322698D01*
X137160Y322580D01*
X137160Y322698D01*
X137160Y322580D01*
X137160Y322698D01*
X137160Y322580D01*
X142240Y322580D02*
X142494Y323460D01*
X142240Y322580D02*
X141732Y322698D01*
X142240Y322580D02*
X142494Y323460D01*
X142240Y322580D02*
X141732Y322698D01*
X142240Y322580D02*
X142494Y323460D01*
X142240Y322580D02*
X141732Y322698D01*
X142240Y322580D02*
X142494Y323460D01*
X142240Y322580D02*
X141732Y322698D01*
X142240Y322580D02*
X142494Y323460D01*
X142240Y322580D02*
X141732Y322698D01*
X142240Y322580D02*
X142494Y323460D01*
X142240Y322580D02*
X141732Y322698D01*
X142240Y322580D02*
X142494Y323460D01*
X142240Y322580D02*
X141732Y322698D01*
X142240Y322580D02*
X142494Y323460D01*
X142240Y322580D02*
X141732Y322698D01*
X142240Y322580D02*
X142494Y323460D01*
X142240Y322580D02*
X141732Y322698D01*
X142240Y322580D02*
X142494Y323460D01*
X142240Y322580D02*
X141732Y322698D01*
X142240Y322580D02*
X142494Y323460D01*
X142240Y322580D02*
X141732Y322698D01*
X142240Y322580D02*
X142494Y323460D01*
X142240Y322580D02*
X141732Y322698D01*
X142494Y323460D02*
X139700Y322580D01*
X139700Y322698D01*
X139700Y322580D02*
X142494Y323460D01*
X139700Y322698D02*
X139700Y322580D01*
X142494Y323460D01*
X139700Y322698D02*
X139700Y322580D01*
X142494Y323460D01*
X139700Y322698D02*
X139700Y322580D01*
X142494Y323460D01*
X139700Y322698D02*
X139700Y322580D01*
D20*
X286258Y251832D02*
X286766Y252340D01*
X316978Y233186D02*
X316978Y277544D01*
X316978Y233186D02*
X327914Y222250D01*
D21*
X335788Y222250D03*
D20*
X327914Y222250D01*
D22*
X655320Y292100D02*
X655828Y293370D01*
D21*
X384048Y184912D03*
D22*
X405638Y184912D01*
X414528Y176022D01*
D21*
X414528Y176022D03*
X647192Y277622D03*
D22*
X655320Y285750D01*
X655320Y292100D01*
D20*
X376978Y277544D02*
X366978Y277544D01*
X376978Y277544D02*
X386978Y277544D01*
D23*
X376978Y277544D02*
X376978Y302726D01*
X362458Y317246D01*
D21*
X362458Y317246D03*
D22*
X376978Y302726D02*
X388620Y307340D01*
X543560Y294640D02*
X551180Y294640D01*
X543560Y294640D02*
X518160Y320040D01*
X401320Y320040D01*
X388620Y307340D01*
X551180Y294640D02*
X551942Y293116D01*
X388620Y307340D02*
X376978Y302726D01*
D21*
X373634Y317754D03*
X366522Y307594D03*
D20*
X396978Y277544D02*
X406978Y277544D01*
X416978Y277544D01*
D23*
X422480Y277544D02*
X406978Y277544D01*
X422480Y277544D02*
X438912Y261112D01*
X446886Y253138D01*
X340868Y117094D02*
X289560Y117094D01*
X276606Y130048D01*
X167895Y180340D02*
X32766Y180340D01*
X167895Y180340D02*
X193803Y154432D01*
X261227Y154432D02*
X276606Y139053D01*
X261227Y154432D02*
X193803Y154432D01*
X276606Y139053D02*
X276606Y130048D01*
X32766Y180340D02*
X32766Y223520D01*
X32880Y223406D01*
X32880Y223012D01*
D22*
X543560Y259080D02*
X576580Y292100D01*
X543560Y259080D02*
X474980Y259080D01*
X467360Y266700D01*
X467360Y271780D01*
X464820Y274320D01*
X452120Y274320D01*
X447040Y269240D01*
X576580Y292100D02*
X577342Y293116D01*
X447040Y269240D02*
X438912Y261112D01*
D23*
X446886Y177646D02*
X417068Y147828D01*
X356616Y137928D02*
X356616Y132842D01*
X340868Y117094D01*
X366516Y147828D02*
X417068Y147828D01*
X366516Y147828D02*
X356616Y137928D01*
X446886Y177646D02*
X446886Y253138D01*
D20*
X96148Y313318D02*
X96148Y323088D01*
X96148Y313318D02*
X86868Y304038D01*
X74304Y304038D01*
X72644Y305698D01*
X43688Y305698D01*
D21*
X100330Y300990D03*
D20*
X97282Y304038D01*
X86868Y304038D01*
D22*
X500380Y292100D02*
X500380Y287020D01*
X480060Y266700D01*
X500380Y292100D02*
X502412Y293116D01*
D21*
X480060Y266700D03*
D20*
X94624Y263398D02*
X94624Y272152D01*
X86496Y280280D02*
X83820Y280280D01*
X72644Y280280D01*
X86496Y280280D02*
X94624Y272152D01*
X72644Y280280D02*
X42926Y280280D01*
X42672Y280534D01*
D21*
X100330Y284734D03*
D20*
X95876Y280280D01*
X86496Y280280D01*
D22*
X525780Y292100D02*
X538480Y292100D01*
X548640Y281940D01*
X556260Y281940D01*
X566420Y292100D01*
X566420Y297180D01*
X574040Y304800D01*
X581660Y304800D01*
X589280Y297180D01*
X589280Y289560D01*
X553720Y254000D01*
X472440Y254000D01*
X459740Y266700D01*
X368300Y203200D02*
X342900Y203200D01*
X335280Y195580D01*
X274320Y175260D02*
X198120Y175260D01*
X152400Y220980D01*
X134620Y220980D01*
X525780Y292100D02*
X525780Y292608D01*
X134620Y220980D02*
X132880Y223012D01*
D21*
X459740Y266700D03*
X368300Y203200D03*
X335280Y195580D03*
X274320Y175260D03*
D20*
X195834Y299466D02*
X178426Y299466D01*
X176902Y297942D01*
X159902Y297942D02*
X159902Y286766D01*
X195834Y286766D01*
X148200Y312166D02*
X142494Y306460D01*
X148200Y312166D02*
X195834Y312166D01*
X142494Y306460D02*
X136634Y300600D01*
X118872Y300600D01*
X113148Y306324D01*
X113148Y323088D01*
X139174Y283600D02*
X144018Y278756D01*
X139174Y283600D02*
X118872Y283600D01*
X111624Y276352D01*
X111624Y263398D01*
X148708Y274066D02*
X195834Y274066D01*
X148708Y274066D02*
X144018Y278756D01*
X248158Y312166D02*
X261874Y312166D01*
X265811Y308229D02*
X265811Y286893D01*
X265811Y308229D02*
X261874Y312166D01*
X272796Y234188D02*
X285614Y234188D01*
X286258Y234832D01*
X286258Y217542D01*
X286512Y217288D01*
X272796Y279908D02*
X265811Y286893D01*
X272796Y279908D02*
X272796Y234188D01*
X248158Y299466D02*
X233680Y299466D01*
X227330Y293116D02*
X227330Y252966D01*
X225688Y251324D01*
X227076Y251324D01*
X227330Y293116D02*
X233680Y299466D01*
X227076Y234324D02*
X227076Y226822D01*
X227076Y218050D01*
X356978Y259080D02*
X356978Y277544D01*
X356978Y259080D02*
X356978Y227946D01*
X338582Y209550D01*
X311912Y209550D01*
X302006Y199644D02*
X302006Y192786D01*
X295880Y186660D01*
X216996Y191668D02*
X216996Y208654D01*
X217170Y208828D01*
X217170Y226314D01*
X222004Y186660D02*
X295880Y186660D01*
X222004Y186660D02*
X216996Y191668D01*
X217170Y226314D02*
X226568Y226314D01*
X227076Y226822D01*
X302006Y199644D02*
X311912Y209550D01*
D22*
X459740Y292100D02*
X474980Y292100D01*
X475742Y293370D01*
X358140Y259080D02*
X356978Y259080D01*
D21*
X459740Y292100D03*
X358140Y259080D03*
D20*
X257302Y234324D02*
X257302Y218050D01*
X72390Y263534D02*
X42672Y263534D01*
X72390Y263534D02*
X72644Y263280D01*
X42672Y263534D02*
X42672Y249682D01*
X43180Y249174D01*
X72644Y249174D01*
X145288Y249174D01*
X145542Y249428D01*
X144018Y250952D01*
X144018Y261756D01*
X145288Y249174D02*
X199390Y249174D01*
X272796Y205758D02*
X278266Y200288D01*
X272796Y205758D02*
X272796Y218186D01*
X257438Y218186D01*
X257302Y218050D01*
X278266Y200288D02*
X280298Y200288D01*
X72644Y249174D02*
X72644Y263280D01*
X199390Y249174D02*
X215646Y265430D01*
X215646Y324358D01*
X318008Y324358D01*
X327152Y315214D01*
X327152Y297180D01*
X327152Y295148D01*
X327152Y292100D02*
X327152Y277718D01*
X326978Y277544D01*
D22*
X284480Y200660D02*
X281940Y200660D01*
X284480Y200660D02*
X286512Y200288D01*
X281940Y200660D02*
X280298Y200288D01*
D20*
X297942Y207592D02*
X297942Y290068D01*
X303022Y295148D01*
X297942Y207592D02*
X287968Y200288D01*
X303022Y295148D02*
X327152Y295148D01*
D22*
X629920Y292100D02*
X630428Y292100D01*
X327660Y297180D02*
X327152Y297180D01*
D21*
X327660Y297180D03*
D22*
X629920Y292100D02*
X630428Y292100D01*
X629920Y292100D02*
X617220Y292100D01*
X629920Y292100D02*
X630428Y292100D01*
D21*
X617220Y292100D03*
D20*
X327152Y292100D02*
X327152Y295148D01*
D22*
X287968Y200288D02*
X286512Y200288D01*
M02*
