M48
;GenerationSoftware,Autodesk,EAGLE,9.1.3*%
;CreationDate,2019-04-17T09:40:25Z*%
FMAT,2
ICI,OFF
METRIC,TZ,000.000
T5C0.350
T4C1.016
T3C1.400
T2C3.000
T1C4.000
%
G90
M71
T1
X51181Y17450
T2
X39522Y23368
X31699Y15977
X62713Y15977
T3
X18288Y22301
X13288Y22301
X8288Y22301
X3288Y22301
T4
X22504Y12217
X25044Y12217
T5
X64719Y27762
X36246Y31725
X37363Y31775
X36652Y30759
X10033Y30099
X48006Y26670
X10033Y28473
X5842Y32270
X36830Y20320
X33528Y19558
X27432Y17526
X45974Y29210
X35814Y25908
X32766Y29718
X61722Y29210
X24232Y25044
X31217Y22022
X26949Y19558
X18059Y32360
X60427Y27559
X28677Y26721
X33579Y22225
X38405Y18491
X41453Y17602
X45974Y26670
M30