G04 EAGLE Gerber X2 export*
%TF.Part,Single*%
%TF.FileFunction,Profile,NP*%
%TF.FilePolarity,Positive*%
%TF.GenerationSoftware,Autodesk,EAGLE,9.1.3*%
%TF.CreationDate,2019-04-17T09:40:26Z*%
G75*
%MOMM*%
%FSLAX34Y34*%
%LPD*%
%AMOC8*
5,1,8,0,0,1.08239X$1,22.5*%
G01*
%ADD10C,0.254000*%


D10*
X6604Y107696D02*
X6772Y106140D01*
X7075Y104604D01*
X7510Y103100D01*
X8075Y101640D01*
X8765Y100235D01*
X9575Y98896D01*
X10498Y97632D01*
X11528Y96453D01*
X12657Y95369D01*
X13876Y94387D01*
X15176Y93515D01*
X16547Y92760D01*
X17979Y92127D01*
X19461Y91621D01*
X20980Y91246D01*
X22527Y91006D01*
X24089Y90901D01*
X25654Y90932D01*
X653542Y90932D01*
X655645Y91024D01*
X657732Y91299D01*
X659787Y91754D01*
X661795Y92387D01*
X663740Y93193D01*
X665607Y94165D01*
X667382Y95296D01*
X669052Y96577D01*
X670605Y98000D01*
X672027Y99552D01*
X673308Y101222D01*
X674439Y102997D01*
X675411Y104864D01*
X676217Y106809D01*
X676850Y108817D01*
X677305Y110872D01*
X677580Y112959D01*
X677672Y115062D01*
X677672Y319024D01*
X677579Y321149D01*
X677302Y323258D01*
X676841Y325335D01*
X676201Y327364D01*
X675387Y329329D01*
X674405Y331216D01*
X673262Y333010D01*
X671967Y334698D01*
X670530Y336266D01*
X668962Y337703D01*
X667274Y338998D01*
X665480Y340141D01*
X663593Y341123D01*
X661628Y341937D01*
X659599Y342577D01*
X657522Y343038D01*
X655413Y343315D01*
X653288Y343408D01*
X34290Y343408D01*
X31877Y343303D01*
X29482Y342987D01*
X27124Y342465D01*
X24821Y341738D01*
X22589Y340814D01*
X20447Y339699D01*
X18410Y338401D01*
X16494Y336931D01*
X14713Y335299D01*
X13081Y333518D01*
X11611Y331602D01*
X10313Y329565D01*
X9198Y327423D01*
X8274Y325191D01*
X7547Y322888D01*
X7025Y320530D01*
X6709Y318135D01*
X6604Y315722D01*
X6604Y314198D01*
X6604Y107696D01*
X410224Y233144D02*
X410148Y232076D01*
X409995Y231015D01*
X409767Y229968D01*
X409465Y228940D01*
X409091Y227936D01*
X408646Y226961D01*
X408132Y226021D01*
X407553Y225120D01*
X406911Y224262D01*
X406209Y223452D01*
X405452Y222695D01*
X404642Y221993D01*
X403784Y221351D01*
X402883Y220772D01*
X401943Y220258D01*
X400968Y219813D01*
X399964Y219439D01*
X398936Y219137D01*
X397889Y218909D01*
X396828Y218756D01*
X395760Y218680D01*
X394688Y218680D01*
X393620Y218756D01*
X392559Y218909D01*
X391512Y219137D01*
X390484Y219439D01*
X389480Y219813D01*
X388505Y220258D01*
X387565Y220772D01*
X386664Y221351D01*
X385806Y221993D01*
X384996Y222695D01*
X384239Y223452D01*
X383537Y224262D01*
X382895Y225120D01*
X382316Y226021D01*
X381802Y226961D01*
X381357Y227936D01*
X380983Y228940D01*
X380681Y229968D01*
X380453Y231015D01*
X380300Y232076D01*
X380224Y233144D01*
X380224Y234216D01*
X380300Y235284D01*
X380453Y236345D01*
X380681Y237392D01*
X380983Y238420D01*
X381357Y239424D01*
X381802Y240399D01*
X382316Y241339D01*
X382895Y242240D01*
X383537Y243098D01*
X384239Y243908D01*
X384996Y244665D01*
X385806Y245367D01*
X386664Y246009D01*
X387565Y246588D01*
X388505Y247102D01*
X389480Y247547D01*
X390484Y247921D01*
X391512Y248223D01*
X392559Y248451D01*
X393620Y248604D01*
X394688Y248680D01*
X395760Y248680D01*
X396828Y248604D01*
X397889Y248451D01*
X398936Y248223D01*
X399964Y247921D01*
X400968Y247547D01*
X401943Y247102D01*
X402883Y246588D01*
X403784Y246009D01*
X404642Y245367D01*
X405452Y244665D01*
X406209Y243908D01*
X406911Y243098D01*
X407553Y242240D01*
X408132Y241339D01*
X408646Y240399D01*
X409091Y239424D01*
X409465Y238420D01*
X409767Y237392D01*
X409995Y236345D01*
X410148Y235284D01*
X410224Y234216D01*
X410224Y233144D01*
X331992Y159230D02*
X331916Y158162D01*
X331763Y157101D01*
X331535Y156054D01*
X331233Y155026D01*
X330859Y154022D01*
X330414Y153047D01*
X329900Y152107D01*
X329321Y151206D01*
X328679Y150348D01*
X327977Y149538D01*
X327220Y148781D01*
X326410Y148079D01*
X325552Y147437D01*
X324651Y146858D01*
X323711Y146344D01*
X322736Y145899D01*
X321732Y145525D01*
X320704Y145223D01*
X319657Y144995D01*
X318596Y144842D01*
X317528Y144766D01*
X316456Y144766D01*
X315388Y144842D01*
X314327Y144995D01*
X313280Y145223D01*
X312252Y145525D01*
X311248Y145899D01*
X310273Y146344D01*
X309333Y146858D01*
X308432Y147437D01*
X307574Y148079D01*
X306764Y148781D01*
X306007Y149538D01*
X305305Y150348D01*
X304663Y151206D01*
X304084Y152107D01*
X303570Y153047D01*
X303125Y154022D01*
X302751Y155026D01*
X302449Y156054D01*
X302221Y157101D01*
X302068Y158162D01*
X301992Y159230D01*
X301992Y160302D01*
X302068Y161370D01*
X302221Y162431D01*
X302449Y163478D01*
X302751Y164506D01*
X303125Y165510D01*
X303570Y166485D01*
X304084Y167425D01*
X304663Y168326D01*
X305305Y169184D01*
X306007Y169994D01*
X306764Y170751D01*
X307574Y171453D01*
X308432Y172095D01*
X309333Y172674D01*
X310273Y173188D01*
X311248Y173633D01*
X312252Y174007D01*
X313280Y174309D01*
X314327Y174537D01*
X315388Y174690D01*
X316456Y174766D01*
X317528Y174766D01*
X318596Y174690D01*
X319657Y174537D01*
X320704Y174309D01*
X321732Y174007D01*
X322736Y173633D01*
X323711Y173188D01*
X324651Y172674D01*
X325552Y172095D01*
X326410Y171453D01*
X327220Y170751D01*
X327977Y169994D01*
X328679Y169184D01*
X329321Y168326D01*
X329900Y167425D01*
X330414Y166485D01*
X330859Y165510D01*
X331233Y164506D01*
X331535Y163478D01*
X331763Y162431D01*
X331916Y161370D01*
X331992Y160302D01*
X331992Y159230D01*
X642126Y159230D02*
X642050Y158162D01*
X641897Y157101D01*
X641669Y156054D01*
X641367Y155026D01*
X640993Y154022D01*
X640548Y153047D01*
X640034Y152107D01*
X639455Y151206D01*
X638813Y150348D01*
X638111Y149538D01*
X637354Y148781D01*
X636544Y148079D01*
X635686Y147437D01*
X634785Y146858D01*
X633845Y146344D01*
X632870Y145899D01*
X631866Y145525D01*
X630838Y145223D01*
X629791Y144995D01*
X628730Y144842D01*
X627662Y144766D01*
X626590Y144766D01*
X625522Y144842D01*
X624461Y144995D01*
X623414Y145223D01*
X622386Y145525D01*
X621382Y145899D01*
X620407Y146344D01*
X619467Y146858D01*
X618566Y147437D01*
X617708Y148079D01*
X616898Y148781D01*
X616141Y149538D01*
X615439Y150348D01*
X614797Y151206D01*
X614218Y152107D01*
X613704Y153047D01*
X613259Y154022D01*
X612885Y155026D01*
X612583Y156054D01*
X612355Y157101D01*
X612202Y158162D01*
X612126Y159230D01*
X612126Y160302D01*
X612202Y161370D01*
X612355Y162431D01*
X612583Y163478D01*
X612885Y164506D01*
X613259Y165510D01*
X613704Y166485D01*
X614218Y167425D01*
X614797Y168326D01*
X615439Y169184D01*
X616141Y169994D01*
X616898Y170751D01*
X617708Y171453D01*
X618566Y172095D01*
X619467Y172674D01*
X620407Y173188D01*
X621382Y173633D01*
X622386Y174007D01*
X623414Y174309D01*
X624461Y174537D01*
X625522Y174690D01*
X626590Y174766D01*
X627662Y174766D01*
X628730Y174690D01*
X629791Y174537D01*
X630838Y174309D01*
X631866Y174007D01*
X632870Y173633D01*
X633845Y173188D01*
X634785Y172674D01*
X635686Y172095D01*
X636544Y171453D01*
X637354Y170751D01*
X638111Y169994D01*
X638813Y169184D01*
X639455Y168326D01*
X640034Y167425D01*
X640548Y166485D01*
X640993Y165510D01*
X641367Y164506D01*
X641669Y163478D01*
X641897Y162431D01*
X642050Y161370D01*
X642126Y160302D01*
X642126Y159230D01*
X531810Y173894D02*
X531737Y172687D01*
X531591Y171487D01*
X531373Y170298D01*
X531084Y169125D01*
X530725Y167971D01*
X530296Y166841D01*
X529800Y165739D01*
X529238Y164668D01*
X528613Y163634D01*
X527926Y162639D01*
X527181Y161688D01*
X526379Y160783D01*
X525525Y159929D01*
X524620Y159127D01*
X523669Y158382D01*
X522674Y157695D01*
X521640Y157070D01*
X520569Y156508D01*
X519467Y156012D01*
X518337Y155583D01*
X517183Y155224D01*
X516010Y154935D01*
X514821Y154717D01*
X513621Y154571D01*
X512414Y154498D01*
X511206Y154498D01*
X509999Y154571D01*
X508799Y154717D01*
X507610Y154935D01*
X506437Y155224D01*
X505283Y155583D01*
X504153Y156012D01*
X503051Y156508D01*
X501980Y157070D01*
X500946Y157695D01*
X499951Y158382D01*
X499000Y159127D01*
X498095Y159929D01*
X497241Y160783D01*
X496439Y161688D01*
X495694Y162639D01*
X495007Y163634D01*
X494382Y164668D01*
X493820Y165739D01*
X493324Y166841D01*
X492895Y167971D01*
X492536Y169125D01*
X492247Y170298D01*
X492029Y171487D01*
X491883Y172687D01*
X491810Y173894D01*
X491810Y175102D01*
X491883Y176309D01*
X492029Y177509D01*
X492247Y178698D01*
X492536Y179871D01*
X492895Y181025D01*
X493324Y182155D01*
X493820Y183257D01*
X494382Y184328D01*
X495007Y185362D01*
X495694Y186357D01*
X496439Y187308D01*
X497241Y188213D01*
X498095Y189067D01*
X499000Y189869D01*
X499951Y190614D01*
X500946Y191301D01*
X501980Y191926D01*
X503051Y192488D01*
X504153Y192984D01*
X505283Y193413D01*
X506437Y193772D01*
X507610Y194061D01*
X508799Y194279D01*
X509999Y194425D01*
X511206Y194498D01*
X512414Y194498D01*
X513621Y194425D01*
X514821Y194279D01*
X516010Y194061D01*
X517183Y193772D01*
X518337Y193413D01*
X519467Y192984D01*
X520569Y192488D01*
X521640Y191926D01*
X522674Y191301D01*
X523669Y190614D01*
X524620Y189869D01*
X525525Y189067D01*
X526379Y188213D01*
X527181Y187308D01*
X527926Y186357D01*
X528613Y185362D01*
X529238Y184328D01*
X529800Y183257D01*
X530296Y182155D01*
X530725Y181025D01*
X531084Y179871D01*
X531373Y178698D01*
X531591Y177509D01*
X531737Y176309D01*
X531810Y175102D01*
X531810Y173894D01*
M02*
