G04 EAGLE Gerber X2 export*
%TF.Part,Single*%
%TF.FileFunction,Legend,Bot,1*%
%TF.FilePolarity,Positive*%
%TF.GenerationSoftware,Autodesk,EAGLE,9.1.3*%
%TF.CreationDate,2019-04-17T09:40:26Z*%
G75*
%MOMM*%
%FSLAX34Y34*%
%LPD*%
%AMOC8*
5,1,8,0,0,1.08239X$1,22.5*%
G01*
%ADD10C,0.076200*%
%ADD11C,0.050800*%
%ADD12C,0.050000*%


D10*
X168388Y185603D02*
X168390Y185514D01*
X168396Y185426D01*
X168405Y185338D01*
X168418Y185250D01*
X168435Y185163D01*
X168455Y185077D01*
X168480Y184992D01*
X168507Y184907D01*
X168539Y184824D01*
X168573Y184743D01*
X168612Y184663D01*
X168653Y184585D01*
X168698Y184508D01*
X168746Y184434D01*
X168797Y184361D01*
X168851Y184291D01*
X168909Y184224D01*
X168969Y184158D01*
X169031Y184096D01*
X169097Y184036D01*
X169164Y183978D01*
X169234Y183924D01*
X169307Y183873D01*
X169381Y183825D01*
X169458Y183780D01*
X169536Y183739D01*
X169616Y183700D01*
X169697Y183666D01*
X169780Y183634D01*
X169865Y183607D01*
X169950Y183582D01*
X170036Y183562D01*
X170123Y183545D01*
X170211Y183532D01*
X170299Y183523D01*
X170387Y183517D01*
X170476Y183515D01*
X170605Y183517D01*
X170734Y183523D01*
X170863Y183532D01*
X170991Y183545D01*
X171119Y183562D01*
X171246Y183583D01*
X171373Y183607D01*
X171499Y183635D01*
X171624Y183667D01*
X171748Y183702D01*
X171871Y183741D01*
X171993Y183784D01*
X172113Y183830D01*
X172232Y183880D01*
X172350Y183933D01*
X172466Y183989D01*
X172580Y184049D01*
X172693Y184112D01*
X172803Y184179D01*
X172912Y184248D01*
X173018Y184321D01*
X173123Y184397D01*
X173225Y184476D01*
X173325Y184558D01*
X173422Y184642D01*
X173517Y184730D01*
X173609Y184820D01*
X173348Y190825D02*
X173346Y190914D01*
X173340Y191002D01*
X173331Y191090D01*
X173318Y191178D01*
X173301Y191265D01*
X173281Y191351D01*
X173256Y191436D01*
X173229Y191521D01*
X173197Y191604D01*
X173163Y191685D01*
X173124Y191765D01*
X173083Y191843D01*
X173038Y191920D01*
X172990Y191994D01*
X172939Y192067D01*
X172885Y192137D01*
X172827Y192204D01*
X172767Y192270D01*
X172705Y192332D01*
X172639Y192392D01*
X172572Y192450D01*
X172502Y192504D01*
X172429Y192555D01*
X172355Y192603D01*
X172278Y192648D01*
X172200Y192689D01*
X172120Y192728D01*
X172039Y192762D01*
X171956Y192794D01*
X171871Y192821D01*
X171786Y192846D01*
X171700Y192866D01*
X171613Y192883D01*
X171525Y192896D01*
X171437Y192905D01*
X171349Y192911D01*
X171260Y192913D01*
X171140Y192911D01*
X171020Y192906D01*
X170901Y192896D01*
X170781Y192884D01*
X170662Y192867D01*
X170544Y192847D01*
X170426Y192823D01*
X170310Y192796D01*
X170194Y192765D01*
X170079Y192731D01*
X169965Y192693D01*
X169852Y192651D01*
X169741Y192606D01*
X169631Y192558D01*
X169523Y192507D01*
X169416Y192452D01*
X169311Y192394D01*
X169208Y192332D01*
X169107Y192268D01*
X169007Y192200D01*
X168910Y192130D01*
X172304Y188998D02*
X172382Y189046D01*
X172458Y189098D01*
X172531Y189152D01*
X172602Y189210D01*
X172671Y189271D01*
X172737Y189335D01*
X172800Y189402D01*
X172860Y189471D01*
X172917Y189543D01*
X172971Y189617D01*
X173021Y189694D01*
X173069Y189773D01*
X173112Y189853D01*
X173153Y189936D01*
X173189Y190020D01*
X173222Y190105D01*
X173251Y190192D01*
X173277Y190281D01*
X173299Y190370D01*
X173316Y190460D01*
X173330Y190550D01*
X173340Y190642D01*
X173346Y190733D01*
X173348Y190825D01*
X169432Y187430D02*
X169354Y187382D01*
X169278Y187330D01*
X169205Y187276D01*
X169134Y187218D01*
X169065Y187157D01*
X168999Y187093D01*
X168936Y187026D01*
X168876Y186957D01*
X168819Y186885D01*
X168765Y186811D01*
X168715Y186734D01*
X168667Y186655D01*
X168624Y186575D01*
X168583Y186492D01*
X168547Y186408D01*
X168514Y186323D01*
X168485Y186236D01*
X168459Y186147D01*
X168437Y186058D01*
X168420Y185968D01*
X168406Y185878D01*
X168396Y185786D01*
X168390Y185695D01*
X168388Y185603D01*
X169432Y187431D02*
X172304Y188997D01*
X164770Y190302D02*
X164770Y186126D01*
X164770Y190302D02*
X164768Y190403D01*
X164762Y190504D01*
X164752Y190605D01*
X164739Y190705D01*
X164721Y190805D01*
X164700Y190904D01*
X164674Y191002D01*
X164645Y191099D01*
X164613Y191195D01*
X164576Y191289D01*
X164536Y191382D01*
X164492Y191474D01*
X164445Y191563D01*
X164394Y191651D01*
X164340Y191737D01*
X164283Y191820D01*
X164223Y191902D01*
X164159Y191980D01*
X164093Y192057D01*
X164023Y192130D01*
X163951Y192201D01*
X163876Y192269D01*
X163798Y192334D01*
X163718Y192396D01*
X163636Y192455D01*
X163551Y192511D01*
X163465Y192563D01*
X163376Y192612D01*
X163285Y192658D01*
X163193Y192699D01*
X163099Y192738D01*
X163004Y192772D01*
X162908Y192803D01*
X162810Y192830D01*
X162712Y192854D01*
X162612Y192873D01*
X162512Y192889D01*
X162412Y192901D01*
X162311Y192909D01*
X162210Y192913D01*
X162108Y192913D01*
X162007Y192909D01*
X161906Y192901D01*
X161806Y192889D01*
X161706Y192873D01*
X161606Y192854D01*
X161508Y192830D01*
X161410Y192803D01*
X161314Y192772D01*
X161219Y192738D01*
X161125Y192699D01*
X161033Y192658D01*
X160942Y192612D01*
X160854Y192563D01*
X160767Y192511D01*
X160682Y192455D01*
X160600Y192396D01*
X160520Y192334D01*
X160442Y192269D01*
X160367Y192201D01*
X160295Y192130D01*
X160225Y192057D01*
X160159Y191980D01*
X160095Y191902D01*
X160035Y191820D01*
X159978Y191737D01*
X159924Y191651D01*
X159873Y191563D01*
X159826Y191474D01*
X159782Y191382D01*
X159742Y191289D01*
X159705Y191195D01*
X159673Y191099D01*
X159644Y191002D01*
X159618Y190904D01*
X159597Y190805D01*
X159579Y190705D01*
X159566Y190605D01*
X159556Y190504D01*
X159550Y190403D01*
X159548Y190302D01*
X159549Y190302D02*
X159549Y186126D01*
X159548Y186126D02*
X159550Y186025D01*
X159556Y185924D01*
X159566Y185823D01*
X159579Y185723D01*
X159597Y185623D01*
X159618Y185524D01*
X159644Y185426D01*
X159673Y185329D01*
X159705Y185233D01*
X159742Y185139D01*
X159782Y185046D01*
X159826Y184954D01*
X159873Y184865D01*
X159924Y184777D01*
X159978Y184691D01*
X160035Y184608D01*
X160095Y184526D01*
X160159Y184448D01*
X160225Y184371D01*
X160295Y184298D01*
X160367Y184227D01*
X160442Y184159D01*
X160520Y184094D01*
X160600Y184032D01*
X160682Y183973D01*
X160767Y183917D01*
X160854Y183865D01*
X160942Y183816D01*
X161033Y183770D01*
X161125Y183729D01*
X161219Y183690D01*
X161314Y183656D01*
X161410Y183625D01*
X161508Y183598D01*
X161606Y183574D01*
X161706Y183555D01*
X161806Y183539D01*
X161906Y183527D01*
X162007Y183519D01*
X162108Y183515D01*
X162210Y183515D01*
X162311Y183519D01*
X162412Y183527D01*
X162512Y183539D01*
X162612Y183555D01*
X162712Y183574D01*
X162810Y183598D01*
X162908Y183625D01*
X163004Y183656D01*
X163099Y183690D01*
X163193Y183729D01*
X163285Y183770D01*
X163376Y183816D01*
X163464Y183865D01*
X163551Y183917D01*
X163636Y183973D01*
X163718Y184032D01*
X163798Y184094D01*
X163876Y184159D01*
X163951Y184227D01*
X164023Y184298D01*
X164093Y184371D01*
X164159Y184448D01*
X164223Y184526D01*
X164283Y184608D01*
X164340Y184691D01*
X164394Y184777D01*
X164445Y184865D01*
X164492Y184954D01*
X164536Y185046D01*
X164576Y185139D01*
X164613Y185233D01*
X164645Y185329D01*
X164674Y185426D01*
X164700Y185524D01*
X164721Y185623D01*
X164739Y185723D01*
X164752Y185823D01*
X164762Y185924D01*
X164768Y186025D01*
X164770Y186126D01*
X155304Y183515D02*
X155304Y192913D01*
X155304Y183515D02*
X151127Y183515D01*
X147396Y183515D02*
X147396Y192913D01*
X144786Y192913D01*
X144686Y192911D01*
X144586Y192905D01*
X144487Y192896D01*
X144387Y192882D01*
X144289Y192865D01*
X144191Y192844D01*
X144094Y192820D01*
X143998Y192791D01*
X143903Y192759D01*
X143810Y192724D01*
X143718Y192685D01*
X143627Y192642D01*
X143539Y192596D01*
X143452Y192546D01*
X143367Y192494D01*
X143284Y192438D01*
X143203Y192379D01*
X143125Y192316D01*
X143049Y192251D01*
X142975Y192183D01*
X142905Y192113D01*
X142837Y192039D01*
X142772Y191963D01*
X142709Y191885D01*
X142650Y191804D01*
X142594Y191721D01*
X142542Y191636D01*
X142492Y191549D01*
X142446Y191461D01*
X142403Y191370D01*
X142364Y191278D01*
X142329Y191185D01*
X142297Y191090D01*
X142268Y190994D01*
X142244Y190897D01*
X142223Y190799D01*
X142206Y190701D01*
X142192Y190601D01*
X142183Y190502D01*
X142177Y190402D01*
X142175Y190302D01*
X142175Y186126D01*
X142177Y186026D01*
X142183Y185926D01*
X142192Y185827D01*
X142206Y185727D01*
X142223Y185629D01*
X142244Y185531D01*
X142268Y185434D01*
X142297Y185338D01*
X142329Y185243D01*
X142364Y185150D01*
X142403Y185058D01*
X142446Y184967D01*
X142492Y184879D01*
X142542Y184792D01*
X142594Y184707D01*
X142650Y184624D01*
X142709Y184543D01*
X142772Y184465D01*
X142837Y184389D01*
X142905Y184315D01*
X142975Y184245D01*
X143049Y184177D01*
X143125Y184112D01*
X143203Y184049D01*
X143284Y183990D01*
X143367Y183934D01*
X143452Y183882D01*
X143539Y183832D01*
X143627Y183786D01*
X143718Y183743D01*
X143810Y183704D01*
X143903Y183669D01*
X143998Y183637D01*
X144094Y183608D01*
X144191Y183584D01*
X144289Y183563D01*
X144387Y183546D01*
X144487Y183532D01*
X144586Y183523D01*
X144686Y183517D01*
X144786Y183515D01*
X147396Y183515D01*
X137625Y183515D02*
X133448Y183515D01*
X137625Y183515D02*
X137625Y192913D01*
X133448Y192913D01*
X134493Y188736D02*
X137625Y188736D01*
X129661Y192913D02*
X129661Y183515D01*
X129661Y192913D02*
X127050Y192913D01*
X126949Y192911D01*
X126848Y192905D01*
X126747Y192895D01*
X126647Y192882D01*
X126547Y192864D01*
X126448Y192843D01*
X126350Y192817D01*
X126253Y192788D01*
X126157Y192756D01*
X126063Y192719D01*
X125970Y192679D01*
X125878Y192635D01*
X125789Y192588D01*
X125701Y192537D01*
X125615Y192483D01*
X125532Y192426D01*
X125450Y192366D01*
X125372Y192302D01*
X125295Y192236D01*
X125222Y192166D01*
X125151Y192094D01*
X125083Y192019D01*
X125018Y191941D01*
X124956Y191861D01*
X124897Y191779D01*
X124841Y191694D01*
X124789Y191608D01*
X124740Y191519D01*
X124694Y191428D01*
X124653Y191336D01*
X124614Y191242D01*
X124580Y191147D01*
X124549Y191051D01*
X124522Y190953D01*
X124498Y190855D01*
X124479Y190755D01*
X124463Y190655D01*
X124451Y190555D01*
X124443Y190454D01*
X124439Y190353D01*
X124439Y190251D01*
X124443Y190150D01*
X124451Y190049D01*
X124463Y189949D01*
X124479Y189849D01*
X124498Y189749D01*
X124522Y189651D01*
X124549Y189553D01*
X124580Y189457D01*
X124614Y189362D01*
X124653Y189268D01*
X124694Y189176D01*
X124740Y189085D01*
X124789Y188997D01*
X124841Y188910D01*
X124897Y188825D01*
X124956Y188743D01*
X125018Y188663D01*
X125083Y188585D01*
X125151Y188510D01*
X125222Y188438D01*
X125295Y188368D01*
X125372Y188302D01*
X125450Y188238D01*
X125532Y188178D01*
X125615Y188121D01*
X125701Y188067D01*
X125789Y188016D01*
X125878Y187969D01*
X125970Y187925D01*
X126063Y187885D01*
X126157Y187848D01*
X126253Y187816D01*
X126350Y187787D01*
X126448Y187761D01*
X126547Y187740D01*
X126647Y187722D01*
X126747Y187709D01*
X126848Y187699D01*
X126949Y187693D01*
X127050Y187691D01*
X127050Y187692D02*
X129661Y187692D01*
X126528Y187692D02*
X124440Y183515D01*
X113696Y183515D02*
X113696Y192913D01*
X111086Y192913D02*
X116307Y192913D01*
X107468Y192913D02*
X107468Y183515D01*
X107468Y188736D02*
X102247Y188736D01*
X102247Y192913D02*
X102247Y183515D01*
X97237Y183515D02*
X97237Y192913D01*
X98281Y183515D02*
X96193Y183515D01*
X96193Y192913D02*
X98281Y192913D01*
X89705Y183515D02*
X89616Y183517D01*
X89528Y183523D01*
X89440Y183532D01*
X89352Y183545D01*
X89265Y183562D01*
X89179Y183582D01*
X89094Y183607D01*
X89009Y183634D01*
X88926Y183666D01*
X88845Y183700D01*
X88765Y183739D01*
X88687Y183780D01*
X88610Y183825D01*
X88536Y183873D01*
X88463Y183924D01*
X88393Y183978D01*
X88326Y184036D01*
X88260Y184096D01*
X88198Y184158D01*
X88138Y184224D01*
X88080Y184291D01*
X88026Y184361D01*
X87975Y184434D01*
X87927Y184508D01*
X87882Y184585D01*
X87841Y184663D01*
X87802Y184743D01*
X87768Y184824D01*
X87736Y184907D01*
X87709Y184992D01*
X87684Y185077D01*
X87664Y185163D01*
X87647Y185250D01*
X87634Y185338D01*
X87625Y185426D01*
X87619Y185514D01*
X87617Y185603D01*
X89705Y183515D02*
X89834Y183517D01*
X89963Y183523D01*
X90092Y183532D01*
X90220Y183545D01*
X90348Y183562D01*
X90475Y183583D01*
X90602Y183607D01*
X90728Y183635D01*
X90853Y183667D01*
X90977Y183702D01*
X91100Y183741D01*
X91222Y183784D01*
X91342Y183830D01*
X91461Y183880D01*
X91579Y183933D01*
X91695Y183989D01*
X91809Y184049D01*
X91922Y184112D01*
X92032Y184179D01*
X92141Y184248D01*
X92247Y184321D01*
X92352Y184397D01*
X92454Y184476D01*
X92554Y184558D01*
X92651Y184642D01*
X92746Y184730D01*
X92838Y184820D01*
X92576Y190825D02*
X92574Y190914D01*
X92568Y191002D01*
X92559Y191090D01*
X92546Y191178D01*
X92529Y191265D01*
X92509Y191351D01*
X92484Y191436D01*
X92457Y191521D01*
X92425Y191604D01*
X92391Y191685D01*
X92352Y191765D01*
X92311Y191843D01*
X92266Y191920D01*
X92218Y191994D01*
X92167Y192067D01*
X92113Y192137D01*
X92055Y192204D01*
X91995Y192270D01*
X91933Y192332D01*
X91867Y192392D01*
X91800Y192450D01*
X91730Y192504D01*
X91657Y192555D01*
X91583Y192603D01*
X91506Y192648D01*
X91428Y192689D01*
X91348Y192728D01*
X91267Y192762D01*
X91184Y192794D01*
X91099Y192821D01*
X91014Y192846D01*
X90928Y192866D01*
X90841Y192883D01*
X90753Y192896D01*
X90665Y192905D01*
X90577Y192911D01*
X90488Y192913D01*
X90368Y192911D01*
X90248Y192906D01*
X90129Y192896D01*
X90009Y192884D01*
X89890Y192867D01*
X89772Y192847D01*
X89654Y192823D01*
X89538Y192796D01*
X89422Y192765D01*
X89307Y192731D01*
X89193Y192693D01*
X89080Y192651D01*
X88969Y192606D01*
X88859Y192558D01*
X88751Y192507D01*
X88644Y192452D01*
X88539Y192394D01*
X88436Y192332D01*
X88335Y192268D01*
X88235Y192200D01*
X88138Y192130D01*
X91532Y188998D02*
X91610Y189046D01*
X91686Y189098D01*
X91759Y189152D01*
X91830Y189210D01*
X91899Y189271D01*
X91965Y189335D01*
X92028Y189402D01*
X92088Y189471D01*
X92145Y189543D01*
X92199Y189617D01*
X92249Y189694D01*
X92297Y189773D01*
X92340Y189853D01*
X92381Y189936D01*
X92417Y190020D01*
X92450Y190105D01*
X92479Y190192D01*
X92505Y190281D01*
X92527Y190370D01*
X92544Y190460D01*
X92558Y190550D01*
X92568Y190642D01*
X92574Y190733D01*
X92576Y190825D01*
X88660Y187430D02*
X88582Y187382D01*
X88506Y187330D01*
X88433Y187276D01*
X88362Y187218D01*
X88293Y187157D01*
X88227Y187093D01*
X88164Y187026D01*
X88104Y186957D01*
X88047Y186885D01*
X87993Y186811D01*
X87943Y186734D01*
X87895Y186655D01*
X87852Y186575D01*
X87811Y186492D01*
X87775Y186408D01*
X87742Y186323D01*
X87713Y186236D01*
X87687Y186147D01*
X87665Y186058D01*
X87648Y185968D01*
X87634Y185878D01*
X87624Y185786D01*
X87618Y185695D01*
X87616Y185603D01*
X88660Y187431D02*
X91532Y188997D01*
X76294Y183515D02*
X76205Y183517D01*
X76117Y183523D01*
X76029Y183532D01*
X75941Y183545D01*
X75854Y183562D01*
X75768Y183582D01*
X75683Y183607D01*
X75598Y183634D01*
X75515Y183666D01*
X75434Y183700D01*
X75354Y183739D01*
X75276Y183780D01*
X75199Y183825D01*
X75125Y183873D01*
X75052Y183924D01*
X74982Y183978D01*
X74915Y184036D01*
X74849Y184096D01*
X74787Y184158D01*
X74727Y184224D01*
X74669Y184291D01*
X74615Y184361D01*
X74564Y184434D01*
X74516Y184508D01*
X74471Y184585D01*
X74430Y184663D01*
X74391Y184743D01*
X74357Y184824D01*
X74325Y184907D01*
X74298Y184992D01*
X74273Y185077D01*
X74253Y185163D01*
X74236Y185250D01*
X74223Y185338D01*
X74214Y185426D01*
X74208Y185514D01*
X74206Y185603D01*
X76294Y183515D02*
X76423Y183517D01*
X76552Y183523D01*
X76681Y183532D01*
X76809Y183545D01*
X76937Y183562D01*
X77064Y183583D01*
X77191Y183607D01*
X77317Y183635D01*
X77442Y183667D01*
X77566Y183702D01*
X77689Y183741D01*
X77811Y183784D01*
X77931Y183830D01*
X78050Y183880D01*
X78168Y183933D01*
X78284Y183989D01*
X78398Y184049D01*
X78511Y184112D01*
X78621Y184179D01*
X78730Y184248D01*
X78836Y184321D01*
X78941Y184397D01*
X79043Y184476D01*
X79143Y184558D01*
X79240Y184642D01*
X79335Y184730D01*
X79427Y184820D01*
X79165Y190825D02*
X79163Y190914D01*
X79157Y191002D01*
X79148Y191090D01*
X79135Y191178D01*
X79118Y191265D01*
X79098Y191351D01*
X79073Y191436D01*
X79046Y191521D01*
X79014Y191604D01*
X78980Y191685D01*
X78941Y191765D01*
X78900Y191843D01*
X78855Y191920D01*
X78807Y191994D01*
X78756Y192067D01*
X78702Y192137D01*
X78644Y192204D01*
X78584Y192270D01*
X78522Y192332D01*
X78456Y192392D01*
X78389Y192450D01*
X78319Y192504D01*
X78246Y192555D01*
X78172Y192603D01*
X78095Y192648D01*
X78017Y192689D01*
X77937Y192728D01*
X77856Y192762D01*
X77773Y192794D01*
X77688Y192821D01*
X77603Y192846D01*
X77517Y192866D01*
X77430Y192883D01*
X77342Y192896D01*
X77254Y192905D01*
X77166Y192911D01*
X77077Y192913D01*
X76957Y192911D01*
X76837Y192906D01*
X76718Y192896D01*
X76598Y192884D01*
X76479Y192867D01*
X76361Y192847D01*
X76243Y192823D01*
X76127Y192796D01*
X76011Y192765D01*
X75896Y192731D01*
X75782Y192693D01*
X75669Y192651D01*
X75558Y192606D01*
X75448Y192558D01*
X75340Y192507D01*
X75233Y192452D01*
X75128Y192394D01*
X75025Y192332D01*
X74924Y192268D01*
X74824Y192200D01*
X74727Y192130D01*
X78121Y188998D02*
X78199Y189046D01*
X78275Y189098D01*
X78348Y189152D01*
X78419Y189210D01*
X78488Y189271D01*
X78554Y189335D01*
X78617Y189402D01*
X78677Y189471D01*
X78734Y189543D01*
X78788Y189617D01*
X78838Y189694D01*
X78886Y189773D01*
X78929Y189853D01*
X78970Y189936D01*
X79006Y190020D01*
X79039Y190105D01*
X79068Y190192D01*
X79094Y190281D01*
X79116Y190370D01*
X79133Y190460D01*
X79147Y190550D01*
X79157Y190642D01*
X79163Y190733D01*
X79165Y190825D01*
X75249Y187430D02*
X75171Y187382D01*
X75095Y187330D01*
X75022Y187276D01*
X74951Y187218D01*
X74882Y187157D01*
X74816Y187093D01*
X74753Y187026D01*
X74693Y186957D01*
X74636Y186885D01*
X74582Y186811D01*
X74532Y186734D01*
X74484Y186655D01*
X74441Y186575D01*
X74400Y186492D01*
X74364Y186408D01*
X74331Y186323D01*
X74302Y186236D01*
X74276Y186147D01*
X74254Y186058D01*
X74237Y185968D01*
X74223Y185878D01*
X74213Y185786D01*
X74207Y185695D01*
X74205Y185603D01*
X75249Y187431D02*
X78121Y188997D01*
X69805Y192913D02*
X69805Y183515D01*
X68761Y183515D02*
X70850Y183515D01*
X70850Y192913D02*
X68761Y192913D01*
X64796Y192913D02*
X64796Y183515D01*
X64796Y192913D02*
X62185Y192913D01*
X62085Y192911D01*
X61985Y192905D01*
X61886Y192896D01*
X61786Y192882D01*
X61688Y192865D01*
X61590Y192844D01*
X61493Y192820D01*
X61397Y192791D01*
X61302Y192759D01*
X61209Y192724D01*
X61117Y192685D01*
X61026Y192642D01*
X60938Y192596D01*
X60851Y192546D01*
X60766Y192494D01*
X60683Y192438D01*
X60602Y192379D01*
X60524Y192316D01*
X60448Y192251D01*
X60374Y192183D01*
X60304Y192113D01*
X60236Y192039D01*
X60171Y191963D01*
X60108Y191885D01*
X60049Y191804D01*
X59993Y191721D01*
X59941Y191636D01*
X59891Y191549D01*
X59845Y191461D01*
X59802Y191370D01*
X59763Y191278D01*
X59728Y191185D01*
X59696Y191090D01*
X59667Y190994D01*
X59643Y190897D01*
X59622Y190799D01*
X59605Y190701D01*
X59591Y190601D01*
X59582Y190502D01*
X59576Y190402D01*
X59574Y190302D01*
X59575Y190302D02*
X59575Y186126D01*
X59574Y186126D02*
X59576Y186026D01*
X59582Y185926D01*
X59591Y185827D01*
X59605Y185727D01*
X59622Y185629D01*
X59643Y185531D01*
X59667Y185434D01*
X59696Y185338D01*
X59728Y185243D01*
X59763Y185150D01*
X59802Y185058D01*
X59845Y184967D01*
X59891Y184879D01*
X59941Y184792D01*
X59993Y184707D01*
X60049Y184624D01*
X60108Y184543D01*
X60171Y184465D01*
X60236Y184389D01*
X60304Y184315D01*
X60374Y184245D01*
X60448Y184177D01*
X60524Y184112D01*
X60602Y184049D01*
X60683Y183990D01*
X60766Y183934D01*
X60851Y183882D01*
X60938Y183832D01*
X61026Y183786D01*
X61117Y183743D01*
X61209Y183704D01*
X61302Y183669D01*
X61397Y183637D01*
X61493Y183608D01*
X61590Y183584D01*
X61688Y183563D01*
X61786Y183546D01*
X61886Y183532D01*
X61985Y183523D01*
X62085Y183517D01*
X62185Y183515D01*
X64796Y183515D01*
X55025Y183515D02*
X50848Y183515D01*
X55025Y183515D02*
X55025Y192913D01*
X50848Y192913D01*
X51892Y188736D02*
X55025Y188736D01*
X42037Y241173D02*
X42037Y250571D01*
X42037Y246394D02*
X36816Y246394D01*
X36816Y250571D02*
X36816Y241173D01*
X32589Y245872D02*
X32587Y246057D01*
X32580Y246242D01*
X32569Y246426D01*
X32554Y246610D01*
X32534Y246794D01*
X32510Y246978D01*
X32481Y247160D01*
X32448Y247342D01*
X32411Y247523D01*
X32369Y247703D01*
X32323Y247883D01*
X32273Y248061D01*
X32219Y248237D01*
X32160Y248413D01*
X32098Y248587D01*
X32031Y248759D01*
X31960Y248930D01*
X31885Y249099D01*
X31806Y249266D01*
X31776Y249346D01*
X31743Y249425D01*
X31706Y249502D01*
X31666Y249578D01*
X31623Y249652D01*
X31577Y249724D01*
X31527Y249793D01*
X31475Y249861D01*
X31419Y249926D01*
X31361Y249989D01*
X31299Y250048D01*
X31236Y250106D01*
X31169Y250160D01*
X31101Y250211D01*
X31030Y250259D01*
X30957Y250304D01*
X30883Y250346D01*
X30806Y250384D01*
X30728Y250419D01*
X30649Y250451D01*
X30568Y250479D01*
X30486Y250503D01*
X30402Y250524D01*
X30319Y250541D01*
X30234Y250554D01*
X30149Y250563D01*
X30064Y250569D01*
X29978Y250571D01*
X29892Y250569D01*
X29807Y250563D01*
X29722Y250554D01*
X29637Y250541D01*
X29554Y250524D01*
X29470Y250503D01*
X29388Y250479D01*
X29308Y250451D01*
X29228Y250419D01*
X29150Y250384D01*
X29073Y250346D01*
X28999Y250304D01*
X28926Y250259D01*
X28855Y250211D01*
X28787Y250160D01*
X28720Y250106D01*
X28657Y250048D01*
X28596Y249989D01*
X28537Y249926D01*
X28482Y249861D01*
X28429Y249793D01*
X28379Y249724D01*
X28333Y249652D01*
X28290Y249578D01*
X28250Y249502D01*
X28213Y249425D01*
X28180Y249346D01*
X28150Y249266D01*
X28071Y249099D01*
X27996Y248930D01*
X27925Y248759D01*
X27858Y248587D01*
X27796Y248413D01*
X27737Y248237D01*
X27683Y248061D01*
X27633Y247883D01*
X27587Y247703D01*
X27545Y247523D01*
X27508Y247342D01*
X27475Y247160D01*
X27446Y246978D01*
X27422Y246794D01*
X27402Y246610D01*
X27387Y246426D01*
X27376Y246242D01*
X27369Y246057D01*
X27367Y245872D01*
X32588Y245872D02*
X32586Y245687D01*
X32579Y245502D01*
X32568Y245318D01*
X32553Y245134D01*
X32533Y244950D01*
X32509Y244766D01*
X32480Y244584D01*
X32447Y244402D01*
X32410Y244221D01*
X32368Y244041D01*
X32322Y243861D01*
X32272Y243683D01*
X32218Y243507D01*
X32159Y243331D01*
X32097Y243157D01*
X32030Y242985D01*
X31959Y242814D01*
X31884Y242645D01*
X31805Y242478D01*
X31806Y242478D02*
X31776Y242398D01*
X31743Y242319D01*
X31706Y242242D01*
X31666Y242166D01*
X31623Y242092D01*
X31577Y242020D01*
X31527Y241951D01*
X31474Y241883D01*
X31419Y241818D01*
X31360Y241755D01*
X31299Y241696D01*
X31236Y241638D01*
X31169Y241584D01*
X31101Y241533D01*
X31030Y241485D01*
X30957Y241440D01*
X30883Y241398D01*
X30806Y241360D01*
X30728Y241325D01*
X30649Y241293D01*
X30568Y241265D01*
X30486Y241241D01*
X30402Y241220D01*
X30319Y241203D01*
X30234Y241190D01*
X30149Y241181D01*
X30064Y241175D01*
X29978Y241173D01*
X28150Y242478D02*
X28071Y242645D01*
X27996Y242814D01*
X27925Y242985D01*
X27858Y243157D01*
X27796Y243331D01*
X27737Y243507D01*
X27683Y243683D01*
X27633Y243861D01*
X27587Y244041D01*
X27545Y244221D01*
X27508Y244402D01*
X27475Y244584D01*
X27446Y244766D01*
X27422Y244950D01*
X27402Y245134D01*
X27387Y245318D01*
X27376Y245502D01*
X27369Y245687D01*
X27367Y245872D01*
X28150Y242478D02*
X28180Y242398D01*
X28213Y242319D01*
X28250Y242242D01*
X28290Y242166D01*
X28333Y242092D01*
X28379Y242020D01*
X28429Y241951D01*
X28482Y241883D01*
X28537Y241818D01*
X28596Y241755D01*
X28657Y241696D01*
X28720Y241638D01*
X28787Y241584D01*
X28855Y241533D01*
X28926Y241485D01*
X28999Y241440D01*
X29073Y241398D01*
X29150Y241360D01*
X29228Y241325D01*
X29308Y241293D01*
X29388Y241265D01*
X29470Y241241D01*
X29554Y241220D01*
X29637Y241203D01*
X29722Y241190D01*
X29807Y241181D01*
X29892Y241175D01*
X29978Y241173D01*
X32066Y243261D02*
X27889Y248483D01*
X23357Y244828D02*
X17091Y244828D01*
X20224Y241695D02*
X20224Y247960D01*
X91567Y249809D02*
X91567Y240411D01*
X91567Y245632D02*
X86346Y245632D01*
X86346Y249809D02*
X86346Y240411D01*
X82119Y245110D02*
X82117Y245295D01*
X82110Y245480D01*
X82099Y245664D01*
X82084Y245848D01*
X82064Y246032D01*
X82040Y246216D01*
X82011Y246398D01*
X81978Y246580D01*
X81941Y246761D01*
X81899Y246941D01*
X81853Y247121D01*
X81803Y247299D01*
X81749Y247475D01*
X81690Y247651D01*
X81628Y247825D01*
X81561Y247997D01*
X81490Y248168D01*
X81415Y248337D01*
X81336Y248504D01*
X81306Y248584D01*
X81273Y248663D01*
X81236Y248740D01*
X81196Y248816D01*
X81153Y248890D01*
X81107Y248962D01*
X81057Y249031D01*
X81005Y249099D01*
X80949Y249164D01*
X80891Y249227D01*
X80829Y249286D01*
X80766Y249344D01*
X80699Y249398D01*
X80631Y249449D01*
X80560Y249497D01*
X80487Y249542D01*
X80413Y249584D01*
X80336Y249622D01*
X80258Y249657D01*
X80179Y249689D01*
X80098Y249717D01*
X80016Y249741D01*
X79932Y249762D01*
X79849Y249779D01*
X79764Y249792D01*
X79679Y249801D01*
X79594Y249807D01*
X79508Y249809D01*
X79422Y249807D01*
X79337Y249801D01*
X79252Y249792D01*
X79167Y249779D01*
X79084Y249762D01*
X79000Y249741D01*
X78918Y249717D01*
X78838Y249689D01*
X78758Y249657D01*
X78680Y249622D01*
X78603Y249584D01*
X78529Y249542D01*
X78456Y249497D01*
X78385Y249449D01*
X78317Y249398D01*
X78250Y249344D01*
X78187Y249286D01*
X78126Y249227D01*
X78067Y249164D01*
X78012Y249099D01*
X77959Y249031D01*
X77909Y248962D01*
X77863Y248890D01*
X77820Y248816D01*
X77780Y248740D01*
X77743Y248663D01*
X77710Y248584D01*
X77680Y248504D01*
X77601Y248337D01*
X77526Y248168D01*
X77455Y247997D01*
X77388Y247825D01*
X77326Y247651D01*
X77267Y247475D01*
X77213Y247299D01*
X77163Y247121D01*
X77117Y246941D01*
X77075Y246761D01*
X77038Y246580D01*
X77005Y246398D01*
X76976Y246216D01*
X76952Y246032D01*
X76932Y245848D01*
X76917Y245664D01*
X76906Y245480D01*
X76899Y245295D01*
X76897Y245110D01*
X82118Y245110D02*
X82116Y244925D01*
X82109Y244740D01*
X82098Y244556D01*
X82083Y244372D01*
X82063Y244188D01*
X82039Y244004D01*
X82010Y243822D01*
X81977Y243640D01*
X81940Y243459D01*
X81898Y243279D01*
X81852Y243099D01*
X81802Y242921D01*
X81748Y242745D01*
X81689Y242569D01*
X81627Y242395D01*
X81560Y242223D01*
X81489Y242052D01*
X81414Y241883D01*
X81335Y241716D01*
X81336Y241716D02*
X81306Y241636D01*
X81273Y241557D01*
X81236Y241480D01*
X81196Y241404D01*
X81153Y241330D01*
X81107Y241258D01*
X81057Y241189D01*
X81004Y241121D01*
X80949Y241056D01*
X80890Y240993D01*
X80829Y240934D01*
X80766Y240876D01*
X80699Y240822D01*
X80631Y240771D01*
X80560Y240723D01*
X80487Y240678D01*
X80413Y240636D01*
X80336Y240598D01*
X80258Y240563D01*
X80179Y240531D01*
X80098Y240503D01*
X80016Y240479D01*
X79932Y240458D01*
X79849Y240441D01*
X79764Y240428D01*
X79679Y240419D01*
X79594Y240413D01*
X79508Y240411D01*
X77680Y241716D02*
X77601Y241883D01*
X77526Y242052D01*
X77455Y242223D01*
X77388Y242395D01*
X77326Y242569D01*
X77267Y242745D01*
X77213Y242921D01*
X77163Y243099D01*
X77117Y243279D01*
X77075Y243459D01*
X77038Y243640D01*
X77005Y243822D01*
X76976Y244004D01*
X76952Y244188D01*
X76932Y244372D01*
X76917Y244556D01*
X76906Y244740D01*
X76899Y244925D01*
X76897Y245110D01*
X77680Y241716D02*
X77710Y241636D01*
X77743Y241557D01*
X77780Y241480D01*
X77820Y241404D01*
X77863Y241330D01*
X77909Y241258D01*
X77959Y241189D01*
X78012Y241121D01*
X78067Y241056D01*
X78126Y240993D01*
X78187Y240934D01*
X78250Y240876D01*
X78317Y240822D01*
X78385Y240771D01*
X78456Y240723D01*
X78529Y240678D01*
X78603Y240636D01*
X78680Y240598D01*
X78758Y240563D01*
X78838Y240531D01*
X78918Y240503D01*
X79000Y240479D01*
X79084Y240458D01*
X79167Y240441D01*
X79252Y240428D01*
X79337Y240419D01*
X79422Y240413D01*
X79508Y240411D01*
X81596Y242499D02*
X77419Y247721D01*
X72887Y244066D02*
X66621Y244066D01*
X140984Y240919D02*
X145161Y240919D01*
X145161Y250317D01*
X140984Y250317D01*
X142028Y246140D02*
X145161Y246140D01*
X135558Y250317D02*
X135558Y240919D01*
X138168Y250317D02*
X132947Y250317D01*
X128851Y249012D02*
X128930Y248845D01*
X129005Y248676D01*
X129076Y248505D01*
X129143Y248333D01*
X129205Y248159D01*
X129264Y247983D01*
X129318Y247807D01*
X129368Y247629D01*
X129414Y247449D01*
X129456Y247269D01*
X129493Y247088D01*
X129526Y246906D01*
X129555Y246724D01*
X129579Y246540D01*
X129599Y246356D01*
X129614Y246172D01*
X129625Y245988D01*
X129632Y245803D01*
X129634Y245618D01*
X128851Y249012D02*
X128821Y249092D01*
X128788Y249171D01*
X128751Y249248D01*
X128711Y249324D01*
X128668Y249398D01*
X128622Y249470D01*
X128572Y249539D01*
X128520Y249607D01*
X128464Y249672D01*
X128406Y249735D01*
X128344Y249794D01*
X128281Y249852D01*
X128214Y249906D01*
X128146Y249957D01*
X128075Y250005D01*
X128002Y250050D01*
X127928Y250092D01*
X127851Y250130D01*
X127773Y250165D01*
X127694Y250197D01*
X127613Y250225D01*
X127531Y250249D01*
X127447Y250270D01*
X127364Y250287D01*
X127279Y250300D01*
X127194Y250309D01*
X127109Y250315D01*
X127023Y250317D01*
X126937Y250315D01*
X126852Y250309D01*
X126767Y250300D01*
X126682Y250287D01*
X126599Y250270D01*
X126515Y250249D01*
X126433Y250225D01*
X126353Y250197D01*
X126273Y250165D01*
X126195Y250130D01*
X126118Y250092D01*
X126044Y250050D01*
X125971Y250005D01*
X125900Y249957D01*
X125832Y249906D01*
X125765Y249852D01*
X125702Y249794D01*
X125641Y249735D01*
X125582Y249672D01*
X125527Y249607D01*
X125474Y249539D01*
X125424Y249470D01*
X125378Y249398D01*
X125335Y249324D01*
X125295Y249248D01*
X125258Y249171D01*
X125225Y249092D01*
X125195Y249012D01*
X125116Y248845D01*
X125041Y248676D01*
X124970Y248505D01*
X124903Y248333D01*
X124841Y248159D01*
X124782Y247983D01*
X124728Y247807D01*
X124678Y247629D01*
X124632Y247449D01*
X124590Y247269D01*
X124553Y247088D01*
X124520Y246906D01*
X124491Y246724D01*
X124467Y246540D01*
X124447Y246356D01*
X124432Y246172D01*
X124421Y245988D01*
X124414Y245803D01*
X124412Y245618D01*
X129634Y245618D02*
X129632Y245433D01*
X129625Y245248D01*
X129614Y245064D01*
X129599Y244880D01*
X129579Y244696D01*
X129555Y244512D01*
X129526Y244330D01*
X129493Y244148D01*
X129456Y243967D01*
X129414Y243787D01*
X129368Y243607D01*
X129318Y243429D01*
X129264Y243253D01*
X129205Y243077D01*
X129143Y242903D01*
X129076Y242731D01*
X129005Y242560D01*
X128930Y242391D01*
X128851Y242224D01*
X128821Y242144D01*
X128788Y242065D01*
X128751Y241988D01*
X128711Y241912D01*
X128668Y241838D01*
X128622Y241766D01*
X128572Y241697D01*
X128519Y241629D01*
X128464Y241564D01*
X128405Y241501D01*
X128344Y241442D01*
X128281Y241384D01*
X128214Y241330D01*
X128146Y241279D01*
X128075Y241231D01*
X128002Y241186D01*
X127928Y241144D01*
X127851Y241106D01*
X127773Y241071D01*
X127694Y241039D01*
X127613Y241011D01*
X127531Y240987D01*
X127447Y240966D01*
X127364Y240949D01*
X127279Y240936D01*
X127194Y240927D01*
X127109Y240921D01*
X127023Y240919D01*
X125196Y242224D02*
X125117Y242391D01*
X125042Y242560D01*
X124971Y242731D01*
X124904Y242903D01*
X124842Y243077D01*
X124783Y243253D01*
X124729Y243429D01*
X124679Y243607D01*
X124633Y243787D01*
X124591Y243967D01*
X124554Y244148D01*
X124521Y244330D01*
X124492Y244512D01*
X124468Y244696D01*
X124448Y244880D01*
X124433Y245064D01*
X124422Y245248D01*
X124415Y245433D01*
X124413Y245618D01*
X125195Y242224D02*
X125225Y242144D01*
X125258Y242065D01*
X125295Y241988D01*
X125335Y241912D01*
X125378Y241838D01*
X125424Y241766D01*
X125474Y241697D01*
X125527Y241629D01*
X125582Y241564D01*
X125641Y241501D01*
X125702Y241442D01*
X125765Y241384D01*
X125832Y241330D01*
X125900Y241279D01*
X125971Y241231D01*
X126044Y241186D01*
X126118Y241144D01*
X126195Y241106D01*
X126273Y241071D01*
X126353Y241039D01*
X126433Y241011D01*
X126515Y240987D01*
X126599Y240966D01*
X126682Y240949D01*
X126767Y240936D01*
X126852Y240927D01*
X126937Y240921D01*
X127023Y240919D01*
X129112Y243007D02*
X124935Y248229D01*
X191248Y245886D02*
X192814Y245886D01*
X191248Y245886D02*
X191248Y240665D01*
X194381Y240665D01*
X194470Y240667D01*
X194558Y240673D01*
X194646Y240682D01*
X194734Y240695D01*
X194821Y240712D01*
X194907Y240732D01*
X194992Y240757D01*
X195077Y240784D01*
X195160Y240816D01*
X195241Y240850D01*
X195321Y240889D01*
X195399Y240930D01*
X195476Y240975D01*
X195550Y241023D01*
X195623Y241074D01*
X195693Y241128D01*
X195760Y241186D01*
X195826Y241246D01*
X195888Y241308D01*
X195948Y241374D01*
X196006Y241441D01*
X196060Y241511D01*
X196111Y241584D01*
X196159Y241658D01*
X196204Y241735D01*
X196245Y241813D01*
X196284Y241893D01*
X196318Y241974D01*
X196350Y242057D01*
X196377Y242142D01*
X196402Y242227D01*
X196422Y242313D01*
X196439Y242400D01*
X196452Y242488D01*
X196461Y242576D01*
X196467Y242664D01*
X196469Y242753D01*
X196469Y247975D01*
X196467Y248064D01*
X196461Y248152D01*
X196452Y248240D01*
X196439Y248328D01*
X196422Y248415D01*
X196402Y248501D01*
X196377Y248586D01*
X196350Y248671D01*
X196318Y248754D01*
X196284Y248835D01*
X196245Y248915D01*
X196204Y248993D01*
X196159Y249070D01*
X196111Y249144D01*
X196060Y249217D01*
X196006Y249287D01*
X195948Y249354D01*
X195888Y249420D01*
X195826Y249482D01*
X195760Y249542D01*
X195693Y249600D01*
X195623Y249654D01*
X195550Y249705D01*
X195476Y249753D01*
X195399Y249798D01*
X195321Y249839D01*
X195241Y249878D01*
X195160Y249912D01*
X195077Y249944D01*
X194992Y249971D01*
X194907Y249996D01*
X194821Y250016D01*
X194734Y250033D01*
X194646Y250046D01*
X194558Y250055D01*
X194470Y250061D01*
X194381Y250063D01*
X191248Y250063D01*
X186715Y250063D02*
X186715Y240665D01*
X181494Y240665D02*
X186715Y250063D01*
X181494Y250063D02*
X181494Y240665D01*
X176962Y240665D02*
X176962Y250063D01*
X174351Y250063D01*
X174251Y250061D01*
X174151Y250055D01*
X174052Y250046D01*
X173952Y250032D01*
X173854Y250015D01*
X173756Y249994D01*
X173659Y249970D01*
X173563Y249941D01*
X173468Y249909D01*
X173375Y249874D01*
X173283Y249835D01*
X173192Y249792D01*
X173104Y249746D01*
X173017Y249696D01*
X172932Y249644D01*
X172849Y249588D01*
X172768Y249529D01*
X172690Y249466D01*
X172614Y249401D01*
X172540Y249333D01*
X172470Y249263D01*
X172402Y249189D01*
X172337Y249113D01*
X172274Y249035D01*
X172215Y248954D01*
X172159Y248871D01*
X172107Y248786D01*
X172057Y248699D01*
X172011Y248611D01*
X171968Y248520D01*
X171929Y248428D01*
X171894Y248335D01*
X171862Y248240D01*
X171833Y248144D01*
X171809Y248047D01*
X171788Y247949D01*
X171771Y247851D01*
X171757Y247751D01*
X171748Y247652D01*
X171742Y247552D01*
X171740Y247452D01*
X171741Y247452D02*
X171741Y243276D01*
X171740Y243276D02*
X171742Y243176D01*
X171748Y243076D01*
X171757Y242977D01*
X171771Y242877D01*
X171788Y242779D01*
X171809Y242681D01*
X171833Y242584D01*
X171862Y242488D01*
X171894Y242393D01*
X171929Y242300D01*
X171968Y242208D01*
X172011Y242117D01*
X172057Y242029D01*
X172107Y241942D01*
X172159Y241857D01*
X172215Y241774D01*
X172274Y241693D01*
X172337Y241615D01*
X172402Y241539D01*
X172470Y241465D01*
X172540Y241395D01*
X172614Y241327D01*
X172690Y241262D01*
X172768Y241199D01*
X172849Y241140D01*
X172932Y241084D01*
X173017Y241032D01*
X173104Y240982D01*
X173192Y240936D01*
X173283Y240893D01*
X173375Y240854D01*
X173468Y240819D01*
X173563Y240787D01*
X173659Y240758D01*
X173756Y240734D01*
X173854Y240713D01*
X173952Y240696D01*
X174052Y240682D01*
X174151Y240673D01*
X174251Y240667D01*
X174351Y240665D01*
X176962Y240665D01*
D11*
X587899Y121158D02*
X587899Y115570D01*
X587899Y121158D02*
X586346Y121158D01*
X586270Y121156D01*
X586194Y121151D01*
X586118Y121141D01*
X586043Y121128D01*
X585969Y121111D01*
X585895Y121091D01*
X585823Y121067D01*
X585752Y121040D01*
X585682Y121009D01*
X585614Y120975D01*
X585548Y120937D01*
X585484Y120896D01*
X585421Y120853D01*
X585361Y120806D01*
X585304Y120756D01*
X585249Y120703D01*
X585196Y120648D01*
X585146Y120591D01*
X585099Y120531D01*
X585056Y120468D01*
X585015Y120404D01*
X584977Y120338D01*
X584943Y120270D01*
X584912Y120200D01*
X584885Y120129D01*
X584861Y120057D01*
X584841Y119983D01*
X584824Y119909D01*
X584811Y119834D01*
X584801Y119758D01*
X584796Y119682D01*
X584794Y119606D01*
X584794Y117122D01*
X584796Y117046D01*
X584801Y116970D01*
X584811Y116894D01*
X584824Y116819D01*
X584841Y116745D01*
X584861Y116671D01*
X584885Y116599D01*
X584912Y116528D01*
X584943Y116458D01*
X584977Y116390D01*
X585015Y116324D01*
X585056Y116260D01*
X585099Y116197D01*
X585146Y116137D01*
X585196Y116080D01*
X585249Y116025D01*
X585304Y115972D01*
X585361Y115922D01*
X585421Y115875D01*
X585484Y115832D01*
X585548Y115791D01*
X585614Y115753D01*
X585682Y115719D01*
X585752Y115688D01*
X585823Y115661D01*
X585895Y115637D01*
X585969Y115617D01*
X586043Y115600D01*
X586118Y115587D01*
X586194Y115577D01*
X586270Y115572D01*
X586346Y115570D01*
X587899Y115570D01*
X581353Y115570D02*
X579801Y115570D01*
X581353Y115570D02*
X581411Y115572D01*
X581470Y115577D01*
X581527Y115586D01*
X581585Y115599D01*
X581641Y115616D01*
X581696Y115635D01*
X581749Y115659D01*
X581802Y115685D01*
X581852Y115715D01*
X581900Y115748D01*
X581946Y115784D01*
X581990Y115822D01*
X582032Y115864D01*
X582070Y115908D01*
X582106Y115954D01*
X582139Y116002D01*
X582169Y116052D01*
X582195Y116105D01*
X582219Y116158D01*
X582238Y116213D01*
X582255Y116269D01*
X582268Y116327D01*
X582277Y116384D01*
X582282Y116443D01*
X582284Y116501D01*
X582285Y116501D02*
X582285Y118054D01*
X582283Y118124D01*
X582277Y118193D01*
X582267Y118262D01*
X582254Y118330D01*
X582236Y118398D01*
X582215Y118464D01*
X582190Y118529D01*
X582162Y118593D01*
X582130Y118655D01*
X582095Y118715D01*
X582056Y118773D01*
X582014Y118828D01*
X581969Y118882D01*
X581921Y118932D01*
X581871Y118980D01*
X581817Y119025D01*
X581762Y119067D01*
X581704Y119106D01*
X581644Y119141D01*
X581582Y119173D01*
X581518Y119201D01*
X581453Y119226D01*
X581387Y119247D01*
X581319Y119265D01*
X581251Y119278D01*
X581182Y119288D01*
X581113Y119294D01*
X581043Y119296D01*
X580973Y119294D01*
X580904Y119288D01*
X580835Y119278D01*
X580767Y119265D01*
X580699Y119247D01*
X580633Y119226D01*
X580568Y119201D01*
X580504Y119173D01*
X580442Y119141D01*
X580382Y119106D01*
X580324Y119067D01*
X580269Y119025D01*
X580215Y118980D01*
X580165Y118932D01*
X580117Y118882D01*
X580072Y118828D01*
X580030Y118773D01*
X579991Y118715D01*
X579956Y118655D01*
X579924Y118593D01*
X579896Y118529D01*
X579871Y118464D01*
X579850Y118398D01*
X579832Y118330D01*
X579819Y118262D01*
X579809Y118193D01*
X579803Y118124D01*
X579801Y118054D01*
X579801Y117433D01*
X582285Y117433D01*
X577064Y117743D02*
X575512Y117122D01*
X577064Y117743D02*
X577115Y117765D01*
X577164Y117791D01*
X577212Y117820D01*
X577257Y117853D01*
X577300Y117889D01*
X577341Y117927D01*
X577378Y117969D01*
X577413Y118012D01*
X577445Y118058D01*
X577473Y118107D01*
X577498Y118157D01*
X577519Y118208D01*
X577537Y118261D01*
X577551Y118315D01*
X577561Y118370D01*
X577567Y118426D01*
X577570Y118481D01*
X577569Y118537D01*
X577563Y118593D01*
X577554Y118648D01*
X577542Y118702D01*
X577525Y118756D01*
X577505Y118808D01*
X577481Y118858D01*
X577454Y118907D01*
X577423Y118954D01*
X577389Y118998D01*
X577353Y119040D01*
X577313Y119080D01*
X577271Y119116D01*
X577226Y119150D01*
X577179Y119180D01*
X577131Y119207D01*
X577080Y119231D01*
X577028Y119251D01*
X576974Y119267D01*
X576920Y119280D01*
X576865Y119289D01*
X576809Y119294D01*
X576753Y119295D01*
X576754Y119296D02*
X576643Y119292D01*
X576532Y119286D01*
X576422Y119275D01*
X576312Y119261D01*
X576202Y119244D01*
X576093Y119224D01*
X575985Y119200D01*
X575878Y119172D01*
X575771Y119141D01*
X575666Y119107D01*
X575561Y119070D01*
X575458Y119029D01*
X575356Y118985D01*
X575512Y117122D02*
X575461Y117100D01*
X575412Y117074D01*
X575364Y117045D01*
X575319Y117012D01*
X575276Y116976D01*
X575235Y116938D01*
X575198Y116896D01*
X575163Y116853D01*
X575131Y116807D01*
X575103Y116758D01*
X575078Y116708D01*
X575057Y116657D01*
X575039Y116604D01*
X575025Y116550D01*
X575015Y116495D01*
X575009Y116439D01*
X575006Y116384D01*
X575007Y116328D01*
X575013Y116272D01*
X575022Y116217D01*
X575034Y116163D01*
X575051Y116109D01*
X575071Y116057D01*
X575095Y116007D01*
X575122Y115958D01*
X575153Y115911D01*
X575187Y115867D01*
X575223Y115825D01*
X575263Y115785D01*
X575305Y115749D01*
X575350Y115715D01*
X575397Y115685D01*
X575445Y115658D01*
X575496Y115634D01*
X575548Y115614D01*
X575602Y115598D01*
X575656Y115585D01*
X575711Y115576D01*
X575767Y115571D01*
X575823Y115570D01*
X575822Y115570D02*
X575956Y115573D01*
X576090Y115580D01*
X576224Y115591D01*
X576357Y115604D01*
X576490Y115622D01*
X576623Y115642D01*
X576755Y115666D01*
X576886Y115694D01*
X577017Y115724D01*
X577146Y115758D01*
X577275Y115796D01*
X577403Y115836D01*
X577530Y115880D01*
X572813Y115570D02*
X572813Y119295D01*
X572968Y120848D02*
X572968Y121158D01*
X572658Y121158D01*
X572658Y120848D01*
X572968Y120848D01*
X569678Y115570D02*
X568126Y115570D01*
X569678Y115570D02*
X569736Y115572D01*
X569795Y115577D01*
X569852Y115586D01*
X569910Y115599D01*
X569966Y115616D01*
X570021Y115635D01*
X570074Y115659D01*
X570127Y115685D01*
X570177Y115715D01*
X570225Y115748D01*
X570271Y115784D01*
X570315Y115822D01*
X570357Y115864D01*
X570395Y115908D01*
X570431Y115954D01*
X570464Y116002D01*
X570494Y116052D01*
X570520Y116105D01*
X570544Y116158D01*
X570563Y116213D01*
X570580Y116269D01*
X570593Y116327D01*
X570602Y116384D01*
X570607Y116443D01*
X570609Y116501D01*
X570609Y118364D01*
X570607Y118422D01*
X570602Y118481D01*
X570593Y118538D01*
X570580Y118596D01*
X570563Y118652D01*
X570544Y118707D01*
X570520Y118760D01*
X570494Y118813D01*
X570464Y118863D01*
X570431Y118911D01*
X570395Y118957D01*
X570357Y119001D01*
X570315Y119043D01*
X570271Y119081D01*
X570225Y119117D01*
X570177Y119150D01*
X570127Y119180D01*
X570074Y119206D01*
X570021Y119230D01*
X569966Y119249D01*
X569910Y119266D01*
X569852Y119279D01*
X569795Y119288D01*
X569736Y119293D01*
X569678Y119295D01*
X568126Y119295D01*
X568126Y114639D01*
X568128Y114578D01*
X568134Y114517D01*
X568144Y114457D01*
X568158Y114398D01*
X568175Y114340D01*
X568197Y114283D01*
X568222Y114227D01*
X568251Y114174D01*
X568283Y114122D01*
X568318Y114072D01*
X568357Y114025D01*
X568399Y113981D01*
X568443Y113939D01*
X568490Y113900D01*
X568540Y113865D01*
X568591Y113833D01*
X568645Y113804D01*
X568701Y113779D01*
X568758Y113757D01*
X568816Y113740D01*
X568875Y113726D01*
X568935Y113716D01*
X568996Y113710D01*
X569057Y113708D01*
X569057Y113707D02*
X570299Y113707D01*
X565460Y115570D02*
X565460Y119295D01*
X563908Y119295D01*
X563850Y119293D01*
X563791Y119288D01*
X563734Y119279D01*
X563676Y119266D01*
X563620Y119249D01*
X563565Y119230D01*
X563512Y119206D01*
X563459Y119180D01*
X563409Y119150D01*
X563361Y119117D01*
X563315Y119081D01*
X563271Y119043D01*
X563229Y119001D01*
X563191Y118957D01*
X563155Y118911D01*
X563122Y118863D01*
X563092Y118813D01*
X563066Y118760D01*
X563042Y118707D01*
X563023Y118652D01*
X563006Y118596D01*
X562993Y118538D01*
X562984Y118481D01*
X562979Y118422D01*
X562977Y118364D01*
X562976Y118364D02*
X562976Y115570D01*
X557275Y118674D02*
X555723Y118674D01*
X555646Y118672D01*
X555568Y118666D01*
X555492Y118657D01*
X555415Y118643D01*
X555340Y118626D01*
X555266Y118605D01*
X555192Y118580D01*
X555120Y118552D01*
X555050Y118520D01*
X554981Y118485D01*
X554914Y118446D01*
X554849Y118404D01*
X554786Y118359D01*
X554725Y118311D01*
X554667Y118260D01*
X554612Y118206D01*
X554559Y118149D01*
X554510Y118090D01*
X554463Y118028D01*
X554419Y117964D01*
X554379Y117898D01*
X554342Y117830D01*
X554308Y117760D01*
X554278Y117689D01*
X554252Y117616D01*
X554229Y117542D01*
X554210Y117467D01*
X554195Y117392D01*
X554183Y117315D01*
X554175Y117238D01*
X554171Y117161D01*
X554171Y117083D01*
X554175Y117006D01*
X554183Y116929D01*
X554195Y116852D01*
X554210Y116777D01*
X554229Y116702D01*
X554252Y116628D01*
X554278Y116555D01*
X554308Y116484D01*
X554342Y116414D01*
X554379Y116346D01*
X554419Y116280D01*
X554463Y116216D01*
X554510Y116154D01*
X554559Y116095D01*
X554612Y116038D01*
X554667Y115984D01*
X554725Y115933D01*
X554786Y115885D01*
X554849Y115840D01*
X554914Y115798D01*
X554981Y115759D01*
X555050Y115724D01*
X555120Y115692D01*
X555192Y115664D01*
X555266Y115639D01*
X555340Y115618D01*
X555415Y115601D01*
X555492Y115587D01*
X555568Y115578D01*
X555646Y115572D01*
X555723Y115570D01*
X557275Y115570D01*
X557275Y121158D01*
X555723Y121158D01*
X555653Y121156D01*
X555584Y121150D01*
X555515Y121140D01*
X555447Y121127D01*
X555379Y121109D01*
X555313Y121088D01*
X555248Y121063D01*
X555184Y121035D01*
X555122Y121003D01*
X555062Y120968D01*
X555004Y120929D01*
X554949Y120887D01*
X554895Y120842D01*
X554845Y120794D01*
X554797Y120744D01*
X554752Y120690D01*
X554710Y120635D01*
X554671Y120577D01*
X554636Y120517D01*
X554604Y120455D01*
X554576Y120391D01*
X554551Y120326D01*
X554530Y120260D01*
X554512Y120192D01*
X554499Y120124D01*
X554489Y120055D01*
X554483Y119986D01*
X554481Y119916D01*
X554483Y119846D01*
X554489Y119777D01*
X554499Y119708D01*
X554512Y119640D01*
X554530Y119572D01*
X554551Y119506D01*
X554576Y119441D01*
X554604Y119377D01*
X554636Y119315D01*
X554671Y119255D01*
X554710Y119197D01*
X554752Y119142D01*
X554797Y119088D01*
X554845Y119038D01*
X554895Y118990D01*
X554949Y118945D01*
X555004Y118903D01*
X555062Y118864D01*
X555122Y118829D01*
X555184Y118797D01*
X555248Y118769D01*
X555313Y118744D01*
X555379Y118723D01*
X555447Y118705D01*
X555515Y118692D01*
X555584Y118682D01*
X555653Y118676D01*
X555723Y118674D01*
X552293Y113707D02*
X551672Y113707D01*
X549809Y119295D01*
X552293Y119295D02*
X551051Y115570D01*
X543187Y115570D02*
X545050Y121158D01*
X541324Y121158D02*
X543187Y115570D01*
X539347Y115570D02*
X539347Y119295D01*
X539502Y120848D02*
X539502Y121158D01*
X539191Y121158D01*
X539191Y120848D01*
X539502Y120848D01*
X537249Y119295D02*
X537249Y114639D01*
X537251Y114578D01*
X537257Y114517D01*
X537267Y114457D01*
X537281Y114398D01*
X537298Y114340D01*
X537320Y114283D01*
X537345Y114227D01*
X537374Y114174D01*
X537406Y114122D01*
X537441Y114072D01*
X537480Y114025D01*
X537522Y113981D01*
X537566Y113939D01*
X537613Y113900D01*
X537663Y113865D01*
X537714Y113833D01*
X537768Y113804D01*
X537824Y113779D01*
X537881Y113757D01*
X537939Y113740D01*
X537998Y113726D01*
X538058Y113716D01*
X538119Y113710D01*
X538180Y113708D01*
X538180Y113707D02*
X538491Y113707D01*
X537404Y120848D02*
X537404Y121158D01*
X537094Y121158D01*
X537094Y120848D01*
X537404Y120848D01*
X533861Y117743D02*
X532464Y117743D01*
X533861Y117744D02*
X533925Y117742D01*
X533990Y117736D01*
X534053Y117727D01*
X534116Y117714D01*
X534178Y117697D01*
X534239Y117676D01*
X534299Y117652D01*
X534357Y117624D01*
X534414Y117593D01*
X534468Y117559D01*
X534521Y117521D01*
X534571Y117480D01*
X534618Y117437D01*
X534663Y117391D01*
X534705Y117342D01*
X534744Y117291D01*
X534780Y117237D01*
X534813Y117182D01*
X534842Y117124D01*
X534868Y117066D01*
X534891Y117005D01*
X534910Y116944D01*
X534925Y116881D01*
X534936Y116817D01*
X534944Y116754D01*
X534948Y116689D01*
X534948Y116625D01*
X534944Y116560D01*
X534936Y116497D01*
X534925Y116433D01*
X534910Y116370D01*
X534891Y116309D01*
X534868Y116248D01*
X534842Y116190D01*
X534813Y116132D01*
X534780Y116077D01*
X534744Y116023D01*
X534705Y115972D01*
X534663Y115923D01*
X534618Y115877D01*
X534571Y115834D01*
X534521Y115793D01*
X534468Y115755D01*
X534414Y115721D01*
X534357Y115690D01*
X534299Y115662D01*
X534239Y115638D01*
X534178Y115617D01*
X534116Y115600D01*
X534053Y115587D01*
X533990Y115578D01*
X533925Y115572D01*
X533861Y115570D01*
X532464Y115570D01*
X532464Y118364D01*
X532465Y118364D02*
X532467Y118422D01*
X532472Y118481D01*
X532481Y118538D01*
X532494Y118596D01*
X532511Y118652D01*
X532530Y118707D01*
X532554Y118760D01*
X532580Y118813D01*
X532610Y118863D01*
X532643Y118911D01*
X532679Y118957D01*
X532717Y119001D01*
X532759Y119043D01*
X532803Y119081D01*
X532849Y119117D01*
X532897Y119150D01*
X532947Y119180D01*
X533000Y119206D01*
X533053Y119230D01*
X533108Y119249D01*
X533164Y119266D01*
X533222Y119279D01*
X533279Y119288D01*
X533338Y119293D01*
X533396Y119295D01*
X534638Y119295D01*
X530164Y113707D02*
X529543Y113707D01*
X527681Y119295D01*
X530164Y119295D02*
X528923Y115570D01*
X522392Y115570D02*
X522392Y121158D01*
X520840Y121158D01*
X520763Y121156D01*
X520685Y121150D01*
X520609Y121141D01*
X520532Y121127D01*
X520457Y121110D01*
X520383Y121089D01*
X520309Y121064D01*
X520237Y121036D01*
X520167Y121004D01*
X520098Y120969D01*
X520031Y120930D01*
X519966Y120888D01*
X519903Y120843D01*
X519842Y120795D01*
X519784Y120744D01*
X519729Y120690D01*
X519676Y120633D01*
X519627Y120574D01*
X519580Y120512D01*
X519536Y120448D01*
X519496Y120382D01*
X519459Y120314D01*
X519425Y120244D01*
X519395Y120173D01*
X519369Y120100D01*
X519346Y120026D01*
X519327Y119951D01*
X519312Y119876D01*
X519300Y119799D01*
X519292Y119722D01*
X519288Y119645D01*
X519288Y119567D01*
X519292Y119490D01*
X519300Y119413D01*
X519312Y119336D01*
X519327Y119261D01*
X519346Y119186D01*
X519369Y119112D01*
X519395Y119039D01*
X519425Y118968D01*
X519459Y118898D01*
X519496Y118830D01*
X519536Y118764D01*
X519580Y118700D01*
X519627Y118638D01*
X519676Y118579D01*
X519729Y118522D01*
X519784Y118468D01*
X519842Y118417D01*
X519903Y118369D01*
X519966Y118324D01*
X520031Y118282D01*
X520098Y118243D01*
X520167Y118208D01*
X520237Y118176D01*
X520309Y118148D01*
X520383Y118123D01*
X520457Y118102D01*
X520532Y118085D01*
X520609Y118071D01*
X520685Y118062D01*
X520763Y118056D01*
X520840Y118054D01*
X522392Y118054D01*
X520529Y118054D02*
X519288Y115570D01*
X515939Y117743D02*
X514542Y117743D01*
X515939Y117744D02*
X516003Y117742D01*
X516068Y117736D01*
X516131Y117727D01*
X516194Y117714D01*
X516256Y117697D01*
X516317Y117676D01*
X516377Y117652D01*
X516435Y117624D01*
X516492Y117593D01*
X516546Y117559D01*
X516599Y117521D01*
X516649Y117480D01*
X516696Y117437D01*
X516741Y117391D01*
X516783Y117342D01*
X516822Y117291D01*
X516858Y117237D01*
X516891Y117182D01*
X516920Y117124D01*
X516946Y117066D01*
X516969Y117005D01*
X516988Y116944D01*
X517003Y116881D01*
X517014Y116817D01*
X517022Y116754D01*
X517026Y116689D01*
X517026Y116625D01*
X517022Y116560D01*
X517014Y116497D01*
X517003Y116433D01*
X516988Y116370D01*
X516969Y116309D01*
X516946Y116248D01*
X516920Y116190D01*
X516891Y116132D01*
X516858Y116077D01*
X516822Y116023D01*
X516783Y115972D01*
X516741Y115923D01*
X516696Y115877D01*
X516649Y115834D01*
X516599Y115793D01*
X516546Y115755D01*
X516492Y115721D01*
X516435Y115690D01*
X516377Y115662D01*
X516317Y115638D01*
X516256Y115617D01*
X516194Y115600D01*
X516131Y115587D01*
X516068Y115578D01*
X516003Y115572D01*
X515939Y115570D01*
X514542Y115570D01*
X514542Y118364D01*
X514543Y118364D02*
X514545Y118422D01*
X514550Y118481D01*
X514559Y118538D01*
X514572Y118596D01*
X514589Y118652D01*
X514608Y118707D01*
X514632Y118760D01*
X514658Y118813D01*
X514688Y118863D01*
X514721Y118911D01*
X514757Y118957D01*
X514795Y119001D01*
X514837Y119043D01*
X514881Y119081D01*
X514927Y119117D01*
X514975Y119150D01*
X515025Y119180D01*
X515078Y119206D01*
X515131Y119230D01*
X515186Y119249D01*
X515242Y119266D01*
X515300Y119279D01*
X515357Y119288D01*
X515416Y119293D01*
X515474Y119295D01*
X516715Y119295D01*
X511157Y115570D02*
X509605Y115570D01*
X511157Y115570D02*
X511215Y115572D01*
X511274Y115577D01*
X511331Y115586D01*
X511389Y115599D01*
X511445Y115616D01*
X511500Y115635D01*
X511553Y115659D01*
X511606Y115685D01*
X511656Y115715D01*
X511704Y115748D01*
X511750Y115784D01*
X511794Y115822D01*
X511836Y115864D01*
X511874Y115908D01*
X511910Y115954D01*
X511943Y116002D01*
X511973Y116052D01*
X511999Y116105D01*
X512023Y116158D01*
X512042Y116213D01*
X512059Y116269D01*
X512072Y116327D01*
X512081Y116384D01*
X512086Y116443D01*
X512088Y116501D01*
X512088Y118364D01*
X512086Y118422D01*
X512081Y118481D01*
X512072Y118538D01*
X512059Y118596D01*
X512042Y118652D01*
X512023Y118707D01*
X511999Y118760D01*
X511973Y118813D01*
X511943Y118863D01*
X511910Y118911D01*
X511874Y118957D01*
X511836Y119001D01*
X511794Y119043D01*
X511750Y119081D01*
X511704Y119117D01*
X511656Y119150D01*
X511606Y119180D01*
X511553Y119206D01*
X511500Y119230D01*
X511445Y119249D01*
X511389Y119266D01*
X511331Y119279D01*
X511274Y119288D01*
X511215Y119293D01*
X511157Y119295D01*
X509605Y119295D01*
X509605Y114639D01*
X509607Y114578D01*
X509613Y114517D01*
X509623Y114457D01*
X509637Y114398D01*
X509654Y114340D01*
X509676Y114283D01*
X509701Y114227D01*
X509730Y114174D01*
X509762Y114122D01*
X509797Y114072D01*
X509836Y114025D01*
X509878Y113981D01*
X509922Y113939D01*
X509969Y113900D01*
X510019Y113865D01*
X510070Y113833D01*
X510124Y113804D01*
X510180Y113779D01*
X510237Y113757D01*
X510295Y113740D01*
X510354Y113726D01*
X510414Y113716D01*
X510475Y113710D01*
X510536Y113708D01*
X510536Y113707D02*
X511778Y113707D01*
X506939Y115570D02*
X506939Y121158D01*
X506939Y119295D02*
X505386Y119295D01*
X505328Y119293D01*
X505269Y119288D01*
X505212Y119279D01*
X505154Y119266D01*
X505098Y119249D01*
X505043Y119230D01*
X504990Y119206D01*
X504937Y119180D01*
X504887Y119150D01*
X504839Y119117D01*
X504793Y119081D01*
X504749Y119043D01*
X504707Y119001D01*
X504669Y118957D01*
X504633Y118911D01*
X504600Y118863D01*
X504570Y118813D01*
X504544Y118760D01*
X504520Y118707D01*
X504501Y118652D01*
X504484Y118596D01*
X504471Y118538D01*
X504462Y118481D01*
X504457Y118422D01*
X504455Y118364D01*
X504455Y115570D01*
X500943Y117743D02*
X499546Y117743D01*
X500943Y117744D02*
X501007Y117742D01*
X501072Y117736D01*
X501135Y117727D01*
X501198Y117714D01*
X501260Y117697D01*
X501321Y117676D01*
X501381Y117652D01*
X501439Y117624D01*
X501496Y117593D01*
X501550Y117559D01*
X501603Y117521D01*
X501653Y117480D01*
X501700Y117437D01*
X501745Y117391D01*
X501787Y117342D01*
X501826Y117291D01*
X501862Y117237D01*
X501895Y117182D01*
X501924Y117124D01*
X501950Y117066D01*
X501973Y117005D01*
X501992Y116944D01*
X502007Y116881D01*
X502018Y116817D01*
X502026Y116754D01*
X502030Y116689D01*
X502030Y116625D01*
X502026Y116560D01*
X502018Y116497D01*
X502007Y116433D01*
X501992Y116370D01*
X501973Y116309D01*
X501950Y116248D01*
X501924Y116190D01*
X501895Y116132D01*
X501862Y116077D01*
X501826Y116023D01*
X501787Y115972D01*
X501745Y115923D01*
X501700Y115877D01*
X501653Y115834D01*
X501603Y115793D01*
X501550Y115755D01*
X501496Y115721D01*
X501439Y115690D01*
X501381Y115662D01*
X501321Y115638D01*
X501260Y115617D01*
X501198Y115600D01*
X501135Y115587D01*
X501072Y115578D01*
X501007Y115572D01*
X500943Y115570D01*
X499546Y115570D01*
X499546Y118364D01*
X499547Y118364D02*
X499549Y118422D01*
X499554Y118481D01*
X499563Y118538D01*
X499576Y118596D01*
X499593Y118652D01*
X499612Y118707D01*
X499636Y118760D01*
X499662Y118813D01*
X499692Y118863D01*
X499725Y118911D01*
X499761Y118957D01*
X499799Y119001D01*
X499841Y119043D01*
X499885Y119081D01*
X499931Y119117D01*
X499979Y119150D01*
X500029Y119180D01*
X500082Y119206D01*
X500135Y119230D01*
X500190Y119249D01*
X500246Y119266D01*
X500304Y119279D01*
X500361Y119288D01*
X500420Y119293D01*
X500478Y119295D01*
X501719Y119295D01*
X497246Y119295D02*
X496004Y115570D01*
X494763Y119295D01*
X490003Y121158D02*
X488141Y115570D01*
X486278Y121158D01*
X483204Y117743D02*
X481807Y117743D01*
X483204Y117744D02*
X483268Y117742D01*
X483333Y117736D01*
X483396Y117727D01*
X483459Y117714D01*
X483521Y117697D01*
X483582Y117676D01*
X483642Y117652D01*
X483700Y117624D01*
X483757Y117593D01*
X483811Y117559D01*
X483864Y117521D01*
X483914Y117480D01*
X483961Y117437D01*
X484006Y117391D01*
X484048Y117342D01*
X484087Y117291D01*
X484123Y117237D01*
X484156Y117182D01*
X484185Y117124D01*
X484211Y117066D01*
X484234Y117005D01*
X484253Y116944D01*
X484268Y116881D01*
X484279Y116817D01*
X484287Y116754D01*
X484291Y116689D01*
X484291Y116625D01*
X484287Y116560D01*
X484279Y116497D01*
X484268Y116433D01*
X484253Y116370D01*
X484234Y116309D01*
X484211Y116248D01*
X484185Y116190D01*
X484156Y116132D01*
X484123Y116077D01*
X484087Y116023D01*
X484048Y115972D01*
X484006Y115923D01*
X483961Y115877D01*
X483914Y115834D01*
X483864Y115793D01*
X483811Y115755D01*
X483757Y115721D01*
X483700Y115690D01*
X483642Y115662D01*
X483582Y115638D01*
X483521Y115617D01*
X483459Y115600D01*
X483396Y115587D01*
X483333Y115578D01*
X483268Y115572D01*
X483204Y115570D01*
X481807Y115570D01*
X481807Y118364D01*
X481809Y118422D01*
X481814Y118481D01*
X481823Y118538D01*
X481836Y118596D01*
X481853Y118652D01*
X481872Y118707D01*
X481896Y118760D01*
X481922Y118813D01*
X481952Y118863D01*
X481985Y118911D01*
X482021Y118957D01*
X482059Y119001D01*
X482101Y119043D01*
X482145Y119081D01*
X482191Y119117D01*
X482239Y119150D01*
X482289Y119180D01*
X482342Y119206D01*
X482395Y119230D01*
X482450Y119249D01*
X482506Y119266D01*
X482564Y119279D01*
X482621Y119288D01*
X482680Y119293D01*
X482738Y119295D01*
X483980Y119295D01*
X479109Y119295D02*
X479109Y115570D01*
X479109Y119295D02*
X477246Y119295D01*
X477246Y118674D01*
X474426Y117743D02*
X473029Y117743D01*
X474426Y117744D02*
X474490Y117742D01*
X474555Y117736D01*
X474618Y117727D01*
X474681Y117714D01*
X474743Y117697D01*
X474804Y117676D01*
X474864Y117652D01*
X474922Y117624D01*
X474979Y117593D01*
X475033Y117559D01*
X475086Y117521D01*
X475136Y117480D01*
X475183Y117437D01*
X475228Y117391D01*
X475270Y117342D01*
X475309Y117291D01*
X475345Y117237D01*
X475378Y117182D01*
X475407Y117124D01*
X475433Y117066D01*
X475456Y117005D01*
X475475Y116944D01*
X475490Y116881D01*
X475501Y116817D01*
X475509Y116754D01*
X475513Y116689D01*
X475513Y116625D01*
X475509Y116560D01*
X475501Y116497D01*
X475490Y116433D01*
X475475Y116370D01*
X475456Y116309D01*
X475433Y116248D01*
X475407Y116190D01*
X475378Y116132D01*
X475345Y116077D01*
X475309Y116023D01*
X475270Y115972D01*
X475228Y115923D01*
X475183Y115877D01*
X475136Y115834D01*
X475086Y115793D01*
X475033Y115755D01*
X474979Y115721D01*
X474922Y115690D01*
X474864Y115662D01*
X474804Y115638D01*
X474743Y115617D01*
X474681Y115600D01*
X474618Y115587D01*
X474555Y115578D01*
X474490Y115572D01*
X474426Y115570D01*
X473029Y115570D01*
X473029Y118364D01*
X473031Y118422D01*
X473036Y118481D01*
X473045Y118538D01*
X473058Y118596D01*
X473075Y118652D01*
X473094Y118707D01*
X473118Y118760D01*
X473144Y118813D01*
X473174Y118863D01*
X473207Y118911D01*
X473243Y118957D01*
X473281Y119001D01*
X473323Y119043D01*
X473367Y119081D01*
X473413Y119117D01*
X473461Y119150D01*
X473511Y119180D01*
X473564Y119206D01*
X473617Y119230D01*
X473672Y119249D01*
X473728Y119266D01*
X473786Y119279D01*
X473843Y119288D01*
X473902Y119293D01*
X473960Y119295D01*
X475202Y119295D01*
X468091Y121158D02*
X468091Y115570D01*
X469643Y115570D01*
X469701Y115572D01*
X469760Y115577D01*
X469817Y115586D01*
X469875Y115599D01*
X469931Y115616D01*
X469986Y115635D01*
X470039Y115659D01*
X470092Y115685D01*
X470142Y115715D01*
X470190Y115748D01*
X470236Y115784D01*
X470280Y115822D01*
X470322Y115864D01*
X470360Y115908D01*
X470396Y115954D01*
X470429Y116002D01*
X470459Y116052D01*
X470485Y116105D01*
X470509Y116158D01*
X470528Y116213D01*
X470545Y116269D01*
X470558Y116327D01*
X470567Y116384D01*
X470572Y116443D01*
X470574Y116501D01*
X470575Y116501D02*
X470575Y118364D01*
X470574Y118364D02*
X470572Y118422D01*
X470567Y118481D01*
X470558Y118538D01*
X470545Y118596D01*
X470528Y118652D01*
X470509Y118707D01*
X470485Y118760D01*
X470459Y118813D01*
X470429Y118863D01*
X470396Y118911D01*
X470360Y118957D01*
X470322Y119001D01*
X470280Y119043D01*
X470236Y119081D01*
X470190Y119117D01*
X470142Y119150D01*
X470092Y119180D01*
X470039Y119206D01*
X469986Y119230D01*
X469931Y119249D01*
X469875Y119266D01*
X469817Y119279D01*
X469760Y119288D01*
X469701Y119293D01*
X469643Y119295D01*
X468091Y119295D01*
X464551Y117743D02*
X463154Y117743D01*
X464551Y117744D02*
X464615Y117742D01*
X464680Y117736D01*
X464743Y117727D01*
X464806Y117714D01*
X464868Y117697D01*
X464929Y117676D01*
X464989Y117652D01*
X465047Y117624D01*
X465104Y117593D01*
X465158Y117559D01*
X465211Y117521D01*
X465261Y117480D01*
X465308Y117437D01*
X465353Y117391D01*
X465395Y117342D01*
X465434Y117291D01*
X465470Y117237D01*
X465503Y117182D01*
X465532Y117124D01*
X465558Y117066D01*
X465581Y117005D01*
X465600Y116944D01*
X465615Y116881D01*
X465626Y116817D01*
X465634Y116754D01*
X465638Y116689D01*
X465638Y116625D01*
X465634Y116560D01*
X465626Y116497D01*
X465615Y116433D01*
X465600Y116370D01*
X465581Y116309D01*
X465558Y116248D01*
X465532Y116190D01*
X465503Y116132D01*
X465470Y116077D01*
X465434Y116023D01*
X465395Y115972D01*
X465353Y115923D01*
X465308Y115877D01*
X465261Y115834D01*
X465211Y115793D01*
X465158Y115755D01*
X465104Y115721D01*
X465047Y115690D01*
X464989Y115662D01*
X464929Y115638D01*
X464868Y115617D01*
X464806Y115600D01*
X464743Y115587D01*
X464680Y115578D01*
X464615Y115572D01*
X464551Y115570D01*
X463154Y115570D01*
X463154Y118364D01*
X463156Y118422D01*
X463161Y118481D01*
X463170Y118538D01*
X463183Y118596D01*
X463200Y118652D01*
X463219Y118707D01*
X463243Y118760D01*
X463269Y118813D01*
X463299Y118863D01*
X463332Y118911D01*
X463368Y118957D01*
X463406Y119001D01*
X463448Y119043D01*
X463492Y119081D01*
X463538Y119117D01*
X463586Y119150D01*
X463636Y119180D01*
X463689Y119206D01*
X463742Y119230D01*
X463797Y119249D01*
X463853Y119266D01*
X463911Y119279D01*
X463968Y119288D01*
X464027Y119293D01*
X464085Y119295D01*
X465327Y119295D01*
X555250Y112014D02*
X555250Y106426D01*
X555250Y112014D02*
X552766Y112014D01*
X552766Y109530D02*
X555250Y109530D01*
X550529Y110151D02*
X550529Y106426D01*
X550529Y110151D02*
X548666Y110151D01*
X548666Y109530D01*
X545846Y108599D02*
X544449Y108599D01*
X545846Y108600D02*
X545910Y108598D01*
X545975Y108592D01*
X546038Y108583D01*
X546101Y108570D01*
X546163Y108553D01*
X546224Y108532D01*
X546284Y108508D01*
X546342Y108480D01*
X546399Y108449D01*
X546453Y108415D01*
X546506Y108377D01*
X546556Y108336D01*
X546603Y108293D01*
X546648Y108247D01*
X546690Y108198D01*
X546729Y108147D01*
X546765Y108093D01*
X546798Y108038D01*
X546827Y107980D01*
X546853Y107922D01*
X546876Y107861D01*
X546895Y107800D01*
X546910Y107737D01*
X546921Y107673D01*
X546929Y107610D01*
X546933Y107545D01*
X546933Y107481D01*
X546929Y107416D01*
X546921Y107353D01*
X546910Y107289D01*
X546895Y107226D01*
X546876Y107165D01*
X546853Y107104D01*
X546827Y107046D01*
X546798Y106988D01*
X546765Y106933D01*
X546729Y106879D01*
X546690Y106828D01*
X546648Y106779D01*
X546603Y106733D01*
X546556Y106690D01*
X546506Y106649D01*
X546453Y106611D01*
X546399Y106577D01*
X546342Y106546D01*
X546284Y106518D01*
X546224Y106494D01*
X546163Y106473D01*
X546101Y106456D01*
X546038Y106443D01*
X545975Y106434D01*
X545910Y106428D01*
X545846Y106426D01*
X544449Y106426D01*
X544449Y109220D01*
X544451Y109278D01*
X544456Y109337D01*
X544465Y109394D01*
X544478Y109452D01*
X544495Y109508D01*
X544514Y109563D01*
X544538Y109616D01*
X544564Y109669D01*
X544594Y109719D01*
X544627Y109767D01*
X544663Y109813D01*
X544701Y109857D01*
X544743Y109899D01*
X544787Y109937D01*
X544833Y109973D01*
X544881Y110006D01*
X544931Y110036D01*
X544984Y110062D01*
X545037Y110086D01*
X545092Y110105D01*
X545148Y110122D01*
X545206Y110135D01*
X545263Y110144D01*
X545322Y110149D01*
X545380Y110151D01*
X546622Y110151D01*
X541028Y106426D02*
X539786Y106426D01*
X541028Y106426D02*
X541086Y106428D01*
X541145Y106433D01*
X541202Y106442D01*
X541260Y106455D01*
X541316Y106472D01*
X541371Y106491D01*
X541424Y106515D01*
X541477Y106541D01*
X541527Y106571D01*
X541575Y106604D01*
X541621Y106640D01*
X541665Y106678D01*
X541707Y106720D01*
X541745Y106764D01*
X541781Y106810D01*
X541814Y106858D01*
X541844Y106908D01*
X541870Y106961D01*
X541894Y107014D01*
X541913Y107069D01*
X541930Y107125D01*
X541943Y107183D01*
X541952Y107240D01*
X541957Y107299D01*
X541959Y107357D01*
X541960Y107357D02*
X541960Y109220D01*
X541959Y109220D02*
X541957Y109278D01*
X541952Y109337D01*
X541943Y109394D01*
X541930Y109452D01*
X541913Y109508D01*
X541894Y109563D01*
X541870Y109616D01*
X541844Y109669D01*
X541814Y109719D01*
X541781Y109767D01*
X541745Y109813D01*
X541707Y109857D01*
X541665Y109899D01*
X541621Y109937D01*
X541575Y109973D01*
X541527Y110006D01*
X541477Y110036D01*
X541424Y110062D01*
X541371Y110086D01*
X541316Y110105D01*
X541260Y110122D01*
X541202Y110135D01*
X541145Y110144D01*
X541086Y110149D01*
X541028Y110151D01*
X539786Y110151D01*
X537511Y112014D02*
X537511Y106426D01*
X537511Y108289D02*
X535027Y110151D01*
X536424Y109065D02*
X535027Y106426D01*
X533471Y110151D02*
X531609Y110151D01*
X532851Y112014D02*
X532851Y107357D01*
X532850Y107357D02*
X532848Y107299D01*
X532843Y107240D01*
X532834Y107183D01*
X532821Y107125D01*
X532804Y107069D01*
X532785Y107014D01*
X532761Y106961D01*
X532735Y106908D01*
X532705Y106858D01*
X532672Y106810D01*
X532636Y106764D01*
X532598Y106720D01*
X532556Y106678D01*
X532512Y106640D01*
X532466Y106604D01*
X532418Y106571D01*
X532368Y106541D01*
X532315Y106515D01*
X532262Y106491D01*
X532207Y106472D01*
X532151Y106455D01*
X532093Y106442D01*
X532036Y106433D01*
X531977Y106428D01*
X531919Y106426D01*
X531609Y106426D01*
X528473Y108599D02*
X527076Y108599D01*
X528473Y108600D02*
X528537Y108598D01*
X528602Y108592D01*
X528665Y108583D01*
X528728Y108570D01*
X528790Y108553D01*
X528851Y108532D01*
X528911Y108508D01*
X528969Y108480D01*
X529026Y108449D01*
X529080Y108415D01*
X529133Y108377D01*
X529183Y108336D01*
X529230Y108293D01*
X529275Y108247D01*
X529317Y108198D01*
X529356Y108147D01*
X529392Y108093D01*
X529425Y108038D01*
X529454Y107980D01*
X529480Y107922D01*
X529503Y107861D01*
X529522Y107800D01*
X529537Y107737D01*
X529548Y107673D01*
X529556Y107610D01*
X529560Y107545D01*
X529560Y107481D01*
X529556Y107416D01*
X529548Y107353D01*
X529537Y107289D01*
X529522Y107226D01*
X529503Y107165D01*
X529480Y107104D01*
X529454Y107046D01*
X529425Y106988D01*
X529392Y106933D01*
X529356Y106879D01*
X529317Y106828D01*
X529275Y106779D01*
X529230Y106733D01*
X529183Y106690D01*
X529133Y106649D01*
X529080Y106611D01*
X529026Y106577D01*
X528969Y106546D01*
X528911Y106518D01*
X528851Y106494D01*
X528790Y106473D01*
X528728Y106456D01*
X528665Y106443D01*
X528602Y106434D01*
X528537Y106428D01*
X528473Y106426D01*
X527076Y106426D01*
X527076Y109220D01*
X527078Y109278D01*
X527083Y109337D01*
X527092Y109394D01*
X527105Y109452D01*
X527122Y109508D01*
X527141Y109563D01*
X527165Y109616D01*
X527191Y109669D01*
X527221Y109719D01*
X527254Y109767D01*
X527290Y109813D01*
X527328Y109857D01*
X527370Y109899D01*
X527414Y109937D01*
X527460Y109973D01*
X527508Y110006D01*
X527558Y110036D01*
X527611Y110062D01*
X527664Y110086D01*
X527719Y110105D01*
X527775Y110122D01*
X527833Y110135D01*
X527890Y110144D01*
X527949Y110149D01*
X528007Y110151D01*
X529249Y110151D01*
X524523Y112014D02*
X524523Y107357D01*
X524521Y107299D01*
X524516Y107240D01*
X524507Y107183D01*
X524494Y107125D01*
X524477Y107069D01*
X524458Y107014D01*
X524434Y106961D01*
X524408Y106908D01*
X524378Y106858D01*
X524345Y106810D01*
X524309Y106764D01*
X524271Y106720D01*
X524229Y106678D01*
X524185Y106640D01*
X524139Y106604D01*
X524091Y106571D01*
X524041Y106541D01*
X523988Y106515D01*
X523935Y106491D01*
X523880Y106472D01*
X523824Y106455D01*
X523766Y106442D01*
X523709Y106433D01*
X523650Y106428D01*
X523592Y106426D01*
X517643Y106426D02*
X518885Y112014D01*
X516402Y110151D02*
X517643Y106426D01*
X515160Y106426D02*
X516402Y110151D01*
X513918Y112014D02*
X515160Y106426D01*
X511791Y107668D02*
X511791Y108910D01*
X511789Y108980D01*
X511783Y109049D01*
X511773Y109118D01*
X511760Y109186D01*
X511742Y109254D01*
X511721Y109320D01*
X511696Y109385D01*
X511668Y109449D01*
X511636Y109511D01*
X511601Y109571D01*
X511562Y109629D01*
X511520Y109684D01*
X511475Y109738D01*
X511427Y109788D01*
X511377Y109836D01*
X511323Y109881D01*
X511268Y109923D01*
X511210Y109962D01*
X511150Y109997D01*
X511088Y110029D01*
X511024Y110057D01*
X510959Y110082D01*
X510893Y110103D01*
X510825Y110121D01*
X510757Y110134D01*
X510688Y110144D01*
X510619Y110150D01*
X510549Y110152D01*
X510479Y110150D01*
X510410Y110144D01*
X510341Y110134D01*
X510273Y110121D01*
X510205Y110103D01*
X510139Y110082D01*
X510074Y110057D01*
X510010Y110029D01*
X509948Y109997D01*
X509888Y109962D01*
X509830Y109923D01*
X509775Y109881D01*
X509721Y109836D01*
X509671Y109788D01*
X509623Y109738D01*
X509578Y109684D01*
X509536Y109629D01*
X509497Y109571D01*
X509462Y109511D01*
X509430Y109449D01*
X509402Y109385D01*
X509377Y109320D01*
X509356Y109254D01*
X509338Y109186D01*
X509325Y109118D01*
X509315Y109049D01*
X509309Y108980D01*
X509307Y108910D01*
X509308Y108910D02*
X509308Y107668D01*
X509307Y107668D02*
X509309Y107598D01*
X509315Y107529D01*
X509325Y107460D01*
X509338Y107392D01*
X509356Y107324D01*
X509377Y107258D01*
X509402Y107193D01*
X509430Y107129D01*
X509462Y107067D01*
X509497Y107007D01*
X509536Y106949D01*
X509578Y106894D01*
X509623Y106840D01*
X509671Y106790D01*
X509721Y106742D01*
X509775Y106697D01*
X509830Y106655D01*
X509888Y106616D01*
X509948Y106581D01*
X510010Y106549D01*
X510074Y106521D01*
X510139Y106496D01*
X510205Y106475D01*
X510273Y106457D01*
X510341Y106444D01*
X510410Y106434D01*
X510479Y106428D01*
X510549Y106426D01*
X510619Y106428D01*
X510688Y106434D01*
X510757Y106444D01*
X510825Y106457D01*
X510893Y106475D01*
X510959Y106496D01*
X511024Y106521D01*
X511088Y106549D01*
X511150Y106581D01*
X511210Y106616D01*
X511268Y106655D01*
X511323Y106697D01*
X511377Y106742D01*
X511427Y106790D01*
X511475Y106840D01*
X511520Y106894D01*
X511562Y106949D01*
X511601Y107007D01*
X511636Y107067D01*
X511668Y107129D01*
X511696Y107193D01*
X511721Y107258D01*
X511742Y107324D01*
X511760Y107392D01*
X511773Y107460D01*
X511783Y107529D01*
X511789Y107598D01*
X511791Y107668D01*
X506821Y106426D02*
X506821Y110151D01*
X504958Y110151D01*
X504958Y109530D01*
X502947Y112014D02*
X502947Y106426D01*
X502947Y108289D02*
X500463Y110151D01*
X501860Y109065D02*
X500463Y106426D01*
X497975Y108599D02*
X496423Y107978D01*
X497975Y108599D02*
X498026Y108621D01*
X498075Y108647D01*
X498123Y108676D01*
X498168Y108709D01*
X498211Y108745D01*
X498252Y108783D01*
X498289Y108825D01*
X498324Y108868D01*
X498356Y108914D01*
X498384Y108963D01*
X498409Y109013D01*
X498430Y109064D01*
X498448Y109117D01*
X498462Y109171D01*
X498472Y109226D01*
X498478Y109282D01*
X498481Y109337D01*
X498480Y109393D01*
X498474Y109449D01*
X498465Y109504D01*
X498453Y109558D01*
X498436Y109612D01*
X498416Y109664D01*
X498392Y109714D01*
X498365Y109763D01*
X498334Y109810D01*
X498300Y109854D01*
X498264Y109896D01*
X498224Y109936D01*
X498182Y109972D01*
X498137Y110006D01*
X498090Y110036D01*
X498042Y110063D01*
X497991Y110087D01*
X497939Y110107D01*
X497885Y110123D01*
X497831Y110136D01*
X497776Y110145D01*
X497720Y110150D01*
X497664Y110151D01*
X497665Y110152D02*
X497554Y110148D01*
X497443Y110142D01*
X497333Y110131D01*
X497223Y110117D01*
X497113Y110100D01*
X497004Y110080D01*
X496896Y110056D01*
X496789Y110028D01*
X496682Y109997D01*
X496577Y109963D01*
X496472Y109926D01*
X496369Y109885D01*
X496267Y109841D01*
X496423Y107978D02*
X496372Y107956D01*
X496323Y107930D01*
X496275Y107901D01*
X496230Y107868D01*
X496187Y107832D01*
X496146Y107794D01*
X496109Y107752D01*
X496074Y107709D01*
X496042Y107663D01*
X496014Y107614D01*
X495989Y107564D01*
X495968Y107513D01*
X495950Y107460D01*
X495936Y107406D01*
X495926Y107351D01*
X495920Y107295D01*
X495917Y107240D01*
X495918Y107184D01*
X495924Y107128D01*
X495933Y107073D01*
X495945Y107019D01*
X495962Y106965D01*
X495982Y106913D01*
X496006Y106863D01*
X496033Y106814D01*
X496064Y106767D01*
X496098Y106723D01*
X496134Y106681D01*
X496174Y106641D01*
X496216Y106605D01*
X496261Y106571D01*
X496308Y106541D01*
X496356Y106514D01*
X496407Y106490D01*
X496459Y106470D01*
X496513Y106454D01*
X496567Y106441D01*
X496622Y106432D01*
X496678Y106427D01*
X496734Y106426D01*
X496733Y106426D02*
X496867Y106429D01*
X497001Y106436D01*
X497135Y106447D01*
X497268Y106460D01*
X497401Y106478D01*
X497534Y106498D01*
X497666Y106522D01*
X497797Y106550D01*
X497928Y106580D01*
X498057Y106614D01*
X498186Y106652D01*
X498314Y106692D01*
X498441Y106736D01*
D12*
X168984Y122860D02*
X146984Y122860D01*
X118984Y122860D01*
X196984Y122860D02*
X207984Y122860D01*
X196984Y122860D02*
X168984Y122860D01*
X46984Y122860D02*
X18984Y122860D01*
X96984Y122860D02*
X118984Y122860D01*
X96984Y122860D02*
X68984Y122860D01*
X197984Y238860D02*
X197984Y242860D01*
X17984Y242860D02*
X17984Y238860D01*
X186984Y238860D02*
X197984Y238860D01*
X186984Y238860D02*
X178984Y238860D01*
X167984Y238860D01*
X147984Y238860D01*
X136984Y238860D01*
X128984Y238860D01*
X117984Y238860D01*
X97984Y238860D01*
X86984Y238860D01*
X78984Y238860D01*
X67984Y238860D01*
X47984Y238860D01*
X36984Y238860D01*
X28984Y238860D01*
X17984Y238860D01*
X97984Y238860D02*
X97984Y242860D01*
X117984Y242860D02*
X117984Y238860D01*
X117984Y209860D01*
X117984Y206860D01*
X147984Y209860D02*
X147984Y238860D01*
X147984Y209860D02*
X147984Y206860D01*
X147984Y238860D02*
X147984Y242860D01*
X167984Y242860D02*
X167984Y238860D01*
X167984Y209860D01*
X167984Y206860D01*
X197984Y209860D02*
X197984Y238860D01*
X197984Y209860D02*
X197984Y206860D01*
X97984Y206860D02*
X97984Y209860D01*
X97984Y238860D01*
X67984Y209860D02*
X67984Y206860D01*
X67984Y209860D02*
X67984Y238860D01*
X67984Y242860D01*
X47984Y242860D02*
X47984Y238860D01*
X47984Y209860D01*
X47984Y206860D01*
X17984Y206860D02*
X17984Y209860D01*
X17984Y238860D01*
X28984Y238860D02*
X28984Y240860D01*
X36984Y240860D02*
X36984Y238860D01*
X30984Y242860D02*
X30897Y242858D01*
X30810Y242852D01*
X30723Y242843D01*
X30637Y242830D01*
X30551Y242813D01*
X30466Y242792D01*
X30383Y242767D01*
X30300Y242739D01*
X30219Y242708D01*
X30139Y242673D01*
X30061Y242634D01*
X29984Y242592D01*
X29909Y242547D01*
X29837Y242498D01*
X29766Y242447D01*
X29698Y242392D01*
X29633Y242335D01*
X29570Y242274D01*
X29509Y242211D01*
X29452Y242146D01*
X29397Y242078D01*
X29346Y242007D01*
X29297Y241935D01*
X29252Y241860D01*
X29210Y241783D01*
X29171Y241705D01*
X29136Y241625D01*
X29105Y241544D01*
X29077Y241461D01*
X29052Y241378D01*
X29031Y241293D01*
X29014Y241207D01*
X29001Y241121D01*
X28992Y241034D01*
X28986Y240947D01*
X28984Y240860D01*
X34984Y242860D02*
X35071Y242858D01*
X35158Y242852D01*
X35245Y242843D01*
X35331Y242830D01*
X35417Y242813D01*
X35502Y242792D01*
X35585Y242767D01*
X35668Y242739D01*
X35749Y242708D01*
X35829Y242673D01*
X35907Y242634D01*
X35984Y242592D01*
X36059Y242547D01*
X36131Y242498D01*
X36202Y242447D01*
X36270Y242392D01*
X36335Y242335D01*
X36398Y242274D01*
X36459Y242211D01*
X36516Y242146D01*
X36571Y242078D01*
X36622Y242007D01*
X36671Y241935D01*
X36716Y241860D01*
X36758Y241783D01*
X36797Y241705D01*
X36832Y241625D01*
X36863Y241544D01*
X36891Y241461D01*
X36916Y241378D01*
X36937Y241293D01*
X36954Y241207D01*
X36967Y241121D01*
X36976Y241034D01*
X36982Y240947D01*
X36984Y240860D01*
X78984Y240860D02*
X78984Y238860D01*
X86984Y238860D02*
X86984Y240860D01*
X80984Y242860D02*
X80897Y242858D01*
X80810Y242852D01*
X80723Y242843D01*
X80637Y242830D01*
X80551Y242813D01*
X80466Y242792D01*
X80383Y242767D01*
X80300Y242739D01*
X80219Y242708D01*
X80139Y242673D01*
X80061Y242634D01*
X79984Y242592D01*
X79909Y242547D01*
X79837Y242498D01*
X79766Y242447D01*
X79698Y242392D01*
X79633Y242335D01*
X79570Y242274D01*
X79509Y242211D01*
X79452Y242146D01*
X79397Y242078D01*
X79346Y242007D01*
X79297Y241935D01*
X79252Y241860D01*
X79210Y241783D01*
X79171Y241705D01*
X79136Y241625D01*
X79105Y241544D01*
X79077Y241461D01*
X79052Y241378D01*
X79031Y241293D01*
X79014Y241207D01*
X79001Y241121D01*
X78992Y241034D01*
X78986Y240947D01*
X78984Y240860D01*
X84984Y242860D02*
X85071Y242858D01*
X85158Y242852D01*
X85245Y242843D01*
X85331Y242830D01*
X85417Y242813D01*
X85502Y242792D01*
X85585Y242767D01*
X85668Y242739D01*
X85749Y242708D01*
X85829Y242673D01*
X85907Y242634D01*
X85984Y242592D01*
X86059Y242547D01*
X86131Y242498D01*
X86202Y242447D01*
X86270Y242392D01*
X86335Y242335D01*
X86398Y242274D01*
X86459Y242211D01*
X86516Y242146D01*
X86571Y242078D01*
X86622Y242007D01*
X86671Y241935D01*
X86716Y241860D01*
X86758Y241783D01*
X86797Y241705D01*
X86832Y241625D01*
X86863Y241544D01*
X86891Y241461D01*
X86916Y241378D01*
X86937Y241293D01*
X86954Y241207D01*
X86967Y241121D01*
X86976Y241034D01*
X86982Y240947D01*
X86984Y240860D01*
X128984Y240860D02*
X128984Y238860D01*
X136984Y238860D02*
X136984Y240860D01*
X130984Y242860D02*
X130897Y242858D01*
X130810Y242852D01*
X130723Y242843D01*
X130637Y242830D01*
X130551Y242813D01*
X130466Y242792D01*
X130383Y242767D01*
X130300Y242739D01*
X130219Y242708D01*
X130139Y242673D01*
X130061Y242634D01*
X129984Y242592D01*
X129909Y242547D01*
X129837Y242498D01*
X129766Y242447D01*
X129698Y242392D01*
X129633Y242335D01*
X129570Y242274D01*
X129509Y242211D01*
X129452Y242146D01*
X129397Y242078D01*
X129346Y242007D01*
X129297Y241935D01*
X129252Y241860D01*
X129210Y241783D01*
X129171Y241705D01*
X129136Y241625D01*
X129105Y241544D01*
X129077Y241461D01*
X129052Y241378D01*
X129031Y241293D01*
X129014Y241207D01*
X129001Y241121D01*
X128992Y241034D01*
X128986Y240947D01*
X128984Y240860D01*
X134984Y242860D02*
X135071Y242858D01*
X135158Y242852D01*
X135245Y242843D01*
X135331Y242830D01*
X135417Y242813D01*
X135502Y242792D01*
X135585Y242767D01*
X135668Y242739D01*
X135749Y242708D01*
X135829Y242673D01*
X135907Y242634D01*
X135984Y242592D01*
X136059Y242547D01*
X136131Y242498D01*
X136202Y242447D01*
X136270Y242392D01*
X136335Y242335D01*
X136398Y242274D01*
X136459Y242211D01*
X136516Y242146D01*
X136571Y242078D01*
X136622Y242007D01*
X136671Y241935D01*
X136716Y241860D01*
X136758Y241783D01*
X136797Y241705D01*
X136832Y241625D01*
X136863Y241544D01*
X136891Y241461D01*
X136916Y241378D01*
X136937Y241293D01*
X136954Y241207D01*
X136967Y241121D01*
X136976Y241034D01*
X136982Y240947D01*
X136984Y240860D01*
X178984Y240860D02*
X178984Y238860D01*
X186984Y238860D02*
X186984Y240860D01*
X180984Y242860D02*
X180897Y242858D01*
X180810Y242852D01*
X180723Y242843D01*
X180637Y242830D01*
X180551Y242813D01*
X180466Y242792D01*
X180383Y242767D01*
X180300Y242739D01*
X180219Y242708D01*
X180139Y242673D01*
X180061Y242634D01*
X179984Y242592D01*
X179909Y242547D01*
X179837Y242498D01*
X179766Y242447D01*
X179698Y242392D01*
X179633Y242335D01*
X179570Y242274D01*
X179509Y242211D01*
X179452Y242146D01*
X179397Y242078D01*
X179346Y242007D01*
X179297Y241935D01*
X179252Y241860D01*
X179210Y241783D01*
X179171Y241705D01*
X179136Y241625D01*
X179105Y241544D01*
X179077Y241461D01*
X179052Y241378D01*
X179031Y241293D01*
X179014Y241207D01*
X179001Y241121D01*
X178992Y241034D01*
X178986Y240947D01*
X178984Y240860D01*
X184984Y242860D02*
X185071Y242858D01*
X185158Y242852D01*
X185245Y242843D01*
X185331Y242830D01*
X185417Y242813D01*
X185502Y242792D01*
X185585Y242767D01*
X185668Y242739D01*
X185749Y242708D01*
X185829Y242673D01*
X185907Y242634D01*
X185984Y242592D01*
X186059Y242547D01*
X186131Y242498D01*
X186202Y242447D01*
X186270Y242392D01*
X186335Y242335D01*
X186398Y242274D01*
X186459Y242211D01*
X186516Y242146D01*
X186571Y242078D01*
X186622Y242007D01*
X186671Y241935D01*
X186716Y241860D01*
X186758Y241783D01*
X186797Y241705D01*
X186832Y241625D01*
X186863Y241544D01*
X186891Y241461D01*
X186916Y241378D01*
X186937Y241293D01*
X186954Y241207D01*
X186967Y241121D01*
X186976Y241034D01*
X186982Y240947D01*
X186984Y240860D01*
X207984Y137860D02*
X207984Y122860D01*
X68984Y122860D02*
X46984Y122860D01*
X18984Y122860D02*
X7984Y122860D01*
X7984Y137860D01*
X207984Y137860D01*
X207984Y152860D01*
X7984Y152860D02*
X7984Y137860D01*
X7984Y152860D02*
X207984Y152860D01*
X207984Y206860D02*
X207984Y242860D01*
X207984Y206860D02*
X207984Y152860D01*
X7984Y206860D02*
X7984Y242860D01*
X7984Y206860D02*
X7984Y152860D01*
X7984Y242860D02*
X207984Y242860D01*
X11960Y206860D02*
X7984Y206860D01*
X11960Y206860D02*
X16459Y206860D01*
X17984Y206860D01*
X19734Y206860D01*
X46234Y206860D01*
X47984Y206860D01*
X48153Y206860D01*
X48336Y206860D01*
X49510Y206860D01*
X52984Y206860D01*
X54009Y206860D01*
X61960Y206860D01*
X62984Y206860D01*
X66459Y206860D01*
X67633Y206860D01*
X67816Y206860D01*
X67984Y206860D01*
X69734Y206860D01*
X96234Y206860D01*
X97984Y206860D01*
X98153Y206860D01*
X98336Y206860D01*
X99510Y206860D01*
X102984Y206860D01*
X112984Y206860D01*
X116459Y206860D01*
X117633Y206860D01*
X117816Y206860D01*
X117984Y206860D01*
X119734Y206860D01*
X146234Y206860D01*
X147984Y206860D01*
X148153Y206860D01*
X148336Y206860D01*
X149510Y206860D01*
X152984Y206860D01*
X161960Y206860D01*
X162984Y206860D01*
X166459Y206860D01*
X167633Y206860D01*
X167816Y206860D01*
X167984Y206860D01*
X169734Y206860D01*
X196234Y206860D01*
X197984Y206860D01*
X199510Y206860D01*
X204009Y206860D01*
X207984Y206860D01*
M02*
