G04 EAGLE Gerber X2 export*
%TF.Part,Single*%
%TF.FileFunction,Paste,Top*%
%TF.FilePolarity,Positive*%
%TF.GenerationSoftware,Autodesk,EAGLE,9.1.3*%
%TF.CreationDate,2019-04-17T09:40:26Z*%
G75*
%MOMM*%
%FSLAX34Y34*%
%LPD*%
%AMOC8*
5,1,8,0,0,1.08239X$1,22.5*%
G01*
%ADD10R,0.600000X2.200000*%
%ADD11R,1.800000X2.600000*%
%ADD12R,2.209800X0.609600*%
%ADD13R,1.000000X1.100000*%
%ADD14R,1.100000X1.000000*%


D10*
X376978Y277544D03*
X386978Y277544D03*
X366978Y277544D03*
X396978Y277544D03*
D11*
X280978Y301544D03*
X442978Y301544D03*
D10*
X406978Y277544D03*
X416978Y277544D03*
X356978Y277544D03*
X346978Y277544D03*
X336978Y277544D03*
X326978Y277544D03*
X316978Y277544D03*
X306978Y277544D03*
D12*
X195834Y312166D03*
X195834Y299466D03*
X195834Y286766D03*
X195834Y274066D03*
X248158Y274066D03*
X248158Y286766D03*
X248158Y299466D03*
X248158Y312166D03*
D13*
X142494Y323460D03*
X142494Y306460D03*
X118872Y300600D03*
X118872Y283600D03*
X144018Y278756D03*
X144018Y261756D03*
X43688Y322698D03*
X43688Y305698D03*
X42672Y280534D03*
X42672Y263534D03*
X286258Y234832D03*
X286258Y251832D03*
X227076Y218050D03*
X227076Y201050D03*
X72644Y305698D03*
X72644Y322698D03*
X72644Y263280D03*
X72644Y280280D03*
D14*
X113148Y323088D03*
X96148Y323088D03*
X111624Y263398D03*
X94624Y263398D03*
X176902Y297942D03*
X159902Y297942D03*
D13*
X286512Y200288D03*
X286512Y217288D03*
X227076Y251324D03*
X227076Y234324D03*
X257302Y234324D03*
X257302Y251324D03*
X257302Y218050D03*
X257302Y201050D03*
M02*
